<?xml version="1.0" encoding="UTF-8"?>
<svg width="36px" height="36px" viewBox="0 0 36 36" version="1.1" xmlns="http://www.w3.org/2000/svg" xmlns:xlink="http://www.w3.org/1999/xlink">
    <!-- Generator: Sketch 62 (91390) - https://sketch.com -->
    <title>icon-group</title>
    <desc>Created with Sketch.</desc>
    <g id="icon-group" stroke="none" stroke-width="1" fill="none" fill-rule="evenodd">
        <path d="M33.6692411,34.9775355 C33.8197191,35.2090759 33.754005,35.5187631 33.5224645,35.6692411 C33.2909241,35.8197191 32.9812369,35.754005 32.8307589,35.5224645 C30.5584787,32.0261076 25.8805954,31.033526 22.3850644,33.3066761 C21.5001423,33.8820865 20.7445865,34.6376423 20.1691761,35.5225644 C20.0186429,35.754069 19.7089401,35.8197093 19.4774356,35.6691761 C19.245931,35.5186429 19.1802907,35.2089401 19.3308239,34.9774356 C19.9824135,33.9753577 20.8378577,33.1199135 21.8399169,32.468336 C25.7985674,29.8940184 31.095977,31.0180548 33.6692411,34.9775355 Z M15.6692411,34.9775355 C15.8197191,35.2090759 15.754005,35.5187631 15.5224645,35.6692411 C15.2909241,35.8197191 14.9812369,35.754005 14.8307589,35.5224645 C12.5584787,32.0261076 7.88059539,31.033526 4.38506444,33.3066761 C3.50014231,33.8820865 2.74458654,34.6376423 2.16917613,35.5225644 C2.01864294,35.754069 1.70894014,35.8197093 1.47743556,35.6691761 C1.24593097,35.5186429 1.18029069,35.2089401 1.33082387,34.9774356 C1.98241346,33.9753577 2.83785769,33.1199135 3.8399169,32.468336 C7.79856739,29.8940184 13.095977,31.0180548 15.6692411,34.9775355 Z M8.575,19 C11.5436424,19 13.95,21.4063576 13.95,24.375 C13.95,27.3436424 11.5436424,29.75 8.575,29.75 C5.60635763,29.75 3.2,27.3436424 3.2,24.375 C3.2,21.4063576 5.60635763,19 8.575,19 Z M26.575,19 C29.5436424,19 31.95,21.4063576 31.95,24.375 C31.95,27.3436424 29.5436424,29.75 26.575,29.75 C23.6063576,29.75 21.2,27.3436424 21.2,24.375 C21.2,21.4063576 23.6063576,19 26.575,19 Z M4.52004783,22.7311727 L4.50575877,22.7649098 C4.30843695,23.2632312 4.2,23.8064453 4.2,24.375 C4.2,26.7913576 6.15864237,28.75 8.575,28.75 C10.9913576,28.75 12.95,26.7913576 12.95,24.375 L12.9499642,24.4251298 C10.0411832,25.407031 6.82343852,24.7603979 4.52004783,22.7311727 Z M22.5200478,22.7311727 L22.5057588,22.7649098 C22.3084369,23.2632312 22.2,23.8064453 22.2,24.375 C22.2,26.7913576 24.1586424,28.75 26.575,28.75 C28.9913576,28.75 30.95,26.7913576 30.95,24.375 L30.9499642,24.4251298 C28.0411832,25.407031 24.8234385,24.7603979 22.5200478,22.7311727 Z M26.575,20 C25.1078623,20 23.8094633,20.722062 23.0157638,21.8302252 C25.115829,23.792533 28.1465346,24.4013822 30.8407883,23.4030768 C30.3991518,21.4540667 28.6569764,20 26.575,20 Z M8.575,20 C7.10786227,20 5.80946326,20.722062 5.01576377,21.8302252 C7.11582902,23.792533 10.1465346,24.4013822 12.8407883,23.4030768 C12.3991518,21.4540667 10.6569764,20 8.575,20 Z M24.6692411,16.2275355 C24.8197191,16.4590759 24.754005,16.7687631 24.5224645,16.9192411 C24.2909241,17.0697191 23.9812369,17.004005 23.8307589,16.7724645 C21.5584787,13.2761076 16.8805954,12.283526 13.3850644,14.5566761 C12.5001423,15.1320865 11.7445865,15.8876423 11.1691761,16.7725644 C11.0186429,17.004069 10.7089401,17.0697093 10.4774356,16.9191761 C10.245931,16.7686429 10.1802907,16.4589401 10.3308239,16.2274356 C10.9824135,15.2253577 11.8378577,14.3699135 12.8399169,13.718336 C16.7985674,11.1440184 22.095977,12.2680548 24.6692411,16.2275355 Z M17.575,0.25 C20.5436424,0.25 22.95,2.65635763 22.95,5.625 C22.95,8.59364237 20.5436424,11 17.575,11 C14.6063576,11 12.2,8.59364237 12.2,5.625 C12.2,2.65635763 14.6063576,0.25 17.575,0.25 Z M13.5201697,3.98103715 L13.5057588,4.01490978 C13.3084369,4.51323117 13.2,5.05644526 13.2,5.625 C13.2,8.04135763 15.1586424,10 17.575,10 C19.9913576,10 21.95,8.04135763 21.95,5.625 L21.9496279,5.67509317 C21.0662872,5.9726754 20.137211,6.125 19.1995,6.125 C17.1012165,6.125 15.0835874,5.35731483 13.5201697,3.98103715 Z M17.575,1.25 C16.1078623,1.25 14.8094633,1.97206201 14.0157638,3.0802252 C15.4194126,4.39104039 17.2709597,5.125 19.1995,5.125 C20.1036276,5.125 20.9983475,4.96490105 21.8410581,4.65296131 C21.3985571,2.70357035 19.656621,1.25 17.575,1.25 Z" id="Combined-Shape" fill="#737680" fill-rule="nonzero"></path>
    </g>
</svg>