<svg xmlns="http://www.w3.org/2000/svg" version="1.1" xmlns:xlink="http://www.w3.org/1999/xlink" xmlns:svgjs="http://svgjs.com/svgjs" viewBox="0 0 140 140" width="140" height="140"><g transform="matrix(5.833333333333333,0,0,5.833333333333333,0,0)"><path d="M4.929 11.973 A7.000 7.000 0 1 0 18.929 11.973 A7.000 7.000 0 1 0 4.929 11.973 Z" fill="none" stroke="#000000" stroke-linecap="round" stroke-linejoin="round"></path><path d="M6.929,13.973l.723-1.084a.5.5,0,0,1,.693-.139l.71.473a.5.5,0,0,0,.662-.1l1.861-2.235a.5.5,0,0,1,.738-.033l1.226,1.226a.5.5,0,0,0,.737-.034l2.15-2.579" fill="none" stroke="#000000" stroke-linecap="round" stroke-linejoin="round"></path><path d="M23.062,13.555a.5.5,0,0,0,.438-.5V10.941a.5.5,0,0,0-.438-.5l-2.251-.281a8.926,8.926,0,0,0-1.285-3.092l1.395-1.795a.5.5,0,0,0-.041-.66l-1.5-1.5a.5.5,0,0,0-.66-.041l-1.795,1.4a8.947,8.947,0,0,0-3.092-1.286L13.555.938a.5.5,0,0,0-.5-.438H10.941a.5.5,0,0,0-.5.438l-.281,2.25A8.947,8.947,0,0,0,7.072,4.474L5.277,3.079a.5.5,0,0,0-.66.041l-1.5,1.5a.5.5,0,0,0-.041.66l1.4,1.8a8.926,8.926,0,0,0-1.285,3.092l-2.251.281a.5.5,0,0,0-.438.5v2.118a.5.5,0,0,0,.438.5l2.251.281a8.926,8.926,0,0,0,1.285,3.092L3.079,18.723a.5.5,0,0,0,.041.66l1.5,1.5a.5.5,0,0,0,.66.041l1.8-1.395a8.947,8.947,0,0,0,3.092,1.286l.281,2.25a.5.5,0,0,0,.5.438h2.118a.5.5,0,0,0,.5-.438l.281-2.25a8.947,8.947,0,0,0,3.092-1.286l1.795,1.395a.5.5,0,0,0,.66-.041l1.5-1.5a.5.5,0,0,0,.041-.66l-1.395-1.795a8.926,8.926,0,0,0,1.285-3.092Z" fill="none" stroke="#000000" stroke-linecap="round" stroke-linejoin="round"></path></g></svg>