<?xml version="1.0" encoding="UTF-8"?>
<svg width="36px" height="36px" viewBox="0 0 36 36" version="1.1" xmlns="http://www.w3.org/2000/svg" xmlns:xlink="http://www.w3.org/1999/xlink">
    <g id="Archive,-sketches,-bits-and-pcs" stroke="none" stroke-width="1" fill="none" fill-rule="evenodd">
        <g id="scratch" transform="translate(-607.000000, -2318.000000)">
            <g id="icon/logo-circle-github" transform="translate(607.000000, 2318.000000)">
                <g id="Outline_Icons" stroke="#105EF7" stroke-linejoin="round" stroke-width="1.5">
                    <path d="M17.9985,0.75 C8.4735,0.75 0.75,8.472 0.75,18 C0.75,25.623 5.691,32.088 12.5475,34.371 C13.4085,34.527 13.6815,34.017 13.6815,33.5595 C13.6815,33.1485 13.6905,32.004 13.6815,30.564 C8.8845,31.605 7.89,28.2915 7.89,28.2915 C7.107,26.298 5.9775,25.7685 5.9775,25.7685 C4.41,24.6975 6.093,24.72 6.093,24.72 C7.8225,24.84 8.736,26.496 8.736,26.496 C10.275,29.133 12.7725,28.371 13.755,27.93 C13.9125,26.817 14.358,26.0535 14.8515,25.626 C11.0205,25.188 6.9945,23.7105 6.9945,17.097 C6.9945,15.2145 7.6665,13.6755 8.7705,12.468 C8.5935,12.0345 7.9995,10.2795 8.9385,7.905 C8.9385,7.905 10.389,7.44 13.6815,9.675 C15.0585,9.291 16.5345,9.1005 18.0015,9.093 C19.467,9.1005 20.9415,9.291 22.3215,9.675 C25.614,7.443 27.06,7.905 27.06,7.905 C28.0005,10.2795 27.408,12.036 27.231,12.4695 C28.335,13.677 29.0055,15.216 29.0055,17.0985 C29.0055,23.7285 24.9735,25.185 21.129,25.6095 C21.747,26.145 22.3095,27.18 22.3095,28.7895 C22.3095,30.9465 22.3095,32.9985 22.3095,33.5655 C22.3095,34.0275 22.5885,34.536 23.4645,34.3695 C30.3135,32.0835 35.25,25.62 35.25,18 C35.25,8.472 27.528,0.75 17.9985,0.75 Z" id="Path"></path>
                </g>
                <g id="Frames-24px">
                    <rect id="Rectangle" x="0" y="0" width="36" height="36"></rect>
                </g>
            </g>
        </g>
    </g>
</svg>
