<?xml version="1.0" encoding="UTF-8"?>
<svg width="36px" height="36px" viewBox="0 0 36 36" version="1.1" xmlns="http://www.w3.org/2000/svg" xmlns:xlink="http://www.w3.org/1999/xlink">
    <g id="Archive,-sketches,-bits-and-pcs" stroke="none" stroke-width="1" fill="none" fill-rule="evenodd">
        <g id="scratch" transform="translate(-669.000000, -2318.000000)" stroke="#105EF7" stroke-width="1.5">
            <g id="icon/logo-new-google" transform="translate(669.000000, 2318.000000)">
                <path d="M18,35.25 C8.4885,35.25 0.75,27.5115 0.75,18 C0.75,8.4885 8.4885,0.75 18,0.75 C22.743,0.75 27.327,2.733 30.5745,6.192 L26.202,10.3005 C24.0525,8.0115 21.1395,6.75 18,6.75 C11.796,6.75 6.75,11.7975 6.75,18 C6.75,24.204 11.796,29.25 18,29.25 C22.893,29.25 27.0825,26.139 28.6305,21.75 L20.25,21.75 L20.25,15.75 L35.25,15.75 L35.2455,18.906 C34.77,28.0725 27.195,35.25 18,35.25 Z M8.25,12.3 L3.522,8.5185 M8.37,23.742 L3.8205,27.8385 M24.7065,27.0435 L28.7115,31.5495" id="Path-2"></path>
            </g>
        </g>
    </g>
</svg>
