<?xml version="1.0" encoding="UTF-8"?>
<svg width="35px" height="38px" viewBox="0 0 35 38" version="1.1" xmlns="http://www.w3.org/2000/svg" xmlns:xlink="http://www.w3.org/1999/xlink">
    <g id="Archive,-sketches,-bits-and-pcs" stroke="none" stroke-width="1" fill="none" fill-rule="evenodd">
        <g id="scratch" transform="translate(-729.000000, -2317.000000)" fill-rule="nonzero" stroke="#105EF7" stroke-width="1.125">
            <g id="icon/researchgate-logo" transform="translate(730.000000, 2318.000000)">
                <path d="M11.5710698,5.57769767 C14.1159767,5.57769767 16.0938837,6.21690698 17.5085581,7.4972093 C18.9219767,8.77751163 19.629,10.7265349 19.629,13.3423953 C19.629,15.3673953 19.2189767,17.0200465 18.3989302,18.3003488 C17.5788837,19.5806512 16.3067442,20.4038372 14.5818837,20.7705349 L14.5818837,20.8540465 C15.6279767,20.9959535 16.4618372,21.255907 17.084093,21.6351628 C17.7057209,22.0144186 18.1873256,22.5638372 18.5257674,23.280907 C18.8654651,23.9986047 19.0984186,24.9059302 19.2252558,26.0035116 C19.3533488,27.0998372 19.4305814,28.4498372 19.4588372,30.0541395 C19.487093,31.657186 19.5787674,32.8809767 19.7344884,33.7248837 C19.8895814,34.5706744 20.25,35.147093 20.8163721,35.4553953 L20.817,35.707186 L14.1247674,35.707186 C13.8095581,35.2864884 13.6092558,34.8011163 13.5244884,34.2516977 C13.4378372,33.7035349 13.3806977,33.1346512 13.3530698,32.5431628 L13.1854186,26.7620233 C13.128907,25.5796744 12.8356744,24.6528837 12.3057209,23.9766279 C11.7751395,23.3022558 10.8803721,22.963814 9.62393023,22.963814 L6.39774419,22.963814 L6.39774419,35.707186 L0.289465116,35.707186 L0.289465116,5.57769767 L11.5710698,5.57769767 Z M9.28109302,10.0502791 L6.39774419,10.0502791 L6.39774419,18.7430233 L8.94139535,18.7430233 C10.4119535,18.7430233 11.542814,18.3983023 12.3346047,17.7094884 C13.1263953,17.0200465 13.5219767,15.8603023 13.5219767,14.2277442 C13.5219767,11.4436047 12.1085581,10.0502791 9.28109302,10.0502791 Z M32.6511628,15.4014562 L30.3853417,15.4014562 L30.3853417,14.0056737 L30.3426202,14.0056737 C29.9714179,14.5977953 29.526798,15.0281143 29.0065452,15.2956865 C28.485976,15.5638883 27.8628752,15.6976744 27.1362934,15.6976744 C26.1961042,15.6976744 25.4296491,15.5245395 24.8381938,15.1795287 C24.2467386,14.8338884 23.7837642,14.3229829 23.4492708,13.6461826 C23.1135115,12.9693823 22.8891446,12.132983 22.7755371,11.1388736 C22.6612967,10.1441346 22.6046512,8.99200012 22.6046512,7.67995193 C22.6046512,6.4104005 22.6866131,5.29635575 22.8502206,4.3365585 C23.0141445,3.37802042 23.295157,2.57750733 23.6945238,1.93564883 C24.0935741,1.2944199 24.6211054,0.811215974 25.2761682,0.486351835 C25.931231,0.162432069 26.7508507,0 27.7343942,0 C29.4154057,0 30.6271136,0.412061199 31.3679359,1.23775755 C32.1090746,2.06282432 32.4793275,3.24391952 32.4793275,4.78167274 L29.5299625,4.78167274 C29.5299625,4.51347095 29.4976841,4.22764087 29.4334436,3.9244973 C29.3698361,3.62135373 29.2660387,3.34654133 29.1236337,3.09943053 C28.9809123,2.85294931 28.7995833,2.64802048 28.578381,2.48527362 C28.3578115,2.32410071 28.0900902,2.24256989 27.7774322,2.24256989 C27.0356606,2.24256989 26.5018002,2.65148318 26.1742688,3.46962455 C25.8464209,4.28776592 25.6828135,5.64168129 25.6828135,7.53168545 C25.6828135,8.44835635 25.7112945,9.27027521 25.76794,9.99649766 C25.824902,10.7233497 25.9290158,11.3434876 26.0777499,11.8581706 C26.2277498,12.3728537 26.4410408,12.7676014 26.7185722,13.0430433 C26.997053,13.3178557 27.3565464,13.4557341 27.7983182,13.4557341 C27.9831282,13.4557341 28.1866091,13.4059972 28.4071786,13.306838 C28.6280645,13.2089381 28.8350263,13.0609864 29.0271148,12.862983 C29.2192033,12.6656091 29.3796462,12.41598 29.5081271,12.1122068 C29.636608,11.8090633 29.700532,11.4530348 29.700532,11.043492 L29.700532,9.49912815 L27.6698373,9.49912815 L27.6698373,7.25624347 L32.6502134,7.25624347 L32.6511628,15.4014562 L32.6511628,15.4014562 Z" id="Shape"></path>
            </g>
        </g>
    </g>
</svg>
