<?xml version="1.0" encoding="UTF-8"?>
<svg width="25px" height="21px" viewBox="0 0 25 21" version="1.1" xmlns="http://www.w3.org/2000/svg" xmlns:xlink="http://www.w3.org/1999/xlink">
    <!-- Generator: Sketch 61.1 (89650) - https://sketch.com -->
    <title>icon / twitter blue otln</title>
    <desc>Created with Sketch.</desc>
    <g id="Layouts" stroke="none" stroke-width="1" fill="none" fill-rule="evenodd" stroke-linecap="round" stroke-linejoin="round">
        <g id="Blog-&gt;-Details" transform="translate(-234.000000, -1932.000000)" stroke="#E51A66">
            <g id="content" transform="translate(193.000000, 235.000000)">
                <g id="Abstract">
                    <g id="quote-block" transform="translate(2.000000, 1488.000000)">
                        <g id="share-(twitter)" transform="translate(40.000000, 208.000000)">
                            <g id="elements/icons/-twitter-pink-otln" transform="translate(0.000000, 2.000000)">
                                <path d="M24,3.19297137 L21.8181818,2.66153616 L22.9090909,0.535795289 L20.2210909,1.27980459 C18.2476364,-0.5143207 15.1549091,-0.409096527 13.3134545,1.51363609 C12.4625455,2.40219577 11.9934545,3.57347899 12,4.78727702 L12,5.85014746 C8.13927273,6.62604287 4.76290909,4.57470294 1.63636364,1.06723051 C1.09090909,3.90190595 1.63636364,6.02764682 3.27272727,7.44445311 L0,6.91301789 C0.441818182,9.11209682 1.48581818,10.8456385 4.36363636,11.1644996 L1.63636364,12.2273701 C2.72727273,14.3531109 4.43563636,14.6826008 7.09090909,14.8845461 C5.02581818,16.3226098 2.53745455,17.067682 0,17.010287 C13.9145455,23.0356995 21.8181818,14.1788002 21.8181818,6.38158267 L21.8181818,4.97009074 L24,3.19297137 Z" id="Path"></path>
                            </g>
                        </g>
                    </g>
                </g>
            </g>
        </g>
    </g>
</svg>