<?xml version="1.0" encoding="UTF-8"?>
<svg width="36px" height="29px" viewBox="0 0 36 29" version="1.1" xmlns="http://www.w3.org/2000/svg" xmlns:xlink="http://www.w3.org/1999/xlink">
    <g id="Archive,-sketches,-bits-and-pcs" stroke="none" stroke-width="1" fill="none" fill-rule="evenodd">
        <g id="scratch" transform="translate(-484.000000, -2321.000000)">
            <g id="icon/logo-twitter-bird" transform="translate(484.000000, 2318.000000)">
                <path d="M35.1105,7.251 C33.8895,7.7955 32.8605,7.8135 31.7685,7.275 C33.1755,6.432 33.24,5.8395 33.7485,4.2465 C32.4315,5.028 30.972,5.5965 29.4195,5.9025 C28.179,4.5795 26.406,3.75 24.447,3.75 C20.682,3.75 17.631,6.804 17.631,10.566 C17.631,11.1 17.691,11.6205 17.8065,12.12 C12.1425,11.8365 7.119,9.123 3.7575,4.998 C3.171,6.0045 2.835,7.176 2.835,8.4255 C2.835,10.791 4.0395,12.876 5.8665,14.0985 C4.749,14.0625 3.699,13.7565 2.781,13.2465 C2.7795,13.275 2.7795,13.302 2.7795,13.332 C2.7795,16.635 5.1285,19.389 8.2485,20.016 C7.2495,20.2875 6.1965,20.3295 5.169,20.1345 C6.0375,22.8405 8.5545,24.8115 11.5365,24.867 C8.6205,27.153 5.004,28.1055 1.4445,27.6885 C4.4625,29.622 8.043,30.75 11.8935,30.75 C24.4305,30.75 31.2855,20.364 31.2855,11.3565 C31.2855,11.0595 31.281,10.767 31.2675,10.4745 C32.5965,9.5145 34.197,8.619 35.1105,7.251 Z" id="Path" stroke="#105EF7" stroke-width="1.5" stroke-linejoin="round"></path>
                <polygon id="Path" points="0 0 36 0 36 36 0 36"></polygon>
            </g>
        </g>
    </g>
</svg>
