<svg width="1300" height="527" viewBox="0 0 1300 527" fill="none" xmlns="http://www.w3.org/2000/svg">
<path d="M506.944 240.722C497.946 240.722 490.315 239.142 484.073 236.007C477.831 232.872 473.073 228.369 469.775 222.499C466.478 216.653 464.641 209.605 464.264 201.354C464.169 197.393 464.122 193.127 464.122 188.577C464.122 184.027 464.169 179.666 464.264 175.494C464.641 167.361 466.501 160.336 469.846 154.419C473.191 148.525 477.972 143.976 484.214 140.84C490.456 137.705 498.017 136.126 506.92 136.126C513.492 136.126 519.404 136.998 524.633 138.742C529.862 140.487 534.314 142.891 537.988 145.932C541.663 148.973 544.513 152.533 546.562 156.611C548.588 160.666 549.671 165.098 549.765 169.836C549.859 170.708 549.6 171.439 548.964 172.028C548.328 172.618 547.575 172.9 546.703 172.9H532.924C531.864 172.9 530.993 172.641 530.309 172.099C529.626 171.557 529.155 170.661 528.849 169.412C527.295 163.023 524.633 158.662 520.864 156.328C517.096 153.994 512.385 152.839 506.779 152.839C500.302 152.839 495.12 154.655 491.257 158.285C487.394 161.915 485.297 167.903 485.015 176.224C484.732 184.169 484.732 192.302 485.015 200.623C485.297 208.944 487.394 214.932 491.257 218.562C495.12 222.193 500.302 224.008 506.779 224.008C512.385 224.008 517.072 222.829 520.864 220.448C524.633 218.067 527.295 213.753 528.849 207.436C529.132 206.092 529.626 205.149 530.309 204.678C530.993 204.206 531.864 203.947 532.924 203.947H546.703C547.575 203.947 548.328 204.23 548.964 204.819C549.6 205.408 549.859 206.139 549.765 207.011C549.671 211.75 548.611 216.158 546.562 220.236C544.513 224.314 541.686 227.85 537.988 230.915C534.314 233.956 529.862 236.361 524.633 238.105C519.404 239.849 513.515 240.722 506.92 240.722H506.944Z" fill="white"/>
<path d="M598.664 240.722C590.914 240.722 584.413 239.354 579.137 236.667C573.861 233.956 569.833 230.137 567.078 225.187C564.322 220.26 562.744 214.484 562.367 207.907C562.273 206.163 562.225 204.041 562.225 201.519C562.225 198.996 562.273 196.875 562.367 195.13C562.744 188.435 564.369 182.66 567.243 177.78C570.093 172.9 574.167 169.082 579.444 166.371C584.72 163.66 591.126 162.316 598.687 162.316C606.248 162.316 612.631 163.683 617.931 166.371C623.207 169.082 627.258 172.877 630.132 177.78C632.982 182.66 634.607 188.459 634.984 195.13C635.079 196.875 635.126 198.996 635.126 201.519C635.126 204.041 635.079 206.163 634.984 207.907C634.607 214.484 633.029 220.26 630.273 225.187C627.518 230.137 623.49 233.956 618.237 236.667C612.961 239.378 606.46 240.722 598.711 240.722H598.664ZM598.664 226.342C603.799 226.342 607.756 224.715 610.559 221.462C613.362 218.232 614.916 213.447 615.199 207.153C615.293 205.691 615.34 203.805 615.34 201.495C615.34 199.185 615.293 197.276 615.199 195.838C614.916 189.638 613.362 184.899 610.559 181.599C607.756 178.299 603.775 176.672 598.664 176.672C593.553 176.672 589.572 178.322 586.769 181.599C583.966 184.899 582.411 189.638 582.129 195.838C582.035 197.299 581.987 199.185 581.987 201.495C581.987 203.805 582.035 205.715 582.129 207.153C582.411 213.447 583.966 218.209 586.769 221.462C589.572 224.715 593.529 226.342 598.664 226.342Z" fill="white"/>
<path d="M654.699 239.26C653.733 239.26 652.909 238.93 652.226 238.246C651.543 237.563 651.213 236.738 651.213 235.771V167.196C651.213 166.229 651.543 165.404 652.226 164.72C652.909 164.037 653.733 163.707 654.699 163.707H666.594C667.559 163.707 668.384 164.037 669.067 164.72C669.75 165.404 670.08 166.229 670.08 167.196V173.16C672.6 170.048 675.803 167.479 679.737 165.38C683.647 163.306 688.523 162.269 694.317 162.269C700.111 162.269 705.34 163.589 709.698 166.253C714.055 168.916 717.424 172.665 719.779 177.521C722.158 182.353 723.336 188.176 723.336 194.942V235.771C723.336 236.738 723.006 237.563 722.323 238.246C721.64 238.93 720.815 239.26 719.85 239.26H707.083C706.118 239.26 705.293 238.93 704.61 238.246C703.927 237.563 703.597 236.738 703.597 235.771V195.814C703.597 190.203 702.208 185.795 699.452 182.589C696.696 179.407 692.715 177.804 687.486 177.804C682.257 177.804 678.442 179.407 675.45 182.589C672.459 185.795 670.951 190.203 670.951 195.814V235.771C670.951 236.738 670.622 237.563 669.938 238.246C669.255 238.93 668.431 239.26 667.465 239.26H654.699V239.26Z" fill="white"/>
<path d="M851.635 240.722C840.895 240.722 832.368 237.633 826.079 231.434C819.79 225.234 816.398 216.417 815.927 204.984C815.833 204.018 815.786 202.792 815.786 201.283C815.786 199.774 815.833 198.596 815.927 197.723C816.304 190.463 817.976 184.169 820.944 178.841C823.889 173.513 827.987 169.435 833.216 166.559C838.445 163.707 844.593 162.269 851.659 162.269C859.502 162.269 866.074 163.895 871.397 167.125C876.721 170.378 880.748 174.881 883.433 180.633C886.142 186.385 887.508 193.056 887.508 200.599V203.64C887.508 204.607 887.179 205.432 886.496 206.116C885.812 206.799 884.941 207.129 883.881 207.129H835.689V208.284C835.783 211.679 836.443 214.791 837.644 217.643C838.845 220.495 840.636 222.806 843.014 224.55C845.393 226.295 848.22 227.167 851.518 227.167C854.226 227.167 856.487 226.766 858.348 225.941C860.185 225.116 861.693 224.173 862.847 223.112C864.001 222.051 864.826 221.179 865.32 220.495C866.192 219.34 866.898 218.633 867.417 218.397C867.958 218.162 868.736 218.044 869.819 218.044H882.303C883.269 218.044 884.069 218.327 884.705 218.916C885.341 219.505 885.6 220.213 885.506 221.085C885.412 222.641 884.611 224.527 883.104 226.742C881.596 228.982 879.453 231.151 876.65 233.272C873.847 235.394 870.337 237.162 866.121 238.576C861.905 239.991 857.1 240.674 851.682 240.674L851.635 240.722ZM835.666 194.965H867.746V194.517C867.746 190.746 867.11 187.445 865.862 184.64C864.614 181.835 862.753 179.619 860.35 177.969C857.924 176.319 855.027 175.494 851.635 175.494C848.244 175.494 845.346 176.319 842.92 177.969C840.494 179.619 838.681 181.835 837.479 184.64C836.278 187.445 835.666 190.746 835.666 194.517V194.965V194.965Z" fill="white"/>
<path d="M906.352 239.26C905.386 239.26 904.561 238.93 903.878 238.246C903.195 237.563 902.865 236.738 902.865 235.771V167.196C902.865 166.229 903.195 165.404 903.878 164.72C904.561 164.037 905.386 163.707 906.352 163.707H918.246C919.212 163.707 920.037 164.037 920.72 164.72C921.403 165.404 921.732 166.229 921.732 167.196V173.16C924.253 170.048 927.456 167.479 931.39 165.38C935.3 163.306 940.175 162.269 945.97 162.269C951.764 162.269 956.993 163.589 961.35 166.253C965.708 168.916 969.076 172.665 971.432 177.521C973.811 182.353 974.988 188.176 974.988 194.942V235.771C974.988 236.738 974.659 237.563 973.975 238.246C973.292 238.93 972.468 239.26 971.502 239.26H958.736C957.77 239.26 956.946 238.93 956.263 238.246C955.58 237.563 955.25 236.738 955.25 235.771V195.814C955.25 190.203 953.86 185.795 951.104 182.589C948.349 179.407 944.368 177.804 939.139 177.804C933.91 177.804 930.094 179.407 927.103 182.589C924.111 185.795 922.604 190.203 922.604 195.814V235.771C922.604 236.738 922.274 237.563 921.591 238.246C920.908 238.93 920.084 239.26 919.118 239.26H906.352V239.26Z" fill="white"/>
<path d="M1022.03 240.722C1016.21 240.722 1011.26 240.038 1007.14 238.694C1003.02 237.351 999.673 235.653 997.059 233.602C994.444 231.575 992.513 229.524 991.264 227.497C990.016 225.47 989.333 223.772 989.239 222.405C989.145 221.344 989.451 220.496 990.181 219.859C990.911 219.223 991.712 218.916 992.583 218.916H1004.05C1004.43 218.916 1004.78 218.963 1005.07 219.058C1005.35 219.152 1005.75 219.435 1006.22 219.93C1007.47 220.991 1008.81 222.098 1010.23 223.277C1011.62 224.432 1013.29 225.422 1015.24 226.247C1017.17 227.073 1019.6 227.473 1022.5 227.473C1026.27 227.473 1029.45 226.719 1032.01 225.21C1034.58 223.702 1035.85 221.556 1035.85 218.751C1035.85 216.724 1035.29 215.074 1034.18 213.824C1033.07 212.575 1031 211.42 1028.01 210.406C1025.02 209.392 1020.75 208.308 1015.24 207.129C1009.83 205.88 1005.33 204.277 1001.75 202.344C998.166 200.411 995.504 197.983 993.761 195.083C992.018 192.184 991.147 188.789 991.147 184.923C991.147 181.057 992.277 177.544 994.562 174.103C996.823 170.661 1000.21 167.832 1004.71 165.616C1009.21 163.377 1014.8 162.269 1021.48 162.269C1026.71 162.269 1031.26 162.929 1035.12 164.225C1038.99 165.545 1042.21 167.148 1044.78 169.082C1047.35 171.015 1049.3 172.971 1050.67 174.975C1052.01 176.955 1052.74 178.676 1052.83 180.138C1052.93 181.198 1052.65 182.047 1051.96 182.683C1051.28 183.32 1050.5 183.626 1049.63 183.626H1038.89C1038.4 183.626 1037.97 183.532 1037.57 183.344C1037.19 183.155 1036.79 182.896 1036.42 182.613C1035.36 181.646 1034.18 180.633 1032.93 179.572C1031.68 178.511 1030.15 177.568 1028.36 176.743C1026.57 175.918 1024.22 175.517 1021.32 175.517C1017.65 175.517 1014.84 176.319 1012.91 177.922C1010.98 179.525 1010.01 181.528 1010.01 183.956C1010.01 185.607 1010.46 187.021 1011.4 188.247C1012.32 189.449 1014.18 190.604 1016.99 191.665C1019.79 192.726 1024.05 193.834 1029.75 195.012C1036.23 196.168 1041.39 197.888 1045.2 200.175C1049.02 202.462 1051.73 205.055 1053.33 208.025C1054.93 210.972 1055.73 214.249 1055.73 217.832C1055.73 222.193 1054.46 226.106 1051.89 229.595C1049.33 233.084 1045.56 235.818 1040.56 237.799C1035.57 239.779 1029.4 240.769 1022.05 240.769L1022.03 240.722Z" fill="white"/>
<path d="M769.526 240.722C763.708 240.722 758.761 240.038 754.639 238.694C750.517 237.351 747.173 235.653 744.558 233.602C741.944 231.575 740.012 229.524 738.764 227.497C737.516 225.47 736.832 223.772 736.738 222.405C736.644 221.344 736.95 220.496 737.68 219.859C738.411 219.223 739.211 218.916 740.083 218.916H751.554C751.931 218.916 752.284 218.963 752.567 219.058C752.849 219.152 753.25 219.435 753.721 219.93C754.969 220.991 756.312 222.098 757.725 223.277C759.115 224.432 760.787 225.422 762.742 226.247C764.674 227.073 767.1 227.473 769.997 227.473C773.765 227.473 776.945 226.719 779.513 225.21C782.08 223.702 783.352 221.556 783.352 218.751C783.352 216.724 782.787 215.074 781.68 213.824C780.573 212.575 778.5 211.42 775.508 210.406C772.517 209.392 768.254 208.308 762.742 207.129C757.325 205.88 752.826 204.277 749.246 202.344C745.665 200.411 743.004 197.983 741.261 195.083C739.518 192.184 738.646 188.789 738.646 184.923C738.646 181.057 739.777 177.544 742.062 174.103C744.323 170.661 747.715 167.832 752.213 165.616C756.712 163.377 762.295 162.269 768.984 162.269C774.213 162.269 778.759 162.929 782.622 164.225C786.485 165.545 789.712 167.148 792.279 169.082C794.846 171.015 796.801 172.971 798.168 174.975C799.51 176.955 800.24 178.676 800.334 180.138C800.429 181.198 800.146 182.047 799.463 182.683C798.78 183.32 798.003 183.626 797.131 183.626H786.39C785.896 183.626 785.472 183.532 785.071 183.344C784.695 183.155 784.294 182.896 783.917 182.613C782.857 181.646 781.68 180.633 780.431 179.572C779.183 178.511 777.652 177.568 775.862 176.743C774.072 175.918 771.716 175.517 768.819 175.517C765.145 175.517 762.342 176.319 760.41 177.922C758.479 179.525 757.513 181.528 757.513 183.956C757.513 185.607 757.961 187.021 758.903 188.247C759.821 189.449 761.682 190.604 764.485 191.665C767.288 192.726 771.551 193.834 777.251 195.012C783.729 196.168 788.887 197.888 792.703 200.175C796.519 202.462 799.227 205.055 800.829 208.025C802.431 210.972 803.232 214.249 803.232 217.832C803.232 222.193 801.96 226.106 799.392 229.595C796.825 233.084 793.056 235.818 788.063 237.799C783.069 239.779 776.898 240.769 769.549 240.769L769.526 240.722Z" fill="white"/>
<path d="M1098.67 240.722C1092.76 240.722 1087.67 239.402 1083.36 236.738C1079.05 234.074 1075.75 230.302 1073.42 225.399C1071.09 220.519 1069.94 214.72 1069.94 208.049V167.219C1069.94 166.253 1070.26 165.428 1070.95 164.744C1071.63 164.06 1072.46 163.73 1073.42 163.73H1086.19C1087.25 163.73 1088.1 164.06 1088.73 164.744C1089.37 165.428 1089.67 166.253 1089.67 167.219V207.176C1089.67 219.175 1094.95 225.187 1105.5 225.187C1110.54 225.187 1114.52 223.584 1117.47 220.401C1120.41 217.219 1121.9 212.811 1121.9 207.176V167.219C1121.9 166.253 1122.23 165.428 1122.91 164.744C1123.59 164.06 1124.42 163.73 1125.38 163.73H1138.15C1139.11 163.73 1139.94 164.06 1140.62 164.744C1141.3 165.428 1141.63 166.253 1141.63 167.219V235.795C1141.63 236.761 1141.3 237.586 1140.62 238.27C1139.94 238.954 1139.11 239.284 1138.15 239.284H1126.39C1125.33 239.284 1124.49 238.954 1123.85 238.27C1123.21 237.586 1122.91 236.761 1122.91 235.795V229.831C1120.29 233.225 1117.04 235.889 1113.18 237.822C1109.32 239.755 1104.47 240.722 1098.67 240.722Z" fill="white"/>
<path d="M1189.4 240.722C1183.58 240.722 1178.64 240.038 1174.52 238.694C1170.39 237.351 1167.05 235.653 1164.43 233.602C1161.82 231.575 1159.89 229.524 1158.64 227.497C1157.39 225.47 1156.71 223.772 1156.61 222.405C1156.52 221.344 1156.83 220.496 1157.56 219.859C1158.29 219.223 1159.09 218.916 1159.96 218.916H1171.43C1171.81 218.916 1172.16 218.963 1172.44 219.058C1172.73 219.152 1173.13 219.435 1173.6 219.93C1174.85 220.991 1176.19 222.098 1177.6 223.277C1178.99 224.432 1180.66 225.422 1182.62 226.247C1184.55 227.073 1186.98 227.473 1189.87 227.473C1193.64 227.473 1196.82 226.719 1199.39 225.21C1201.96 223.702 1203.23 221.556 1203.23 218.751C1203.23 216.724 1202.66 215.074 1201.56 213.824C1200.45 212.575 1198.38 211.42 1195.38 210.406C1192.39 209.392 1188.13 208.308 1182.62 207.129C1177.2 205.88 1172.7 204.277 1169.12 202.344C1165.54 200.411 1162.88 197.983 1161.14 195.083C1159.39 192.184 1158.52 188.789 1158.52 184.923C1158.52 181.057 1159.65 177.544 1161.94 174.103C1164.2 170.661 1167.59 167.832 1172.09 165.616C1176.59 163.4 1182.17 162.269 1188.86 162.269C1194.09 162.269 1198.64 162.929 1202.5 164.225C1206.36 165.545 1209.59 167.148 1212.16 169.082C1214.72 171.015 1216.68 172.971 1218.04 174.975C1219.39 176.955 1220.12 178.676 1220.21 180.138C1220.31 181.198 1220.02 182.047 1219.34 182.683C1218.66 183.32 1217.88 183.626 1217.01 183.626H1206.27C1205.77 183.626 1205.35 183.532 1204.95 183.344C1204.57 183.155 1204.17 182.896 1203.79 182.613C1202.73 181.646 1201.56 180.633 1200.31 179.572C1199.06 178.511 1197.53 177.568 1195.74 176.743C1193.95 175.918 1191.59 175.517 1188.7 175.517C1185.02 175.517 1182.22 176.319 1180.29 177.922C1178.36 179.525 1177.39 181.528 1177.39 183.956C1177.39 185.607 1177.84 187.021 1178.78 188.247C1179.7 189.449 1181.56 190.604 1184.36 191.665C1187.16 192.726 1191.43 193.834 1197.13 195.012C1203.61 196.168 1208.76 197.888 1212.58 200.175C1216.4 202.462 1219.1 205.055 1220.71 208.025C1222.31 210.972 1223.11 214.249 1223.11 217.832C1223.11 222.193 1221.84 226.106 1219.27 229.595C1216.7 233.084 1212.93 235.818 1207.94 237.799C1202.95 239.779 1196.77 240.769 1189.43 240.769L1189.4 240.722Z" fill="white"/>
<path d="M471.236 388.74C470.27 388.74 469.446 388.41 468.763 387.727C468.08 387.043 467.75 386.218 467.75 385.251V290.533C467.75 289.566 468.08 288.741 468.763 288.057C469.446 287.374 470.27 287.044 471.236 287.044H484.732C485.698 287.044 486.522 287.374 487.205 288.057C487.889 288.741 488.218 289.566 488.218 290.533V371.437H534.22C535.28 371.437 536.151 371.767 536.834 372.451C537.517 373.134 537.847 374.007 537.847 375.068V385.228C537.847 386.194 537.517 387.019 536.834 387.703C536.151 388.387 535.28 388.717 534.22 388.717H471.212L471.236 388.74Z" fill="white"/>
<path d="M572.095 390.202C567.054 390.202 562.508 389.212 558.457 387.231C554.405 385.251 551.178 382.587 548.799 379.24C546.421 375.893 545.243 372.144 545.243 367.972C545.243 361.206 547.975 355.784 553.44 351.777C558.904 347.769 566.135 345.058 575.133 343.715L595.013 340.815V337.751C595.013 333.696 594 330.537 591.974 328.298C589.949 326.058 586.463 324.95 581.516 324.95C578.03 324.95 575.204 325.657 573.013 327.048C570.846 328.463 569.221 330.325 568.161 332.635C567.384 333.884 566.277 334.521 564.816 334.521H553.345C552.285 334.521 551.485 334.238 550.943 333.649C550.401 333.059 550.142 332.281 550.142 331.315C550.236 329.759 550.872 327.873 552.026 325.657C553.181 323.441 555.018 321.273 557.538 319.198C560.058 317.124 563.285 315.356 567.266 313.894C571.223 312.432 576.028 311.725 581.634 311.725C587.735 311.725 592.893 312.48 597.086 313.965C601.302 315.473 604.646 317.477 607.167 320C609.687 322.522 611.524 325.469 612.678 328.863C613.833 332.258 614.421 335.841 614.421 339.613V385.228C614.421 386.194 614.092 387.019 613.409 387.703C612.725 388.387 611.901 388.717 610.935 388.717H599.182C598.122 388.717 597.274 388.387 596.638 387.703C596.002 387.019 595.696 386.194 595.696 385.228V379.57C594.447 381.409 592.752 383.13 590.608 384.733C588.465 386.336 585.897 387.632 582.835 388.646C579.773 389.66 576.169 390.178 572.024 390.178L572.095 390.202ZM577.041 376.411C580.433 376.411 583.495 375.68 586.251 374.242C589.006 372.804 591.173 370.541 592.775 367.5C594.377 364.436 595.178 360.593 595.178 355.949V352.908L580.668 355.242C574.968 356.114 570.705 357.529 567.902 359.462C565.099 361.395 563.686 363.776 563.686 366.581C563.686 368.703 564.345 370.518 565.641 372.027C566.96 373.535 568.609 374.643 570.658 375.374C572.707 376.105 574.827 376.458 577.041 376.458V376.411Z" fill="white"/>
<path d="M672.506 390.202C666.9 390.202 662.213 389.235 658.491 387.302C654.77 385.369 651.684 382.894 649.281 379.9V385.275C649.281 386.241 648.952 387.066 648.339 387.75C647.703 388.434 646.855 388.764 645.796 388.764H634.325C633.359 388.764 632.535 388.434 631.851 387.75C631.168 387.066 630.839 386.241 630.839 385.275V289.095C630.839 288.128 631.168 287.303 631.851 286.619C632.535 285.936 633.359 285.606 634.325 285.606H646.667C647.727 285.606 648.575 285.959 649.211 286.619C649.847 287.303 650.153 288.128 650.153 289.095V321.343C652.579 318.538 655.594 316.228 659.221 314.436C662.849 312.645 667.277 311.749 672.506 311.749C677.735 311.749 682.092 312.621 685.861 314.366C689.63 316.11 692.81 318.562 695.377 321.697C697.944 324.856 699.899 328.51 701.266 332.659C702.632 336.808 703.338 341.334 703.456 346.166C703.55 347.911 703.597 349.49 703.597 350.881C703.597 352.272 703.55 353.851 703.456 355.596C703.268 360.64 702.49 365.261 701.124 369.457C699.758 373.677 697.827 377.331 695.33 380.419C692.81 383.53 689.677 385.911 685.885 387.609C682.116 389.306 677.664 390.155 672.529 390.155L672.506 390.202ZM667.136 374.667C671.305 374.667 674.532 373.771 676.863 371.979C679.195 370.188 680.844 367.83 681.88 364.931C682.917 362.031 683.506 358.825 683.694 355.336C683.883 352.437 683.883 349.537 683.694 346.614C683.506 343.125 682.893 339.943 681.88 337.02C680.868 334.12 679.195 331.763 676.863 329.971C674.532 328.18 671.305 327.284 667.136 327.284C663.273 327.284 660.116 328.156 657.69 329.901C655.264 331.645 653.427 333.837 652.179 336.501C650.93 339.165 650.247 341.947 650.153 344.846C650.059 346.591 650.012 348.453 650.012 350.433C650.012 352.413 650.059 354.276 650.153 356.02C650.341 359.014 651.001 361.961 652.108 364.813C653.215 367.665 655.005 370.023 657.478 371.862C659.952 373.7 663.155 374.62 667.136 374.62V374.667Z" fill="white"/>
<path d="M314.718 77.8989L253.077 103.453C250.722 104.419 250.722 107.767 253.077 108.757L314.718 134.311C317.286 135.371 320.183 135.371 322.774 134.311L384.415 108.757C386.77 107.79 386.77 104.443 384.415 103.453L322.75 77.8989C320.183 76.8381 317.286 76.8381 314.695 77.8989H314.718Z" fill="white"/>
<path d="M226.084 326.671L162.77 300.41C160.886 299.632 158.813 301.023 158.813 303.05V350.457C158.813 351.612 159.496 352.649 160.58 353.097L223.893 379.711C225.778 380.513 227.874 379.122 227.874 377.071V329.311C227.874 328.156 227.167 327.095 226.107 326.671H226.084Z" fill="white"/>
<path d="M242.407 260.028V307.788C242.407 309.839 244.503 311.23 246.388 310.429L309.701 283.814C310.761 283.366 311.468 282.329 311.468 281.174V233.767C311.468 231.717 309.395 230.326 307.511 231.127L244.197 257.388C243.137 257.836 242.431 258.873 242.431 260.028H242.407Z" fill="white"/>
<path d="M242.407 398.57V446.33C242.407 448.381 244.503 449.772 246.388 448.971L309.701 422.356C310.761 421.908 311.468 420.871 311.468 419.716V372.309C311.468 370.258 309.395 368.868 307.511 369.669L244.197 395.93C243.137 396.378 242.431 397.415 242.431 398.57H242.407Z" fill="white"/>
<path d="M242.76 124.009V171.415C242.76 172.57 243.443 173.608 244.527 174.056L307.841 200.67C309.725 201.472 311.821 200.081 311.821 198.03V150.27C311.821 149.115 311.115 148.054 310.055 147.63L246.741 121.369C244.857 120.591 242.784 121.982 242.784 124.009H242.76Z" fill="white"/>
<path d="M300.798 213.164L161.71 155.574C159.143 154.513 156.246 154.513 153.678 155.574L92.0136 181.128C89.6582 182.094 89.6582 185.442 92.0136 186.432L231.101 244.022C233.668 245.083 236.565 245.083 239.133 244.022L300.774 218.468C303.13 217.502 303.13 214.154 300.774 213.164H300.798Z" fill="white"/>
<path d="M326.001 150.27V290.815C326.001 291.971 325.294 293.031 324.234 293.456L244.174 326.647C243.114 327.095 242.407 328.132 242.407 329.288V377.048C242.407 379.099 244.48 380.489 246.364 379.688L393.295 318.774C394.355 318.326 395.061 317.289 395.061 316.134V124.009C395.061 121.958 392.989 120.567 391.104 121.369L327.791 147.63C326.731 148.077 326.024 149.115 326.024 150.27H326.001Z" fill="white"/>
<path d="M227.851 307.812V260.052C227.851 258.897 227.144 257.836 226.084 257.412L80.8491 197.181C78.9647 196.403 76.892 197.794 76.892 199.822V385.322C76.892 386.477 77.575 387.514 78.6585 387.962L223.893 448.971C225.778 449.772 227.874 448.381 227.874 446.33V398.57C227.874 397.415 227.167 396.354 226.108 395.93L147.743 363.422C146.683 362.974 145.976 361.937 145.976 360.782V282.47C145.976 280.42 148.049 279.029 149.933 279.83L223.917 310.452C225.801 311.23 227.874 309.839 227.874 307.812H227.851Z" fill="white"/>
</svg>
