<svg width="1200" height="1341" viewBox="0 0 1200 1341" fill="none" xmlns="http://www.w3.org/2000/svg">
<path d="M807.062 183.707L644.943 250.848C638.749 253.387 638.749 262.182 644.943 264.783L807.062 331.924C813.814 334.711 821.434 334.711 828.248 331.924L990.367 264.783C996.562 262.244 996.562 253.449 990.367 250.848L828.248 183.707C821.496 180.92 813.876 180.92 807.062 183.707Z" fill="white"/>
<path d="M574.013 837.273L407.496 768.275C402.54 766.231 397.088 769.885 397.088 775.212V899.769C397.088 902.803 398.885 905.529 401.734 906.706L568.251 976.633C573.207 978.739 578.721 975.085 578.721 969.696V844.21C578.721 841.175 576.862 838.388 574.075 837.273H574.013Z" fill="white"/>
<path d="M616.881 662.238V787.723C616.881 793.112 622.394 796.766 627.35 794.66L793.867 724.733C796.655 723.556 798.513 720.831 798.513 717.796V593.239C798.513 587.85 793.062 584.196 788.106 586.302L621.589 655.301C618.801 656.477 616.943 659.203 616.943 662.238H616.881Z" fill="white"/>
<path d="M616.881 1026.24V1151.73C616.881 1157.12 622.394 1160.77 627.35 1158.67L793.867 1088.74C796.655 1087.56 798.513 1084.84 798.513 1081.8V957.246C798.513 951.858 793.062 948.203 788.106 950.309L621.589 1019.31C618.801 1020.48 616.943 1023.21 616.943 1026.24H616.881Z" fill="white"/>
<path d="M617.872 304.857V429.414C617.872 432.449 619.669 435.174 622.518 436.351L789.035 506.278C793.991 508.384 799.504 504.73 799.504 499.341V373.856C799.504 370.821 797.646 368.034 794.858 366.919L628.341 297.92C623.385 295.876 617.934 299.531 617.934 304.857H617.872Z" fill="white"/>
<path d="M770.513 539.105L404.708 387.792C397.956 385.004 390.336 385.004 383.584 387.792L221.465 454.932C215.27 457.471 215.27 466.267 221.465 468.868L587.27 620.182C594.022 622.969 601.642 622.969 608.394 620.182L770.513 553.041C776.707 550.502 776.707 541.707 770.513 539.105V539.105Z" fill="white"/>
<path d="M836.797 373.856V743.128C836.797 746.163 834.939 748.95 832.151 750.065L621.589 837.273C618.801 838.45 616.943 841.175 616.943 844.21V969.696C616.943 975.085 622.394 978.739 627.35 976.633L1013.78 816.586C1016.57 815.409 1018.43 812.684 1018.43 809.649V304.857C1018.43 299.469 1012.98 295.814 1008.02 297.92L841.505 366.919C838.718 368.096 836.859 370.821 836.859 373.856H836.797Z" fill="white"/>
<path d="M578.659 787.723V662.238C578.659 659.203 576.8 656.415 574.013 655.301L192.04 497.112C187.084 495.068 181.632 498.722 181.632 504.049V991.436C181.632 994.471 183.429 997.196 186.278 998.373L568.252 1158.67C573.207 1160.77 578.721 1157.12 578.721 1151.73V1026.25C578.721 1023.21 576.862 1020.42 574.075 1019.31L367.973 933.896C365.185 932.719 363.327 929.994 363.327 926.959V721.202C363.327 715.814 368.778 712.159 373.734 714.265L568.313 794.722C573.269 796.766 578.721 793.112 578.721 787.785L578.659 787.723Z" fill="white"/>
</svg>
