<svg width="212" height="201" viewBox="0 0 212 201" fill="none" xmlns="http://www.w3.org/2000/svg">
<path d="M78.7861 163.631C78.0466 163.631 77.3186 163.686 76.6078 163.781V129.646H38.8074V78.4535H4.68755L3.5365 181.11H62.5765C63.201 189.518 70.2166 196.148 78.7833 196.148C87.3499 196.148 95.0418 188.868 95.0418 179.889C95.0418 170.911 87.7614 163.631 78.7833 163.631H78.7861Z" fill="#156FF7" fill-opacity="0.25"/>
<path d="M105.937 11.0453V0.973633H5.03583C2.25317 0.973633 0 3.22681 0 6.00946V180.321C0 183.104 2.25317 185.357 5.03583 185.357H56.3782C58.8645 194.191 66.988 200.689 76.605 200.689C86.222 200.689 94.3484 194.191 96.8317 185.357H105.937V175.285H97.1569C95.5052 167.533 89.5658 161.352 81.9516 159.349V128.881C81.9516 126.098 79.6984 123.845 76.9158 123.845H41.9959V76.1369C41.9959 73.36 39.7456 71.1069 36.9687 71.1011L10.0717 71.0579V11.0453H105.937ZM87.5486 179.671C87.5486 185.705 82.6393 190.614 76.605 190.614C70.5706 190.614 65.6614 185.705 65.6614 179.671C65.6614 173.636 70.5706 168.727 76.605 168.727C82.6393 168.727 87.5486 173.636 87.5486 179.671ZM31.9243 81.1641V128.881C31.9243 131.663 34.1774 133.917 36.9601 133.917H71.8799V159.199C63.9694 161.027 57.7537 167.326 56.0559 175.285H10.0717V81.1267L31.9243 81.1613V81.1641Z" fill="#156FF7"/>
<path d="M206.408 35.2891H173.419V89.8199H136.784V160.753H136.77C126.281 160.753 117.777 169.256 117.777 179.745C117.777 190.234 126.281 198.738 136.77 198.738C146.677 198.738 154.807 191.152 155.681 181.472H206.408V35.2891Z" fill="#1C6D72" fill-opacity="0.25"/>
<path d="M206.84 0.829712H105.937V10.9014H201.801V30.7022H173.756C170.974 30.7022 168.72 32.9554 168.72 35.7381V83.446H135.904C133.121 83.446 130.868 85.6992 130.868 88.4819V159.651C123.619 161.78 117.991 167.717 116.296 175.138H105.934V185.21H116.469C118.857 194.191 127.055 200.83 136.779 200.83C146.502 200.83 154.701 194.191 157.089 185.21H206.834C209.617 185.21 211.87 182.957 211.87 180.174V5.86554C211.87 3.08288 209.617 0.829712 206.834 0.829712H206.84ZM147.728 179.814C147.728 185.849 142.819 190.758 136.785 190.758C130.75 190.758 125.841 185.849 125.841 179.814C125.841 173.78 130.75 168.871 136.785 168.871C142.819 168.871 147.728 173.78 147.728 179.814ZM157.27 175.138C155.443 167.127 149.029 160.842 140.946 159.214V93.5177H173.762C176.545 93.5177 178.798 91.2645 178.798 88.4819V40.7739H201.807V175.138H157.27Z" fill="#1C6D72"/>
</svg>
