<svg width="78" height="114" viewBox="0 0 78 114" fill="none" xmlns="http://www.w3.org/2000/svg">
<g clip-path="url(#clip0_56_2236)">
<path d="M49.3635 31.9296C49.5453 32.0351 49.7257 32.1449 49.906 32.2576C50.6605 32.7288 51.3792 33.2506 52.062 33.8157L67.8053 28.6746C68.2291 29.3727 68.8261 29.9769 69.5762 30.4148C71.9827 31.8183 75.0707 30.9814 76.4608 28.5518C77.8509 26.1222 77.022 23.0045 74.6154 21.6011C72.2089 20.1977 69.121 21.0331 67.7309 23.4642C67.1883 24.4123 66.985 25.466 67.0809 26.4806L51.1859 31.6708L63.5034 10.1308C65.6937 10.8015 68.1375 9.89237 69.33 7.80673C70.7201 5.37711 69.8926 2.2595 67.4861 0.856066C65.0796 -0.547365 61.9916 0.28949 60.6015 2.71912C59.409 4.80475 59.8514 7.39481 61.5206 8.97602L49.342 30.2732L45.7888 13.5101C46.496 13.0808 47.1087 12.4709 47.5496 11.699C48.9397 9.26942 48.1108 6.15181 45.7043 4.74838C43.2978 3.34495 40.2098 4.18036 38.8197 6.61143C37.4297 9.0425 38.2571 12.1587 40.6636 13.5621C41.5856 14.0998 42.6078 14.3079 43.5956 14.2241L47.1087 30.7993C47.8617 31.1202 48.6147 31.4931 49.362 31.9296H49.3635ZM69.7165 24.6219C70.4738 23.2965 72.1588 22.8412 73.4716 23.6058C74.7844 24.3704 75.2353 26.0716 74.478 27.3969C73.7207 28.7223 72.0357 29.1776 70.7229 28.413C69.4102 27.6484 68.9592 25.9473 69.7165 24.6219ZM62.5843 3.87539C63.3416 2.55001 65.0266 2.09473 66.3394 2.85931C67.6521 3.6239 68.1031 5.32507 67.3458 6.65046C66.5885 7.97584 64.9035 8.43112 63.5907 7.66653C62.2779 6.90195 61.827 5.20077 62.5843 3.87539ZM41.8089 11.5588C40.4961 10.7943 40.0452 9.09309 40.8025 7.76771C41.5598 6.44233 43.2448 5.98704 44.5576 6.75163C45.8704 7.51622 46.3213 9.21739 45.564 10.5428C44.8067 11.8682 43.1217 12.3234 41.8089 11.5588Z" fill="#0B8A44"/>
<path d="M70.7215 28.4131C72.0343 29.1777 73.7193 28.7224 74.4766 27.397C75.2339 26.0716 74.783 24.3704 73.4702 23.6058C72.1574 22.8413 70.4724 23.2965 69.7151 24.6219C68.9578 25.9473 69.4087 27.6485 70.7215 28.4131V28.4131Z" fill="#39B54A"/>
<path d="M63.5907 7.66795C64.9035 8.43254 66.5885 7.97725 67.3458 6.65187C68.1031 5.32649 67.6522 3.62532 66.3394 2.86073C65.0266 2.09614 63.3416 2.55143 62.5843 3.87681C61.827 5.20219 62.278 6.90336 63.5907 7.66795Z" fill="#39B54A"/>
<path d="M45.5654 10.5444C46.3227 9.21907 45.8718 7.5179 44.559 6.75331C43.2462 5.98872 41.5612 6.444 40.8039 7.76939C40.0466 9.09477 40.4976 10.7959 41.8103 11.5605C43.1231 12.3251 44.8081 11.8698 45.5654 10.5444Z" fill="#39B54A"/>
<path d="M14.5341 102.925C14.1891 101.659 14.3265 100.258 15.0266 99.0341C15.4474 98.297 16.0258 97.7087 16.6929 97.2824L15.4374 91.4287L10.2092 93.1501C10.235 94.0607 10.0217 94.9886 9.5378 95.8341C8.75472 97.2043 7.43049 98.0672 5.99316 98.3086C5.7455 101.808 5.578 105.363 5.4964 108.975C8.6044 106.998 11.6151 104.98 14.5341 102.925V102.925Z" fill="#F48059"/>
<path d="M7.6939 88.8847C8.5457 89.3805 9.19708 90.0916 9.62513 90.9111L14.9507 89.1579L10.6072 68.9028C10.517 68.9187 10.4268 68.9332 10.3352 68.9447C8.86924 75.2175 7.72969 81.7505 6.92084 88.5205C7.18425 88.6188 7.44194 88.7388 7.6939 88.8862V88.8847Z" fill="#F48059"/>
<path d="M12.7518 59.8246C13.9787 60.7525 14.6859 62.1689 14.7603 63.6461L25.2854 64.3427C25.3928 63.8397 25.5775 63.344 25.8466 62.8742C25.9712 62.6574 26.1086 62.4522 26.2589 62.2614L17.6922 49.3169C17.2126 49.4976 16.7087 49.6045 16.1962 49.6349C15.8698 50.4818 15.5591 51.3274 15.2585 52.1642C14.3623 54.6661 13.5263 57.2215 12.7518 59.826V59.8246Z" fill="#F48059"/>
<path d="M31.5845 70.3091C30.3189 70.6719 28.916 70.539 27.6905 69.8235C26.4651 69.1081 25.649 67.9489 25.3269 66.6611L14.3437 65.9341C14.2693 66.1046 14.1862 66.2723 14.0917 66.4371C13.7396 67.0513 13.28 67.5644 12.7489 67.9648L17.1382 88.4352L37.1348 81.8502C37.235 81.2894 37.4311 80.7359 37.7289 80.2155C37.7919 80.1057 37.8592 80.0002 37.9293 79.8961L31.5845 70.3077V70.3091Z" fill="#F48059"/>
<path d="M50.692 69.6431C50.4959 69.2197 50.357 68.773 50.2826 68.3134L34.8957 67.2959C34.807 67.5228 34.7011 67.7454 34.5765 67.9622C34.3074 68.4319 33.9752 68.841 33.5973 69.1864L39.6415 78.3196C40.8211 77.6576 42.2427 77.487 43.5684 77.8961C45.4366 75.8856 47.229 73.8534 48.9412 71.7967C49.5253 71.0943 50.1122 70.3774 50.692 69.6431V69.6431Z" fill="#F48059"/>
<path d="M37.2765 84.2383L17.6278 90.7091L18.8733 96.5208C19.894 96.4124 20.9563 96.6162 21.9112 97.1727C21.9885 97.2175 22.0658 97.2652 22.1402 97.3143C27.5789 93.1084 32.6338 88.7593 37.2894 84.2788C37.2851 84.2657 37.2822 84.2513 37.2779 84.2383H37.2765Z" fill="#F48059"/>
<path d="M30.5952 32.7592C25.7879 34.4445 22.4981 37.7384 20.0486 41.6394C21.1324 43.2091 21.2927 45.3352 20.2849 47.0999C20.0887 47.4439 19.8568 47.7547 19.5991 48.0322L28.0613 60.8192C29.5058 60.1326 31.248 60.1456 32.7326 61.0114C34.2172 61.8771 35.099 63.3933 35.2322 64.9991L50.4315 66.0051C50.5417 65.6408 50.692 65.2824 50.8882 64.9384C51.8602 63.2387 53.664 62.3209 55.485 62.4018C57.5293 58.3939 58.6775 53.9277 57.8171 48.8734C56.7191 42.417 53.4808 37.2152 48.7007 34.2233C48.5418 34.1236 48.38 34.0268 48.2197 33.9328C40.9199 29.6777 32.9144 31.9469 30.5952 32.7607V32.7592Z" fill="#F48059"/>
<path d="M52.1551 71.4959C52.3355 71.6375 52.5273 71.7705 52.732 71.889C55.1385 73.2924 58.2265 72.457 59.6166 70.0274C61.0067 67.5978 60.1778 64.4802 57.7713 63.0767C57.7541 63.0666 57.7355 63.0579 57.7183 63.0478C57.8357 62.8093 57.9516 62.5694 58.0633 62.328C60.2093 57.674 60.8664 53.1443 60.0733 48.4831C59.0325 42.3693 56.2208 37.2585 52.062 33.8186C51.3792 33.2535 50.6605 32.7317 49.906 32.2605C49.7257 32.1478 49.5439 32.0379 49.3635 31.9324C48.6162 31.4974 47.8632 31.123 47.1101 30.8022C39.6572 27.6325 32.1642 29.7644 29.8436 30.5781C25.4758 32.1102 21.934 34.878 19.0179 39.0406C18.7774 39.3832 18.5469 39.733 18.3207 40.0871C15.9328 38.779 12.9221 39.6246 11.5549 42.0152C10.1878 44.4058 10.9937 47.5624 13.4003 48.9658C13.5649 49.0612 13.7324 49.1465 13.9013 49.2202C13.6222 49.953 13.3573 50.6757 13.1054 51.3781C12.2249 53.8337 11.4046 56.3414 10.6401 58.8939C8.60297 58.5181 6.45844 59.4417 5.36613 61.3539C3.97605 63.7835 4.80351 66.9011 7.21146 68.3045C7.4806 68.4621 7.75976 68.5893 8.04322 68.6919C6.58871 74.9618 5.45775 81.4832 4.65033 88.2373C3.10134 88.4035 1.64683 89.2866 0.810779 90.7508C-0.579304 93.1804 0.248161 96.298 2.65611 97.7014C2.9954 97.8994 3.349 98.0512 3.70977 98.1625C3.41056 102.386 3.22875 106.69 3.17006 111.072L3.14142 113.18L4.91661 112.071C8.61872 109.76 12.192 107.392 15.635 104.972C15.9829 105.365 16.3952 105.71 16.8719 105.988C19.2784 107.391 22.3664 106.556 23.7565 104.126C24.6956 102.484 24.6211 100.529 23.7307 98.9993C29.0119 94.9047 33.938 90.6742 38.4905 86.3193C38.8054 86.6445 39.1662 86.9336 39.5756 87.1706C41.9821 88.5741 45.0701 87.7387 46.4602 85.309C47.6413 83.2451 47.2204 80.6839 45.5912 79.0998C47.3607 77.1833 49.0643 75.2465 50.6949 73.2895C51.173 72.7143 51.6626 72.1174 52.1551 71.5002V71.4959ZM44.476 84.1484C43.7187 85.4738 42.0337 85.9291 40.7209 85.1645C39.4081 84.3999 38.9572 82.6987 39.7145 81.3734C40.4718 80.048 42.1568 79.5927 43.4696 80.3573C44.7824 81.1219 45.2333 82.823 44.476 84.1484ZM21.7723 102.967C21.0149 104.292 19.3299 104.747 18.0172 103.983C16.7044 103.218 16.2534 101.517 17.0108 100.192C17.7681 98.8664 19.4531 98.4111 20.7658 99.1757C22.0786 99.9403 22.5296 101.641 21.7723 102.967ZM2.79354 91.9042C3.55086 90.5788 5.23585 90.1235 6.54863 90.8881C7.86141 91.6527 8.31236 93.3538 7.55504 94.6792C6.79773 96.0046 5.11274 96.4599 3.79996 95.6953C2.48718 94.9307 2.03623 93.2295 2.79354 91.9042V91.9042ZM7.34889 62.5073C8.10621 61.1819 9.7912 60.7266 11.104 61.4912C12.4168 62.2558 12.8677 63.957 12.1104 65.2823C11.3531 66.6077 9.66808 67.063 8.35531 66.2984C7.04253 65.5338 6.59158 63.8326 7.34889 62.5073ZM13.5391 43.1685C14.2964 41.8432 15.9814 41.3879 17.2942 42.1525C18.607 42.9171 19.0579 44.6182 18.3006 45.9436C17.5433 47.269 15.8583 47.7243 14.5455 46.9597C13.2328 46.1951 12.7818 44.4939 13.5391 43.1685ZM48.2196 33.9328C48.38 34.0267 48.5417 34.1236 48.7006 34.2233C53.4808 37.2152 56.719 42.417 57.8171 48.8733C58.6775 53.9277 57.5279 58.3938 55.485 62.4018C53.6654 62.3208 51.8616 63.2386 50.8881 64.9383C50.692 65.2823 50.5402 65.6408 50.4314 66.005L35.2322 64.999C35.099 63.3933 34.2157 61.8757 32.7326 61.0113C31.2494 60.147 29.5058 60.134 28.0613 60.8191L19.5991 48.0321C19.8568 47.7546 20.0887 47.4439 20.2848 47.0999C21.2941 45.3366 21.1323 43.2105 20.0486 41.6394C22.4981 37.7384 25.7879 34.4444 30.5952 32.7592C32.9144 31.9454 40.9199 29.6777 48.2196 33.9313V33.9328ZM56.6274 65.0785C57.9402 65.8431 58.3911 67.5443 57.6338 68.8697C56.8765 70.1951 55.1915 70.6503 53.8787 69.8858C52.566 69.1212 52.115 67.42 52.8723 66.0946C53.6296 64.7692 55.3146 64.314 56.6274 65.0785ZM37.1376 81.8518L17.141 88.4368L12.7517 67.9663C13.2829 67.566 13.7438 67.0543 14.0946 66.4386C14.1891 66.2738 14.2721 66.1062 14.3466 65.9356L25.3298 66.6626C25.6519 67.9504 26.4665 69.1096 27.6934 69.8251C28.9202 70.5405 30.3218 70.672 31.5873 70.3107L37.9322 79.8991C37.862 80.0017 37.7947 80.1072 37.7317 80.2185C37.434 80.7403 37.2378 81.2924 37.1376 81.8532V81.8518ZM32.5923 66.8057C31.835 68.1311 30.15 68.5864 28.8372 67.8218C27.5244 67.0572 27.0735 65.356 27.8308 64.0307C28.5881 62.7053 30.2731 62.25 31.5859 63.0146C32.8986 63.7792 33.3496 65.4803 32.5923 66.8057ZM17.6936 49.317L26.2603 62.2616C26.11 62.4523 25.9726 62.6576 25.848 62.8744C25.5789 63.3441 25.3942 63.8384 25.2868 64.3429L14.7617 63.6462C14.6873 62.1705 13.9801 60.7526 12.7532 59.8247C13.5277 57.2202 14.3623 54.6648 15.2599 52.1629C15.5591 51.3261 15.8712 50.4805 16.1976 49.6336C16.7101 49.6047 17.2155 49.4977 17.6936 49.3156V49.317ZM10.6086 68.9029L14.9521 89.158L9.62657 90.9112C9.19852 90.0917 8.54571 89.3806 7.69534 88.8848C7.44481 88.7388 7.18569 88.6174 6.92228 88.5191C7.73113 81.7477 8.87068 75.2162 10.3366 68.9434C10.4283 68.9318 10.5185 68.9174 10.6086 68.9015V68.9029ZM9.53924 95.8369C10.0231 94.9914 10.2364 94.0635 10.2107 93.1529L15.4389 91.4315L16.6944 97.2852C16.0272 97.7101 15.4489 98.2998 15.028 99.0369C14.3279 100.261 14.1905 101.662 14.5355 102.928C11.6179 104.983 8.60584 107.001 5.49784 108.978C5.57944 105.366 5.74693 101.811 5.9946 98.3114C7.43193 98.0714 8.75616 97.2086 9.53924 95.8369ZM21.9111 97.1739C20.9562 96.6174 19.894 96.4136 18.8733 96.522L17.6278 90.7103L37.2765 84.2395C37.2808 84.2525 37.2836 84.2669 37.2879 84.28C32.6324 88.7605 27.5774 93.1096 22.1387 97.3155C22.0643 97.2664 21.9884 97.2187 21.9097 97.1739H21.9111ZM43.5684 77.8973C42.2413 77.4883 40.8211 77.6588 39.6415 78.3208L33.5973 69.1877C33.9752 68.8422 34.3073 68.4332 34.5765 67.9634C34.701 67.7466 34.807 67.5226 34.8957 67.2971L50.2826 68.3147C50.3584 68.7743 50.4973 69.2223 50.692 69.6444C50.1122 70.3786 49.5252 71.097 48.9412 71.7979C47.229 73.8532 45.4366 75.8868 43.5684 77.8973V77.8973Z" fill="#F26522"/>
<path d="M43.4696 80.3573C42.1568 79.5927 40.4718 80.048 39.7145 81.3734C38.9572 82.6988 39.4081 84.3999 40.7209 85.1645C42.0337 85.9291 43.7187 85.4738 44.476 84.1484C45.2333 82.8231 44.7824 81.1219 43.4696 80.3573Z" fill="#F48059"/>
<path d="M18.3006 45.9439C19.058 44.6185 18.607 42.9173 17.2942 42.1527C15.9815 41.3881 14.2965 41.8434 13.5391 43.1688C12.7818 44.4942 13.2328 46.1954 14.5456 46.9599C15.8583 47.7245 17.5433 47.2692 18.3006 45.9439Z" fill="#F48059"/>
<path d="M12.1104 65.2822C12.8677 63.9569 12.4168 62.2557 11.104 61.4911C9.79121 60.7265 8.10622 61.1818 7.3489 62.5072C6.59158 63.8326 7.04254 65.5337 8.35531 66.2983C9.66809 67.0629 11.3531 66.6076 12.1104 65.2822Z" fill="#F48059"/>
<path d="M20.7659 99.1742C19.4531 98.4096 17.7681 98.8649 17.0108 100.19C16.2534 101.516 16.7044 103.217 18.0172 103.981C19.33 104.746 21.0149 104.291 21.7723 102.965C22.5296 101.64 22.0786 99.9388 20.7659 99.1742Z" fill="#F48059"/>
<path d="M7.55504 94.6792C8.31236 93.3538 7.8614 91.6527 6.54863 90.8881C5.23585 90.1235 3.55086 90.5788 2.79354 91.9042C2.03623 93.2295 2.48718 94.9307 3.79996 95.6953C5.11273 96.4599 6.79772 96.0046 7.55504 94.6792Z" fill="#F48059"/>
<path d="M52.8709 66.0946C52.1136 67.42 52.5645 69.1211 53.8773 69.8857C55.1901 70.6503 56.8751 70.195 57.6324 68.8696C58.3897 67.5443 57.9387 65.8431 56.626 65.0785C55.3132 64.3139 53.6282 64.7692 52.8709 66.0946Z" fill="#F48059"/>
<path d="M31.5859 63.0145C30.2731 62.25 28.5881 62.7052 27.8308 64.0306C27.0735 65.356 27.5244 67.0572 28.8372 67.8218C30.15 68.5863 31.835 68.1311 32.5923 66.8057C33.3496 65.4803 32.8986 63.7791 31.5859 63.0145Z" fill="#F48059"/>
</g>
<defs>
<clipPath id="clip0_56_2236">
<rect width="77" height="113" fill="white" transform="translate(0.135071 0.176758)"/>
</clipPath>
</defs>
</svg>
