<?xml version="1.0" encoding="UTF-8"?>
<svg width="406px" height="176px" viewBox="0 0 406 176" version="1.1" xmlns="http://www.w3.org/2000/svg" xmlns:xlink="http://www.w3.org/1999/xlink">
    <!-- Generator: Sketch 62 (91390) - https://sketch.com -->
    <title>research-logo-color</title>
    <desc>Created with Sketch.</desc>
    <defs>
        <polygon id="path-1" points="0.4649 0.0002 1.9649 0.0002 1.9649 25 0.4649 25"></polygon>
    </defs>
    <g id="research-logo-color" stroke="none" stroke-width="1" fill="none" fill-rule="evenodd">
        <polygon id="Fill-1" fill="#115EF7" points="76.2003 -0.0003 0.0003 43.9397 0.0003 131.8297 76.2003 175.8297 152.4003 131.8297 152.4003 43.9397"></polygon>
        <g id="Group-15" transform="translate(0.000000, -0.170000)">
            <g id="Group-4" transform="translate(75.000000, 151.000000)">
                <mask id="mask-2" fill="white">
                    <use xlink:href="#path-1"></use>
                </mask>
                <g id="Clip-3"></g>
                <polygon id="Fill-2" fill="#EFF1F4" mask="url(#mask-2)" points="0.4649 0.0002 0.4649 24.5752 1.1999 25.0002 1.9649 24.5592 1.9649 0.0002"></polygon>
            </g>
            <polygon id="Fill-5" fill="#EFF1F4" points="22.0254 55.9601 0.7504 43.6771 0.0004 44.1091 0.0004 44.9761 21.2754 57.2591"></polygon>
            <polygon id="Fill-7" fill="#EFF1F4" points="131.1241 57.259 152.4001 44.976 152.4001 44.11 151.6491 43.677 130.3741 55.96"></polygon>
            <polygon id="Fill-9" fill="#C6D6F7" points="76.9795 64.4885 76.9795 0.6195 76.2005 0.1705 75.4795 0.5855 75.4795 64.4885"></polygon>
            <polygon id="Fill-11" fill="#C6D6F7" points="34.1504 111.4191 0.0004 131.1651 0.0004 132.0001 0.7774 132.4481 34.9004 112.7181"></polygon>
            <polygon id="Fill-13" fill="#C6D6F7" points="118.4385 111.5607 117.6885 112.8597 151.6205 132.4507 152.4005 131.9997 152.4005 131.1687"></polygon>
        </g>
        <g id="Group-61" transform="translate(30.000000, 47.830000)" fill="#FFFFFF">
            <path d="M46.9502,87.0285 L46.9502,66.6105 L73.7622,51.1305 C73.9952,50.9965 74.1372,50.7485 74.1372,50.4805 L74.1432,24.7395 L90.6992,15.1825 L90.6992,61.7695 L46.9502,87.0285 Z M26.1112,75.7005 L26.1112,55.3415 L45.4502,66.6095 L45.4502,87.0285 L26.1912,75.9095 L26.1112,75.7005 Z M52.4272,11.3355 L68.9732,1.7735 L89.9492,13.8835 L73.3932,23.4405 L52.4272,11.3355 Z M91.8242,13.2345 L69.3482,0.2575 C69.1162,0.1235 68.8312,0.1235 68.5982,0.2575 L50.5522,10.6855 C50.3202,10.8185 50.1792,11.0655 50.1782,11.3325 L50.1772,11.3325 L50.1482,18.4025 L51.6482,18.4085 L51.6722,12.6315 L72.6432,24.7395 L72.6372,49.1765 L67.6902,46.3015 L66.9362,47.5985 L71.8912,50.4785 L46.2022,65.3105 L26.8562,54.0405 L31.4772,51.3725 L30.7272,50.0735 L24.9882,53.3865 L24.9872,53.3865 C24.7552,53.5205 24.6112,53.7685 24.6112,54.0375 L24.6112,75.8395 C24.6112,75.9305 24.6282,76.0215 24.6612,76.1065 L24.8862,76.6935 C24.9472,76.8545 25.0612,76.9895 25.2112,77.0755 L45.8252,88.9765 C45.9412,89.0445 46.0702,89.0775 46.2002,89.0775 C46.3302,89.0775 46.4592,89.0445 46.5752,88.9765 L91.8242,62.8515 C92.0562,62.7175 92.1992,62.4695 92.1992,62.2025 L92.1992,13.8835 C92.1992,13.6165 92.0562,13.3685 91.8242,13.2345 L91.8242,13.2345 Z" id="Fill-16"></path>
            <path d="M46.9502,57.8488 L46.9502,40.4378 L66.5562,29.1178 L66.5562,46.5298 L46.9502,57.8488 Z M20.0922,43.2078 C19.8592,43.0738 19.5742,43.0738 19.3422,43.2078 C19.1092,43.3418 18.9672,43.5898 18.9672,43.8578 L18.9672,71.6698 L1.6972,61.4998 L1.6972,15.0978 L45.4502,40.4378 L45.4502,57.8488 L20.0922,43.2078 Z M21.8382,2.4328 L65.8062,27.8188 L46.2012,39.1388 L2.4372,13.7918 L21.8382,2.4328 Z M67.6812,27.1688 L22.2102,0.9158 C21.9772,0.7808 21.6902,0.7828 21.4562,0.9178 L0.5682,13.1488 C0.3392,13.2838 0.1972,13.5298 0.1972,13.7958 L0.1972,61.9288 C0.1972,62.1948 0.3382,62.4408 0.5662,62.5758 L19.3362,73.6288 C19.4532,73.6988 19.5852,73.7328 19.7172,73.7328 C19.8452,73.7328 19.9732,73.6998 20.0892,73.6338 C20.0902,73.6328 20.0902,73.6318 20.0922,73.6308 L20.0922,73.6318 L25.4922,70.5138 L24.7422,69.2148 L20.4672,71.6838 L20.4672,45.1568 L45.8252,59.7968 C46.0572,59.9318 46.3432,59.9318 46.5752,59.7968 L67.6812,47.6118 C67.9142,47.4778 68.0562,47.2298 68.0562,46.9618 L68.0562,27.8188 C68.0562,27.5508 67.9142,27.3028 67.6812,27.1688 L67.6812,27.1688 Z" id="Fill-18"></path>
            <g id="Group-60" opacity="0.6" transform="translate(0.000000, 3.000000)">
                <polygon id="Fill-20" points="26.0625 1.006 25.4535 0.654 0.9475 14.803 0.9475 16.073 26.3085 1.432"></polygon>
                <polygon id="Fill-22" points="29.4903 2.9855 28.8813 2.6325 0.9473 18.7605 0.9473 20.0315 29.7363 3.4105"></polygon>
                <polygon id="Fill-24" points="32.918 4.9641 32.309 4.6121 0.947 22.7191 0.947 23.9891 33.164 5.3901"></polygon>
                <polygon id="Fill-26" points="36.3457 6.9435 35.7367 6.5905 0.9477 26.6765 0.9477 27.9475 36.5917 7.3685"></polygon>
                <polygon id="Fill-28" points="39.7735 8.9221 39.1645 8.5701 0.9475 30.6351 0.9475 31.9051 40.0195 9.3481"></polygon>
                <polygon id="Fill-30" points="43.2012 10.9016 42.5922 10.5486 0.9472 34.5926 0.9472 35.8646 43.4472 11.3266"></polygon>
                <polygon id="Fill-32" points="46.6289 12.8801 46.0199 12.5281 0.9469 38.5511 0.9469 39.8211 46.8749 13.3061"></polygon>
                <polygon id="Fill-34" points="50.0576 14.8596 49.4476 14.5066 0.9476 42.5086 0.9476 43.7806 50.3026 15.2846"></polygon>
                <polygon id="Fill-36" points="53.4844 16.8381 52.8754 16.4861 0.9474 46.4671 0.9474 47.7371 53.7304 17.2641"></polygon>
                <polygon id="Fill-38" points="56.9131 18.8176 56.3031 18.4646 0.9471 50.4246 0.9471 51.6966 57.1581 19.2426"></polygon>
                <polygon id="Fill-40" points="60.3399 20.7961 59.7309 20.4441 0.9469 54.3831 0.9469 55.6531 60.5859 21.2221"></polygon>
                <polygon id="Fill-42" points="63.7686 22.7756 63.1586 22.4226 0.9476 58.3396 0.9476 58.9286 1.5336 59.2736 64.0136 23.2006"></polygon>
                <polygon id="Fill-44" points="45.7637 36.424 3.8357 60.63 4.9257 61.272 46.3147 37.377"></polygon>
                <polygon id="Fill-46" points="7.7774 62.9514 8.3204 63.2704 25.3244 53.4544 25.3434 52.1714 7.5014 62.4724"></polygon>
                <polygon id="Fill-48" points="67.3067 27.9445 32.3277 48.1385 33.4287 48.7745 67.3067 29.2155"></polygon>
                <polygon id="Fill-50" points="67.3067 31.9016 35.7557 50.1186 36.8567 50.7536 67.3067 33.1726"></polygon>
                <polygon id="Fill-52" points="11.2969 65.0246 11.7139 65.2696 25.2629 57.4476 25.2819 56.1656 10.9569 64.4356"></polygon>
                <polygon id="Fill-54" points="67.3067 35.8596 39.1837 52.0966 40.2847 52.7326 67.3067 37.1306"></polygon>
                <polygon id="Fill-56" points="14.8731 67.1301 15.1071 67.2681 25.2011 61.4411 25.2211 60.1581 14.4401 66.3821"></polygon>
                <polygon id="Fill-58" points="67.3067 39.8176 42.6117 54.0766 43.7117 54.7116 67.3067 41.0886"></polygon>
            </g>
        </g>
        <g id="Group-102" transform="translate(174.000000, 49.830000)" fill="#3C3C3B">
            <path d="M8.8262,16.3586 C13.5882,16.3586 15.8522,14.6376 15.8522,10.7556 C15.8522,6.8736 13.4452,5.5796 8.6572,5.5796 L4.7752,5.5796 L4.7752,16.3586 L8.8262,16.3586 Z M1.3332,2.7576 L9.0972,2.7576 C15.1922,2.7576 19.3072,4.8026 19.3072,10.7556 C19.3072,16.4886 15.2192,19.1676 9.2652,19.1676 L4.7632,19.1676 L4.7632,29.9606 L1.3072,29.9606 L1.3332,2.7576 Z" id="Fill-62"></path>
            <path d="M24.4844,9.8107 L27.2924,9.8107 L27.5894,13.4727 L27.6934,13.4727 C29.1044,10.8847 31.1624,9.3057 33.4264,9.3057 C34.1654,9.2747 34.9004,9.4157 35.5744,9.7207 L34.9404,12.7357 C34.3114,12.5197 33.6514,12.4107 32.9864,12.4127 C31.2914,12.4127 29.2464,13.7067 27.8874,17.0447 L27.8874,29.9857 L24.4844,29.9857 L24.4844,9.8107 Z" id="Fill-64"></path>
            <path d="M52.1123,19.9045 C52.1123,15.2855 49.7583,12.1405 46.2893,12.1405 C42.8213,12.1405 40.4783,15.2715 40.4783,19.9045 C40.4783,24.5375 42.8343,27.6695 46.2893,27.6695 C49.7443,27.6695 52.1123,24.5245 52.1123,19.9045 M36.9593,19.9045 C36.9593,13.1885 41.3593,9.3055 46.2893,9.3055 C51.2193,9.3055 55.6333,13.1885 55.6333,19.9045 C55.6333,26.6215 51.2323,30.4515 46.2893,30.4515 C41.3453,30.4515 36.9593,26.5825 36.9593,19.9045" id="Fill-66"></path>
            <path d="M60.8223,23.7219 L60.8223,12.5799 L57.8193,12.5799 L57.8193,9.9929 L60.9773,9.7979 L61.3913,4.1429 L64.2903,4.1429 L64.2903,9.7979 L69.7513,9.7979 L69.7513,12.5679 L64.2903,12.5679 L64.2903,23.7739 C64.2903,26.2329 65.0933,27.6569 67.4093,27.6569 C68.2023,27.6179 68.9813,27.4379 69.7123,27.1259 L70.3723,29.7139 C69.1733,30.1599 67.9113,30.4129 66.6323,30.4639 C62.2713,30.4509 60.8223,27.7339 60.8223,23.7219" id="Fill-68"></path>
            <path d="M87.3116,19.9045 C87.3116,15.2855 84.9566,12.1405 81.5006,12.1405 C78.0456,12.1405 75.6776,15.2715 75.6776,19.9045 C75.6776,24.5375 78.0336,27.6695 81.5006,27.6695 C84.9696,27.6695 87.3116,24.5245 87.3116,19.9045 M72.1586,19.9045 C72.1586,13.1885 76.5576,9.3055 81.5006,9.3055 C86.4446,9.3055 90.8316,13.1885 90.8316,19.9045 C90.8316,26.6215 86.4316,30.4515 81.5006,30.4515 C76.5706,30.4515 72.1586,26.5825 72.1586,19.9045" id="Fill-70"></path>
            <path d="M94.6358,19.9045 C94.6358,13.1885 99.1788,9.30548595 104.3288,9.30548595 C106.5248,9.3015 108.6358,10.1515 110.2168,11.6745 L108.4828,13.9255 C107.4298,12.8395 105.9958,12.2035 104.4848,12.1535 C100.8348,12.1535 98.1568,15.2855 98.1568,19.9185 C98.1568,24.5505 100.6798,27.6815 104.3938,27.6815 C106.1598,27.6125 107.8398,26.8985 109.1168,25.6755 L110.5918,27.9545 C108.8268,29.5845 106.5238,30.5055 104.1218,30.5425 C98.7258,30.4515 94.6358,26.5825 94.6358,19.9045" id="Fill-72"></path>
            <path d="M127.7901,19.9045 C127.7901,15.2855 125.4481,12.1405 121.9791,12.1405 C118.5121,12.1405 116.1701,15.2715 116.1701,19.9045 C116.1701,24.5375 118.5121,27.6695 121.9791,27.6695 C125.4481,27.6695 127.7901,24.5245 127.7901,19.9045 M112.6491,19.9045 C112.6491,13.1885 117.0361,9.3055 121.9791,9.3055 C126.9231,9.3055 131.3111,13.1885 131.3111,19.9045 C131.3111,26.6215 126.9231,30.4515 121.9791,30.4515 C117.0361,30.4515 112.6491,26.5825 112.6491,19.9045" id="Fill-74"></path>
            <path d="M136.4473,25.9094 L136.4473,0.4294 L139.8643,0.4294 L139.8643,26.1554 C139.8643,27.2034 140.3173,27.6174 140.8083,27.6174 C141.0613,27.6224 141.3143,27.5914 141.5593,27.5264 L142.0253,30.1154 C141.3953,30.3454 140.7283,30.4544 140.0573,30.4384 C137.5093,30.4514 136.4473,28.8204 136.4473,25.9094" id="Fill-76"></path>
            <polygon id="Fill-78" points="155.626 2.758 159.094 2.758 159.094 26.971 170.961 26.971 170.961 29.908 155.626 29.908"></polygon>
            <path d="M186.5674,25.0422 L186.5674,19.4382 C179.8114,20.2542 177.5084,21.9102 177.5084,24.4852 C177.5084,26.7762 179.0614,27.7082 181.0414,27.7082 C183.0214,27.7082 184.6384,26.7642 186.5674,25.0422 M174.1954,24.7192 C174.1954,20.3322 177.9744,18.1452 186.5674,17.2132 C186.5674,14.6252 185.7004,12.1142 182.4004,12.1142 C180.2304,12.2342 178.1434,12.9852 176.3954,14.2752 L175.1014,11.9462 C177.4384,10.3422 180.1874,9.4442 183.0214,9.3572 C187.9254,9.3572 190.0094,12.6322 190.0094,17.6402 L190.0094,30.0122 L187.2274,30.0122 L186.9294,27.5922 L186.8264,27.5922 C185.0124,29.3112 182.6544,30.3402 180.1614,30.5032 C177.1514,30.7802 174.4854,28.5642 174.2094,25.5542 C174.1824,25.2762 174.1784,24.9972 174.1954,24.7192" id="Fill-80"></path>
            <path d="M210.5205,19.6076 C210.5205,15.1556 208.9935,12.1786 205.2025,12.1786 C203.1245,12.3756 201.1985,13.3566 199.8185,14.9226 L199.8185,25.4826 C201.1545,26.7386 202.8915,27.4806 204.7225,27.5786 C207.9975,27.5786 210.5205,24.5766 210.5205,19.6076 M199.4955,27.8766 L199.3915,27.8766 L199.0685,29.9606 L196.2855,29.9606 L196.2855,0.4286 L199.7025,0.4286 L199.7025,8.5036 L199.5855,12.1146 C201.3025,10.4686 203.5415,9.4756 205.9135,9.3056 C211.0895,9.3056 213.9235,13.3436 213.9235,19.5556 C213.9235,26.4396 209.7955,30.4516 205.1885,30.4516 C203.0435,30.3016 201.0235,29.3886 199.4955,27.8766" id="Fill-82"></path>
            <path d="M216.9912,27.6564 L218.6732,25.4044 C220.2962,26.8994 222.4072,27.7504 224.6132,27.7994 C227.2652,27.7994 228.5722,26.3874 228.5722,24.6674 C228.5722,22.5964 226.2052,21.6774 223.9662,20.7844 C221.1442,19.7494 217.9612,18.3644 217.9612,14.9614 C217.9612,11.5574 220.5502,9.2414 224.9102,9.2414 C227.1922,9.2794 229.3952,10.0764 231.1742,11.5064 L229.5432,13.6934 C228.2552,12.5984 226.6372,11.9664 224.9492,11.8944 C222.3612,11.8944 221.2352,13.1884 221.2352,14.7934 C221.2352,16.7084 223.4352,17.3814 225.7132,18.2874 C228.6242,19.3744 231.8592,20.5644 231.8592,24.3954 C231.8592,27.6694 229.2712,30.3864 224.5102,30.3864 C221.7662,30.3534 219.1162,29.3904 216.9912,27.6564" id="Fill-84"></path>
            <path d="M6.9102,50.8332 L10.0292,50.8332 C13.2382,50.8332 14.9732,51.7392 14.9732,54.3922 C14.9732,57.0452 13.2382,58.4292 10.0292,58.4292 L6.9102,58.4292 L6.9102,50.8332 Z M22.2592,73.0142 L16.1232,62.1712 C18.9732,60.8652 20.8872,58.3522 20.8872,54.3922 C20.8872,47.9732 16.2542,45.9802 10.5342,45.9802 L0.8032,45.9802 L0.8032,72.9872 L6.9102,72.9872 L6.9102,63.2692 L10.2592,63.2692 L15.4262,73.0142 L22.2592,73.0142 Z" id="Fill-86"></path>
            <path d="M37.3477,60.4611 C37.3477,58.2091 36.3647,56.5791 33.9307,56.5791 C32.0027,56.5791 30.3467,57.8731 29.9327,60.4611 L37.3477,60.4611 Z M24.0957,62.7131 C24.0957,56.0481 28.8587,51.9331 33.7887,51.9331 C39.6507,51.9331 42.5497,56.1901 42.5497,61.8071 C42.5577,62.7111 42.4707,63.6121 42.2907,64.4981 L29.9967,64.4981 C30.3157,67.1471 32.6707,69.0671 35.3277,68.8471 C36.9027,68.8261 38.4417,68.3791 39.7807,67.5531 L41.7857,71.2281 C39.6457,72.6951 37.1217,73.5061 34.5267,73.5571 C28.6387,73.5571 24.0957,69.5321 24.0957,62.7131 L24.0957,62.7131 Z" id="Fill-88"></path>
            <path d="M44.8789,70.6193 L47.6219,66.8283 C49.1049,68.1133 50.9699,68.8733 52.9279,68.9893 C54.7389,68.9893 55.5169,68.2903 55.5169,67.2163 C55.5169,65.9223 53.4719,65.2493 51.3619,64.4213 C48.7749,63.4373 45.9139,61.8333 45.9139,58.3643 C45.9139,54.4823 49.0329,51.8943 53.7699,51.8943 C56.4079,51.9113 58.9629,52.8233 61.0159,54.4823 L58.2989,58.1443 C57.0679,57.1263 55.5549,56.5123 53.9629,56.3853 C52.3849,56.3853 51.6079,57.0063 51.6079,58.0283 C51.6079,59.3223 53.5359,59.8403 55.6719,60.6163 C58.2599,61.5873 61.2099,63.0493 61.2099,66.8023 C61.2099,70.5553 58.2729,73.4403 52.7599,73.4403 C49.8989,73.3683 47.1359,72.3793 44.8789,70.6193" id="Fill-90"></path>
            <path d="M77.1534,60.4611 C77.1534,58.2091 76.1564,56.5791 73.7364,56.5791 C71.5874,56.6171 69.8344,58.3141 69.7244,60.4611 L77.1534,60.4611 Z M63.9014,62.7131 C63.9014,56.0481 68.6514,51.9331 73.5944,51.9331 C79.4564,51.9331 82.3554086,56.1901 82.3554086,61.8071 C82.3564,62.7101 82.2704,63.6111 82.0964,64.4981 L69.8024,64.4981 C70.1214,67.1471 72.4764,69.0671 75.1344,68.8471 C76.7044,68.8281 78.2394,68.3811 79.5734,67.5531 L81.5914,71.2281 C79.4374,72.6961 76.9004,73.5021 74.2934,73.5441314 C68.4304,73.5571 63.9014,69.5321 63.9014,62.7131 L63.9014,62.7131 Z" id="Fill-92"></path>
            <path d="M96.7198,67.0217 L96.7198,63.4247 C92.3848,64.0067 90.9738,65.2497 90.9738,66.8017 C90.9738,68.0957 91.8798,68.7827 93.3288,68.7827 C94.6488,68.7227 95.8808,68.1067 96.7198,67.0867 L96.7198,67.0217 Z M85.1378,67.2937 C85.1378,62.9587 88.5798,60.6167 96.7198,59.7497 C96.7918,58.1707 95.5718,56.8337 93.9928,56.7617 C93.8188,56.7537 93.6448,56.7617 93.4718,56.7867 C91.5268,56.9247 89.6508,57.5617 88.0238,58.6367 L85.8628,54.6377 C88.4798,52.9407 91.5178,52.0037 94.6358,51.9327 C99.9038,51.9327 102.8148,54.9357 102.8148,61.2377 L102.8148,72.9877 L97.8458,72.9877 L97.4058,70.8917 L97.2498,70.8917 C95.6478,72.4657 93.5168,73.3877 91.2718,73.4797 C87.9998,73.5967 85.2528,71.0407 85.1358,67.7697 C85.1298,67.6107 85.1308,67.4527 85.1378,67.2937 L85.1378,67.2937 Z" id="Fill-94"></path>
            <path d="M107.9395,52.425 L112.9085,52.425 L113.3485,56.023 L113.4645,56.023 C114.5165,53.69 116.7615,52.12 119.3145,51.933 C120.1495,51.892 120.9845,52.032 121.7595,52.347 L120.7505,57.601 C120.0265,57.394 119.2775,57.285 118.5245,57.278 C116.9845,57.278 115.0955,58.274 113.9955,61.082 L113.9955,72.987 L107.9135,72.987 L107.9395,52.425 Z" id="Fill-96"></path>
            <path d="M122.834,62.7131 C122.595,57.0001 127.031,52.1751 132.744,51.9361 C133.012,51.9241 133.28,51.9231 133.549,51.9331 C135.754,51.9081 137.892,52.6961 139.554,54.1461 L136.668,58.0281 C135.93,57.2811 134.935,56.8471 133.886,56.8121 C130.961,56.8121 129.071,59.1151 129.071,62.6741 C129.071,66.2331 131.038,68.5361 133.679,68.5361 C135.049,68.4531 136.355,67.9211 137.393,67.0221 L139.773,71.0081 C137.883,72.6151 135.474,73.4841 132.992,73.4531 C127.26,73.5571 122.834,69.5451 122.834,62.7131" id="Fill-98"></path>
            <path d="M143.3965,43.9621 L149.4925,43.9621 L149.4925,51.0531 L149.2195,54.7801 C150.8835,53.0431 153.1585,52.0221 155.5615,51.9331 C160.0385,51.9331 161.9405,55.0911 161.9405,60.2281 L161.9405,72.9871 L155.8455,72.9871 L155.8455,61.0051 C155.8455,58.0541 155.0565,57.1221 153.2575,57.1221 C151.7305,57.1221 150.7865,57.8341 149.4535,59.1151 L149.4535,72.9871 L143.3585,72.9871 L143.3965,43.9621 Z" id="Fill-100"></path>
        </g>
    </g>
</svg>