<svg xmlns="http://www.w3.org/2000/svg" xmlns:xlink="http://www.w3.org/1999/xlink" viewBox="0 0 184.31 196.65"><defs><style>.cls-1{fill:none;}.cls-2{fill:#9772df;}.cls-3{clip-path:url(#clip-path);}.cls-4{fill:#fff;}</style><clipPath id="clip-path"><polyline class="cls-1" points="92.15 10.25 14.74 54.94 14.74 144.32 92.15 189.01 169.56 144.32 169.56 54.94 92.15 10.25"/></clipPath></defs><title>FILDataset_Store_Artboard 22</title><g id="Layer_8" data-name="Layer 8"><polyline class="cls-2" points="92.15 10.25 14.74 54.94 14.74 144.32 92.15 189.01 169.56 144.32 169.56 54.94 92.15 10.25"/><polyline class="cls-1" points="92.15 10.25 14.74 54.94 14.74 144.32 92.15 189.01 169.56 144.32 169.56 54.94 92.15 10.25"/><g class="cls-3"><rect class="cls-4" x="41.33" y="136.43" width="2" height="29.02" transform="translate(-108.61 108.58) rotate(-58.66)"/><rect class="cls-4" x="70.49" y="119.2" width="2" height="23.86" transform="translate(-73.44 167.22) rotate(-75.39)"/><rect class="cls-4" x="89.76" y="133.71" width="46.18" height="2" transform="translate(-1.44 1.22) rotate(-0.62)"/><rect class="cls-4" x="107.45" y="140.42" width="29.62" height="2" transform="translate(-44.64 57.21) rotate(-22.38)"/><rect class="cls-4" x="89.84" y="67.07" width="37.2" height="2" transform="translate(-0.72 1.17) rotate(-0.62)"/><rect class="cls-4" x="80.72" y="49.52" width="36.34" height="2" transform="translate(0.44 101.89) rotate(-54.62)"/><rect class="cls-4" x="76.08" y="44.56" width="2" height="23.06" transform="translate(-18.23 57.63) rotate(-36.97)"/><rect class="cls-4" x="15.29" y="66.6" width="58.83" height="2" transform="translate(-34.71 51.41) rotate(-45)"/><rect class="cls-4" x="130.54" y="24.97" width="2" height="39.41" transform="translate(26.23 135.26) rotate(-59.46)"/><rect class="cls-4" x="160.1" y="92.22" width="2" height="23.29" transform="translate(-4.6 7.51) rotate(-2.63)"/><rect class="cls-4" x="114.48" y="29.47" width="12.61" height="2" transform="translate(-3.76 32.8) rotate(-15.23)"/><rect class="cls-4" x="57.36" y="28.83" width="2" height="16.43" transform="translate(-6.27 61.56) rotate(-53.18)"/><path class="cls-4" d="M111.45,30.37A2.45,2.45,0,1,1,109,32.82a2.45,2.45,0,0,1,2.45-2.45m0-2a4.45,4.45,0,1,0,4.45,4.45,4.45,4.45,0,0,0-4.45-4.45Z"/><rect class="cls-4" x="164.86" y="115.85" width="5.63" height="2" transform="translate(-29.35 62.54) rotate(-19.46)"/><rect class="cls-4" x="20.76" y="94.27" width="2" height="15.56" transform="translate(-3.88 0.9) rotate(-2.19)"/><rect class="cls-4" x="13.56" y="114.76" width="5.26" height="2" transform="translate(-37.64 12.01) rotate(-19.46)"/><rect class="cls-4" x="14.74" y="88.42" width="2" height="4.09" transform="translate(-76.06 92.87) rotate(-81.63)"/><rect class="cls-4" x="155.03" y="59.52" width="2" height="26.47" transform="translate(-13.61 43.43) rotate(-15.19)"/><rect class="cls-4" x="166.04" y="86.61" width="2" height="6.67" transform="translate(51.86 240.7) rotate(-80.92)"/><rect class="cls-4" x="152.13" y="49.35" width="8.2" height="2" transform="translate(23.64 147.1) rotate(-53.98)"/><rect class="cls-4" x="45.71" y="161.69" width="8.97" height="2" transform="translate(-40.98 18.9) rotate(-15.23)"/><rect class="cls-4" x="114.36" y="147.13" width="2" height="17.29" transform="matrix(0.6, -0.8, 0.8, 0.6, -78.48, 154.76)"/><rect class="cls-4" x="128.82" y="164.47" width="2" height="4.25" transform="matrix(0.6, -0.8, 0.8, 0.6, -81.35, 170.67)"/><path class="cls-4" d="M125.18,160.68a2.45,2.45,0,1,1-2.45,2.45,2.45,2.45,0,0,1,2.45-2.45m0-2a4.45,4.45,0,1,0,4.45,4.45,4.45,4.45,0,0,0-4.45-4.45Z"/><path class="cls-4" d="M21.77,111.07a2.45,2.45,0,1,1-2.45,2.44,2.45,2.45,0,0,1,2.45-2.44m0-2a4.45,4.45,0,1,0,4.45,4.44,4.44,4.44,0,0,0-4.45-4.44Z"/><path class="cls-4" d="M160.41,86.44A2.45,2.45,0,1,1,158,88.89a2.45,2.45,0,0,1,2.45-2.45m0-2a4.45,4.45,0,1,0,4.45,4.45,4.45,4.45,0,0,0-4.45-4.45Z"/><path class="cls-4" d="M151.62,54.07a2.45,2.45,0,1,1-2.45,2.45,2.45,2.45,0,0,1,2.45-2.45m0-2a4.45,4.45,0,1,0,4.45,4.45,4.45,4.45,0,0,0-4.45-4.45Z"/><rect class="cls-4" x="60.45" y="153.08" width="41.95" height="2" transform="translate(-38.4 27.54) rotate(-15.58)"/><rect class="cls-4" x="71.14" y="166.43" width="40.15" height="2" transform="translate(-97.83 142.6) rotate(-53.94)"/><rect class="cls-4" x="74.88" y="183.48" width="7.81" height="2" transform="translate(-116.72 139.56) rotate(-53.94)"/><path class="cls-4" d="M105.19,146a2.45,2.45,0,1,1-2.45,2.45,2.45,2.45,0,0,1,2.45-2.45m0-2a4.45,4.45,0,1,0,4.45,4.45,4.46,4.46,0,0,0-4.45-4.45Z"/><path class="cls-4" d="M57.73,158.23a2.45,2.45,0,1,1-2.45,2.45,2.45,2.45,0,0,1,2.45-2.45m0-2a4.45,4.45,0,1,0,4.45,4.45,4.45,4.45,0,0,0-4.45-4.45Z"/><path class="cls-4" d="M68.12,41.74a2.45,2.45,0,1,1-2.45,2.44,2.45,2.45,0,0,1,2.45-2.44m0-2a4.45,4.45,0,1,0,4.45,4.44,4.45,4.45,0,0,0-4.45-4.44Z"/><path class="cls-4" d="M21.34,88.52A2.45,2.45,0,1,1,18.89,91a2.45,2.45,0,0,1,2.45-2.45m0-2A4.45,4.45,0,1,0,25.79,91a4.45,4.45,0,0,0-4.45-4.45Z"/><path class="cls-4" d="M161.8,116.63a2.45,2.45,0,1,1-2.45,2.45,2.45,2.45,0,0,1,2.45-2.45m0-2a4.45,4.45,0,1,0,4.45,4.45,4.46,4.46,0,0,0-4.45-4.45Z"/><path class="cls-4" d="M86.27,65.85a2.45,2.45,0,1,1-2.45,2.45,2.45,2.45,0,0,1,2.45-2.45m0-2a4.45,4.45,0,1,0,4.45,4.45,4.45,4.45,0,0,0-4.45-4.45Z"/><path class="cls-4" d="M130.08,65.4a2.45,2.45,0,1,1-2.45,2.45,2.45,2.45,0,0,1,2.45-2.45m0-2a4.45,4.45,0,1,0,4.45,4.45,4.45,4.45,0,0,0-4.45-4.45Z"/><path class="cls-4" d="M56.58,124.69a2.45,2.45,0,1,1-2.45,2.45,2.44,2.44,0,0,1,2.45-2.45m0-2A4.45,4.45,0,1,0,61,127.14a4.45,4.45,0,0,0-4.45-4.45Z"/><path class="cls-4" d="M86.27,132.54A2.45,2.45,0,1,1,83.82,135a2.45,2.45,0,0,1,2.45-2.45m0-2A4.45,4.45,0,1,0,90.72,135a4.45,4.45,0,0,0-4.45-4.45Z"/><path class="cls-4" d="M139.24,132a2.45,2.45,0,1,1-2.45,2.45,2.45,2.45,0,0,1,2.45-2.45m0-2a4.45,4.45,0,1,0,4.45,4.45,4.45,4.45,0,0,0-4.45-4.45Z"/><path class="cls-4" d="M27.16,139.25a2.45,2.45,0,1,1-2.45,2.45,2.45,2.45,0,0,1,2.45-2.45m0-2a4.45,4.45,0,1,0,4.45,4.45,4.45,4.45,0,0,0-4.45-4.45Z"/></g><path class="cls-4" d="M41,102.78H37.71v6.6h-3V92.22h6a7,7,0,0,1,4.58,1.33A4.71,4.71,0,0,1,47,97.41a4.83,4.83,0,0,1-.83,2.88,5.32,5.32,0,0,1-2.32,1.79l3.85,7.15v.15H44.48Zm-3.33-2.41h3.07a3.42,3.42,0,0,0,2.36-.76A2.65,2.65,0,0,0,44,97.53a2.82,2.82,0,0,0-.78-2.13,3.36,3.36,0,0,0-2.34-.78H37.71Z"/><path class="cls-4" d="M55.14,109.62a5.91,5.91,0,0,1-4.42-1.72A6.24,6.24,0,0,1,49,103.33V103a7.66,7.66,0,0,1,.74-3.41,5.51,5.51,0,0,1,5-3.18,5,5,0,0,1,4,1.66,7,7,0,0,1,1.43,4.71v1.15H51.92a3.82,3.82,0,0,0,1.06,2.5,3.16,3.16,0,0,0,2.32.92,3.87,3.87,0,0,0,3.21-1.59l1.55,1.47A5.2,5.2,0,0,1,58,109,6.4,6.4,0,0,1,55.14,109.62ZM54.8,98.69a2.42,2.42,0,0,0-1.91.82,4.28,4.28,0,0,0-.92,2.3h5.46v-.21a3.49,3.49,0,0,0-.77-2.17A2.37,2.37,0,0,0,54.8,98.69Z"/><path class="cls-4" d="M69.63,105.92a1.31,1.31,0,0,0-.63-1.17,6.77,6.77,0,0,0-2.1-.71,10.46,10.46,0,0,1-2.44-.78,3.24,3.24,0,0,1-2.14-3,3.39,3.39,0,0,1,1.39-2.76,5.51,5.51,0,0,1,3.54-1.11,5.74,5.74,0,0,1,3.69,1.13,3.6,3.6,0,0,1,1.41,2.94H69.49a1.79,1.79,0,0,0-.62-1.38,2.37,2.37,0,0,0-1.62-.54,2.53,2.53,0,0,0-1.54.43,1.37,1.37,0,0,0-.6,1.17,1.15,1.15,0,0,0,.56,1,7.42,7.42,0,0,0,2.24.74,10.34,10.34,0,0,1,2.64.89A3.74,3.74,0,0,1,72,104a3.14,3.14,0,0,1,.47,1.74A3.33,3.33,0,0,1,71,108.55a6.1,6.1,0,0,1-3.74,1.07,6.56,6.56,0,0,1-2.79-.57,4.48,4.48,0,0,1-1.91-1.55,3.68,3.68,0,0,1-.69-2.14h2.79a2,2,0,0,0,.76,1.56,3,3,0,0,0,1.88.55A2.89,2.89,0,0,0,69,107,1.33,1.33,0,0,0,69.63,105.92Z"/><path class="cls-4" d="M88.83,109.38h-3L78.2,97.2v12.18h-3V92.22h3l7.67,12.22V92.22h3Z"/><path class="cls-4" d="M97.7,109.62a5.89,5.89,0,0,1-4.41-1.72,6.2,6.2,0,0,1-1.7-4.57V103a7.66,7.66,0,0,1,.74-3.41,5.51,5.51,0,0,1,5-3.18,5,5,0,0,1,4,1.66,7.08,7.08,0,0,1,1.42,4.71v1.15H94.48a3.82,3.82,0,0,0,1.06,2.5,3.17,3.17,0,0,0,2.33.92,3.86,3.86,0,0,0,3.2-1.59l1.55,1.47a5.13,5.13,0,0,1-2.05,1.78A6.4,6.4,0,0,1,97.7,109.62Zm-.34-10.93a2.42,2.42,0,0,0-1.91.82,4.28,4.28,0,0,0-.92,2.3H100v-.21a3.43,3.43,0,0,0-.77-2.17A2.37,2.37,0,0,0,97.36,98.69Z"/><path class="cls-4" d="M108.63,93.52v3.11h2.25v2.12h-2.25v7.12a1.55,1.55,0,0,0,.29,1,1.32,1.32,0,0,0,1,.33,4.34,4.34,0,0,0,1-.12v2.22a7.06,7.06,0,0,1-1.88.27c-2.21,0-3.3-1.22-3.3-3.65V98.75h-2.1V96.63h2.1V93.52Z"/><path class="cls-4" d="M116.33,107h7.79v2.38H113.35V92.22h3Z"/><path class="cls-4" d="M133.75,109.38a4.84,4.84,0,0,1-.33-1.19,4.45,4.45,0,0,1-3.34,1.43,4.52,4.52,0,0,1-3.14-1.1,3.49,3.49,0,0,1-1.21-2.71,3.62,3.62,0,0,1,1.51-3.13,7.31,7.31,0,0,1,4.33-1.09h1.76v-.84a2,2,0,0,0-2.24-2.18,2.48,2.48,0,0,0-1.6.49,1.51,1.51,0,0,0-.63,1.24H126a3.19,3.19,0,0,1,.69-2,4.66,4.66,0,0,1,1.89-1.43,6.61,6.61,0,0,1,2.68-.52,5.31,5.31,0,0,1,3.57,1.13,4,4,0,0,1,1.37,3.16v5.75a6.56,6.56,0,0,0,.48,2.75v.2Zm-3.14-2.06a3.27,3.27,0,0,0,1.59-.41,2.81,2.81,0,0,0,1.13-1.11v-2.41h-1.54a4.25,4.25,0,0,0-2.4.56,1.8,1.8,0,0,0-.8,1.56,1.66,1.66,0,0,0,.55,1.32A2.09,2.09,0,0,0,130.61,107.32Z"/><path class="cls-4" d="M150.39,103.13a7.63,7.63,0,0,1-1.33,4.73,4.32,4.32,0,0,1-3.64,1.76,4.14,4.14,0,0,1-3.49-1.62l-.15,1.38h-2.59V91.27h2.87v6.58a4.14,4.14,0,0,1,3.33-1.46,4.39,4.39,0,0,1,3.67,1.73,7.79,7.79,0,0,1,1.33,4.85Zm-2.86-.24a5.42,5.42,0,0,0-.74-3.12,2.42,2.42,0,0,0-2.12-1,2.65,2.65,0,0,0-2.61,1.62v5.26a2.68,2.68,0,0,0,2.64,1.66,2.41,2.41,0,0,0,2.07-1,5.27,5.27,0,0,0,.76-3Z"/></g></svg>