<?xml version="1.0" encoding="utf-8"?>
<!-- Generator: Adobe Illustrator 25.2.1, SVG Export Plug-In . SVG Version: 6.00 Build 0)  -->
<svg version="1.1" id="Layer_1" xmlns="http://www.w3.org/2000/svg" xmlns:xlink="http://www.w3.org/1999/xlink" x="0px" y="0px"
	 viewBox="0 0 140 140" style="enable-background:new 0 0 140 140;" xml:space="preserve">
<style type="text/css">
	.st0{fill:#737680;}
</style>
<path class="st0" d="M132.8,76.8L105,58.9V33.4c0-1.6-0.4-3.2-1.2-4.6c0,0,0,0,0,0c0,0,0-0.1-0.1-0.1c-0.8-1.3-1.9-2.5-3.2-3.3
	L74.8,10c-3-1.8-6.6-1.8-9.6,0L39.5,25.4c-1.3,0.8-2.4,1.9-3.2,3.3c0,0,0,0.1-0.1,0.1c0,0,0,0,0,0c-0.8,1.4-1.2,3-1.2,4.6v25.5
	L7.2,76.8c-2.7,1.7-4.3,4.7-4.2,7.8v23.7c0,3.2,1.6,6.1,4.3,7.8l25.7,16.5c1.4,0.9,3.1,1.4,4.8,1.5c0.1,0,0.2,0,0.3,0
	c0,0,0.1,0,0.1,0c1.7,0,3.4-0.5,5-1.5l27-17.4l27.1,17.4c1.4,0.9,3.1,1.4,4.8,1.5c0.1,0,0.2,0,0.3,0c0,0,0.1,0,0.1,0
	c1.7,0,3.4-0.5,5-1.5l25.7-16.5c2.7-1.7,4.3-4.7,4.2-7.8V84.6C137.1,81.5,135.5,78.5,132.8,76.8z M102.1,97L75.5,81l6.1-3.9
	L102.1,64L128.7,81L102.1,97z M64.5,81L37.9,97L11.3,81L37.9,64l22,14.2L64.5,81z M67.1,50.7v25.1L40.8,58.9v-24L67.1,50.7z
	 M99.2,34.9v24l-7,4.5L72.9,75.8V50.7L99.2,34.9z M68.2,15c1.1-0.7,2.5-0.7,3.6,0l24.6,14.8L70,45.6L43.6,29.8L68.2,15z M10.4,111.3
	c-1-0.6-1.6-1.7-1.6-2.9v-22L35,102v25.1L10.4,111.3z M40.8,127.1V102l26.3-15.8v24L40.8,127.1z M72.9,110.2v-24L99.2,102v25.1
	L72.9,110.2z M129.7,111.3L105,127.1V102l26.2-15.7v22.1C131.3,109.5,130.7,110.6,129.7,111.3z"/>
</svg>
