<svg width="10" height="10" viewBox="0 0 10 10" fill="none" xmlns="http://www.w3.org/2000/svg">
<path d="M5 10C7.7105 10 10 7.7105 10 5C10 2.2895 7.7105 0 5 0C2.2895 0 0 2.2895 0 5C0 7.7105 2.2895 10 5 10ZM5 1C7.1685 1 9 2.8315 9 5C9 7.1685 7.1685 9 5 9C2.8315 9 1 7.1685 1 5C1 2.8315 2.8315 1 5 1Z" fill="black"/>
<path d="M5 7.5C5.4505 7.5 6.2905 7.416 6.8535 6.854L6.1465 6.146C5.925 6.3675 5.496 6.5 5 6.5C4.187 6.5 3.5 5.813 3.5 5C3.5 4.187 4.187 3.5 5 3.5C5.4965 3.5 5.9255 3.6325 6.1465 3.8535L6.8535 3.1465C6.291 2.584 5.4505 2.5 5 2.5C3.6215 2.5 2.5 3.6215 2.5 5C2.5 6.3785 3.6215 7.5 5 7.5Z" fill="black"/>
</svg>
