<svg width="114" height="19" viewBox="0 0 114 19" fill="none" xmlns="http://www.w3.org/2000/svg">
<path fill-rule="evenodd" clip-rule="evenodd" d="M4.30006 0.0357721L0.668899 2.08659C0.573336 2.13429 0.573336 2.27738 0.668899 2.37277L9.17348 7.23749C9.26904 7.28519 9.36461 7.28519 9.46015 7.23749L13.0913 5.18667C13.1869 5.13898 13.1869 4.99591 13.0913 4.90051L4.58675 0.0357721C4.49119 -0.011924 4.39563 -0.011924 4.30006 0.0357721ZM13.9514 0.0357721L10.3202 2.08659C10.2246 2.13429 10.2246 2.27738 10.3202 2.37277L13.9992 4.47127C14.0946 4.51896 14.1902 4.51896 14.2858 4.47127L17.9169 2.42045C18.0125 2.37275 18.0125 2.22968 17.9169 2.13431L14.238 0.0357721C14.1902 -0.011924 14.047 -0.011924 13.9514 0.0357721ZM9.69906 12.4838V8.28677C9.69906 8.19138 9.7946 8.09599 9.89016 8.04832L13.4736 5.99749C13.5691 5.9498 13.7125 6.04517 13.7125 6.14056V10.3853C13.7125 10.433 13.6647 10.4807 13.6169 10.5283L13.6169 10.5284L9.93794 12.6269C9.84238 12.6746 9.69906 12.5792 9.69906 12.4838ZM14.7158 5.28211L18.3469 3.23129C18.4425 3.18359 18.5859 3.23129 18.5859 3.37438V13.1039C18.5859 13.1993 18.5381 13.2945 18.4425 13.39L9.93794 18.1594C9.84238 18.2071 9.69906 18.1594 9.69906 18.0162V13.8192C9.69906 13.724 9.74684 13.6285 9.84238 13.5331L14.3814 10.9576C14.4768 10.91 14.5246 10.8146 14.5246 10.6715V5.4729C14.5246 5.4252 14.5724 5.32981 14.7158 5.28211ZM8.88681 12.5315V8.28673C8.88681 8.19134 8.83905 8.04827 8.74349 8.00057L0.238886 3.13583C0.143345 3.08813 0 3.18353 0 3.2789V13.0561C0 13.1991 0.0477813 13.2945 0.143344 13.3422L3.77451 15.393C3.87007 15.4408 4.01339 15.3453 4.01339 15.2501V10.2422C4.01339 10.0991 4.15674 10.0514 4.2523 10.0991L8.69571 12.6269C8.79127 12.6746 8.88681 12.6269 8.88681 12.5315ZM5.06452 11.4822L8.69571 13.5808C8.79127 13.6285 8.83903 13.7238 8.83903 13.8669V18.064C8.83903 18.1594 8.69571 18.2546 8.60015 18.2071L4.96898 16.1086C4.87342 16.0609 4.82564 15.9654 4.82564 15.8223V11.6253C4.82564 11.5299 4.96898 11.4346 5.06452 11.4822ZM76.5893 13.0084V3.08789H78.5481V13.0084H76.5893ZM49.5943 10.3374V11.0052C49.6421 11.7206 49.9287 11.9114 51.0275 11.816V13.1038C50.5975 13.1515 50.1677 13.199 49.7377 13.199C48.3043 13.199 47.7786 12.7222 47.683 11.6729C47.6354 11.339 47.6354 11.0051 47.6354 10.5759V6.90344H46.5364V5.61567H47.6354V3.13555H49.5943V5.61567H51.1231V6.90344H49.5943V10.3374ZM32.6328 6.33111C32.6328 8.09579 31.4384 9.0974 30.0049 9.28817C29.5273 9.33587 29.1451 9.33587 28.5721 9.33587H28.5717H27.1382V13.0083H25.2272V3.27864H28.6195C29.1927 3.27864 29.5273 3.27866 30.0527 3.32636C31.4862 3.51713 32.6328 4.51871 32.6328 6.33111ZM30.5783 6.33111C30.5783 5.4249 30.1005 4.99564 29.4317 4.90027C29.2405 4.85257 28.9061 4.85255 28.5717 4.85255H27.186V7.85733H28.5717C28.9061 7.85733 29.2405 7.85733 29.4317 7.80963C30.1005 7.66654 30.5783 7.2373 30.5783 6.33111ZM37.9364 5.3772V6.95114C36.3119 6.85574 35.4995 7.57116 35.4995 9.57433V13.0083H33.5406V5.52029H35.4995V6.90344L36.0729 5.85416C36.4551 5.52029 36.9329 5.32951 37.3629 5.32951H37.363C37.6017 5.32951 37.7451 5.32951 37.9364 5.3772ZM42.1885 13.199C44.6732 13.199 46.0586 11.5298 46.0586 9.24045C46.0586 6.99881 44.6732 5.3295 42.1885 5.28181C39.704 5.28181 38.3186 6.95111 38.3186 9.24045C38.3186 11.5298 39.704 13.199 42.1885 13.199ZM42.1885 6.66497C43.3353 6.66497 44.0519 7.61884 44.0519 9.24045C44.0519 10.8621 43.3353 11.816 42.1885 11.816C41.0418 11.816 40.3252 10.8621 40.3252 9.24045C40.3252 7.61884 41.0418 6.66497 42.1885 6.66497ZM55.5667 13.199C58.0511 13.199 59.4366 11.5298 59.4366 9.24045C59.4366 6.99881 58.0033 5.3295 55.5667 5.28181C53.082 5.28181 51.6966 6.95111 51.6966 9.24045C51.6966 11.5298 53.082 13.199 55.5667 13.199ZM55.5189 6.66497C56.6655 6.66497 57.3821 7.61884 57.3821 9.24045C57.3821 10.8621 56.7133 11.816 55.5189 11.816C54.372 11.816 53.6554 10.8621 53.6554 9.24045C53.6554 7.61884 54.372 6.66497 55.5189 6.66497ZM67.2724 8.23888H65.3611C65.1702 7.1419 64.5967 6.71265 63.8323 6.71265C62.8289 6.71265 62.1601 7.52346 62.1601 9.24047C62.1601 11.1005 62.8767 11.8637 63.8323 11.8637C64.5967 11.8637 65.1702 11.3867 65.3611 10.4328H67.3202C66.9856 12.2929 65.6002 13.199 63.7367 13.199C61.6822 13.199 60.1534 11.9114 60.1534 9.33587C60.1534 6.76035 61.8257 5.32951 63.8801 5.32951C65.8868 5.32951 67.129 6.56958 67.2724 8.23888ZM71.8592 13.199C74.3436 13.199 75.7293 11.5298 75.7293 9.24045C75.7293 6.99881 74.3436 5.3295 71.8592 5.28181C69.3747 5.28181 67.989 6.95111 67.989 9.24045C67.989 11.5298 69.3747 13.199 71.8592 13.199ZM71.8592 6.66497C73.0058 6.66497 73.7224 7.61884 73.7224 9.24045C73.7224 10.8621 73.0058 11.816 71.8592 11.816C70.7125 11.816 69.9957 10.8621 69.9957 9.24045C69.9957 7.61884 70.7125 6.66497 71.8592 6.66497ZM83.5649 13.0084H90.5883V11.3867H85.5238V3.08789H83.5649V13.0084ZM95.8441 11.9114L95.4619 12.7222C94.9362 13.0561 94.315 13.199 93.5984 13.199C92.3083 13.199 91.2095 12.436 91.2095 11.0052C91.2095 9.33587 92.6428 8.42965 95.3184 8.42965H95.7963V8.28656C95.7963 8.0481 95.7963 7.85733 95.7485 7.57114C95.7007 7.04651 95.3662 6.66497 94.6018 6.66497C93.8372 6.66497 93.4074 7.09421 93.3596 7.9527H91.4483C91.4961 6.28339 92.8818 5.32951 94.6494 5.32951C96.7519 5.32951 97.5163 6.23572 97.6595 7.52347C97.7073 7.85733 97.7073 8.28656 97.7073 8.66812V11.1006C97.7073 11.6729 97.7551 12.1499 97.8507 13.0083H95.9395L95.8441 11.9114ZM95.8441 10.2421V9.62201C94.315 9.52663 93.264 9.8605 93.264 10.8621C93.264 11.5298 93.694 11.816 94.4106 11.816C95.175 11.816 95.8441 11.2914 95.8441 10.2421ZM103.441 13.1992C105.352 13.1992 107.024 11.816 107.024 9.0974C107.024 6.90344 105.782 5.32951 103.727 5.32951C102.963 5.32951 102.199 5.52032 101.769 5.85418L101.195 6.665V3.08789H99.2364V13.0084H101.195V12.0068L101.673 12.7699C102.055 13.0561 102.82 13.1992 103.441 13.1992ZM103.059 6.665C104.253 6.665 104.97 7.71425 104.97 9.24047C104.97 10.9575 104.158 11.816 102.963 11.7683C102.055 11.7683 101.1 11.196 101.1 9.47896V9.14507C101.1 7.3327 102.007 6.665 103.059 6.665ZM113.857 7.66654H111.898C111.754 6.99881 111.372 6.56958 110.751 6.56958C110.178 6.56958 109.843 6.90344 109.843 7.38039C109.843 7.95272 110.321 8.23886 111.563 8.52503C113.092 8.90659 114 9.52663 114 10.9098C114 12.436 112.614 13.1515 110.894 13.1515C109.079 13.1515 107.789 12.3406 107.598 10.6713H109.556C109.7 11.4821 110.273 11.8637 110.942 11.8637C111.563 11.8637 112.041 11.5775 112.041 11.0528C112.041 10.4805 111.563 10.1467 110.273 9.8128C108.888 9.47894 107.932 8.85891 107.932 7.57114C107.932 6.1403 109.126 5.28181 110.894 5.28181C112.662 5.28181 113.665 6.33109 113.857 7.66654Z" fill="black"/>
</svg>
