<?xml version="1.0" standalone="no"?>
<!DOCTYPE svg PUBLIC "-//W3C//DTD SVG 20010904//EN"
 "http://www.w3.org/TR/2001/REC-SVG-20010904/DTD/svg10.dtd">
<svg version="1.0" xmlns="http://www.w3.org/2000/svg"
 width="700.000000pt" height="700.000000pt" viewBox="0 0 700.000000 700.000000"
 preserveAspectRatio="xMidYMid meet">
<metadata>
Created by potrace 1.14, written by Peter Selinger 2001-2017
</metadata>
<g transform="translate(0.000000,700.000000) scale(0.100000,-0.100000)"
fill="#000000" stroke="none">
<path d="M0 3500 l0 -3500 3500 0 3500 0 0 3500 0 3500 -3500 0 -3500 0 0
-3500z m6560 2405 l0 -655 -655 0 -655 0 0 655 0 655 655 0 655 0 0 -655z
m-2260 -2130 l0 -1085 29 0 c25 0 120 84 627 555 l597 555 338 0 339 0 0 -40
c0 -37 -6 -46 -62 -99 -35 -32 -300 -277 -590 -544 l-528 -486 600 -733 c583
-713 600 -734 600 -776 l0 -42 -332 2 -332 3 -454 570 c-249 314 -460 578
-467 589 -12 17 -26 6 -189 -145 l-176 -163 0 -428 0 -428 -307 2 -308 3 -3
1888 -2 1887 310 0 310 0 0 -1085z m-1190 -163 l0 -188 -740 -949 c-407 -523
-740 -953 -740 -957 0 -5 344 -8 765 -8 l765 0 -2 -212 -3 -213 -1152 -3
-1153 -2 0 187 0 188 745 955 744 955 -719 3 -720 2 0 215 0 215 1105 0 1105
0 0 -188z"/>
</g>
</svg>
