<svg width="26" height="26" xmlns="http://www.w3.org/2000/svg" class="{{ .class }}"><path d="M12.999 0C5.82 0 0 5.968 0 13.33c0 5.888 3.725 10.884 8.89 12.646.65.123.888-.288.888-.642 0-.316-.011-1.155-.018-2.267-3.616.806-4.379-1.787-4.379-1.787-.591-1.54-1.443-1.95-1.443-1.95-1.18-.826.089-.81.089-.81 1.305.095 1.991 1.374 1.991 1.374 1.16 2.037 3.043 1.449 3.784 1.107.118-.86.454-1.448.825-1.781-2.887-.336-5.922-1.48-5.922-6.588 0-1.455.507-2.645 1.339-3.576-.134-.337-.58-1.693.127-3.528 0 0 1.091-.358 3.575 1.367A12.164 12.164 0 0113 6.445c1.105.006 2.217.153 3.255.45 2.482-1.725 3.571-1.367 3.571-1.367.71 1.835.264 3.19.13 3.528.833.93 1.336 2.121 1.336 3.576 0 5.12-3.04 6.248-5.935 6.577.466.412.882 1.225.882 2.47 0 1.78-.016 3.218-.016 3.655 0 .357.235.772.894.642C22.279 24.209 26 19.216 26 13.329 26 5.968 20.179 0 12.999 0" fill="#737680" fill-rule="evenodd"/></svg>
