<svg width="1442" height="33" xmlns="http://www.w3.org/2000/svg" xmlns:xlink="http://www.w3.org/1999/xlink"><defs><filter x="0%" y="-1.9%" width="100.1%" height="103.7%" filterUnits="objectBoundingBox" id="b"><feOffset dy="-1" in="SourceAlpha" result="shadowOffsetInner1"/><feComposite in="shadowOffsetInner1" in2="SourceAlpha" operator="arithmetic" k2="-1" k3="1" result="shadowInnerInner1"/><feColorMatrix values="0 0 0 0 0.764705882 0 0 0 0 0.882352941 0 0 0 0 1 0 0 0 1 0" in="shadowInnerInner1"/></filter><filter x="0%" y="-1.9%" width="100.1%" height="103.7%" filterUnits="objectBoundingBox" id="d"><feOffset dy="-1" in="SourceAlpha" result="shadowOffsetInner1"/><feComposite in="shadowOffsetInner1" in2="SourceAlpha" operator="arithmetic" k2="-1" k3="1" result="shadowInnerInner1"/><feColorMatrix values="0 0 0 0 0.764705882 0 0 0 0 0.882352941 0 0 0 0 1 0 0 0 1 0" in="shadowInnerInner1"/></filter><path d="M1 4.927c126 9.854 327 .985 405 0s382-3.942 450 0 378 6.898 424 0L1441 0v20.693c-111.333 5.256-189.667 7.227-235 5.913-297.333-9.197-464.333-12.482-501-9.854-55 3.941-320 3.941-393 3.941s-252-7.883-311 0V4.927z" id="a"/><path d="M1 10.927c126 9.854 327 .985 405 0s382-3.942 450 0 378 6.898 424 0L1441 6v20.693c-111.333 5.256-189.667 7.227-235 5.913-297.333-9.197-464.333-12.482-501-9.854-55 3.941-320 3.941-393 3.941s-252-7.883-311 0V10.927z" id="c"/></defs><g fill="none" fill-rule="evenodd"><g style="mix-blend-mode:multiply"><use fill="#EFF7FF" xlink:href="#a"/><use fill="#000" filter="url(#b)" xlink:href="#a"/></g><g style="mix-blend-mode:multiply" transform="matrix(-1 0 0 1 1442 0)"><use fill="#EFF7FF" xlink:href="#c"/><use fill="#000" filter="url(#d)" xlink:href="#c"/></g><path d="M1.012 19.236c125.99-2.995 326.997-1.397 404.998-1.414 78-.017 382-.311 449.997-1.57 67.996-1.26 377.991-3.108 423.997-1.48l161.004.715-.019-5.365c-111.337-.974-189.672-1.212-235.004-.713-297.323 3.423-464.319 4.857-500.988 4.304-55.003-.83-320.001.095-393.001.35S60.005 16.986.998 15.148l.014 4.088z" fill="#B7D9FF" style="mix-blend-mode:multiply"/></g></svg>
