<svg width="51" height="59" xmlns="http://www.w3.org/2000/svg" class="{{ .class }}"><g fill="none" fill-rule="evenodd"><path stroke="#105EF7" stroke-width="2" d="M25.5 2l23.816 13.75v27.5L25.5 57 1.684 43.25v-27.5z"/><path d="M13 21.189l11.997 6.919-.026 6.322-6.553-3.772v7.57L13 35.08V21.189zm18.524 3.823v6.218l-5.418 3.122v-6.244l5.418-3.096zM18.986 17l11.893 6.946-5.315 3.122-11.945-6.946L18.986 17z" fill="#105EF7"/><path d="M19.54 32.525l5.457 3.18V42l-5.457-3.135v-6.34zM38 21.11v13.892L26.106 42v-6.243l6.521-3.89-.02-7.518L38 21.11zM32.066 17l5.392 3.122-5.392 3.121-5.367-3.07L32.066 17z" fill="#C3E1FF"/></g></svg>
