<svg class="inline-block mr-1 stroke-current fill-current" width="25" height="21" xmlns="http://www.w3.org/2000/svg"><path d="M25 4.193l-2.182-.531 1.091-2.126-2.688.744c-1.973-1.794-5.066-1.69-6.908.234A4.695 4.695 0 0013 5.787V6.85c-3.86.776-7.237-1.275-10.364-4.783-.545 2.835 0 4.96 1.637 6.377L1 7.913c.442 2.2 1.486 3.933 4.364 4.251l-2.728 1.063c1.091 2.126 2.8 2.456 5.455 2.658A11.943 11.943 0 011 18.01c13.915 6.026 21.818-2.831 21.818-10.628V5.97L25 4.193z" fill="none" fill-rule="evenodd" stroke-linecap="round" stroke-linejoin="round"/></svg>
