<?xml version="1.0" encoding="UTF-8"?>
<svg width="36px" height="36px" viewBox="0 0 36 36" version="1.1" xmlns="http://www.w3.org/2000/svg" xmlns:xlink="http://www.w3.org/1999/xlink">
    <!-- Generator: Sketch 62 (91390) - https://sketch.com -->
    <title>icon-usergear</title>
    <desc>Created with Sketch.</desc>
    <g id="icon-usergear" stroke="none" stroke-width="1" fill="none" fill-rule="evenodd">
        <path d="M17,20.5 C17.2761424,20.5 17.5,20.7238576 17.5,21 L17.5,21 L17.5,35.25 C17.5,35.5261424 17.2761424,35.75 17,35.75 L17,35.75 L2.75,35.75 C2.47385763,35.75 2.25,35.5261424 2.25,35.25 C2.25,27.1033576 8.85335763,20.5 17,20.5 Z M20.0007418,20.5 C21.0472077,20.5015532 22.0902543,20.6133777 23.1128217,20.8337185 C23.314308,20.8771344 23.4653688,21.0384488 23.4999858,21.2359027 L23.5075,21.3225 L23.507,24.044 L23.5547696,24.0581213 C24.23983,24.2755603 24.9021964,24.5553918 25.5336324,24.8941407 L25.931,25.118 L27.8168241,23.2325692 C27.9671531,23.0821359 28.1930859,23.0453612 28.380431,23.1321518 L28.4580264,23.1769418 C30.1719523,24.3816579 31.6110609,25.9372056 32.6791458,27.7395988 C32.778985,27.9080776 32.7700478,28.1161957 32.6636824,28.2739249 L32.6024332,28.3481736 L30.647,30.301 L30.6820062,30.3727643 C30.9301116,30.9105947 31.1368203,31.4665987 31.3003897,32.0358056 L31.422,32.5 L34.055,32.5 C34.268759,32.5 34.4551328,32.6351576 34.5253972,32.8303618 L34.5481431,32.9174781 C34.6765165,33.6846252 34.7437518,34.4623002 34.7500003,35.246024 C34.7521801,35.5221576 34.5301097,35.7477883 34.253976,35.7500003 C33.9778424,35.7521801 33.7522117,35.5301097 33.7500158,35.253976 C33.7465265,34.8152008 33.722561,34.3786374 33.6781026,33.9451477 L33.624,33.5 L31.0235,33.5 C30.8159736,33.5 30.6334315,33.3724292 30.5589105,33.1849312 L30.5338285,33.1011032 C30.341843,32.1712629 30.0266457,31.2714719 29.5968074,30.4261233 C29.5126893,30.2606909 29.5280332,30.0649628 29.6305821,29.916034 L29.6890668,29.8458264 L31.616,27.919 L31.6001831,27.8928326 C30.7792117,26.5985894 29.7486092,25.450696 28.5519217,24.4962179 L28.222,24.241 L26.3611759,26.1039308 C26.2161777,26.2490296 26,26.2889315 25.8157362,26.2123084 L25.7390182,26.1723027 C24.8540772,25.6090285 23.8888128,25.1801825 22.8739241,24.8988272 C22.6844587,24.8463022 22.5460143,24.6888319 22.5143636,24.4997545 L22.5075,24.417 L22.507,21.733 L22.4237522,21.7169612 C21.7839218,21.6024673 21.1367679,21.5330806 20.4870003,21.5092877 L19.9992582,21.5 C19.7231161,21.4995897 19.4995908,21.2754002 19.5,20.9992582 C19.5004103,20.7231161 19.7245998,20.4995908 20.0007418,20.5 Z M20,28.75 C23.5896424,28.75 26.5,31.6603576 26.5,35.25 C26.5,35.5261424 26.2761424,35.75 26,35.75 C25.7238576,35.75 25.5,35.5261424 25.5,35.25 C25.5,32.2126424 23.0373576,29.75 20,29.75 C19.7238576,29.75 19.5,29.5261424 19.5,29.25 C19.5,28.9738576 19.7238576,28.75 20,28.75 Z M16.5,21.509 L16.379143,21.5137645 C9.27877515,21.8292314 3.57923142,27.5287752 3.26376446,34.629143 L3.26376446,34.629143 L3.259,34.75 L16.5,34.75 L16.5,21.509 Z M17,0.25 C17.2761424,0.25 17.5,0.473857625 17.5,0.75 L17.5,0.75 L17.5,18.75 C17.5,19.0261424 17.2761424,19.25 17,19.25 C11.7528576,19.25 7.5,14.9971424 7.5,9.75 C7.5,4.50285763 11.7528576,0.25 17,0.25 Z M20.002985,0.249999809 C20.5344522,0.253181849 21.0648839,0.300861101 21.5865521,0.392548247 C21.7957527,0.429316834 21.9553983,0.592917479 21.9920409,0.795867383 L21.9999998,0.885 L21.9999998,2.794 L22.2824248,2.88145074 C22.6123382,2.99192043 22.9336832,3.12629024 23.2439294,3.28351508 L23.4999998,3.421 L24.8541212,2.06627231 C25.0050735,1.91504174 25.2322889,1.87858004 25.4200546,1.96663864 L25.4977729,2.01203016 C26.3638057,2.62791088 27.1205891,3.38469433 27.7364698,4.25072711 C27.8602164,4.42473578 27.8582375,4.65466512 27.7402123,4.82502555 L27.6825534,4.89405339 L26.328,6.248 L26.4664849,6.50607057 C26.6237098,6.81631677 26.7580796,7.13766178 26.8685493,7.46757517 L26.956,7.74999981 L28.865,7.74999981 C29.0774072,7.74999981 29.2629627,7.88349552 29.3341836,8.07703859 L29.3574518,8.16344787 C29.4491389,8.68511612 29.4968182,9.21554779 29.4999998,9.75298502 C29.4968182,10.2844522 29.4491389,10.8148839 29.3574518,11.3365521 C29.3206832,11.5457527 29.1570825,11.7053983 28.9541326,11.7420409 L28.865,11.7499998 L26.955,11.7499998 L26.8685493,12.0324248 C26.7580796,12.3623382 26.6237098,12.6836832 26.4664849,12.9939294 L26.328,13.2499998 L27.6838907,14.6057839 C27.8349978,14.7567521 27.8713887,14.9838853 27.7833481,15.1715827 L27.7379698,15.2492729 C27.1220891,16.1153057 26.3653057,16.8720891 25.4992729,17.4879698 C25.3252642,17.6117164 25.0953349,17.6097375 24.9249744,17.4917123 L24.8559466,17.4340534 L23.4999998,16.079 L23.2428729,16.2175667 C22.9325519,16.3744369 22.6112887,16.5085602 22.2816408,16.6188462 L21.9999998,16.705 L21.9999998,18.615 C21.9999998,18.8274072 21.8665045,19.0129627 21.6729614,19.0841836 L21.5865521,19.1074518 C21.0648839,19.1991389 20.5344522,19.2468182 20.002985,19.2499998 C19.7268476,19.2516397 19.5016575,19.0291225 19.4999998,18.752985 C19.4983603,18.4768476 19.7208775,18.2516575 19.997015,18.2499998 C20.2347856,18.2485894 20.4723015,18.2372162 20.708671,18.2159519 L20.9999998,18.183 L20.9999998,16.32 C20.9999998,16.1161054 21.1232407,15.9358639 21.3061963,15.8590454 L21.3880767,15.8326878 C22.0701701,15.6760281 22.7210953,15.4042248 23.3128325,15.0291801 C23.4857781,14.9195667 23.7050044,14.9277394 23.8679596,15.0423461 L23.9340534,15.0979466 L25.256,16.419 L25.4821814,16.2364904 C25.8443415,15.9302922 26.1802922,15.5943415 26.4864904,15.2321814 L26.669,15.006 L25.3466093,13.6842161 C25.2015107,13.5392508 25.1615751,13.3231121 25.2381462,13.1388458 L25.2781285,13.0621263 C25.6538536,12.4715031 25.9258453,11.8209663 26.0826878,11.1380767 C26.1283289,10.9393561 26.2887887,10.7912753 26.4842973,10.7573601 L26.57,10.7499998 L28.433,10.7499998 L28.4659519,10.4594172 C28.476584,10.3416057 28.4847434,10.223694 28.4904222,10.105887 L28.4999998,9.75298502 C28.4985894,9.51521442 28.4872162,9.27769845 28.4659519,9.04132901 L28.433,8.74999981 L26.57,8.74999981 C26.3661054,8.74999981 26.1858639,8.62675934 26.1090454,8.4438037 L26.0826878,8.36192333 C25.9258453,7.67903366 25.6538536,7.02849695 25.2781285,6.43787366 C25.1680788,6.26488038 25.1760658,6.04531876 25.2907814,5.8821321 L25.3464466,5.81594661 L26.668,4.493 L26.4849904,4.26781864 C26.1787922,3.90565853 25.8428415,3.56970775 25.4806814,3.26350963 L25.254,3.08 L23.9343788,4.40322769 C23.7894271,4.54844656 23.5732094,4.5884522 23.3888743,4.51186575 L23.3121263,4.47187152 C22.7215031,4.09614638 22.0709663,3.82415473 21.3880767,3.66731219 C21.1893561,3.62167107 21.0412753,3.46121126 21.0073601,3.26570267 L20.9999998,3.18 L20.9999998,1.316 L20.708671,1.28404811 C20.5904863,1.27341596 20.4720149,1.26525659 20.3533684,1.25957781 L19.997015,1.24999981 C19.7208775,1.24834251 19.4983603,1.02315243 19.4999998,0.747014979 C19.5016575,0.470877525 19.7268476,0.248360329 20.002985,0.249999809 Z M16.5,1.264 C12.0334363,1.52791411 8.5,5.22586447 8.5,9.75 C8.5,14.2741355 12.0334363,17.9720859 16.5,18.235 L16.5,18.235 Z M20,6.25 C21.9336424,6.25 23.5,7.81635763 23.5,9.75 C23.5,11.6836424 21.9336424,13.25 20,13.25 C19.7238576,13.25 19.5,13.0261424 19.5,12.75 C19.5,12.4738576 19.7238576,12.25 20,12.25 C21.3813576,12.25 22.5,11.1313576 22.5,9.75 C22.5,8.36864237 21.3813576,7.25 20,7.25 C19.7238576,7.25 19.5,7.02614237 19.5,6.75 C19.5,6.47385763 19.7238576,6.25 20,6.25 Z" id="Combined-Shape" fill="#737680" fill-rule="nonzero"></path>
    </g>
</svg>