<svg width="170" height="78" viewBox="0 0 170 78" fill="none" xmlns="http://www.w3.org/2000/svg">
<g clip-path="url(#clip0_518_1942)">
<path d="M165.319 36.953C160.658 25.3876 153.917 18.9571 149.889 15.1176C146.429 11.8189 139.221 4.95439 127.952 1.70912C120.044 -0.567915 111.609 -0.567915 103.56 1.70912C103.314 1.78257 103.074 1.88941 102.853 2.02296L77.1618 18.3829H43.8019C42.6484 14.5032 39.061 11.6653 34.8202 11.6653C29.6525 11.6653 25.445 15.8788 25.445 21.0539C25.445 26.2289 29.6525 30.4424 34.8202 30.4424C39.061 30.4424 42.6484 27.6045 43.8019 23.7249H68.7668L43.4685 39.831H18.3569C17.2034 35.9514 13.616 33.1135 9.37517 33.1135C4.20749 33.1135 0 37.327 0 42.502C0 47.6771 4.20749 51.8906 9.37517 51.8906C13.616 51.8906 17.2034 49.0527 18.3569 45.173H35.0735L16.87 56.7652C15.8698 57.4062 15.4097 58.6282 15.7364 59.7634C16.0631 60.8986 17.11 61.6865 18.2969 61.6865H167.333C168.06 61.6865 168.76 61.386 169.26 60.8585C169.76 60.331 170.027 59.6165 169.993 58.8886C169.633 51.1361 168.06 43.7574 165.319 36.953V36.953ZM38.8543 21.0472C38.8543 23.2775 37.0406 25.0938 34.8135 25.0938C32.5864 25.0938 30.7727 23.2775 30.7727 21.0472C30.7727 18.8169 32.5864 17.0006 34.8135 17.0006C37.0406 17.0006 38.8543 18.8169 38.8543 21.0472ZM13.416 42.4954C13.416 44.7256 11.6023 46.5419 9.37517 46.5419C7.14807 46.5419 5.33438 44.7256 5.33438 42.4954C5.33438 40.2651 7.14807 38.4488 9.37517 38.4488C11.6023 38.4488 13.416 40.2651 13.416 42.4954ZM27.4721 56.3378L45.0222 45.1664H90.2043C91.678 45.1664 92.8715 43.9711 92.8715 42.4954C92.8715 41.0196 91.678 39.8243 90.2043 39.8243H53.4171L78.7154 23.7182H117.736C119.21 23.7182 120.404 22.5229 120.404 21.0472C120.404 19.5715 119.21 18.3762 117.736 18.3762H87.1104L105.387 6.74396C112.362 4.84087 119.65 4.87426 126.485 6.84412C136.5 9.72881 143.068 15.9856 146.222 18.9905C150.176 22.7633 156.157 28.4592 160.385 38.9563C162.572 44.3784 163.945 50.2212 164.492 56.3445H27.4721V56.3378Z" fill="#25229E"/>
<path d="M165.206 72.658H18.3036C16.83 72.658 15.6364 73.8533 15.6364 75.329C15.6364 76.8048 16.83 78 18.3036 78H165.206C166.679 78 167.873 76.8048 167.873 75.329C167.873 73.8533 166.679 72.658 165.206 72.658Z" fill="#25229E"/>
<path d="M34.8135 17.0009C32.5864 17.0009 30.7727 18.8172 30.7727 21.0475C30.7727 23.2778 32.5864 25.0941 34.8135 25.0941C37.0406 25.0941 38.8543 23.2778 38.8543 21.0475C38.8543 18.8172 37.0406 17.0009 34.8135 17.0009Z" fill="#25229E" fill-opacity="0.25"/>
<path d="M9.37517 38.4491C7.14807 38.4491 5.33438 40.2654 5.33438 42.4957C5.33438 44.726 7.14807 46.5422 9.37517 46.5422C11.6023 46.5422 13.416 44.726 13.416 42.4957C13.416 40.2654 11.6023 38.4491 9.37517 38.4491V38.4491Z" fill="#25229E" fill-opacity="0.25"/>
</g>
<defs>
<clipPath id="clip0_518_1942">
<rect width="170" height="78" fill="white"/>
</clipPath>
</defs>
</svg>
