<?xml version="1.0" encoding="UTF-8"?>
<svg width="36px" height="36px" viewBox="0 0 36 36" version="1.1" xmlns="http://www.w3.org/2000/svg" xmlns:xlink="http://www.w3.org/1999/xlink">
    <!-- Generator: Sketch 62 (91390) - https://sketch.com -->
    <title>icon-lock</title>
    <desc>Created with Sketch.</desc>
    <g id="icon-lock" stroke="none" stroke-width="1" fill="none" fill-rule="evenodd">
        <path d="M18,0.25 C22.7468363,0.25 26.60982,4.02821885 26.7462701,8.74197529 L26.75,9 L26.751122,16.1590552 C28.6158191,18.2387894 29.75,20.9869926 29.75,24 C29.75,30.4891424 24.4891424,35.75 18,35.75 C11.5108576,35.75 6.25,30.4891424 6.25,24 C6.25,20.9865056 7.3845476,18.237901 9.24978221,16.1580468 L9.25,9 C9.25,4.16685763 13.1668576,0.25 18,0.25 Z M18,13.25 C14.9038968,13.25 12.1134081,14.55902 10.1518152,16.6537786 C10.1284973,16.6899423 10.0992354,16.7207961 10.0665152,16.7475829 C8.3172311,18.6580097 7.25,21.2044226 7.25,24 C7.25,29.9368576 12.0631424,34.75 18,34.75 C23.9368576,34.75 28.75,29.9368576 28.75,24 C28.75,21.2044226 27.6827689,18.6580097 25.933522,16.7459765 C25.9007646,16.7207961 25.8715027,16.6899423 25.846471,16.6557935 C23.8865919,14.55902 21.0961032,13.25 18,13.25 Z M18,16 C18.2454599,16 18.4496084,16.1768752 18.4919443,16.4101244 L18.5,16.5 L18.5003053,17.5189714 C21.6914219,17.7619153 24.2386437,20.309446 24.4811049,23.5006975 L25.5,23.5 C25.7761424,23.5 26,23.7238576 26,24 C26,24.2454599 25.8231248,24.4496084 25.5898756,24.4919443 L25.5,24.5 L24.4810286,24.5003053 C24.2381101,27.6910876 21.6910876,30.2381101 18.5003053,30.4810286 L18.5,31.5 C18.5,31.7761424 18.2761424,32 18,32 C17.7545401,32 17.5503916,31.8231248 17.5080557,31.5898756 L17.5,31.5 L17.5006975,30.4811049 C14.309446,30.2386437 11.7619153,27.6914219 11.5189714,24.5003053 L10.5,24.5 C10.2238576,24.5 10,24.2761424 10,24 C10,23.7545401 10.1768752,23.5503916 10.4101244,23.5080557 L10.5,23.5 L11.5188951,23.5006975 C11.7613817,20.3091118 14.3091118,17.7613817 17.5006975,17.5188951 L17.5,16.5 C17.5,16.2238576 17.7238576,16 18,16 Z M18.5005811,18.5224785 L18.5,19.5 C18.5,19.7761424 18.2761424,20 18,20 C17.7545401,20 17.5503916,19.8231248 17.5080557,19.5898756 L17.5,19.5 L17.5004242,18.5223879 C14.8616856,18.7600194 12.7600194,20.8616856 12.5223879,23.5004242 L13.5,23.5 C13.7761424,23.5 14,23.7238576 14,24 C14,24.2454599 13.8231248,24.4496084 13.5898756,24.4919443 L13.5,24.5 L12.5224785,24.5005811 C12.7605532,27.1388482 14.8620208,29.2400108 17.5004242,29.4776121 L17.5,28.5 C17.5,28.2238576 17.7238576,28 18,28 C18.2454599,28 18.4496084,28.1768752 18.4919443,28.4101244 L18.5,28.5 L18.5005811,29.4775215 C21.1385131,29.239477 23.239477,27.1385131 23.4775215,24.5005811 L22.5,24.5 C22.2238576,24.5 22,24.2761424 22,24 C22,23.7545401 22.1768752,23.5503916 22.4101244,23.5080557 L22.5,23.5 L23.4776121,23.5004242 C23.2400108,20.8620208 21.1388482,18.7605532 18.5005811,18.5224785 Z M18,23.125 L18.1097371,23.1318192 C18.5411095,23.1858259 18.875,23.5540224 18.875,24 C18.875,24.4831424 18.4831424,24.875 18,24.875 C17.5168576,24.875 17.125,24.4831424 17.125,24 C17.125,23.5540224 17.4588905,23.1858259 17.8902629,23.1318192 L18,23.125 Z M18,1.25 C13.8014666,1.25 10.3837287,4.58699679 10.25383,8.75394692 L10.25,9 L10.2499468,15.1682232 C12.3185454,13.3515271 15.0306825,12.25 18,12.25 C20.9697929,12.25 23.682323,13.3518799 25.7510467,15.1690958 L25.75,9 C25.75,4.71914237 22.2808576,1.25 18,1.25 Z" id="Combined-Shape" fill="#737680" fill-rule="nonzero"></path>
    </g>
</svg>