<?xml version="1.0" encoding="UTF-8"?>
<svg width="36px" height="36px" viewBox="0 0 36 36" version="1.1" xmlns="http://www.w3.org/2000/svg" xmlns:xlink="http://www.w3.org/1999/xlink">
    <!-- Generator: Sketch 62 (91390) - https://sketch.com -->
    <title>icon-solar</title>
    <desc>Created with Sketch.</desc>
    <g id="icon-solar" stroke="none" stroke-width="1" fill="none" fill-rule="evenodd">
        <path d="M27.023796,13.8328467 C27.4721587,13.8328467 27.8853106,14.0758165 28.103325,14.4678652 L28.103325,14.4678652 L34.5752089,26.1184214 C34.7879329,26.5009564 34.7822971,26.9675091 34.5603946,27.344794 C34.3384965,27.7220716 33.9334882,27.9537143 33.495791,27.9537143 L33.495791,27.9537143 L22.1328769,27.9527463 L22.1334669,34.7285532 C22.1334669,35.0084973 21.9065274,35.2354367 21.6265833,35.2354367 C21.3777442,35.2354367 21.1707852,35.0561265 21.1278664,34.8196662 L21.1196998,34.7285532 L21.1188769,27.9527463 L17.7638769,27.9527463 L17.7644334,34.7285532 C17.7644334,35.0084973 17.5374939,35.2354367 17.2575499,35.2354367 C17.0087107,35.2354367 16.8017517,35.0561265 16.7588329,34.8196662 L16.7506663,34.7285532 L16.7498769,27.9527463 L5.38834222,27.9537143 C4.99927799,27.9537143 4.63604209,27.770688 4.40428011,27.4650413 L4.32373855,27.344794 C4.10183614,26.9675091 4.09620032,26.5009564 4.30881329,26.1186212 L4.30881329,26.1186212 L10.7809193,14.4676654 C10.9988226,14.0758165 11.4119745,13.8328467 11.8603372,13.8328467 L11.8603372,13.8328467 Z M13.9548769,23.5837463 L6.87587687,23.5837463 L5.19491501,26.6111122 C5.1663292,26.6625171 5.15975075,26.7223898 5.17502144,26.7776318 L5.19756931,26.8308451 C5.23732569,26.89844 5.30989757,26.9399472 5.38834222,26.9399472 L5.38834222,26.9399472 L13.2088769,26.9397463 L13.9548769,23.5837463 Z M23.8898769,23.5837463 L14.9938769,23.5837463 L14.2478769,26.9397463 L24.6348769,26.9397463 L23.8898769,23.5837463 Z M32.0078769,23.5837463 L24.9278769,23.5837463 L25.6738769,26.9397463 L33.495791,26.9399472 C33.5546245,26.9399472 33.6101545,26.9165994 33.6510147,26.8764089 L33.6865639,26.8308451 C33.7263228,26.7632458 33.7273326,26.6796521 33.6891071,26.6109124 L33.6891071,26.6109124 L32.0078769,23.5837463 Z M14.9258769,19.2147463 L9.30287687,19.2147463 L7.43887687,22.5707463 L14.1798769,22.5707463 L14.9258769,19.2147463 Z M22.9188769,19.2147463 L15.9648769,19.2147463 L15.2188769,22.5707463 L23.6638769,22.5707463 L22.9188769,19.2147463 Z M29.5808769,19.2147463 L23.9568769,19.2147463 L24.7028769,22.5707463 L31.4448769,22.5707463 L29.5808769,19.2147463 Z M15.8968769,14.8457463 L11.8603372,14.8466138 C11.7799815,14.8466138 11.7059507,14.8901505 11.6670235,14.9601564 L11.6670235,14.9601564 L9.86587687,18.2017463 L15.1508769,18.2017463 L15.8968769,14.8457463 Z M21.9478769,14.8457463 L16.9358769,14.8457463 L16.1898769,18.2017463 L22.6938769,18.2017463 L21.9478769,14.8457463 Z M27.023796,14.8466138 L22.9858769,14.8457463 L23.7318769,18.2017463 L29.0178769,18.2017463 L27.2172233,14.9603562 C27.1879427,14.9077019 27.1389802,14.870049 27.082429,14.8545134 L27.023796,14.8466138 Z M21.2570026,8.21124036 C21.442906,8.42054541 21.4239352,8.74092514 21.2146301,8.92682852 C21.0053251,9.1127319 20.6849453,9.0937611 20.499042,8.88445605 C18.2304731,6.3303179 14.6200474,5.44289045 11.4259177,6.65432032 C8.23178876,7.86574993 6.11791285,10.9242188 6.11367301,14.3402285 C6.11277448,15.2544027 6.26752568,16.1620543 6.57129408,17.0242771 C6.66431653,17.288314 6.52568192,17.5777678 6.261645,17.6707903 C5.99760808,17.7638127 5.70815427,17.6251781 5.61513182,17.3611412 C5.27312563,16.3903835 5.09889478,15.3684792 5.09990219,14.3391011 C5.10466876,10.5022234 7.47889303,7.06706852 11.0664164,5.70643717 C14.6539406,4.34580547 18.7090328,5.34253004 21.2570026,8.21124036 Z M2.6941049,13.8328467 C2.97404895,13.8328467 3.20098844,14.0597862 3.20098844,14.3397303 C3.20098844,14.5885694 3.02167822,14.7955284 2.78521786,14.8384472 L2.6941049,14.8466138 L1.2377604,14.8466138 C0.957816356,14.8466138 0.730876866,14.6196743 0.730876866,14.3397303 C0.730876866,14.0908911 0.91018708,13.8839321 1.14664745,13.8410133 L1.2377604,13.8328467 L2.6941049,13.8328467 Z M4.43721261,3.73115875 L4.50741384,3.7898107 L5.96375833,5.2461552 C6.16170867,5.44410553 6.16170867,5.76504644 5.96375833,5.96299677 C5.78780248,6.13895262 5.51466889,6.15850327 5.31711799,6.02164872 L5.24691676,5.96299677 L3.79057226,4.50665227 C3.59262193,4.30870194 3.59262193,3.98776103 3.79057226,3.7898107 C3.96652812,3.61385485 4.2396617,3.5943042 4.43721261,3.73115875 Z M24.8976931,3.78689801 C25.073649,3.96285386 25.0931996,4.23598745 24.9563451,4.43353836 L24.8976931,4.50373959 L23.4413486,5.96008408 C23.2433983,6.15803442 22.9224574,6.15803442 22.724507,5.96008408 C22.5485512,5.78412823 22.5290005,5.51099464 22.6658551,5.31344373 L22.724507,5.24324251 L24.1808515,3.78689801 C24.3788019,3.58894768 24.6997428,3.58894768 24.8976931,3.78689801 Z M14.3448609,0.725746269 C14.5937,0.725746269 14.800659,0.905056483 14.8435778,1.14151685 L14.8517444,1.23262981 L14.8517444,2.6889743 C14.8517444,2.96891835 14.6248049,3.19585784 14.3448609,3.19585784 C14.0960217,3.19585784 13.8890627,3.01654763 13.8461439,2.78008726 L13.8379773,2.6889743 L13.8379773,1.23262981 C13.8379773,0.952685759 14.0649168,0.725746269 14.3448609,0.725746269 Z" id="Combined-Shape" fill="#737680" fill-rule="nonzero"></path>
    </g>
</svg>