<?xml version="1.0" encoding="UTF-8"?>
<svg width="19px" height="16px" viewBox="0 0 19 16" version="1.1" xmlns="http://www.w3.org/2000/svg" xmlns:xlink="http://www.w3.org/1999/xlink">
    <!-- Generator: Sketch 60.1 (88133) - https://sketch.com -->
    <title>icon / twitter blue otln</title>
    <desc>Created with Sketch.</desc>
    <g id="Layouts" stroke="none" stroke-width="1" fill="none" fill-rule="evenodd" stroke-linecap="round" stroke-linejoin="round">
        <g id="Research-&gt;-Talks-&gt;-Details" transform="translate(-995.000000, -1151.000000)" stroke="#1982F4">
            <g id="Aside-(for-you)" transform="translate(964.000000, 1038.000000)">
                <g id="Group-3" transform="translate(32.000000, 110.000000)">
                    <g id="elements/icons/-twitter-blue-otln" transform="translate(0.000000, 4.000000)">
                        <path d="M18,2.39472853 L16.3636364,1.99615212 L17.1818182,0.401846466 L15.1658182,0.959853444 C13.6857273,-0.385740525 11.3661818,-0.306822395 9.98509091,1.13522707 C9.34690909,1.80164683 8.99509091,2.68010924 9,3.59045777 L9,4.38761059 C6.10445455,4.96953215 3.57218182,3.4310272 1.22727273,0.800422879 C0.818181818,2.92642946 1.22727273,4.52073511 2.45454545,5.58333983 L0,5.18476342 C0.331363636,6.83407261 1.11436364,8.13422887 3.27272727,8.37337472 L1.22727273,9.17052754 C2.04545455,10.7648332 3.32672727,11.0119506 5.31818182,11.1634096 C3.76936364,12.2419574 1.90309091,12.8007615 0,12.7577153 C10.4359091,17.2767746 16.3636364,10.6341001 16.3636364,4.786187 L16.3636364,3.72756805 L18,2.39472853 Z" id="Path"></path>
                    </g>
                </g>
            </g>
        </g>
    </g>
</svg>