<svg width="131" height="141" viewBox="0 0 131 141" fill="none" xmlns="http://www.w3.org/2000/svg">
<path d="M66.2514 6.05315L65.4965 5.61351L64.7416 6.05315L9.72168 38.0963L8.97658 38.5303V39.3925V103.479V104.341L9.72168 104.775L64.7416 136.818L65.4965 137.258L66.2514 136.818L121.271 104.775L122.016 104.341V103.479V39.3925V38.5303L121.271 38.0963L66.2514 6.05315Z" stroke="#12BFDB" stroke-width="3"/>
<mask id="mask0" mask-type="alpha" maskUnits="userSpaceOnUse" x="10" y="7" width="111" height="129">
<path d="M65.4965 7.34935L10.4766 39.3925V103.479L65.4965 135.522L120.516 103.479V39.3925L65.4965 7.34935Z" fill="#12BFDB"/>
</mask>
<g mask="url(#mask0)">
<path d="M10.7266 103.335V39.5362L65.4965 7.63866L120.266 39.5362V103.335L65.4965 135.233L10.7266 103.335Z" stroke="#12BFDB" stroke-width="0.5"/>
<path d="M21.6433 102.196L20.9039 103.421L38.5207 114.244L39.2601 113.019L21.6433 102.196Z" fill="#12BFDB"/>
<path d="M42.7809 91.1612L42.4224 92.5488L58.8327 96.8641L59.1913 95.4765L42.7809 91.1612Z" fill="#12BFDB"/>
<path d="M96.6198 95.6858L63.7989 96.0441L63.8143 97.478L96.6352 97.1198L96.6198 95.6858Z" fill="#12BFDB"/>
<path d="M96.3578 96.6991L76.8909 104.785L77.4321 106.111L96.8991 98.0251L96.3578 96.6991Z" fill="#12BFDB"/>
<path d="M90.2936 47.9403L63.8549 48.2289L63.8703 49.6628L90.309 49.3742L90.2936 47.9403Z" fill="#12BFDB"/>
<path d="M77.1831 25.1809L62.2282 46.4253L63.3872 47.2556L78.3421 26.0112L77.1831 25.1809Z" fill="#12BFDB"/>
<path d="M50.4286 33.179L49.2929 34.0415L59.1498 47.2515L60.2855 46.3891L50.4286 33.179Z" fill="#12BFDB"/>
<path d="M46.053 33.0488L16.4861 62.8758L17.4912 63.8898L47.0582 34.0628L46.053 33.0488Z" fill="#12BFDB"/>
<path d="M81.7976 24.2313L81.0753 25.4664L105.201 39.8251L105.923 38.59L81.7976 24.2313Z" fill="#12BFDB"/>
<path d="M114.831 66.0974L113.411 66.1632L114.17 82.8448L115.59 82.779L114.831 66.0974Z" fill="#12BFDB"/>
<path d="M89.9879 19.9681L81.34 22.3433L81.7134 23.7269L90.3613 21.3518L89.9879 19.9681Z" fill="#12BFDB"/>
<path d="M37.2322 22.456L36.3803 23.6039L45.7286 30.664L46.5805 29.516L37.2322 22.456Z" fill="#12BFDB"/>
<path d="M79.2141 21.7756C79.5585 21.7756 79.8952 21.8786 80.1816 22.0716C80.4679 22.2647 80.6911 22.539 80.8229 22.86C80.9547 23.181 80.9892 23.5342 80.922 23.875C80.8548 24.2157 80.689 24.5287 80.4454 24.7744C80.2019 25.0201 79.8916 25.1874 79.5538 25.2552C79.216 25.323 78.8659 25.2882 78.5477 25.1552C78.2295 25.0223 77.9576 24.7971 77.7662 24.5082C77.5749 24.2193 77.4727 23.8797 77.4727 23.5323C77.4727 23.0664 77.6562 22.6196 77.9828 22.2901C78.3093 21.9607 78.7523 21.7756 79.2141 21.7756ZM79.2141 20.3416C78.5885 20.3416 77.977 20.5287 77.4569 20.8793C76.9368 21.2299 76.5314 21.7282 76.292 22.3112C76.0526 22.8943 75.99 23.5358 76.112 24.1547C76.234 24.7737 76.5353 25.3422 76.9776 25.7884C77.4199 26.2347 77.9835 26.5385 78.5971 26.6616C79.2106 26.7848 79.8465 26.7216 80.4245 26.4801C81.0024 26.2386 81.4964 25.8296 81.8439 25.3049C82.1915 24.7802 82.377 24.1633 82.377 23.5323C82.377 22.686 82.0438 21.8745 81.4506 21.2761C80.8574 20.6777 80.0529 20.3416 79.2141 20.3416Z" fill="#12BFDB"/>
<path d="M120.833 82.4347L117.06 83.7796L117.533 85.1317L121.306 83.7868L120.833 82.4347Z" fill="#12BFDB"/>
<path d="M15.9678 67.5649L14.5473 67.6197L14.9699 78.7682L16.3904 78.7134L15.9678 67.5649Z" fill="#12BFDB"/>
<path d="M13.0332 81.6993L9.50821 82.9557L9.98179 84.3078L13.5068 83.0514L13.0332 81.6993Z" fill="#12BFDB"/>
<path d="M9.84712 63.9383L9.64044 65.357L12.5166 65.7834L12.7232 64.3646L9.84712 63.9383Z" fill="#12BFDB"/>
<path d="M109.122 42.8237L107.75 43.1994L112.68 61.5156L114.052 61.1399L109.122 42.8237Z" fill="#12BFDB"/>
<path d="M116.496 63.408L116.272 64.8241L120.953 65.5788L121.177 64.1627L116.496 63.408Z" fill="#12BFDB"/>
<path d="M112.186 33.3011L108.759 38.0565L109.908 38.8998L113.336 34.1444L112.186 33.3011Z" fill="#12BFDB"/>
<path d="M38.562 115.114L32.4104 116.803L32.7839 118.187L38.9354 116.498L38.562 115.114Z" fill="#12BFDB"/>
<path d="M77.5012 107.516L76.6483 108.663L86.4795 116.101L87.3324 114.954L77.5012 107.516Z" fill="#12BFDB"/>
<path d="M91.4875 118.089L90.6346 119.236L93.0512 121.064L93.9041 119.917L91.4875 118.089Z" fill="#12BFDB"/>
<path d="M88.9728 115.209C89.3172 115.209 89.6539 115.312 89.9403 115.505C90.2266 115.698 90.4498 115.973 90.5816 116.294C90.7134 116.615 90.7479 116.968 90.6807 117.309C90.6135 117.649 90.4477 117.962 90.2042 118.208C89.9606 118.454 89.6503 118.621 89.3125 118.689C88.9748 118.757 88.6246 118.722 88.3064 118.589C87.9882 118.456 87.7163 118.231 87.5249 117.942C87.3336 117.653 87.2315 117.313 87.2315 116.966C87.2315 116.5 87.4149 116.053 87.7415 115.724C88.0681 115.394 88.511 115.209 88.9728 115.209ZM88.9728 113.775C88.3473 113.775 87.7358 113.962 87.2156 114.313C86.6955 114.663 86.2901 115.162 86.0507 115.745C85.8113 116.328 85.7487 116.969 85.8707 117.588C85.9928 118.207 86.294 118.776 86.7363 119.222C87.1787 119.668 87.7422 119.972 88.3558 120.095C88.9693 120.218 89.6053 120.155 90.1832 119.914C90.7611 119.672 91.2551 119.263 91.6027 118.739C91.9502 118.214 92.1357 117.597 92.1357 116.966C92.1357 116.547 92.0539 116.132 91.8949 115.745C91.736 115.358 91.503 115.006 91.2093 114.71C90.9156 114.413 90.5669 114.178 90.1832 114.018C89.7995 113.858 89.3882 113.775 88.9728 113.775Z" fill="#12BFDB"/>
<path d="M15.4732 79.6383C15.8179 79.6383 16.1549 79.7415 16.4414 79.9349C16.7279 80.1282 16.9511 80.403 17.0827 80.7244C17.2143 81.0458 17.2484 81.3994 17.1806 81.7403C17.1128 82.0813 16.9463 82.3943 16.702 82.6397C16.4578 82.8851 16.1468 83.0518 15.8086 83.1188C15.4703 83.1857 15.12 83.1499 14.8019 83.0159C14.4838 82.8818 14.2124 82.6555 14.0219 82.3657C13.8314 82.0759 13.7305 81.7355 13.7319 81.3878C13.7337 80.9232 13.918 80.4782 14.2444 80.1503C14.5708 79.8224 15.0126 79.6383 15.4732 79.6383ZM15.4732 78.2043C14.8474 78.2043 14.2356 78.3916 13.7153 78.7425C13.195 79.0934 12.7896 79.5922 12.5504 80.1756C12.3112 80.7591 12.249 81.401 12.3716 82.0201C12.4943 82.6392 12.7962 83.2077 13.2393 83.6537C13.6823 84.0996 14.2465 84.4029 14.8605 84.5252C15.4745 84.6475 16.1107 84.5833 16.6885 84.3407C17.2663 84.0981 17.7598 83.6881 18.1065 83.1624C18.4532 82.6368 18.6375 82.0192 18.6361 81.3878C18.6361 80.9691 18.5542 80.5546 18.3952 80.1679C18.2362 79.7812 18.0031 79.4299 17.7093 79.1342C17.4155 78.8385 17.0668 78.6041 16.6831 78.4445C16.2994 78.285 15.8882 78.2033 15.4732 78.2043Z" fill="#12BFDB"/>
<path d="M114.013 61.9783C114.358 61.9726 114.698 62.0708 114.988 62.2603C115.278 62.4499 115.506 62.7222 115.642 63.0426C115.778 63.3631 115.817 63.7172 115.753 64.0598C115.689 64.4024 115.525 64.7181 115.283 64.9667C115.04 65.2152 114.73 65.3854 114.392 65.4555C114.053 65.5257 113.701 65.4926 113.382 65.3605C113.062 65.2285 112.788 65.0033 112.596 64.7139C112.403 64.4244 112.3 64.0837 112.3 63.735C112.3 63.2691 112.483 62.8223 112.81 62.4928C113.137 62.1634 113.579 61.9783 114.041 61.9783H114.013ZM114.041 60.5443C113.416 60.5443 112.804 60.7314 112.284 61.082C111.764 61.4326 111.359 61.931 111.119 62.514C110.88 63.097 110.817 63.7385 110.939 64.3575C111.061 64.9764 111.362 65.5449 111.805 65.9912C112.247 66.4374 112.811 66.7413 113.424 66.8644C114.038 66.9875 114.674 66.9243 115.252 66.6828C115.83 66.4413 116.324 66.0324 116.671 65.5077C117.019 64.983 117.204 64.3661 117.204 63.735C117.204 62.8888 116.871 62.0772 116.278 61.4788C115.685 60.8805 114.88 60.5443 114.041 60.5443Z" fill="#12BFDB"/>
<path d="M107.765 38.7687C108.11 38.7687 108.446 38.8718 108.733 39.0648C109.019 39.2578 109.242 39.5322 109.374 39.8532C109.506 40.1741 109.54 40.5274 109.473 40.8681C109.406 41.2089 109.24 41.5219 108.997 41.7676C108.753 42.0132 108.443 42.1805 108.105 42.2483C107.767 42.3161 107.417 42.2813 107.099 42.1484C106.781 42.0154 106.509 41.7902 106.317 41.5014C106.126 41.2125 106.024 40.8728 106.024 40.5254C106.024 40.0595 106.207 39.6127 106.534 39.2833C106.861 38.9538 107.303 38.7687 107.765 38.7687ZM107.765 37.3347C107.14 37.3347 106.528 37.5218 106.008 37.8724C105.488 38.223 105.083 38.7214 104.843 39.3044C104.604 39.8874 104.541 40.5289 104.663 41.1479C104.785 41.7668 105.086 42.3353 105.529 42.7816C105.971 43.2278 106.535 43.5317 107.148 43.6548C107.762 43.7779 108.398 43.7147 108.976 43.4732C109.554 43.2317 110.048 42.8228 110.395 42.2981C110.743 41.7734 110.928 41.1565 110.928 40.5254C110.928 39.6792 110.595 38.8676 110.002 38.2692C109.409 37.6709 108.604 37.3347 107.765 37.3347Z" fill="#12BFDB"/>
<path d="M72.037 105.753L43.3163 113.832L43.6981 115.213L72.4188 107.135L72.037 105.753Z" fill="#12BFDB"/>
<path d="M72.6545 107.981L55.8568 131.253L57.0059 132.097L73.8037 108.825L72.6545 107.981Z" fill="#12BFDB"/>
<path d="M57.0593 129.575L53.7918 134.102L54.941 134.946L58.2085 130.419L57.0593 129.575Z" fill="#12BFDB"/>
<path d="M74.7647 104.683C75.1091 104.683 75.4458 104.786 75.7322 104.98C76.0186 105.173 76.2417 105.447 76.3735 105.768C76.5053 106.089 76.5398 106.442 76.4726 106.783C76.4055 107.124 76.2396 107.437 75.9961 107.682C75.7525 107.928 75.4422 108.095 75.1045 108.163C74.7667 108.231 74.4165 108.196 74.0983 108.063C73.7802 107.93 73.5082 107.705 73.3168 107.416C73.1255 107.127 73.0234 106.788 73.0234 106.44C73.0234 105.974 73.2068 105.527 73.5334 105.198C73.86 104.869 74.3029 104.683 74.7647 104.683ZM74.7647 103.249C74.1392 103.249 73.5277 103.437 73.0075 103.787C72.4874 104.138 72.082 104.636 71.8426 105.219C71.6032 105.802 71.5406 106.444 71.6626 107.063C71.7847 107.682 72.0859 108.25 72.5282 108.696C72.9706 109.143 73.5341 109.446 74.1477 109.57C74.7612 109.693 75.3972 109.629 75.9751 109.388C76.5531 109.146 77.047 108.737 77.3946 108.213C77.7421 107.688 77.9276 107.071 77.9276 106.44C77.9257 105.594 77.5919 104.784 76.9992 104.186C76.4064 103.588 75.603 103.251 74.7647 103.249Z" fill="#12BFDB"/>
<path d="M41.0321 113.452C41.3765 113.452 41.7132 113.556 41.9996 113.749C42.2859 113.942 42.5091 114.216 42.6409 114.537C42.7727 114.858 42.8072 115.211 42.74 115.552C42.6728 115.893 42.507 116.206 42.2634 116.451C42.0199 116.697 41.7096 116.864 41.3718 116.932C41.034 117 40.6839 116.965 40.3657 116.832C40.0475 116.699 39.7756 116.474 39.5842 116.185C39.3929 115.896 39.2908 115.557 39.2908 115.209C39.2908 114.743 39.4742 114.296 39.8008 113.967C40.1274 113.638 40.5703 113.452 41.0321 113.452ZM41.0321 112.018C40.4066 112.018 39.795 112.206 39.2749 112.556C38.7548 112.907 38.3494 113.405 38.11 113.988C37.8706 114.571 37.808 115.213 37.93 115.832C38.052 116.451 38.3533 117.019 38.7956 117.465C39.238 117.912 39.8015 118.215 40.4151 118.339C41.0286 118.462 41.6646 118.398 42.2425 118.157C42.8204 117.915 43.3144 117.507 43.662 116.982C44.0095 116.457 44.195 115.84 44.195 115.209C44.195 114.363 43.8618 113.551 43.2686 112.953C42.6755 112.355 41.871 112.018 41.0321 112.018Z" fill="#12BFDB"/>
<path d="M48.4169 29.928C48.7616 29.928 49.0986 30.0312 49.3851 30.2246C49.6716 30.4179 49.8948 30.6927 50.0264 31.0141C50.158 31.3355 50.192 31.6891 50.1243 32.03C50.0565 32.371 49.89 32.684 49.6457 32.9294C49.4015 33.1748 49.0905 33.3415 48.7523 33.4085C48.414 33.4754 48.0637 33.4396 47.7456 33.3056C47.4275 33.1715 47.1561 32.9452 46.9656 32.6554C46.7751 32.3656 46.6742 32.0252 46.6756 31.6775C46.6774 31.2129 46.8617 30.7679 47.1881 30.44C47.5145 30.1121 47.9563 29.928 48.4169 29.928ZM48.4169 28.494C47.7911 28.494 47.1793 28.6813 46.659 29.0322C46.1387 29.3831 45.7333 29.8819 45.4941 30.4653C45.255 31.0488 45.1927 31.6907 45.3154 32.3098C45.438 32.9289 45.7399 33.4974 46.183 33.9434C46.626 34.3893 47.1902 34.6926 47.8042 34.8149C48.4183 34.9372 49.0544 34.873 49.6322 34.6304C50.21 34.3878 50.7035 33.9778 51.0502 33.4521C51.3969 32.9265 51.5812 32.3089 51.5798 31.6775C51.5779 30.8325 51.2439 30.0228 50.6509 29.426C50.058 28.8292 49.2545 28.494 48.4169 28.494Z" fill="#12BFDB"/>
<path d="M15.1676 63.4697C15.5111 63.4697 15.8469 63.5723 16.1328 63.7643C16.4187 63.9564 16.6419 64.2295 16.7743 64.5493C16.9067 64.869 16.9424 65.2211 16.8769 65.5613C16.8114 65.9014 16.6477 66.2145 16.4063 66.461C16.1649 66.7075 15.8566 66.8765 15.5202 66.9466C15.1838 67.0168 14.8344 66.9851 14.5159 66.8554C14.1973 66.7258 13.9239 66.504 13.73 66.2179C13.5361 65.9319 13.4305 65.5944 13.4262 65.2479C13.4262 64.782 13.6097 64.3352 13.9363 64.0057C14.2628 63.6763 14.7058 63.4912 15.1676 63.4912V63.4697ZM15.1676 62.0572C14.5421 62.0572 13.9305 62.2443 13.4104 62.5949C12.8903 62.9455 12.4849 63.4439 12.2455 64.0269C12.0061 64.6099 11.9435 65.2514 12.0655 65.8704C12.1875 66.4893 12.4888 67.0578 12.9311 67.5041C13.3735 67.9503 13.937 68.2542 14.5506 68.3773C15.1641 68.5004 15.8001 68.4372 16.378 68.1957C16.9559 67.9542 17.4499 67.5453 17.7974 67.0206C18.145 66.4958 18.3305 65.879 18.3305 65.2479C18.3305 64.4017 17.9973 63.5901 17.4041 62.9917C16.8109 62.3934 16.0065 62.0572 15.1676 62.0572Z" fill="#12BFDB"/>
<path d="M115.001 83.6249C115.345 83.6249 115.682 83.7279 115.968 83.9209C116.255 84.114 116.478 84.3883 116.61 84.7093C116.741 85.0303 116.776 85.3835 116.709 85.7243C116.642 86.065 116.476 86.378 116.232 86.6237C115.989 86.8694 115.678 87.0367 115.341 87.1045C115.003 87.1723 114.653 87.1375 114.334 87.0045C114.016 86.8716 113.744 86.6464 113.553 86.3575C113.362 86.0686 113.259 85.729 113.259 85.3816C113.259 84.9157 113.443 84.4688 113.77 84.1394C114.096 83.81 114.539 83.6249 115.001 83.6249ZM115.001 82.1909C114.375 82.1909 113.764 82.378 113.244 82.7286C112.724 83.0792 112.318 83.5775 112.079 84.1605C111.839 84.7436 111.777 85.3851 111.899 86.004C112.021 86.623 112.322 87.1915 112.764 87.6377C113.207 88.0839 113.77 88.3878 114.384 88.5109C114.997 88.6341 115.633 88.5709 116.211 88.3294C116.789 88.0879 117.283 87.6789 117.631 87.1542C117.978 86.6295 118.164 86.0126 118.164 85.3816C118.162 84.5359 117.828 83.7255 117.235 83.1275C116.643 82.5295 115.839 82.1928 115.001 82.1909Z" fill="#12BFDB"/>
<path d="M61.3172 47.2151C61.6616 47.2151 61.9983 47.3181 62.2847 47.5112C62.571 47.7042 62.7942 47.9785 62.926 48.2995C63.0578 48.6205 63.0923 48.9737 63.0251 49.3145C62.9579 49.6553 62.7921 49.9683 62.5485 50.2139C62.305 50.4596 61.9947 50.6269 61.6569 50.6947C61.3191 50.7625 60.969 50.7277 60.6508 50.5947C60.3326 50.4618 60.0607 50.2366 59.8693 49.9477C59.678 49.6589 59.5758 49.3192 59.5758 48.9718C59.5758 48.5059 59.7593 48.0591 60.0859 47.7296C60.4124 47.4002 60.8554 47.2151 61.3172 47.2151ZM61.3172 45.7811C60.6916 45.7811 60.0801 45.9682 59.56 46.3188C59.0399 46.6694 58.6345 47.1677 58.3951 47.7508C58.1557 48.3338 58.0931 48.9753 58.2151 49.5943C58.3371 50.2132 58.6384 50.7817 59.0807 51.2279C59.5231 51.6742 60.0866 51.9781 60.7002 52.1012C61.3137 52.2243 61.9496 52.1611 62.5276 51.9196C63.1055 51.6781 63.5995 51.2691 63.947 50.7444C64.2946 50.2197 64.4801 49.6028 64.4801 48.9718C64.4801 48.5528 64.3983 48.1379 64.2393 47.7508C64.0804 47.3636 63.8474 47.0119 63.5537 46.7156C63.26 46.4193 62.9113 46.1843 62.5276 46.024C62.1438 45.8636 61.7326 45.7811 61.3172 45.7811Z" fill="#12BFDB"/>
<path d="M92.4555 46.8925C92.7999 46.8925 93.1366 46.9955 93.423 47.1885C93.7093 47.3815 93.9325 47.6559 94.0643 47.9769C94.1961 48.2979 94.2306 48.6511 94.1634 48.9918C94.0962 49.3326 93.9304 49.6456 93.6869 49.8913C93.4433 50.137 93.133 50.3043 92.7952 50.372C92.4575 50.4398 92.1073 50.405 91.7891 50.2721C91.4709 50.1391 91.199 49.914 91.0076 49.6251C90.8163 49.3362 90.7142 48.9966 90.7142 48.6491C90.7142 48.4184 90.7592 48.19 90.8467 47.9769C90.9342 47.7637 91.0625 47.5701 91.2242 47.407C91.3859 47.2439 91.5779 47.1145 91.7891 47.0262C92.0004 46.9379 92.2269 46.8925 92.4555 46.8925ZM92.4555 45.4584C91.83 45.4584 91.2185 45.6456 90.6983 45.9962C90.1782 46.3468 89.7728 46.8451 89.5334 47.4281C89.294 48.0111 89.2314 48.6527 89.3534 49.2716C89.4755 49.8905 89.7767 50.4591 90.219 50.9053C90.6614 51.3515 91.2249 51.6554 91.8385 51.7785C92.452 51.9016 93.088 51.8384 93.6659 51.5969C94.2439 51.3555 94.7378 50.9465 95.0854 50.4218C95.4329 49.8971 95.6184 49.2802 95.6184 48.6491C95.6184 48.2301 95.5366 47.8152 95.3777 47.4281C95.2187 47.041 94.9857 46.6893 94.692 46.393C94.3983 46.0967 94.0497 45.8617 93.6659 45.7013C93.2822 45.541 92.8709 45.4584 92.4555 45.4584Z" fill="#12BFDB"/>
<path d="M40.2148 89.404C40.5592 89.404 40.8959 89.507 41.1822 89.7C41.4686 89.893 41.6918 90.1674 41.8236 90.4884C41.9554 90.8094 41.9899 91.1626 41.9227 91.5033C41.8555 91.8441 41.6896 92.1571 41.4461 92.4028C41.2026 92.6485 40.8923 92.8158 40.5545 92.8836C40.2167 92.9513 39.8666 92.9165 39.5484 92.7836C39.2302 92.6506 38.9582 92.4255 38.7669 92.1366C38.5755 91.8477 38.4734 91.5081 38.4734 91.1606C38.4725 90.9297 38.5169 90.7008 38.6041 90.4873C38.6912 90.2737 38.8195 90.0797 38.9814 89.9164C39.1432 89.753 39.3356 89.6237 39.5473 89.5357C39.759 89.4478 39.9858 89.403 40.2148 89.404ZM40.2148 87.9699C39.5883 87.9657 38.9747 88.1492 38.4518 88.4972C37.9289 88.8452 37.5202 89.342 37.2775 89.9246C37.0348 90.5073 36.9692 91.1495 37.0888 91.7698C37.2084 92.3902 37.5079 92.9607 37.9494 93.4091C38.3909 93.8575 38.9544 94.1635 39.5685 94.2884C40.1826 94.4132 40.8197 94.3513 41.3989 94.1105C41.978 93.8696 42.4733 93.4607 42.8218 92.9355C43.1703 92.4103 43.3563 91.7926 43.3563 91.1606C43.3563 90.3144 43.0231 89.5028 42.4299 88.9045C41.8368 88.3061 41.0323 87.9699 40.1935 87.9699H40.2148Z" fill="#12BFDB"/>
<path d="M61.3172 95.0325C61.6613 95.0325 61.9977 95.1353 62.2839 95.3281C62.5701 95.5208 62.7933 95.7947 62.9253 96.1153C63.0573 96.4358 63.0922 96.7887 63.0256 97.1293C62.959 97.4698 62.7938 97.7828 62.551 98.0288C62.3082 98.2748 61.9986 98.4426 61.6613 98.5112C61.3239 98.5798 60.974 98.546 60.6557 98.4142C60.3374 98.2823 60.065 98.0583 59.8728 97.7703C59.6806 97.4824 59.5773 97.1435 59.5758 96.7963C59.5758 96.3304 59.7593 95.8836 60.0859 95.5542C60.4124 95.2248 60.8554 95.0397 61.3172 95.0397V95.0325ZM61.3172 93.6057C60.6916 93.6057 60.0801 93.7928 59.56 94.1434C59.0399 94.494 58.6345 94.9923 58.3951 95.5753C58.1557 96.1583 58.0931 96.7999 58.2151 97.4188C58.3371 98.0378 58.6384 98.6063 59.0807 99.0525C59.5231 99.4987 60.0866 99.8026 60.7002 99.9257C61.3137 100.049 61.9496 99.9857 62.5276 99.7442C63.1055 99.5027 63.5995 99.0937 63.947 98.569C64.2946 98.0443 64.4801 97.4274 64.4801 96.7963C64.4801 95.9501 64.1469 95.1386 63.5537 94.5402C62.9605 93.9418 62.1561 93.6057 61.3172 93.6057Z" fill="#12BFDB"/>
<path d="M98.9661 94.6453C99.3105 94.6453 99.6472 94.7484 99.9336 94.9414C100.22 95.1344 100.443 95.4088 100.575 95.7297C100.707 96.0507 100.741 96.404 100.674 96.7447C100.607 97.0855 100.441 97.3985 100.197 97.6442C99.9539 97.8898 99.6436 98.0571 99.3058 98.1249C98.968 98.1927 98.6179 98.1579 98.2997 98.025C97.9815 97.892 97.7096 97.6668 97.5182 97.378C97.3269 97.0891 97.2247 96.7494 97.2247 96.402C97.2247 95.9361 97.4082 95.4893 97.7348 95.1598C98.0613 94.8304 98.5043 94.6453 98.9661 94.6453ZM98.9661 93.2113C98.3405 93.2113 97.729 93.3984 97.2089 93.749C96.6888 94.0996 96.2834 94.5979 96.044 95.181C95.8046 95.764 95.742 96.4055 95.864 97.0245C95.986 97.6434 96.2873 98.2119 96.7296 98.6582C97.1719 99.1044 97.7355 99.4083 98.3491 99.5314C98.9626 99.6545 99.5985 99.5913 100.176 99.3498C100.754 99.1083 101.248 98.6994 101.596 98.1747C101.943 97.6499 102.129 97.0331 102.129 96.402C102.129 95.5558 101.796 94.7442 101.203 94.1458C100.609 93.5475 99.805 93.2113 98.9661 93.2113Z" fill="#12BFDB"/>
<path d="M19.3043 99.8436C19.6487 99.8436 19.9853 99.9467 20.2717 100.14C20.5581 100.333 20.7813 100.607 20.9131 100.928C21.0449 101.249 21.0793 101.602 21.0122 101.943C20.945 102.284 20.7791 102.597 20.5356 102.842C20.292 103.088 19.9818 103.255 19.644 103.323C19.3062 103.391 18.9561 103.356 18.6379 103.223C18.3197 103.09 18.0477 102.865 17.8564 102.576C17.665 102.287 17.5629 101.948 17.5629 101.6C17.5629 101.134 17.7464 100.688 18.0729 100.358C18.3995 100.029 18.8424 99.8436 19.3043 99.8436ZM19.3043 98.4096C18.6787 98.4096 18.0672 98.5967 17.5471 98.9473C17.0269 99.2979 16.6215 99.7962 16.3821 100.379C16.1427 100.962 16.0801 101.604 16.2021 102.223C16.3242 102.842 16.6254 103.41 17.0678 103.856C17.5101 104.303 18.0737 104.607 18.6872 104.73C19.3007 104.853 19.9367 104.79 20.5146 104.548C21.0926 104.307 21.5865 103.898 21.9341 103.373C22.2816 102.848 22.4671 102.231 22.4671 101.6C22.4671 100.754 22.1339 99.9425 21.5407 99.3441C20.9476 98.7458 20.1431 98.4096 19.3043 98.4096Z" fill="#12BFDB"/>
<path d="M29.1411 73.6943H26.8027V78.4265H24.6705V66.1226H28.935C30.0973 66.0463 31.2493 66.3838 32.1903 67.0763C32.5924 67.4104 32.9116 67.8346 33.1226 68.315C33.3336 68.7955 33.4305 69.319 33.4057 69.8439C33.4311 70.578 33.2245 71.3011 32.8157 71.9089C32.396 72.484 31.8247 72.9287 31.1668 73.1924L33.9032 78.319V78.4265H31.6146L29.1411 73.6943ZM26.7743 71.9663H28.9563C29.5633 72.0027 30.1618 71.8083 30.6337 71.4214C30.843 71.2359 31.009 71.006 31.1196 70.7481C31.2302 70.4902 31.2827 70.2108 31.2734 69.93C31.2908 69.6506 31.2506 69.3705 31.1551 69.1076C31.0597 68.8448 30.9112 68.6047 30.719 68.4027C30.255 68.0104 29.6605 67.8105 29.0558 67.8435H26.8027L26.7743 71.9663Z" fill="#0D6291"/>
<path d="M39.1913 78.5986C38.6116 78.6231 38.0332 78.5261 37.4925 78.3139C36.9518 78.1016 36.4605 77.7787 36.0497 77.3654C35.638 76.9302 35.3176 76.4157 35.1075 75.8526C34.8975 75.2896 34.8021 74.6897 34.8272 74.0886V73.852C34.8137 73.0071 34.9937 72.1703 35.3532 71.407C35.6687 70.7249 36.1708 70.148 36.8004 69.744C37.4299 69.3401 38.1608 69.126 38.9069 69.1269C39.439 69.0976 39.9707 69.1894 40.4628 69.3954C40.955 69.6014 41.3949 69.9165 41.75 70.3172C42.4829 71.2816 42.844 72.4816 42.7664 73.6943V74.5188H36.9026C36.9276 75.1893 37.1957 75.8271 37.656 76.3114C37.8721 76.5285 38.1297 76.699 38.4132 76.8124C38.6967 76.9258 39.0001 76.9798 39.305 76.971C39.7482 76.9805 40.1871 76.8818 40.5844 76.6833C40.9816 76.4848 41.3254 76.1924 41.5865 75.831L42.6882 76.885C42.3202 77.4314 41.8149 77.8694 41.224 78.1541C40.5896 78.4587 39.8938 78.6108 39.1913 78.5986ZM38.9496 70.7617C38.6942 70.7518 38.4399 70.7995 38.2051 70.9012C37.9702 71.0029 37.7608 71.1561 37.592 71.3497C37.2177 71.8223 36.9902 72.3961 36.9381 72.9988H40.8189V72.8482C40.8162 72.282 40.6233 71.7335 40.2716 71.2923C40.103 71.1119 39.8972 70.9709 39.6689 70.8793C39.4405 70.7876 39.195 70.7475 38.9496 70.7617Z" fill="#0D6291"/>
<path d="M49.4902 75.9457C49.4965 75.7783 49.4583 75.6122 49.3795 75.4647C49.3008 75.3172 49.1844 75.1936 49.0424 75.1068C48.5781 74.8565 48.0763 74.6845 47.5569 74.5977C46.9557 74.4847 46.3708 74.2968 45.8155 74.0384C45.3754 73.8782 44.9941 73.5866 44.7224 73.2023C44.4506 72.818 44.3014 72.3594 44.2945 71.8874C44.2919 71.5022 44.3802 71.1218 44.552 70.7778C44.7237 70.4337 44.9741 70.1357 45.2825 69.9085C46.0048 69.3577 46.8939 69.0765 47.7986 69.1126C48.7393 69.0692 49.6659 69.3555 50.4213 69.9228C50.741 70.1698 50.9983 70.4895 51.1725 70.8558C51.3466 71.2221 51.4326 71.6247 51.4234 72.0308H49.3907C49.3933 71.8434 49.3552 71.6577 49.279 71.4868C49.2029 71.3159 49.0906 71.1638 48.95 71.0413C48.6272 70.7724 48.2167 70.6344 47.7986 70.6541C47.4104 70.6359 47.0266 70.744 46.704 70.9625C46.5689 71.055 46.459 71.1803 46.3845 71.3269C46.3099 71.4735 46.2732 71.6367 46.2775 71.8014C46.2759 71.9456 46.3118 72.0876 46.3817 72.2135C46.4515 72.3393 46.5529 72.4444 46.6756 72.5184C47.1748 72.7798 47.7123 72.9589 48.2677 73.049C48.9188 73.1753 49.55 73.39 50.1441 73.6871C50.5572 73.8866 50.9122 74.1904 51.1747 74.569C51.4045 74.943 51.5206 75.3768 51.5087 75.8166C51.5143 76.2136 51.4218 76.6057 51.2393 76.9575C51.0569 77.3093 50.7904 77.6097 50.4639 77.8314C49.6846 78.373 48.751 78.6424 47.8057 78.5986C47.123 78.6105 46.446 78.471 45.8226 78.1899C45.2762 77.9545 44.806 77.5695 44.4651 77.0786C44.1469 76.6312 43.9755 76.0947 43.9747 75.5442H45.9577C45.9587 75.7596 46.0077 75.972 46.1013 76.1656C46.1948 76.3592 46.3303 76.5292 46.4979 76.6627C46.887 76.9413 47.3575 77.0801 47.8341 77.0571C48.2619 77.0754 48.6847 76.9575 49.0424 76.7201C49.1742 76.6379 49.284 76.5243 49.3621 76.3893C49.4402 76.2542 49.4842 76.1019 49.4902 75.9457Z" fill="#0D6291"/>
<path d="M63.1367 78.4265H61.0044L55.5813 69.6934V78.4265H53.4491V66.1226H55.5813L61.0399 74.8845V66.1226H63.1722L63.1367 78.4265Z" fill="#0D6291"/>
<path d="M69.4412 78.5986C68.8626 78.6229 68.2853 78.5259 67.7457 78.3136C67.2062 78.1013 66.7162 77.7785 66.3067 77.3654C65.8962 76.9299 65.5775 76.415 65.3699 75.8519C65.1622 75.2887 65.0698 74.6888 65.0984 74.0886V73.852C65.085 73.007 65.2649 72.1703 65.6244 71.407C65.9399 70.7249 66.442 70.148 67.0716 69.744C67.7012 69.3401 68.4321 69.126 69.1782 69.1269C69.7102 69.0976 70.242 69.1894 70.7341 69.3954C71.2262 69.6014 71.6661 69.9165 72.0212 70.3172C72.747 71.285 73.105 72.4831 73.0305 73.6943V74.5188H67.1525C67.1776 75.1893 67.4456 75.8271 67.9059 76.3114C68.1231 76.529 68.3819 76.6998 68.6666 76.8132C68.9514 76.9266 69.256 76.9803 69.562 76.971C70.0041 76.98 70.4418 76.881 70.8379 76.6825C71.2339 76.484 71.5765 76.1918 71.8364 75.831L72.9381 76.885C72.5748 77.4347 72.0715 77.8755 71.481 78.1612C70.8438 78.4644 70.1455 78.6142 69.4412 78.5986ZM69.1995 70.7617C68.9451 70.7514 68.6917 70.7988 68.4579 70.9006C68.2242 71.0024 68.0161 71.1558 67.8491 71.3497C67.4695 71.8199 67.2392 72.3946 67.1881 72.9988H71.0759V72.8482C71.0767 72.2814 70.8833 71.7318 70.5286 71.2923C70.3592 71.111 70.1523 70.9694 69.9226 70.8777C69.6929 70.786 69.4461 70.7464 69.1995 70.7617Z" fill="#0D6291"/>
<path d="M77.2098 67.0548V69.2847H78.809V70.8047H77.2098V75.9099C77.1945 76.1657 77.2673 76.419 77.4159 76.6269C77.5119 76.7134 77.6246 76.7791 77.7469 76.8198C77.8691 76.8605 77.9984 76.8753 78.1266 76.8635C78.3661 76.8632 78.6047 76.8343 78.8374 76.7774V78.3692C78.4027 78.4941 77.9532 78.5593 77.5012 78.5628C75.9375 78.5628 75.1557 77.6904 75.1557 75.9457V70.8047H73.6631V69.2847H75.1557V67.0548H77.2098Z" fill="#0D6291"/>
<path d="M82.6826 76.7201H88.2194V78.4265H80.5645V66.1226H82.6968L82.6826 76.7201Z" fill="#0D6291"/>
<path d="M95.064 78.4266C94.95 78.1534 94.8712 77.8667 94.8294 77.5733C94.5275 77.9031 94.16 78.1648 93.7509 78.3415C93.3419 78.5182 92.9004 78.6058 92.4555 78.5986C91.6392 78.6316 90.8412 78.3495 90.2237 77.8099C89.9476 77.5697 89.7274 77.271 89.5788 76.9352C89.4301 76.5993 89.3567 76.2346 89.3637 75.8668C89.3416 75.432 89.4284 74.9985 89.6159 74.6063C89.8035 74.2141 90.0858 73.8758 90.4369 73.6226C91.3573 73.0455 92.4331 72.7723 93.5145 72.841H94.7655V72.2388C94.7864 72.0245 94.7591 71.8083 94.6859 71.6061C94.6126 71.4039 94.4951 71.2209 94.3422 71.0708C94.1893 70.9207 94.0048 70.8072 93.8025 70.7388C93.6001 70.6704 93.3851 70.6488 93.1734 70.6757C92.7654 70.6563 92.3634 70.7805 92.0362 71.027C91.8964 71.1281 91.7827 71.2617 91.7048 71.4164C91.6268 71.5712 91.5869 71.7425 91.5884 71.9161H89.5556C89.5526 71.3957 89.7256 70.8899 90.046 70.4821C90.3987 70.0292 90.8615 69.676 91.3894 69.4567C91.9917 69.2001 92.6405 69.0731 93.2942 69.0839C94.2095 69.0342 95.1114 69.3222 95.8316 69.8941C96.151 70.1748 96.4041 70.5239 96.5726 70.9159C96.7411 71.3079 96.8206 71.7329 96.8054 72.1599V76.2827C96.7775 76.957 96.8939 77.6295 97.1465 78.2545V78.3979L95.064 78.4266ZM92.8322 76.9495C93.2297 76.9491 93.6207 76.848 93.9694 76.6555C94.3037 76.4711 94.5796 76.1952 94.7655 75.8597V74.1317H93.6709C93.0755 74.0926 92.4819 74.2323 91.9651 74.5332C91.7837 74.6553 91.6362 74.8221 91.5367 75.0179C91.4372 75.2137 91.3889 75.4319 91.3965 75.6517C91.3876 75.8289 91.4181 76.0058 91.4857 76.1696C91.5534 76.3334 91.6564 76.4798 91.7874 76.5982C92.0782 76.846 92.4522 76.9718 92.8322 76.9495Z" fill="#0D6291"/>
<path d="M106.891 73.9452C106.955 75.1499 106.623 76.3423 105.946 77.3367C105.649 77.744 105.258 78.0719 104.808 78.2918C104.357 78.5118 103.859 78.6171 103.359 78.5986C102.883 78.622 102.408 78.5285 101.976 78.3262C101.544 78.1239 101.167 77.8188 100.878 77.4371L100.771 78.4265H98.9305V65.4415H100.97V70.1594C101.26 69.8147 101.624 69.5413 102.034 69.3599C102.444 69.1784 102.89 69.0939 103.337 69.1126C103.839 69.0924 104.338 69.1946 104.792 69.4106C105.246 69.6265 105.642 69.9498 105.946 70.353C106.633 71.3749 106.966 72.5978 106.891 73.8305V73.9452ZM104.858 73.7732C104.911 72.991 104.727 72.2112 104.332 71.5361C104.162 71.2976 103.934 71.1067 103.671 70.9813C103.407 70.8558 103.116 70.8 102.825 70.8191C102.435 70.7943 102.047 70.8929 101.714 71.101C101.382 71.3092 101.122 71.6166 100.97 71.9806V75.7521C101.121 76.1232 101.383 76.4375 101.719 76.6509C102.056 76.8643 102.45 76.9662 102.847 76.9423C103.132 76.9559 103.416 76.8974 103.673 76.7722C103.93 76.647 104.151 76.459 104.318 76.2253C104.707 75.579 104.896 74.8297 104.858 74.0743V73.7732Z" fill="#0D6291"/>
</g>
</svg>
