<svg width="1200" height="630" viewBox="0 0 1200 630" fill="none" xmlns="http://www.w3.org/2000/svg">
<g clip-path="url(#clip0_118_28)">
<mask id="mask0_118_28" style="mask-type:luminance" maskUnits="userSpaceOnUse" x="150" y="160" width="900" height="310">
<path d="M1050 160H150V469.456H1050V160Z" fill="white"/>
</mask>
<g mask="url(#mask0_118_28)">
<path fill-rule="evenodd" clip-rule="evenodd" d="M333.439 454.746C314.846 473.339 284.702 473.339 266.11 454.746L165.117 353.754C146.525 335.162 146.524 305.018 165.117 286.425L215.613 235.929C224.909 226.633 239.981 226.633 249.278 235.929C258.574 245.225 258.574 260.297 249.278 269.593L232.445 286.425C213.853 305.018 213.853 335.162 232.445 353.754L282.942 404.25C292.238 413.547 307.31 413.547 316.606 404.25C325.903 394.954 325.903 379.882 316.606 370.586L299.774 353.754C281.182 335.162 281.182 305.018 299.774 286.425C318.367 267.833 318.367 237.689 299.774 219.096L282.942 202.264C273.646 192.968 273.646 177.896 282.942 168.6C292.238 159.304 307.31 159.304 316.606 168.6L434.431 286.425C453.024 305.018 453.024 335.162 434.431 353.754L333.439 454.746ZM383.935 303.257C374.639 293.961 359.567 293.961 350.271 303.257C340.975 312.554 340.975 327.626 350.271 336.922C359.567 346.218 374.639 346.218 383.935 336.922C393.231 327.626 393.231 312.554 383.935 303.257Z" fill="black"/>
<path d="M513.971 337.967H492.152V287.615H513.971C517.11 287.661 519.722 288.025 521.806 288.708C525.357 289.87 528.232 291.999 530.432 295.096C532.196 297.601 533.4 300.311 534.04 303.226C534.682 306.141 535.001 308.92 535.001 311.561C535.001 318.257 533.65 323.928 530.948 328.573C527.283 334.836 521.623 337.967 513.971 337.967ZM521.842 300.459C520.215 297.727 516.996 296.36 512.184 296.36H502.426V329.222H512.184C517.179 329.222 520.661 326.774 522.631 321.878C523.709 319.191 524.248 315.991 524.248 312.279C524.248 307.155 523.446 303.215 521.842 300.459Z" fill="black"/>
<path d="M549.471 300.733V337.967H539.54V300.733H549.471ZM549.471 287.308V296.292H539.54V287.308H549.471Z" fill="black"/>
<path d="M581.982 302.441C584.914 304.308 586.598 307.519 587.034 312.074H577.24C577.103 310.821 576.747 309.83 576.174 309.102C575.099 307.781 573.266 307.121 570.676 307.121C568.546 307.121 567.022 307.451 566.107 308.111C565.215 308.772 564.766 309.546 564.766 310.434C564.766 311.55 565.248 312.358 566.21 312.859C567.172 313.383 570.573 314.283 576.417 315.558C580.311 316.469 583.23 317.847 585.18 319.691C587.103 321.559 588.065 323.893 588.065 326.694C588.065 330.383 586.678 333.401 583.908 335.747C581.157 338.07 576.897 339.231 571.123 339.231C565.235 339.231 560.885 338.001 558.066 335.542C555.271 333.059 553.873 329.905 553.873 326.079H563.804C564.01 327.81 564.456 329.04 565.145 329.769C566.36 331.067 568.603 331.716 571.881 331.716C573.805 331.716 575.329 331.431 576.45 330.862C577.595 330.292 578.168 329.439 578.168 328.3C578.168 327.207 577.711 326.375 576.793 325.806C575.878 325.237 572.477 324.258 566.589 322.868C562.35 321.821 559.361 320.511 557.62 318.94C555.877 317.391 555.008 315.16 555.008 312.244C555.008 308.806 556.359 305.857 559.062 303.397C561.787 300.915 565.614 299.674 570.54 299.674C575.213 299.674 579.027 300.596 581.982 302.441Z" fill="black"/>
<path d="M624.94 314.089H614.905C614.722 312.7 614.253 311.447 613.497 310.331C612.396 308.829 610.689 308.077 608.376 308.077C605.078 308.077 602.821 309.705 601.607 312.962C600.964 314.693 600.645 316.993 600.645 319.862C600.645 322.595 600.964 324.793 601.607 326.455C602.775 329.552 604.974 331.101 608.206 331.101C610.496 331.101 612.123 330.486 613.085 329.256C614.047 328.026 614.63 326.432 614.836 324.474H624.836C624.607 327.434 623.532 330.235 621.605 332.877C618.536 337.136 613.99 339.265 607.963 339.265C601.939 339.265 597.506 337.489 594.664 333.936C591.825 330.383 590.404 325.772 590.404 320.101C590.404 313.702 591.975 308.726 595.113 305.173C598.252 301.621 602.581 299.844 608.103 299.844C612.799 299.844 616.636 300.892 619.614 302.987C622.613 305.082 624.39 308.783 624.94 314.089Z" fill="black"/>
<path d="M660.13 305.447C663.291 309.386 664.872 314.044 664.872 319.418C664.872 324.884 663.291 329.564 660.13 333.458C656.968 337.329 652.169 339.265 645.732 339.265C639.296 339.265 634.497 337.329 631.335 333.458C628.173 329.564 626.593 324.884 626.593 319.418C626.593 314.044 628.173 309.386 631.335 305.447C634.497 301.507 639.296 299.537 645.732 299.537C652.169 299.537 656.968 301.507 660.13 305.447ZM645.699 307.769C642.834 307.769 640.624 308.783 639.066 310.81C637.532 312.814 636.763 315.683 636.763 319.418C636.763 323.153 637.532 326.034 639.066 328.061C640.624 330.087 642.834 331.101 645.699 331.101C648.561 331.101 650.761 330.087 652.295 328.061C653.83 326.034 654.598 323.153 654.598 319.418C654.598 315.683 653.83 312.814 652.295 310.81C650.761 308.783 648.561 307.769 645.699 307.769Z" fill="black"/>
<path d="M693.123 332.706C693.03 332.82 692.801 333.162 692.434 333.731C692.068 334.301 691.632 334.802 691.129 335.234C689.595 336.601 688.105 337.534 686.66 338.035C685.242 338.537 683.568 338.787 681.645 338.787C676.1 338.787 672.366 336.806 670.442 332.843C669.364 330.657 668.828 327.434 668.828 323.176V300.733H678.862V323.176C678.862 325.294 679.112 326.888 679.618 327.958C680.51 329.848 682.264 330.793 684.876 330.793C688.221 330.793 690.511 329.45 691.748 326.763C692.388 325.305 692.71 323.381 692.71 320.99V300.733H702.641V337.967H693.123V332.706Z" fill="black"/>
<path d="M728.14 309.717C724.2 309.717 721.554 310.992 720.203 313.543C719.447 314.977 719.068 317.186 719.068 320.17V337.967H709.207V300.733H718.552V307.223C720.066 304.741 721.384 303.044 722.506 302.133C724.339 300.607 726.719 299.844 729.654 299.844C729.837 299.844 729.984 299.856 730.1 299.879C730.237 299.879 730.523 299.89 730.959 299.913V309.887C730.34 309.819 729.791 309.774 729.309 309.751C728.829 309.728 728.439 309.717 728.14 309.717Z" fill="black"/>
<path d="M759.723 302.441C762.655 304.308 764.339 307.519 764.775 312.074H754.981C754.844 310.821 754.488 309.83 753.915 309.102C752.84 307.781 751.007 307.121 748.417 307.121C746.287 307.121 744.763 307.451 743.848 308.111C742.956 308.772 742.507 309.546 742.507 310.434C742.507 311.55 742.989 312.358 743.951 312.859C744.913 313.383 748.314 314.283 754.158 315.558C758.052 316.469 760.971 317.847 762.921 319.691C764.844 321.559 765.806 323.893 765.806 326.694C765.806 330.383 764.419 333.401 761.649 335.747C758.898 338.07 754.638 339.231 748.864 339.231C742.976 339.231 738.626 338.001 735.807 335.542C733.012 333.059 731.614 329.905 731.614 326.079H741.545C741.751 327.81 742.197 329.04 742.886 329.769C744.101 331.067 746.344 331.716 749.622 331.716C751.546 331.716 753.07 331.431 754.191 330.862C755.336 330.292 755.909 329.439 755.909 328.3C755.909 327.207 755.452 326.375 754.534 325.806C753.619 325.237 750.218 324.258 744.33 322.868C740.091 321.821 737.102 320.511 735.361 318.94C733.618 317.391 732.749 315.16 732.749 312.244C732.749 308.806 734.1 305.857 736.803 303.397C739.528 300.915 743.355 299.674 748.281 299.674C752.954 299.674 756.768 300.596 759.723 302.441Z" fill="black"/>
<path d="M802.338 327.036C802.085 329.245 800.927 331.488 798.866 333.766C795.658 337.386 791.169 339.197 785.395 339.197C780.632 339.197 776.426 337.671 772.784 334.619C769.143 331.568 767.32 326.603 767.32 319.726C767.32 313.281 768.958 308.339 772.235 304.9C775.533 301.461 779.807 299.742 785.052 299.742C788.167 299.742 790.975 300.323 793.472 301.484C795.968 302.646 798.031 304.479 799.656 306.984C801.123 309.193 802.074 311.755 802.508 314.67C802.76 316.378 802.864 318.837 802.817 322.049H777.184C777.321 325.783 778.499 328.402 780.722 329.905C782.073 330.839 783.701 331.306 785.601 331.306C787.618 331.306 789.255 330.736 790.516 329.598C791.202 328.983 791.811 328.129 792.337 327.036H802.338ZM792.646 315.626C792.486 313.053 791.695 311.106 790.276 309.785C788.879 308.442 787.138 307.769 785.052 307.769C782.785 307.769 781.021 308.476 779.76 309.887C778.522 311.299 777.744 313.213 777.424 315.626H792.646Z" fill="black"/>
<path d="M855.262 336.737C852.467 338.445 849.032 339.299 844.952 339.299C838.24 339.299 832.742 336.988 828.458 332.365C823.992 327.719 821.758 321.365 821.758 313.303C821.758 305.151 824.015 298.615 828.528 293.696C833.041 288.777 839.008 286.317 846.43 286.317C852.869 286.317 858.034 287.945 861.928 291.202C865.846 294.436 868.092 298.478 868.664 303.329H858.251C857.449 299.89 855.492 297.487 852.376 296.121C850.633 295.369 848.699 294.994 846.569 294.994C842.489 294.994 839.134 296.531 836.499 299.605C833.889 302.657 832.582 307.257 832.582 313.406C832.582 319.6 834.003 323.984 836.844 326.557C839.684 329.131 842.915 330.418 846.533 330.418C850.084 330.418 852.993 329.404 855.262 327.378C857.529 325.328 858.927 322.652 859.455 319.35H847.737V310.946H868.834V337.967H861.825L860.76 331.682C858.72 334.073 856.889 335.758 855.262 336.737Z" fill="black"/>
<path d="M894.2 309.717C890.259 309.717 887.613 310.992 886.259 313.543C885.504 314.977 885.127 317.186 885.127 320.17V337.967H875.263V300.733H884.612V307.223C886.123 304.741 887.44 303.044 888.562 302.133C890.396 300.607 892.779 299.844 895.711 299.844C895.894 299.844 896.043 299.856 896.157 299.879C896.293 299.879 896.582 299.89 897.016 299.913V309.887C896.397 309.819 895.847 309.774 895.368 309.751C894.885 309.728 894.496 309.717 894.2 309.717Z" fill="black"/>
<path d="M901.384 304.763C903.973 301.484 908.416 299.844 914.716 299.844C918.817 299.844 922.461 300.653 925.643 302.27C928.828 303.886 930.421 306.938 930.421 311.425V328.505C930.421 329.689 930.442 331.124 930.488 332.809C930.558 334.084 930.751 334.95 931.074 335.405C931.393 335.86 931.876 336.236 932.515 336.532V337.967H921.865C921.566 337.216 921.359 336.51 921.246 335.849C921.13 335.189 921.04 334.437 920.97 333.595C919.619 335.052 918.061 336.293 916.297 337.318C914.19 338.525 911.808 339.129 909.149 339.129C905.758 339.129 902.952 338.172 900.732 336.259C898.532 334.323 897.431 331.591 897.431 328.061C897.431 323.483 899.208 320.17 902.759 318.12C904.706 317.004 907.568 316.207 911.348 315.729L914.683 315.319C916.491 315.091 917.785 314.806 918.564 314.465C919.962 313.873 920.661 312.95 920.661 311.698C920.661 310.172 920.122 309.125 919.046 308.555C917.991 307.963 916.434 307.667 914.373 307.667C912.058 307.667 910.42 308.236 909.458 309.375C908.772 310.218 908.313 311.356 908.084 312.791H898.635C898.841 309.534 899.757 306.859 901.384 304.763ZM908.669 330.93C909.585 331.682 910.706 332.057 912.037 332.057C914.144 332.057 916.078 331.442 917.844 330.213C919.629 328.983 920.557 326.74 920.627 323.483V319.862C920.008 320.249 919.379 320.568 918.737 320.819C918.118 321.046 917.259 321.263 916.161 321.468L913.961 321.878C911.898 322.242 910.42 322.686 909.528 323.21C908.014 324.098 907.259 325.476 907.259 327.343C907.259 329.006 907.728 330.201 908.669 330.93Z" fill="black"/>
<path d="M967.708 304.729C970.73 307.94 972.244 312.654 972.244 318.872C972.244 325.43 970.754 330.429 967.775 333.868C964.82 337.307 961.006 339.026 956.333 339.026C953.355 339.026 950.881 338.286 948.911 336.806C947.833 335.986 946.781 334.79 945.75 333.219V352.622H936.059V300.733H945.44V306.232C946.492 304.615 947.617 303.34 948.808 302.406C950.985 300.744 953.574 299.913 956.573 299.913C960.949 299.913 964.66 301.518 967.708 304.729ZM962.14 319.35C962.14 316.48 961.475 313.941 960.147 311.732C958.842 309.523 956.712 308.418 953.757 308.418C950.206 308.418 947.766 310.092 946.436 313.44C945.75 315.216 945.407 317.471 945.407 320.204C945.407 324.531 946.562 327.571 948.875 329.325C950.25 330.349 951.877 330.862 953.757 330.862C956.483 330.862 958.556 329.814 959.974 327.719C961.418 325.624 962.14 322.834 962.14 319.35Z" fill="black"/>
<path d="M1010.39 316.105V337.967H1000.39V315.319C1000.39 313.315 1000.05 311.698 999.358 310.468C998.465 308.738 996.771 307.872 994.272 307.872C991.683 307.872 989.713 308.738 988.362 310.468C987.033 312.176 986.368 314.624 986.368 317.813V337.967H976.61V287.786H986.368V305.583C987.789 303.42 989.427 301.917 991.283 301.074C993.161 300.209 995.131 299.776 997.194 299.776C999.507 299.776 1001.6 300.175 1003.48 300.972C1005.38 301.769 1006.94 302.987 1008.16 304.627C1009.19 306.016 1009.82 307.451 1010.05 308.931C1010.27 310.389 1010.39 312.78 1010.39 316.105Z" fill="black"/>
<path d="M1042.56 302.441C1045.49 304.308 1047.17 307.519 1047.61 312.074H1037.81C1037.68 310.821 1037.32 309.83 1036.75 309.102C1035.67 307.781 1033.84 307.121 1031.25 307.121C1029.12 307.121 1027.6 307.451 1026.68 308.111C1025.79 308.772 1025.34 309.546 1025.34 310.434C1025.34 311.55 1025.82 312.358 1026.78 312.859C1027.75 313.383 1031.15 314.283 1036.99 315.558C1040.88 316.469 1043.81 317.847 1045.75 319.691C1047.68 321.559 1048.64 323.893 1048.64 326.694C1048.64 330.383 1047.25 333.401 1044.48 335.747C1041.73 338.07 1037.47 339.231 1031.7 339.231C1025.81 339.231 1021.46 338.001 1018.64 335.542C1015.84 333.059 1014.45 329.905 1014.45 326.079H1024.38C1024.58 327.81 1025.03 329.04 1025.72 329.769C1026.93 331.067 1029.18 331.716 1032.45 331.716C1034.38 331.716 1035.9 331.431 1037.02 330.862C1038.17 330.292 1038.74 329.439 1038.74 328.3C1038.74 327.207 1038.28 326.375 1037.37 325.806C1036.45 325.237 1033.05 324.258 1027.16 322.868C1022.92 321.821 1019.93 320.511 1018.19 318.94C1016.45 317.391 1015.58 315.16 1015.58 312.244C1015.58 308.806 1016.93 305.857 1019.63 303.397C1022.36 300.915 1026.19 299.674 1031.11 299.674C1035.79 299.674 1039.6 300.596 1042.56 302.441Z" fill="black"/>
</g>
</g>
<defs>
<clipPath id="clip0_118_28">
<rect width="900" height="309.456" fill="white" transform="translate(150 160)"/>
</clipPath>
</defs>
</svg>
