<?xml version="1.0" encoding="utf-8"?>
<!-- Generator: Adobe Illustrator 25.2.1, SVG Export Plug-In . SVG Version: 6.00 Build 0)  -->
<svg version="1.1" id="Layer_1" xmlns="http://www.w3.org/2000/svg" xmlns:xlink="http://www.w3.org/1999/xlink" x="0px" y="0px"
	 viewBox="0 0 140 140" style="enable-background:new 0 0 140 140;" xml:space="preserve">
<style type="text/css">
	.st0{fill:#737680;}
</style>
<g>
	<path class="st0" d="M60.4,16.6l6.7-6.7v13.4c0,1.6,1.3,2.9,2.9,2.9c1.6,0,2.9-1.3,2.9-2.9V10l6.7,6.7c0.6,0.6,1.3,0.9,2.1,0.9
		s1.5-0.3,2.1-0.9c1.1-1.1,1.1-3,0-4.1L72.1,0.9C71.5,0.3,70.8,0,70,0c-0.8,0-1.5,0.3-2,0.8c0,0,0,0,0,0L56.3,12.5
		c-1.1,1.1-1.1,3,0,4.1C57.4,17.8,59.3,17.8,60.4,16.6z"/>
	<path class="st0" d="M30,108.8L8.8,130v-10.5c0-1.6-1.3-2.9-2.9-2.9s-2.9,1.3-2.9,2.9v17.5c0,0.2,0,0.4,0.1,0.6
		c0,0.1,0,0.1,0.1,0.2c0,0.1,0.1,0.2,0.1,0.3c0,0.1,0.1,0.2,0.1,0.3c0,0.1,0.1,0.2,0.1,0.2c0.2,0.3,0.5,0.6,0.8,0.8
		c0.1,0,0.1,0.1,0.2,0.1c0.1,0.1,0.2,0.1,0.3,0.2c0.1,0,0.2,0.1,0.3,0.1c0.1,0,0.2,0.1,0.3,0.1c0.2,0,0.4,0.1,0.6,0.1h17.5
		c1.6,0,2.9-1.3,2.9-2.9s-1.3-2.9-2.9-2.9H12.9l21.3-21.3c1.1-1.1,1.1-3,0-4.1C33,107.6,31.2,107.6,30,108.8z"/>
	<path class="st0" d="M97.7,116l-24.7,10.8V77.7l40.8-17.9v39.3c0,1.6,1.3,2.9,2.9,2.9s2.9-1.3,2.9-2.9V55.4c0-0.2,0-0.4-0.1-0.5
		c0-0.1,0-0.1,0-0.2c0-0.1-0.1-0.2-0.1-0.4c0,0,0-0.1-0.1-0.1c-0.1-0.2-0.1-0.3-0.2-0.4c0,0,0,0-0.1-0.1c-0.1-0.1-0.2-0.2-0.3-0.3
		c0,0-0.1-0.1-0.1-0.1c-0.1-0.1-0.2-0.2-0.3-0.2c0,0-0.1-0.1-0.1-0.1c-0.1-0.1-0.3-0.2-0.4-0.2l0,0c0,0,0,0,0,0L71.2,32.3
		c-0.7-0.3-1.6-0.3-2.3,0L22.2,52.7c0,0,0,0,0,0l0,0c-0.2,0.1-0.3,0.1-0.4,0.2c0,0-0.1,0.1-0.1,0.1c-0.1,0.1-0.2,0.2-0.3,0.2
		c0,0-0.1,0.1-0.1,0.1c-0.1,0.1-0.2,0.2-0.3,0.3c0,0,0,0-0.1,0.1c-0.1,0.1-0.2,0.3-0.2,0.4c0,0,0,0.1-0.1,0.1c0,0.1-0.1,0.2-0.1,0.4
		c0,0.1,0,0.1,0,0.2c0,0.2-0.1,0.3-0.1,0.5v43.8c0,1.6,1.3,2.9,2.9,2.9s2.9-1.3,2.9-2.9V59.9l40.8,17.9v49.1L42.3,116
		c-1.5-0.6-3.2,0-3.8,1.5c-0.6,1.5,0,3.2,1.5,3.8l28.8,12.6c0,0,0,0,0,0c0,0,0.1,0,0.1,0c0.1,0,0.2,0.1,0.4,0.1c0.1,0,0.1,0,0.2,0
		c0.2,0,0.3,0.1,0.5,0.1c0,0,0,0,0,0c0,0,0,0,0,0c0,0,0,0,0,0s0,0,0,0c0,0,0,0,0,0c0,0,0,0,0,0c0.2,0,0.3,0,0.5-0.1
		c0.1,0,0.1,0,0.2,0c0.1,0,0.2-0.1,0.4-0.1c0,0,0.1,0,0.1,0c0,0,0,0,0,0l28.8-12.6c1.5-0.6,2.1-2.4,1.5-3.8S99.1,115.3,97.7,116z
		 M70,38.2l39.4,17.2L70,72.6L30.6,55.4L70,38.2z"/>
	<path class="st0" d="M136.9,138.2c0-0.1,0.1-0.2,0.1-0.3c0-0.1,0.1-0.2,0.1-0.3c0-0.2,0-0.3,0-0.5c0,0,0-0.1,0-0.1v-17.5
		c0-1.6-1.3-2.9-2.9-2.9s-2.9,1.3-2.9,2.9V130L110,108.8c-1.1-1.1-3-1.1-4.1,0s-1.1,3,0,4.1l21.3,21.3h-10.5c-1.6,0-2.9,1.3-2.9,2.9
		s1.3,2.9,2.9,2.9h17.5c0.2,0,0.4,0,0.6-0.1c0.1,0,0.2-0.1,0.3-0.1c0.1,0,0.2,0,0.3-0.1c0.1,0,0.2-0.1,0.3-0.2
		c0.1,0,0.1-0.1,0.2-0.1c0.3-0.2,0.6-0.5,0.8-0.8c0-0.1,0.1-0.1,0.1-0.2C136.8,138.4,136.8,138.3,136.9,138.2z"/>
</g>
</svg>
