<svg width="261" height="200" viewBox="0 0 261 200" fill="none" xmlns="http://www.w3.org/2000/svg">
<g clip-path="url(#clip0_234_3823)">
<path d="M102.677 82.5689L114.839 64.5801H91.6594L102.677 82.5689Z" fill="#115EF7" fill-opacity="0.25"/>
<path d="M167.36 185.454C177.272 185.454 185.331 177.39 185.331 167.484C185.331 157.579 177.267 149.515 167.36 149.515C157.453 149.515 149.389 157.579 149.389 167.484C149.389 177.39 157.449 185.454 167.36 185.454Z" fill="#115EF7" fill-opacity="0.25"/>
<path d="M245.946 52.5698C245.946 42.659 237.882 34.6005 227.975 34.6005C218.068 34.6005 210.004 42.6639 210.004 52.5698C210.004 62.4757 218.063 70.5392 227.975 70.5392C237.887 70.5392 245.946 62.4757 245.946 52.5698V52.5698Z" fill="#115EF7" fill-opacity="0.25"/>
<path d="M260.494 52.5698C260.494 34.6393 245.907 20.0543 227.975 20.0543C210.043 20.0543 195.456 34.6393 195.456 52.5698C195.456 68.43 206.871 81.6621 221.914 84.5132V110.066H144.137C144.264 109.984 144.39 109.896 144.516 109.809C163.568 96.9017 171.758 77.9723 168.199 55.0718C163.796 26.7164 147.769 13.2176 135.099 6.88033C121.487 0.0775794 108.913 0 108.384 0H6.06149C2.71555 0 0 2.71528 0 6.0609V60.6429C0 63.9886 2.71555 66.7038 6.06149 66.7038H39.0748L103.104 173.075C104.199 174.898 106.173 176.009 108.297 176.009H135.986C139.739 189.818 152.381 200 167.365 200C185.297 200 199.884 185.415 199.884 167.484C199.884 149.554 185.297 134.969 167.365 134.969C150.65 134.969 136.849 147.644 135.05 163.887H111.725L48.1137 58.2089C48.041 58.0925 47.9682 57.9761 47.8906 57.8646L47.4057 57.1713C46.271 55.5469 44.4138 54.5772 42.4353 54.5772H12.123V12.1218H108.384C108.486 12.1218 118.776 12.2721 129.677 17.7269C144.39 25.0824 153.322 38.2758 156.222 56.9337C159.029 75.0097 152.9 89.3571 138.003 99.583C126.244 107.651 113.234 110.144 113.117 110.168C110.033 110.73 107.885 113.552 108.171 116.675C108.457 119.797 111.071 122.188 114.208 122.188H227.98C231.326 122.188 234.041 119.472 234.041 116.127V84.5132C249.084 81.6621 260.499 68.43 260.499 52.5698H260.494ZM149.389 167.484C149.389 157.574 157.448 149.515 167.36 149.515C177.272 149.515 185.331 157.579 185.331 167.484C185.331 177.39 177.267 185.454 167.36 185.454C157.453 185.454 149.389 177.39 149.389 167.484ZM227.975 70.5392C218.063 70.5392 210.004 62.4758 210.004 52.5698C210.004 42.6639 218.063 34.6005 227.975 34.6005C237.887 34.6005 245.946 42.6639 245.946 52.5698C245.946 62.4758 237.882 70.5392 227.975 70.5392Z" fill="#115EF7"/>
<path d="M131.607 55.6779C130.555 53.6996 128.494 52.4583 126.254 52.4583H80.8458C78.6539 52.4583 76.6318 53.6414 75.5553 55.5566C74.4836 57.4719 74.5273 59.8138 75.6717 61.6854L97.2506 96.9308C98.3271 98.6909 100.223 99.7818 102.284 99.8255C102.328 99.8255 102.376 99.8255 102.42 99.8255C104.427 99.8255 106.314 98.8266 107.444 97.1587L131.273 61.9133C132.528 60.0563 132.655 57.6561 131.602 55.6779H131.607ZM102.677 82.5737L91.6643 64.585H114.839L102.677 82.5737V82.5737Z" fill="#115EF7"/>
</g>
<defs>
<clipPath id="clip0_234_3823">
<rect width="260.494" height="200" fill="white"/>
</clipPath>
</defs>
</svg>
