<?xml version="1.0" encoding="UTF-8"?>
<svg width="14px" height="14px" viewBox="0 0 14 14" version="1.1" xmlns="http://www.w3.org/2000/svg" xmlns:xlink="http://www.w3.org/1999/xlink">
    <!-- Generator: Sketch 62 (91390) - https://sketch.com -->
    <title>icon-cryptolab</title>
    <desc>Created with Sketch.</desc>
    <g id="icon-cryptolab" stroke="none" stroke-width="1" fill="none" fill-rule="evenodd">
        <path d="M3.00919118,11.1001084 C4.31859523,11.1001084 5.4613131,11.9880025 5.78485522,13.2568048 C5.8291934,13.4306814 5.69782296,13.5997549 5.51838235,13.5997549 L5.51838235,13.5997549 L0.5,13.5997549 C0.320559396,13.5997549 0.189188951,13.4306814 0.233527132,13.2568048 C0.557069249,11.9880025 1.69978713,11.1001084 3.00919118,11.1001084 Z M10.8155637,11.1001084 C12.1249678,11.1001084 13.2676857,11.9880025 13.5912278,13.2568048 C13.635566,13.4306814 13.5041955,13.5997549 13.3247549,13.5997549 L13.3247549,13.5997549 L8.30637255,13.5997549 C8.12693195,13.5997549 7.9955615,13.4306814 8.03989968,13.2568048 C8.3634418,11.9880025 9.50615968,11.1001084 10.8155637,11.1001084 Z M3.00919118,11.6501084 C2.12753295,11.6501084 1.33940343,12.1483116 0.949899432,12.9076571 L0.949899432,12.9076571 L0.883,13.049 L5.134,13.049 L5.06848292,12.9076571 C4.70494585,12.1989346 3.99416167,11.7176962 3.18418537,11.6566809 L3.18418537,11.6566809 Z M10.8155637,11.6501084 C9.9339055,11.6501084 9.14577598,12.1483116 8.75627198,12.9076571 L8.75627198,12.9076571 L8.689,13.049 L12.941,13.049 L12.8748555,12.9076571 C12.5113184,12.1989346 11.8005342,11.7176962 10.9905579,11.6566809 L10.9905579,11.6566809 Z M2.38944589,8.16252577 C2.83316941,7.96579589 3.34805631,7.99038713 3.77398898,8.23629947 C4.2472475,8.50953541 4.53878676,9.01449625 4.53878676,9.56096814 C4.53878676,10.10744 4.2472475,10.6124009 3.77398898,10.8856368 C3.30073045,11.1588727 2.7176519,11.1588727 2.24439338,10.8856368 C1.77113485,10.6124009 1.47959559,10.10744 1.47959559,9.56096814 C1.47959559,9.01449625 1.77113485,8.50953541 2.24439337,8.23629947 L2.24439337,8.23629947 Z M10.8155637,8.03137255 C11.660336,8.03137255 12.3451593,8.71619582 12.3451593,9.56096814 C12.3451593,10.4057405 11.660336,11.0905637 10.8155637,11.0905637 C9.97079141,11.0905637 9.28596814,10.4057405 9.28596814,9.56096814 C9.28596814,8.71619582 9.97079141,8.03137255 10.8155637,8.03137255 Z M3.49898898,8.71261344 C3.19590104,8.53762554 2.82248131,8.53762554 2.51939338,8.71261344 C2.21630545,8.88760134 2.02959559,9.21099232 2.02959559,9.56096814 C2.02959559,9.91094394 2.21630545,10.2343349 2.51939338,10.4093228 C2.82248131,10.5843107 3.19590104,10.5843107 3.49898897,10.4093228 C3.8020769,10.2343349 3.98878676,9.91094394 3.98878676,9.56096814 C3.98878676,9.21099232 3.80207691,8.88760134 3.49898898,8.71261344 Z M10.8155637,8.58137255 C10.274548,8.58137255 9.83596814,9.01995243 9.83596814,9.56096814 C9.83596814,10.1019838 10.274548,10.5405637 10.8155637,10.5405637 C11.3565794,10.5405637 11.7951593,10.1019838 11.7951593,9.56096814 C11.7951593,9.01995243 11.3565794,8.58137255 10.8155637,8.58137255 Z M6.91237745,6.35857843 C7.04255886,6.35857843 7.15161295,6.44903519 7.1801145,6.57052345 L7.18737745,6.63357843 L7.18686014,7.914 L8.3614274,9.08771475 C8.46882158,9.19510893 8.46882158,9.3692293 8.3614274,9.47662348 C8.27193225,9.56611863 8.13609947,9.58103449 8.03115845,9.52137106 L7.97251867,9.47662348 L6.91186014,8.416 L5.85223623,9.47662348 C5.74484205,9.58401766 5.57072168,9.58401766 5.4633275,9.47662348 C5.37383235,9.38712833 5.35891649,9.25129555 5.41857992,9.14635452 L5.4633275,9.08771475 L6.63686014,7.914 L6.63737745,6.63357843 C6.63737745,6.48170013 6.76049914,6.35857843 6.91237745,6.35857843 Z M6.91237745,3.29373589 C8.2217815,3.29373589 9.36449938,4.18162992 9.6880415,5.45043229 C9.73237968,5.62430885 9.60100923,5.79338235 9.42156863,5.79338235 L9.42156863,5.79338235 L4.40318627,5.79338235 C4.22374567,5.79338235 4.09237523,5.62430885 4.13671341,5.45043229 C4.46025552,4.18162992 5.6029734,3.29373589 6.91237745,3.29373589 Z M6.91237745,3.84373589 C6.03071923,3.84373589 5.24258971,4.34193904 4.85308571,5.10128453 L4.85308571,5.10128453 L4.786,5.243 L9.038,5.243 L8.9716692,5.10128453 C8.60813213,4.39256208 7.89734794,3.91132361 7.08737165,3.85030836 L7.08737165,3.85030836 Z M6.91237745,0.225 C7.75714977,0.225 8.44197304,0.909823271 8.44197304,1.75459559 C8.44197304,2.59936791 7.75714977,3.28419118 6.91237745,3.28419118 C6.06760513,3.28419118 5.38278186,2.59936791 5.38278186,1.75459559 C5.38278186,0.909823271 6.06760513,0.225 6.91237745,0.225 Z M6.91237745,0.775 C6.37136175,0.775 5.93278186,1.21357988 5.93278186,1.75459559 C5.93278186,2.29561129 6.37136175,2.73419118 6.91237745,2.73419118 C7.45339316,2.73419118 7.89197304,2.29561129 7.89197304,1.75459559 C7.89197304,1.21357988 7.45339316,0.775 6.91237745,0.775 Z" id="Combined-Shape" fill="#737680" fill-rule="nonzero"></path>
    </g>
</svg>