<?xml version="1.0" encoding="UTF-8"?>
<svg width="100px" height="33px" viewBox="0 0 100 33" version="1.1" xmlns="http://www.w3.org/2000/svg" xmlns:xlink="http://www.w3.org/1999/xlink">
    <!-- Generator: Sketch 60.1 (88133) - https://sketch.com -->
    <title>noun_loading_1947569</title>
    <desc>Created with Sketch.</desc>
    <g id="Symbols" stroke="none" stroke-width="1" fill="none" fill-rule="evenodd">
        <g id="Loading" transform="translate(-670.000000, -111.000000)" fill="#131316">
            <g id="noun_loading_1947569">
                <g transform="translate(670.000000, 111.000000)">
                    <path d="M48.8986784,4.61852778e-14 C57.7092511,4.61852778e-14 65.1982379,7.48898678 65.1982379,16.2995595 C65.1982379,25.5506608 57.7092511,32.5991189 48.8986784,32.5991189 C39.6475771,32.5991189 32.5991189,25.5506608 32.5991189,16.2995595 C32.5991189,7.48898678 39.6475771,4.61852778e-14 48.8986784,4.61852778e-14 Z" id="Path"></path>
                    <path d="M87.6651982,3.96475771 C94.7136564,3.96475771 100,9.25110132 100,16.2995595 C100,23.3480176 94.7136564,29.0748899 87.6651982,29.0748899 C80.6167401,29.0748899 74.8898678,23.3480176 74.8898678,16.2995595 C74.8898678,9.25110132 80.6167401,3.96475771 87.6651982,3.96475771 Z" id="Path"></path>
                    <path d="M12.7753304,3.96475771 C5.72687225,3.96475771 -5.15143483e-14,9.25110132 -5.15143483e-14,16.2995595 C-5.15143483e-14,23.3480176 5.72687225,29.0748899 12.7753304,29.0748899 C19.3832599,29.0748899 25.1101322,23.3480176 25.1101322,16.2995595 C25.1101322,9.25110132 19.3832599,3.96475771 12.7753304,3.96475771 Z" id="Path"></path>
                </g>
            </g>
        </g>
    </g>
</svg>