<?xml version="1.0" encoding="UTF-8"?>
<svg width="36px" height="36px" viewBox="0 0 36 36" version="1.1" xmlns="http://www.w3.org/2000/svg" xmlns:xlink="http://www.w3.org/1999/xlink">
    <!-- Generator: Sketch 62 (91390) - https://sketch.com -->
    <title>icon-triangle</title>
    <desc>Created with Sketch.</desc>
    <g id="icon-triangle" stroke="none" stroke-width="1" fill="none" fill-rule="evenodd">
        <path d="M18,2.2485 C20.7616424,2.2485 23,4.48685763 23,7.2485 C23,8.65520536 22.4192344,9.92613895 21.4843709,10.834633 L28.9770713,23.5718768 C29.528093,23.3628975 30.1256745,23.2485 30.75,23.2485 C33.5116424,23.2485 35.75,25.4868576 35.75,28.2485 C35.75,31.0101424 33.5116424,33.2485 30.75,33.2485 C28.1573608,33.2485 26.0259196,31.2757195 25.7747551,28.7492374 L10.2252449,28.7492374 C9.97408043,31.2757195 7.84263919,33.2485 5.25,33.2485 C2.48835763,33.2485 0.25,31.0101424 0.25,28.2485 C0.25,25.4868576 2.48835763,23.2485 5.25,23.2485 C5.87432548,23.2485 6.47190702,23.3628975 7.02292874,23.5718768 L14.5156291,10.834633 C13.5807656,9.92613895 13,8.65520536 13,7.2485 C13,4.48685763 15.2383576,2.2485 18,2.2485 Z M5.25,24.2485 C3.04064237,24.2485 1.25,26.0391424 1.25,28.2485 C1.25,30.4578576 3.04064237,32.2485 5.25,32.2485 C7.45935763,32.2485 9.25,30.4578576 9.25,28.2485 C9.25,26.0391424 7.45935763,24.2485 5.25,24.2485 Z M30.75,24.2485 C28.5406424,24.2485 26.75,26.0391424 26.75,28.2485 C26.75,30.4578576 28.5406424,32.2485 30.75,32.2485 C32.9593576,32.2485 34.75,30.4578576 34.75,28.2485 C34.75,26.0391424 32.9593576,24.2485 30.75,24.2485 Z M20.6931833,11.4620417 C19.9158714,11.9598766 18.991673,12.2485 18,12.2485 C17.008327,12.2485 16.0841286,11.9598766 15.3068167,11.4620417 L7.91929136,24.0197517 C9.18727644,24.8217576 10.0695427,26.1783439 10.2253445,27.7487648 L25.7746555,27.7487648 C25.9304573,26.1783439 26.8127236,24.8217576 28.0807086,24.0197517 Z M18,3.2485 C15.7906424,3.2485 14,5.03914237 14,7.2485 C14,9.45785763 15.7906424,11.2485 18,11.2485 C20.2093576,11.2485 22,9.45785763 22,7.2485 C22,5.03914237 20.2093576,3.2485 18,3.2485 Z" id="Combined-Shape" fill="#737680" fill-rule="nonzero"></path>
    </g>
</svg>