<?xml version="1.0" encoding="UTF-8"?>
<svg width="12px" height="15px" viewBox="0 0 12 15" version="1.1" xmlns="http://www.w3.org/2000/svg" xmlns:xlink="http://www.w3.org/1999/xlink">
    <!-- Generator: Sketch 62 (91390) - https://sketch.com -->
    <title>icon-user copy</title>
    <desc>Created with Sketch.</desc>
    <g id="icon-user-copy" stroke="none" stroke-width="1" fill="none" fill-rule="evenodd">
        <g id="Group-2" transform="translate(0.400000, 1.219512)" fill="#737680" fill-rule="nonzero">
            <path d="M5.60763119,-0.261363636 C3.58295703,-0.261363636 1.94163433,1.37995906 1.94163433,3.40463322 C1.94163433,5.42930738 3.58295703,7.07063008 5.60763119,7.07063008 C7.63230535,7.07063008 9.27362805,5.42930738 9.27362805,3.40463322 C9.27362805,1.37995906 7.63230535,-0.261363636 5.60763119,-0.261363636 Z M5.60763119,0.261363636 C7.34361105,0.261363636 8.75090078,1.66865337 8.75090078,3.40463322 C8.75090078,5.14061308 7.34361105,6.54790281 5.60763119,6.54790281 C3.87165133,6.54790281 2.4643616,5.14061308 2.4643616,3.40463322 C2.4643616,1.66865337 3.87165133,0.261363636 5.60763119,0.261363636 Z" id="Path"></path>
            <path d="M5.60763119,7.34735818 C2.36627487,7.34735818 -0.261363636,9.97499663 -0.261363636,13.2163529 C-0.261363636,13.3607001 -0.144347151,13.4777166 0,13.4777166 L11.2152624,13.4777166 C11.3596095,13.4777166 11.476626,13.3607001 11.476626,13.2163529 C11.476626,9.97499663 8.84898751,7.34735818 5.60763119,7.34735818 Z M5.83362544,7.87477565 C8.53158203,7.98696905 10.7131016,10.0986031 10.9352617,12.7667554 L10.9469545,12.9542273 L0.267636364,12.9542273 L0.280000683,12.7667554 C0.508331874,10.0244878 2.80638773,7.87008546 5.60763119,7.87008546 L5.83362544,7.87477565 Z" id="Path"></path>
        </g>
    </g>
</svg>