<svg fill="none" height="90" viewBox="0 0 75 90" width="75" xmlns="http://www.w3.org/2000/svg"><g stroke-miterlimit="10"><g stroke="#156ff7"><path d="m39.2894.743164-38.2894 22.001836v43.9964l38.2894 22.0018" opacity=".5"/><path d="m73.7698 64.5579v-39.6305l-34.4799-19.81168-34.48717 19.81168v39.6305l34.48717 19.8189z"/><path d="m39.2904 9.48242 30.6777 17.63588v35.2575l-30.6777 17.6287-30.68493-17.6287" opacity=".2"/><path d="m66.1683 60.1928v-30.8916l-26.8755-15.4457-26.8826 15.4457v30.8916l26.8826 15.4386z"/><path d="m62.3632 58.0022v-26.5185l-23.0732-13.2557-23.0732 13.2557v26.5185l23.0732 13.2628z" opacity=".2"/></g><path d="m58.5615 55.8191v-22.1455l-19.271-11.0798-19.271 11.0798v22.1455l19.271 11.0727z" stroke="#1a74fc"/><path d="m54.7558 35.857v17.7796l-15.4687 8.8825-15.4687-8.8825v-17.7796l15.4687-8.8897" stroke="#156ff7"/><path d="m50.956 51.4464v-13.4064l-11.6665-6.6997-11.6665 6.6997v13.4064l11.6665 6.7068z" opacity=".2" stroke="#156ff7"/><path d="m47.1542 49.2638v-9.0406l-7.8642-4.5167-7.8642 4.5167v9.0406l7.8642 4.5167z" stroke="#1a74fc"/><path d="m43.3525 47.0813v-4.6675l-4.062-2.3337-4.062 2.3337v4.6675l4.062 2.3337z" opacity=".2" stroke="#156ff7"/></g></svg>