<svg width="179" height="300" viewBox="0 0 179 300" fill="none" xmlns="http://www.w3.org/2000/svg">
<path d="M66.2651 136.608C65.6445 136.608 65.0336 136.654 64.4372 136.734V108.091H32.7184V65.1349H4.088L3.12215 151.275H52.6634C53.1874 158.331 59.0743 163.894 66.2627 163.894C73.4511 163.894 79.9054 157.785 79.9054 150.251C79.9054 142.717 73.7964 136.608 66.2627 136.608H66.2651Z" fill="white" fill-opacity="0.25"/>
<path d="M89.0471 8.57203V0.120773H4.37999C2.04502 0.120773 0.154358 2.01144 0.154358 4.3464V150.613C0.154358 152.948 2.04502 154.839 4.37999 154.839H47.4621C49.5483 162.252 56.3649 167.704 64.4346 167.704C72.5043 167.704 79.3233 162.252 81.4071 154.839H89.0471V146.388H81.68C80.294 139.883 75.3102 134.696 68.921 133.016V107.449C68.921 105.114 67.0304 103.224 64.6954 103.224H35.3937V63.1913C35.3937 60.8612 33.5054 58.9705 31.1753 58.9657L8.60561 58.9294V8.57203H89.0471ZM73.6175 150.068C73.6175 155.131 69.4981 159.251 64.4346 159.251C59.3711 159.251 55.2517 155.131 55.2517 150.068C55.2517 145.004 59.3711 140.885 64.4346 140.885C69.4981 140.885 73.6175 145.004 73.6175 150.068ZM26.9424 67.4097V107.449C26.9424 109.784 28.8331 111.675 31.1681 111.675H60.4698V132.89C53.8319 134.423 48.6163 139.709 47.1916 146.388H8.60561V67.3783L26.9424 67.4073V67.4097Z" fill="white"/>
<path d="M173.354 28.9154H145.673V74.6729H114.932V134.194H114.92C106.118 134.194 98.9832 141.329 98.9832 150.131C98.9832 158.932 106.118 166.067 114.92 166.067C123.233 166.067 130.055 159.702 130.789 151.579H173.354V28.9154Z" fill="white" fill-opacity="0.25"/>
<path d="M173.717 0H89.0473V8.45126H169.489V25.0664H145.956C143.621 25.0664 141.73 26.9571 141.73 29.2921V69.3245H114.193C111.858 69.3245 109.968 71.2151 109.968 73.5501V133.269C103.885 135.056 99.1622 140.037 97.74 146.265H89.0449V154.716H97.8849C99.889 162.252 106.768 167.823 114.927 167.823C123.087 167.823 129.966 162.252 131.97 154.716H173.712C176.047 154.716 177.938 152.825 177.938 150.49V4.22563C177.938 1.89067 176.047 0 173.712 0H173.717ZM124.115 150.188C124.115 155.252 119.996 159.371 114.932 159.371C109.869 159.371 105.749 155.252 105.749 150.188C105.749 145.125 109.869 141.006 114.932 141.006C119.996 141.006 124.115 145.125 124.115 150.188ZM132.122 146.265C130.589 139.542 125.207 134.269 118.424 132.902V77.7757H145.96C148.295 77.7757 150.186 75.885 150.186 73.5501V33.5177H169.494V146.265H132.122Z" fill="white"/>
<g clip-path="url(#clip0_234_3429)">
<path d="M25.3069 212.677H20.0752V236.689L5.67204 212.677H0.154358V246.308H5.38601V222.638L19.66 246.308H25.3069V212.677Z" fill="white"/>
<path d="M47.7652 238.286C47.719 238.591 47.6821 238.978 47.6544 239.459C47.6268 239.892 47.5991 240.216 47.5714 240.428C47.5437 240.612 47.4884 240.853 47.4053 241.129C47.3684 241.249 47.3038 241.416 47.1931 241.489C47.027 241.61 46.7687 241.748 46.4457 241.896C46.1505 242.034 45.7353 242.126 45.2185 242.182C44.6557 242.246 43.9637 242.274 43.1794 242.274C40.5774 242.274 39.4794 242.053 39.0181 241.859C38.6767 241.72 38.2707 241.443 38.2061 240.557C38.1138 238.351 38.0585 236.283 38.04 234.4H49.1769C49.6013 234.372 50.6809 234.27 52.4248 234.095L53.0522 234.03V233.403C53.0522 232.027 53.0337 230.873 53.0061 229.95C52.9784 229.017 52.9046 228.076 52.7846 227.171C52.6647 226.22 52.5078 225.482 52.314 224.891C52.111 224.291 51.825 223.709 51.4559 223.155C51.0592 222.565 50.5886 222.112 50.0627 221.798C49.5736 221.512 48.9647 221.254 48.2357 221.041C47.516 220.829 46.7133 220.681 45.8644 220.617C45.0432 220.552 44.056 220.515 42.9303 220.515C41.3063 220.515 39.95 220.58 38.8889 220.7C37.7632 220.829 36.7667 221.143 35.9271 221.614C35.0874 222.094 34.4323 222.62 33.9894 223.201C33.5281 223.792 33.1867 224.688 32.9283 225.916C32.6884 227.06 32.5408 228.224 32.4947 229.368C32.4393 230.485 32.4208 232.064 32.4208 234.049C32.4208 235.47 32.4393 236.597 32.4762 237.4C32.5131 238.212 32.5961 239.135 32.7253 240.132C32.8637 241.213 33.0944 242.016 33.4266 242.607C33.7311 243.151 34.1463 243.724 34.6722 244.314C35.2443 244.961 35.9732 245.431 36.8497 245.718C37.634 245.976 38.5936 246.188 39.6916 246.364C40.7896 246.53 42.0906 246.622 43.5577 246.622C44.6926 246.622 45.6707 246.585 46.4457 246.521C47.2577 246.456 48.0143 246.308 48.6971 246.087C49.4168 245.856 49.9981 245.561 50.441 245.191C50.8839 244.822 51.2714 244.324 51.5851 243.705C51.8896 243.105 52.111 242.422 52.2402 241.656C52.3602 240.926 52.434 240.031 52.4617 238.997L52.4801 238.406L47.8851 237.566L47.7836 238.277L47.7652 238.286ZM38.0492 230.753C38.0492 230.615 38.0492 230.458 38.0492 230.282C38.0492 229.719 38.0677 229.294 38.0769 229.017C38.0954 228.741 38.1138 228.344 38.1507 227.845C38.1876 227.374 38.2338 227.005 38.2891 226.746C38.3445 226.479 38.4275 226.193 38.5383 225.888C38.6213 225.657 38.7136 225.482 38.8151 225.38C38.9166 225.279 39.0273 225.214 39.2303 225.149C39.4886 225.039 40.3098 224.854 42.8749 224.854C45.0617 224.854 46.0213 225.066 46.4457 225.242C46.7502 225.371 47.1101 225.62 47.1562 226.423C47.2577 227.734 47.3223 229.184 47.3592 230.744H38.04L38.0492 230.753Z" fill="white"/>
<path d="M60.5721 240.465C60.5721 241.462 60.6459 242.302 60.7843 242.957C60.932 243.659 61.2088 244.305 61.6055 244.887C62.0392 245.515 62.6758 245.976 63.5063 246.253C64.2629 246.502 65.2132 246.632 66.3297 246.632C67.3447 246.632 68.4888 246.53 69.7344 246.318L70.2973 246.225L70.4264 241.859L69.6606 241.914C68.5257 241.997 67.6307 242.043 66.9848 242.043C66.4681 242.043 66.422 241.886 66.3943 241.831C66.3205 241.61 66.2005 240.954 66.2005 239.015V224.992H70.5648V221.189H66.2005V214.025L60.5813 214.487V221.18H57.3611V224.983H60.5813V240.465H60.5721Z" fill="white"/>
<path d="M97.6919 237.668L93.4014 221.189H88.5112L83.9162 237.751L80.1424 221.189H74.6062L81.1942 246.308H86.6289L91.0209 230.144L95.6528 246.308H100.645L107.196 221.189H101.484L97.6919 237.668Z" fill="white"/>
<path d="M132.68 227.18C132.542 226.23 132.376 225.473 132.164 224.863C131.951 224.245 131.628 223.654 131.222 223.1C130.798 222.528 130.309 222.075 129.765 221.771C129.257 221.484 128.611 221.235 127.845 221.023C127.089 220.82 126.268 220.681 125.382 220.607C124.524 220.543 123.49 220.506 122.309 220.506C121.128 220.506 120.095 220.543 119.237 220.607C118.351 220.672 117.521 220.811 116.773 221.023C116.007 221.235 115.361 221.484 114.854 221.771C114.31 222.075 113.821 222.528 113.396 223.1C112.99 223.654 112.676 224.245 112.455 224.863C112.243 225.463 112.077 226.22 111.938 227.18C111.809 228.104 111.717 229.054 111.68 230.015C111.643 230.956 111.625 232.147 111.625 233.55C111.625 235.424 111.652 236.92 111.698 237.972C111.754 239.062 111.901 240.169 112.132 241.277C112.39 242.468 112.741 243.336 113.221 243.927C113.673 244.49 114.337 245.016 115.177 245.496C116.026 245.976 117.041 246.299 118.194 246.438C119.283 246.567 120.658 246.641 122.282 246.641C123.906 246.641 125.299 246.576 126.388 246.438C127.541 246.299 128.556 245.985 129.396 245.515C130.244 245.044 130.9 244.508 131.37 243.945C131.859 243.345 132.219 242.477 132.468 241.286C132.708 240.179 132.856 239.071 132.902 237.981C132.957 236.92 132.976 235.434 132.976 233.559C132.976 232.156 132.957 230.965 132.92 230.024C132.883 229.064 132.8 228.113 132.662 227.19L132.68 227.18ZM121.322 224.909H123.287C123.509 224.909 123.813 224.909 124.21 224.928C124.671 224.946 124.93 224.974 125.059 225.002C125.29 225.048 125.566 225.094 125.889 225.159C126.212 225.214 126.369 225.288 126.434 225.316C126.591 225.399 126.738 225.5 126.895 225.62C126.978 225.676 127.024 225.749 127.061 225.833C127.107 225.953 127.135 226.091 127.135 226.248C127.135 227.06 127.172 228.325 127.246 229.987C127.32 231.639 127.356 232.913 127.356 233.8C127.356 236.477 127.273 238.877 127.117 240.963C127.117 241.296 127.033 241.637 126.397 241.84C125.668 242.08 124.302 242.219 122.328 242.265C120.427 242.265 119.071 242.136 118.305 241.877C117.613 241.646 117.511 241.305 117.511 240.908C117.354 238.877 117.271 236.477 117.271 233.8C117.271 232.922 117.308 231.639 117.382 229.987C117.456 228.316 117.493 227.06 117.493 226.248C117.493 226.091 117.521 225.953 117.567 225.833C117.604 225.749 117.65 225.685 117.733 225.62C117.89 225.5 118.037 225.399 118.194 225.316C118.259 225.279 118.406 225.214 118.738 225.159C119.071 225.103 119.347 225.048 119.569 225.002C119.698 224.974 119.947 224.946 120.418 224.928C120.815 224.909 121.128 224.909 121.34 224.909H121.322Z" fill="white"/>
<path d="M145.478 235.424C145.478 234.926 145.45 234.104 145.404 232.95C145.358 231.824 145.33 230.965 145.33 230.384C145.33 229.378 145.386 228.565 145.487 227.984C145.58 227.457 145.764 226.977 146.032 226.571C146.272 226.211 146.622 225.962 147.102 225.814C147.942 225.546 149.261 225.436 150.848 225.648L151.595 225.749L151.835 220.746L151.199 220.663C149.39 220.423 147.766 220.755 146.502 221.549C146.022 221.854 145.598 222.214 145.229 222.629L144.998 221.189H139.85V246.308H145.497V235.424H145.478Z" fill="white"/>
<path d="M168.693 231.445L178.344 221.189H171.59L165.75 227.568C165.464 227.873 164.882 228.51 164.015 229.461C163.738 229.765 163.489 230.042 163.258 230.301C163.258 229.571 163.268 229.036 163.268 228.685V212.363L157.602 212.825V246.308H163.268V235.729L164.485 234.363L172.458 246.299H178.833L168.702 231.436L168.693 231.445Z" fill="white"/>
<path d="M35.7979 286.623H41.1772C41.1772 290.473 41.1772 293.141 41.1956 294.636C40.7435 294.849 39.1565 295.273 33.6941 295.273C31.4705 295.273 29.9019 295.163 29.0438 294.95C28.2872 294.766 27.8258 294.433 27.6413 293.953C27.5583 293.732 27.4106 293.076 27.3184 291.138C27.1892 288.22 27.1246 285.174 27.1246 282.081C27.1246 278.989 27.1892 275.961 27.3184 273.053C27.3922 272.231 27.5859 271.613 27.8812 271.234C28.1672 270.874 28.7485 270.579 29.5789 270.385C30.5201 270.163 31.9503 270.043 33.8325 270.043C36.6191 270.043 38.5106 270.172 39.4794 270.422C40.3929 270.662 40.5313 271.132 40.5405 271.576L40.8265 276.625L46.0028 275.638L46.0397 275.102C46.0674 274.622 46.0859 274.244 46.0859 273.976C46.0859 272.813 45.9659 271.76 45.7168 270.856C45.4769 269.96 45.1816 269.194 44.8587 268.594C44.4988 267.938 43.9545 267.375 43.2348 266.932C42.5889 266.535 41.9984 266.221 41.4909 266.018C40.9465 265.797 40.2176 265.64 39.258 265.538C38.3537 265.446 37.634 265.39 37.0989 265.372C36.5729 265.353 35.8071 265.353 34.7829 265.353H34.46C33.2789 265.353 32.2086 265.39 31.2767 265.455C30.3171 265.52 29.4221 265.658 28.6101 265.852C27.8074 266.046 27.0877 266.267 26.4787 266.507C25.8236 266.766 25.2146 267.144 24.6795 267.634C24.172 268.095 23.7383 268.575 23.3969 269.046C23.0371 269.545 22.7326 270.182 22.465 270.966C22.2159 271.705 22.0221 272.443 21.8837 273.173C21.7453 273.893 21.6254 274.807 21.5515 275.887C21.4685 276.948 21.4224 278.001 21.3947 279.016C21.3762 280.032 21.3578 281.25 21.3578 282.691C21.3578 284.371 21.3762 285.746 21.4039 286.817C21.4316 287.888 21.4869 289.023 21.57 290.196C21.653 291.396 21.7822 292.375 21.9575 293.104C22.1328 293.815 22.3451 294.563 22.6126 295.32C22.9079 296.169 23.3139 296.834 23.8121 297.295C24.255 297.701 24.7625 298.117 25.3346 298.514C25.962 298.948 26.7094 299.261 27.5675 299.437C28.3518 299.603 29.2375 299.732 30.1879 299.834C31.1383 299.935 32.2547 299.991 33.4911 299.991C39.9684 299.991 44.1944 299.012 46.3904 297L46.6118 296.797V281.97H35.3088L35.8348 286.623H35.7979Z" fill="white"/>
<path d="M74.0065 280.355C73.8681 279.404 73.702 278.647 73.4898 278.038C73.2776 277.419 72.9546 276.828 72.5486 276.275C72.1242 275.702 71.6352 275.25 71.0908 274.945C70.5833 274.659 69.9374 274.41 69.1716 274.197C68.415 273.994 67.5938 273.856 66.708 273.782C65.8499 273.717 64.8165 273.68 63.6354 273.68C62.4544 273.68 61.421 273.717 60.5629 273.782C59.6771 273.847 58.8467 273.985 58.0993 274.197C57.3335 274.41 56.6876 274.659 56.1801 274.945C55.6357 275.25 55.1467 275.702 54.7222 276.275C54.3163 276.828 54.0025 277.419 53.7811 278.038C53.5689 278.638 53.4028 279.395 53.2644 280.355C53.1352 281.278 53.043 282.229 53.006 283.189C52.9691 284.131 52.9507 285.322 52.9507 286.725C52.9507 288.599 52.9784 290.094 53.0245 291.147C53.0799 292.236 53.2275 293.344 53.4582 294.452C53.7165 295.643 54.0671 296.51 54.5469 297.101C54.9991 297.664 55.6634 298.191 56.503 298.671C57.3519 299.151 58.3669 299.474 59.5202 299.612C60.609 299.741 61.9838 299.815 63.6078 299.815C65.2317 299.815 66.625 299.751 67.7137 299.612C68.8671 299.474 69.8821 299.16 70.7217 298.689C71.5706 298.218 72.2257 297.683 72.6963 297.12C73.1853 296.52 73.5451 295.652 73.7943 294.461C74.0342 293.353 74.1818 292.245 74.2279 291.156C74.2833 290.094 74.3017 288.608 74.3017 286.734C74.3017 285.331 74.2833 284.14 74.2464 283.198C74.2095 282.238 74.1264 281.287 73.988 280.364L74.0065 280.355ZM62.6482 278.084H64.6135C64.8349 278.084 65.1394 278.084 65.5362 278.102C65.9975 278.121 66.2559 278.149 66.3851 278.176C66.6157 278.222 66.8925 278.269 67.2155 278.333C67.5384 278.389 67.6953 278.462 67.7599 278.49C67.9167 278.573 68.0643 278.675 68.2212 278.795C68.3042 278.85 68.3504 278.924 68.3873 279.007C68.4334 279.127 68.4611 279.266 68.4611 279.423C68.4611 280.235 68.498 281.5 68.5718 283.161C68.6456 284.814 68.6825 286.088 68.6825 286.974C68.6825 289.651 68.5995 292.051 68.4427 294.138C68.4427 294.47 68.3596 294.812 67.723 295.015C66.994 295.255 65.6284 295.393 63.6539 295.44C61.7531 295.44 60.3968 295.31 59.631 295.052C58.9389 294.821 58.8374 294.479 58.8374 294.082C58.6806 292.051 58.5975 289.651 58.5975 286.974C58.5975 286.097 58.6345 284.814 58.7083 283.161C58.7821 281.49 58.819 280.235 58.819 279.423C58.819 279.266 58.8467 279.127 58.8928 279.007C58.9297 278.924 58.9758 278.859 59.0589 278.795C59.2157 278.675 59.3634 278.573 59.5202 278.49C59.5848 278.453 59.7325 278.389 60.0646 278.333C60.3968 278.278 60.6736 278.222 60.895 278.176C61.0242 278.149 61.2733 278.121 61.7439 278.102C62.1407 278.084 62.4544 278.084 62.6666 278.084H62.6482Z" fill="white"/>
<path d="M101.567 280.355C101.429 279.404 101.263 278.647 101.051 278.038C100.838 277.419 100.515 276.828 100.109 276.275C99.6849 275.702 99.1959 275.25 98.6515 274.945C98.1441 274.659 97.4982 274.41 96.7323 274.197C95.9757 273.994 95.1545 273.856 94.2688 273.782C93.4106 273.717 92.3772 273.68 91.1962 273.68C90.0151 273.68 88.9817 273.717 88.1236 273.782C87.2378 273.847 86.4074 273.985 85.66 274.197C84.8942 274.41 84.2483 274.659 83.7409 274.945C83.1965 275.25 82.7074 275.702 82.283 276.275C81.877 276.828 81.5633 277.419 81.3419 278.038C81.1296 278.638 80.9636 279.395 80.8252 280.355C80.696 281.278 80.6037 282.229 80.5668 283.189C80.5299 284.131 80.5114 285.322 80.5114 286.725C80.5114 288.599 80.5391 290.094 80.5853 291.147C80.6406 292.236 80.7882 293.344 81.0189 294.452C81.2773 295.643 81.6279 296.51 82.1077 297.101C82.5598 297.664 83.2242 298.191 84.0638 298.671C84.9127 299.151 85.9276 299.474 87.081 299.612C88.1698 299.741 89.5446 299.815 91.1685 299.815C92.7924 299.815 94.1857 299.751 95.2745 299.612C96.4278 299.474 97.4428 299.16 98.2825 298.689C99.1313 298.218 99.7864 297.683 100.257 297.12C100.746 296.52 101.106 295.652 101.355 294.461C101.595 293.353 101.743 292.245 101.789 291.156C101.844 290.094 101.862 288.608 101.862 286.734C101.862 285.331 101.844 284.14 101.807 283.198C101.77 282.238 101.687 281.287 101.549 280.364L101.567 280.355ZM90.2089 278.084H92.1742C92.3957 278.084 92.7002 278.084 93.0969 278.102C93.5583 278.121 93.8166 278.149 93.9458 278.176C94.1765 278.222 94.4533 278.269 94.7762 278.333C95.0992 278.389 95.256 278.462 95.3206 278.49C95.4775 278.573 95.6251 278.675 95.782 278.795C95.865 278.85 95.9111 278.924 95.948 279.007C95.9942 279.127 96.0219 279.266 96.0219 279.423C96.0219 280.235 96.0588 281.5 96.1326 283.161C96.2064 284.814 96.2433 286.088 96.2433 286.974C96.2433 289.651 96.1603 292.051 96.0034 294.138C96.0034 294.47 95.9204 294.812 95.2837 295.015C94.5548 295.255 93.1892 295.393 91.2146 295.44C89.3139 295.44 87.9576 295.31 87.1917 295.052C86.4997 294.821 86.3982 294.479 86.3982 294.082C86.2413 292.051 86.1583 289.651 86.1583 286.974C86.1583 286.097 86.1952 284.814 86.269 283.161C86.3428 281.49 86.3797 280.235 86.3797 279.423C86.3797 279.266 86.4074 279.127 86.4536 279.007C86.4905 278.924 86.5366 278.859 86.6196 278.795C86.7765 278.675 86.9241 278.573 87.081 278.49C87.1456 278.453 87.2932 278.389 87.6254 278.333C87.9576 278.278 88.2344 278.222 88.4558 278.176C88.585 278.149 88.8341 278.121 89.3047 278.102C89.7014 278.084 90.0152 278.084 90.2274 278.084H90.2089Z" fill="white"/>
<path d="M123.297 275.314C122.937 274.991 122.531 274.724 122.069 274.502C120.935 273.957 119.412 273.69 117.438 273.69C116.45 273.69 115.546 273.745 114.752 273.847C113.931 273.957 113.184 274.151 112.538 274.428C111.901 274.705 111.339 275.019 110.868 275.379C110.37 275.758 109.945 276.265 109.595 276.875C109.272 277.447 109.004 278.047 108.81 278.666C108.617 279.275 108.46 280.023 108.349 280.9C108.238 281.749 108.164 282.626 108.128 283.494C108.091 284.352 108.072 285.377 108.072 286.549C108.072 287.722 108.072 288.71 108.091 289.411C108.109 290.122 108.146 290.962 108.22 291.904C108.294 292.901 108.414 293.658 108.58 294.239C108.737 294.784 108.958 295.403 109.235 296.067C109.539 296.806 109.945 297.397 110.434 297.803C110.868 298.172 111.394 298.523 112.003 298.864C112.64 299.215 113.396 299.474 114.263 299.612C115.085 299.751 116.017 299.815 117.05 299.815C120.03 299.815 122.189 299.123 123.518 297.747L123.758 299.492H128.943V264.827L123.297 265.289V275.324V275.314ZM118.434 295.449C116.026 295.449 115.02 295.218 114.605 295.024C114.31 294.886 113.913 294.599 113.848 293.722C113.765 289.365 113.719 285.922 113.719 283.503C113.719 281.887 113.83 280.604 114.051 279.672C114.31 278.582 114.771 278.435 114.919 278.389C115.657 278.167 116.838 278.047 118.434 278.047C120.935 278.047 122.014 278.379 122.466 278.647C123.029 278.989 123.297 279.635 123.297 280.641V293.224C123.204 294.35 122.706 294.719 122.346 294.904C121.866 295.144 120.796 295.44 118.434 295.44V295.449Z" fill="white"/>
<path d="M154.447 287.897C154.262 287.288 153.958 286.762 153.542 286.337C153.173 285.959 152.795 285.635 152.417 285.386C152.011 285.119 151.457 284.897 150.728 284.712C150.064 284.546 149.427 284.408 148.827 284.297C148.237 284.195 147.425 284.085 146.419 283.965C146.299 283.955 146.115 283.928 145.847 283.881C142.701 283.475 141.75 283.208 141.464 283.078C141.169 282.949 141.021 282.552 141.021 281.906V279.7C141.021 279.109 141.215 278.739 141.649 278.499C142.027 278.287 142.922 278.038 145.063 278.038C145.921 278.038 146.576 278.038 147.028 278.056C147.453 278.065 147.877 278.121 148.292 278.195C148.809 278.296 148.984 278.379 149.021 278.407C149.077 278.444 149.187 278.536 149.335 278.767C149.455 278.961 149.538 279.173 149.575 279.404C149.621 279.718 149.676 280.152 149.732 280.697L149.815 281.537L154.004 280.253V279.746C154.004 278.989 153.93 278.296 153.773 277.696C153.625 277.087 153.422 276.561 153.173 276.127C152.906 275.647 152.518 275.25 152.029 274.927C151.596 274.641 151.143 274.41 150.71 274.253C150.267 274.087 149.722 273.967 149.03 273.884C148.385 273.8 147.785 273.745 147.24 273.727C146.705 273.708 146.022 273.69 145.192 273.69C143.863 273.69 142.71 273.745 141.778 273.856C140.818 273.967 139.942 274.17 139.167 274.456C138.336 274.761 137.663 275.204 137.165 275.767C136.685 276.311 136.316 277.004 136.067 277.825C135.836 278.61 135.716 279.561 135.716 280.66C135.716 281.675 135.79 282.571 135.919 283.318C136.067 284.112 136.325 284.805 136.685 285.377C137.035 285.94 137.441 286.411 137.875 286.771C138.327 287.149 138.927 287.454 139.693 287.694C140.403 287.916 141.114 288.091 141.806 288.202C142.479 288.313 143.356 288.423 144.408 288.543C144.758 288.59 145.229 288.636 145.81 288.7L147.203 288.839C147.526 288.876 147.896 288.94 148.301 289.042C148.763 289.153 149.003 289.273 149.132 289.347C149.28 289.439 149.409 289.587 149.529 289.781C149.639 289.965 149.695 290.214 149.695 290.501C149.695 294.147 149.187 294.747 149.086 294.83L148.947 294.978C148.901 295.043 148.754 295.2 148.218 295.301C147.683 295.403 146.825 295.449 145.672 295.449C143.264 295.449 142.295 295.347 141.889 295.264C141.012 295.098 140.828 294.673 140.782 294.563C140.699 294.359 140.532 293.704 140.376 291.645L140.311 290.824L135.642 292.033V292.568C135.642 293.381 135.698 294.119 135.799 294.766C135.91 295.449 136.113 296.058 136.399 296.575C136.666 297.064 136.952 297.489 137.257 297.849C137.598 298.255 138.069 298.588 138.65 298.837C139.158 299.058 139.637 299.234 140.08 299.363C140.551 299.501 141.141 299.594 141.907 299.658C142.627 299.714 143.264 299.751 143.817 299.769C144.362 299.788 145.091 299.788 145.986 299.788C147.554 299.788 148.874 299.677 149.916 299.474C151.014 299.252 151.965 298.846 152.74 298.264C153.552 297.664 154.142 296.843 154.484 295.818C154.806 294.867 154.973 293.639 154.973 292.19C154.973 291.258 154.926 290.427 154.825 289.734C154.723 289.042 154.594 288.414 154.437 287.879L154.447 287.897Z" fill="white"/>
</g>
<defs>
<clipPath id="clip0_234_3429">
<rect width="178.67" height="87.6365" fill="white" transform="translate(0.154358 212.363)"/>
</clipPath>
</defs>
</svg>
