<svg width="180" height="300" viewBox="0 0 180 300" fill="none" xmlns="http://www.w3.org/2000/svg">
<path d="M66.6793 136.608C66.0588 136.608 65.4479 136.654 64.8514 136.734V108.092H33.1327V65.135H4.50222L3.53636 151.275H53.0776C53.6016 158.331 59.4885 163.894 66.6769 163.894C73.8653 163.894 80.3196 157.785 80.3196 150.251C80.3196 142.718 74.2106 136.608 66.6769 136.608H66.6793Z" fill="#156FF7" fill-opacity="0.25"/>
<path d="M89.4616 8.57198V0.120728H4.79448C2.45951 0.120728 0.568848 2.01139 0.568848 4.34636V150.613C0.568848 152.948 2.45951 154.839 4.79448 154.839H47.8766C49.9628 162.252 56.7794 167.704 64.8491 167.704C72.9188 167.704 79.7378 162.252 81.8216 154.839H89.4616V146.388H82.0945C80.7085 139.883 75.7247 134.696 69.3355 133.016V107.449C69.3355 105.114 67.4448 103.224 65.1099 103.224H35.8082V63.1912C35.8082 60.8611 33.9199 58.9704 31.5898 58.9656L9.0201 58.9294V8.57198H89.4616ZM74.032 150.068C74.032 155.131 69.9126 159.251 64.8491 159.251C59.7856 159.251 55.6662 155.131 55.6662 150.068C55.6662 145.004 59.7856 140.885 64.8491 140.885C69.9126 140.885 74.032 145.004 74.032 150.068ZM27.3569 67.4096V107.449C27.3569 109.784 29.2476 111.675 31.5825 111.675H60.8842V132.89C54.2464 134.423 49.0308 139.709 47.6061 146.388H9.0201V67.3782L27.3569 67.4072V67.4096Z" fill="#156FF7"/>
<path d="M173.769 28.9154H146.087V74.6729H115.346V134.194H115.334C106.533 134.194 99.3975 141.329 99.3975 150.131C99.3975 158.932 106.533 166.067 115.334 166.067C123.648 166.067 130.469 159.702 131.203 151.579H173.769V28.9154Z" fill="#1C6D72" fill-opacity="0.25"/>
<path d="M174.131 0H89.4615V8.45126H169.903V25.0664H146.37C144.035 25.0664 142.144 26.9571 142.144 29.2921V69.3244H114.608C112.273 69.3244 110.382 71.2151 110.382 73.5501V133.269C104.299 135.056 99.5765 140.037 98.1542 146.265H89.4591V154.716H98.2991C100.303 162.252 107.183 167.823 115.342 167.823C123.501 167.823 130.38 162.252 132.384 154.716H174.126C176.461 154.716 178.352 152.825 178.352 150.49V4.22563C178.352 1.89067 176.461 0 174.126 0H174.131ZM124.529 150.188C124.529 155.252 120.41 159.371 115.346 159.371C110.283 159.371 106.164 155.252 106.164 150.188C106.164 145.125 110.283 141.006 115.346 141.006C120.41 141.006 124.529 145.125 124.529 150.188ZM132.536 146.265C131.003 139.542 125.621 134.269 118.838 132.902V77.7757H146.375C148.71 77.7757 150.6 75.885 150.6 73.5501V33.5177H169.908V146.265H132.536Z" fill="#1C6D72"/>
<g clip-path="url(#clip0_262_2248)">
<path d="M25.7214 212.677H20.4897V236.689L6.08653 212.677H0.568848V246.308H5.8005V222.638L20.0745 246.308H25.7214V212.677Z" fill="black"/>
<path d="M48.1797 238.286C48.1335 238.591 48.0966 238.979 48.0689 239.459C48.0413 239.892 48.0136 240.216 47.9859 240.428C47.9582 240.613 47.9029 240.853 47.8198 241.13C47.7829 241.25 47.7183 241.416 47.6076 241.49C47.4415 241.61 47.1832 241.748 46.8602 241.896C46.565 242.034 46.1497 242.127 45.633 242.182C45.0702 242.247 44.3782 242.274 43.5939 242.274C40.9919 242.274 39.8939 242.053 39.4326 241.859C39.0912 241.72 38.6852 241.443 38.6206 240.557C38.5283 238.351 38.473 236.283 38.4545 234.4H49.5914C50.0158 234.372 51.0954 234.27 52.8393 234.095L53.4667 234.03V233.403C53.4667 232.027 53.4482 230.873 53.4205 229.95C53.3929 229.018 53.3191 228.076 53.1991 227.171C53.0792 226.22 52.9223 225.482 52.7285 224.891C52.5255 224.291 52.2395 223.709 51.8704 223.155C51.4737 222.565 51.0031 222.112 50.4772 221.798C49.9881 221.512 49.3792 221.254 48.6502 221.041C47.9305 220.829 47.1278 220.681 46.2789 220.617C45.4577 220.552 44.4705 220.515 43.3448 220.515C41.7208 220.515 40.3645 220.58 39.3034 220.7C38.1777 220.829 37.1812 221.143 36.3415 221.614C35.5019 222.094 34.8468 222.62 34.4039 223.202C33.9426 223.792 33.6012 224.688 33.3428 225.916C33.1029 227.06 32.9553 228.224 32.9091 229.368C32.8538 230.485 32.8353 232.064 32.8353 234.049C32.8353 235.47 32.8538 236.597 32.8907 237.4C32.9276 238.212 33.0106 239.135 33.1398 240.132C33.2782 241.213 33.5089 242.016 33.8411 242.607C34.1455 243.151 34.5608 243.724 35.0867 244.314C35.6588 244.961 36.3877 245.431 37.2642 245.718C38.0485 245.976 39.0081 246.188 40.1061 246.364C41.2041 246.53 42.5051 246.622 43.9722 246.622C45.1071 246.622 46.0852 246.585 46.8602 246.521C47.6722 246.456 48.4288 246.308 49.1116 246.087C49.8313 245.856 50.4126 245.561 50.8555 245.191C51.2984 244.822 51.6859 244.324 51.9996 243.705C52.3041 243.105 52.5255 242.422 52.6547 241.656C52.7747 240.926 52.8485 240.031 52.8762 238.997L52.8946 238.406L48.2996 237.566L48.1981 238.277L48.1797 238.286ZM38.4637 230.753C38.4637 230.615 38.4637 230.458 38.4637 230.282C38.4637 229.719 38.4822 229.294 38.4914 229.018C38.5099 228.741 38.5283 228.344 38.5652 227.845C38.6021 227.374 38.6483 227.005 38.7036 226.747C38.759 226.479 38.842 226.193 38.9528 225.888C39.0358 225.657 39.1281 225.482 39.2296 225.38C39.3311 225.279 39.4418 225.214 39.6448 225.149C39.9031 225.039 40.7243 224.854 43.2894 224.854C45.4762 224.854 46.4358 225.066 46.8602 225.242C47.1647 225.371 47.5246 225.62 47.5707 226.423C47.6722 227.734 47.7368 229.184 47.7737 230.744H38.4545L38.4637 230.753Z" fill="black"/>
<path d="M60.9866 240.465C60.9866 241.462 61.0604 242.302 61.1988 242.957C61.3465 243.659 61.6233 244.305 62.02 244.887C62.4537 245.515 63.0903 245.976 63.9208 246.253C64.6774 246.502 65.6277 246.632 66.7442 246.632C67.7592 246.632 68.9033 246.53 70.1489 246.318L70.7118 246.225L70.8409 241.859L70.0751 241.914C68.9402 241.997 68.0452 242.043 67.3993 242.043C66.8826 242.043 66.8365 241.887 66.8088 241.831C66.735 241.61 66.615 240.954 66.615 239.015V224.993H70.9793V221.189H66.615V214.025L60.9958 214.487V221.18H57.7756V224.983H60.9958V240.465H60.9866Z" fill="black"/>
<path d="M98.1064 237.668L93.8159 221.189H88.9257L84.3307 237.751L80.5569 221.189H75.0207L81.6087 246.309H87.0434L91.4354 230.144L96.0673 246.309H101.059L107.61 221.189H101.899L98.1064 237.668Z" fill="black"/>
<path d="M133.095 227.18C132.956 226.23 132.79 225.473 132.578 224.863C132.366 224.245 132.043 223.654 131.637 223.1C131.213 222.528 130.724 222.075 130.179 221.771C129.672 221.484 129.026 221.235 128.26 221.023C127.503 220.82 126.682 220.681 125.796 220.607C124.938 220.543 123.905 220.506 122.724 220.506C121.543 220.506 120.509 220.543 119.651 220.607C118.765 220.672 117.935 220.811 117.188 221.023C116.422 221.235 115.776 221.484 115.268 221.771C114.724 222.075 114.235 222.528 113.811 223.1C113.405 223.654 113.091 224.245 112.869 224.863C112.657 225.463 112.491 226.22 112.353 227.18C112.224 228.104 112.131 229.054 112.094 230.015C112.057 230.956 112.039 232.147 112.039 233.55C112.039 235.424 112.067 236.92 112.113 237.972C112.168 239.062 112.316 240.169 112.547 241.277C112.805 242.468 113.155 243.336 113.635 243.927C114.087 244.49 114.752 245.016 115.591 245.496C116.44 245.976 117.455 246.299 118.609 246.438C119.697 246.567 121.072 246.641 122.696 246.641C124.32 246.641 125.713 246.576 126.802 246.438C127.955 246.299 128.97 245.985 129.81 245.515C130.659 245.044 131.314 244.508 131.785 243.945C132.274 243.345 132.633 242.477 132.883 241.286C133.122 240.179 133.27 239.071 133.316 237.981C133.372 236.92 133.39 235.434 133.39 233.559C133.39 232.156 133.372 230.965 133.335 230.024C133.298 229.064 133.215 228.113 133.076 227.19L133.095 227.18ZM121.737 224.909H123.702C123.923 224.909 124.228 224.909 124.625 224.928C125.086 224.946 125.344 224.974 125.473 225.002C125.704 225.048 125.981 225.094 126.304 225.159C126.627 225.214 126.784 225.288 126.848 225.316C127.005 225.399 127.153 225.5 127.31 225.62C127.393 225.676 127.439 225.749 127.476 225.833C127.522 225.953 127.549 226.091 127.549 226.248C127.549 227.06 127.586 228.325 127.66 229.987C127.734 231.639 127.771 232.913 127.771 233.8C127.771 236.477 127.688 238.877 127.531 240.963C127.531 241.296 127.448 241.637 126.811 241.84C126.082 242.08 124.717 242.219 122.742 242.265C120.842 242.265 119.485 242.136 118.719 241.877C118.027 241.646 117.926 241.305 117.926 240.908C117.769 238.877 117.686 236.477 117.686 233.8C117.686 232.922 117.723 231.639 117.797 229.987C117.87 228.316 117.907 227.06 117.907 226.248C117.907 226.091 117.935 225.953 117.981 225.833C118.018 225.749 118.064 225.685 118.147 225.62C118.304 225.5 118.452 225.399 118.609 225.316C118.673 225.279 118.821 225.214 119.153 225.159C119.485 225.103 119.762 225.048 119.983 225.002C120.113 224.974 120.362 224.946 120.832 224.928C121.229 224.909 121.543 224.909 121.755 224.909H121.737Z" fill="black"/>
<path d="M145.893 235.424C145.893 234.926 145.865 234.104 145.819 232.95C145.773 231.824 145.745 230.965 145.745 230.384C145.745 229.378 145.8 228.565 145.902 227.984C145.994 227.457 146.179 226.977 146.446 226.571C146.686 226.211 147.037 225.962 147.516 225.814C148.356 225.546 149.676 225.436 151.263 225.648L152.01 225.75L152.25 220.746L151.613 220.663C149.805 220.423 148.181 220.755 146.917 221.549C146.437 221.854 146.012 222.214 145.643 222.629L145.413 221.189H140.264V246.309H145.911V235.424H145.893Z" fill="black"/>
<path d="M169.107 231.445L178.759 221.189H172.005L166.164 227.568C165.878 227.873 165.297 228.51 164.429 229.461C164.153 229.765 163.903 230.042 163.673 230.301C163.673 229.571 163.682 229.036 163.682 228.685V212.364L158.017 212.825V246.308H163.682V235.729L164.9 234.363L172.872 246.299H179.248L169.117 231.436L169.107 231.445Z" fill="black"/>
<path d="M36.2124 286.623H41.5916C41.5916 290.473 41.5916 293.141 41.6101 294.636C41.158 294.849 39.571 295.273 34.1086 295.273C31.8849 295.273 30.3164 295.163 29.4583 294.95C28.7017 294.766 28.2403 294.433 28.0558 293.953C27.9727 293.732 27.8251 293.076 27.7328 291.138C27.6037 288.22 27.5391 285.174 27.5391 282.081C27.5391 278.989 27.6037 275.961 27.7328 273.053C27.8067 272.231 28.0004 271.613 28.2957 271.234C28.5817 270.874 29.163 270.579 29.9934 270.385C30.9346 270.163 32.3647 270.043 34.247 270.043C37.0336 270.043 38.9251 270.172 39.8939 270.422C40.8074 270.662 40.9458 271.133 40.955 271.576L41.241 276.625L46.4173 275.638L46.4542 275.102C46.4819 274.622 46.5004 274.244 46.5004 273.976C46.5004 272.813 46.3804 271.76 46.1313 270.856C45.8914 269.96 45.5961 269.194 45.2732 268.594C44.9133 267.938 44.3689 267.375 43.6492 266.932C43.0034 266.535 42.4128 266.221 41.9054 266.018C41.361 265.797 40.6321 265.64 39.6725 265.538C38.7682 265.446 38.0485 265.39 37.5134 265.372C36.9874 265.354 36.2216 265.354 35.1974 265.354H34.8745C33.6934 265.354 32.6231 265.39 31.6912 265.455C30.7316 265.52 29.8366 265.658 29.0246 265.852C28.2219 266.046 27.5022 266.267 26.8932 266.507C26.2381 266.766 25.6291 267.144 25.0939 267.634C24.5865 268.095 24.1528 268.575 23.8114 269.046C23.4516 269.545 23.1471 270.182 22.8795 270.966C22.6304 271.705 22.4366 272.443 22.2982 273.173C22.1598 273.893 22.0398 274.807 21.966 275.887C21.883 276.949 21.8369 278.001 21.8092 279.016C21.7907 280.032 21.7723 281.25 21.7723 282.691C21.7723 284.371 21.7907 285.746 21.8184 286.817C21.8461 287.888 21.9014 289.024 21.9845 290.196C22.0675 291.396 22.1967 292.375 22.372 293.104C22.5473 293.815 22.7595 294.563 23.0271 295.32C23.3224 296.169 23.7284 296.834 24.2266 297.295C24.6695 297.701 25.177 298.117 25.7491 298.514C26.3765 298.948 27.1239 299.262 27.982 299.437C28.7663 299.603 29.652 299.732 30.6024 299.834C31.5528 299.935 32.6692 299.991 33.9056 299.991C40.3829 299.991 44.6088 299.012 46.8048 297L47.0263 296.797V281.971H35.7233L36.2493 286.623H36.2124Z" fill="black"/>
<path d="M74.421 280.355C74.2826 279.404 74.1165 278.647 73.9043 278.038C73.692 277.419 73.3691 276.828 72.9631 276.275C72.5387 275.702 72.0496 275.25 71.5053 274.945C70.9978 274.659 70.3519 274.41 69.5861 274.197C68.8295 273.994 68.0083 273.856 67.1225 273.782C66.2644 273.717 65.231 273.68 64.0499 273.68C62.8689 273.68 61.8355 273.717 60.9774 273.782C60.0916 273.847 59.2612 273.985 58.5138 274.197C57.748 274.41 57.1021 274.659 56.5946 274.945C56.0502 275.25 55.5612 275.702 55.1367 276.275C54.7308 276.828 54.417 277.419 54.1956 278.038C53.9834 278.638 53.8173 279.395 53.6789 280.355C53.5497 281.278 53.4574 282.229 53.4205 283.189C53.3836 284.131 53.3652 285.322 53.3652 286.725C53.3652 288.599 53.3929 290.094 53.439 291.147C53.4943 292.236 53.642 293.344 53.8727 294.452C54.131 295.643 54.4816 296.51 54.9614 297.101C55.4135 297.664 56.0779 298.191 56.9175 298.671C57.7664 299.151 58.7814 299.474 59.9347 299.612C61.0235 299.742 62.3983 299.815 64.0222 299.815C65.6462 299.815 67.0394 299.751 68.1282 299.612C69.2816 299.474 70.2965 299.16 71.1362 298.689C71.9851 298.218 72.6402 297.683 73.1107 297.12C73.5998 296.52 73.9596 295.652 74.2087 294.461C74.4486 293.353 74.5963 292.245 74.6424 291.156C74.6978 290.094 74.7162 288.608 74.7162 286.734C74.7162 285.331 74.6978 284.14 74.6609 283.198C74.624 282.238 74.5409 281.287 74.4025 280.364L74.421 280.355ZM63.0626 278.084H65.028C65.2494 278.084 65.5539 278.084 65.9507 278.102C66.412 278.121 66.6704 278.149 66.7995 278.176C67.0302 278.222 67.307 278.269 67.63 278.333C67.9529 278.389 68.1098 278.462 68.1743 278.49C68.3312 278.573 68.4788 278.675 68.6357 278.795C68.7187 278.85 68.7649 278.924 68.8018 279.007C68.8479 279.127 68.8756 279.266 68.8756 279.423C68.8756 280.235 68.9125 281.5 68.9863 283.161C69.0601 284.814 69.097 286.088 69.097 286.974C69.097 289.651 69.014 292.051 68.8571 294.138C68.8571 294.47 68.7741 294.812 68.1374 295.015C67.4085 295.255 66.0429 295.393 64.0684 295.44C62.1676 295.44 60.8113 295.31 60.0454 295.052C59.3534 294.821 59.2519 294.479 59.2519 294.082C59.0951 292.051 59.012 289.651 59.012 286.974C59.012 286.097 59.0489 284.814 59.1228 283.161C59.1966 281.49 59.2335 280.235 59.2335 279.423C59.2335 279.266 59.2612 279.127 59.3073 279.007C59.3442 278.924 59.3903 278.859 59.4734 278.795C59.6302 278.675 59.7779 278.573 59.9347 278.49C59.9993 278.453 60.1469 278.389 60.4791 278.333C60.8113 278.278 61.0881 278.222 61.3095 278.176C61.4387 278.149 61.6878 278.121 62.1584 278.102C62.5552 278.084 62.8689 278.084 63.0811 278.084H63.0626Z" fill="black"/>
<path d="M101.982 280.355C101.843 279.404 101.677 278.647 101.465 278.038C101.253 277.419 100.93 276.828 100.524 276.275C100.099 275.702 99.6104 275.25 99.066 274.945C98.5585 274.659 97.9127 274.41 97.1468 274.197C96.3902 273.994 95.569 273.856 94.6832 273.782C93.8251 273.717 92.7917 273.68 91.6107 273.68C90.4296 273.68 89.3962 273.717 88.5381 273.782C87.6523 273.847 86.8219 273.985 86.0745 274.197C85.3087 274.41 84.6628 274.659 84.1553 274.945C83.611 275.25 83.1219 275.702 82.6975 276.275C82.2915 276.828 81.9778 277.419 81.7563 278.038C81.5441 278.638 81.378 279.395 81.2396 280.355C81.1105 281.278 81.0182 282.229 80.9813 283.189C80.9444 284.131 80.9259 285.322 80.9259 286.725C80.9259 288.599 80.9536 290.094 80.9997 291.147C81.0551 292.236 81.2027 293.344 81.4334 294.452C81.6918 295.643 82.0424 296.51 82.5222 297.101C82.9743 297.664 83.6386 298.191 84.4783 298.671C85.3272 299.151 86.3421 299.474 87.4955 299.612C88.5843 299.742 89.9591 299.815 91.583 299.815C93.2069 299.815 94.6002 299.751 95.689 299.612C96.8423 299.474 97.8573 299.16 98.6969 298.689C99.5458 298.218 100.201 297.683 100.671 297.12C101.161 296.52 101.52 295.652 101.77 294.461C102.009 293.353 102.157 292.245 102.203 291.156C102.259 290.094 102.277 288.608 102.277 286.734C102.277 285.331 102.259 284.14 102.222 283.198C102.185 282.238 102.102 281.287 101.963 280.364L101.982 280.355ZM90.6234 278.084H92.5887C92.8102 278.084 93.1147 278.084 93.5114 278.102C93.9728 278.121 94.2311 278.149 94.3603 278.176C94.591 278.222 94.8678 278.269 95.1907 278.333C95.5137 278.389 95.6705 278.462 95.7351 278.49C95.892 278.573 96.0396 278.675 96.1965 278.795C96.2795 278.85 96.3256 278.924 96.3625 279.007C96.4087 279.127 96.4364 279.266 96.4364 279.423C96.4364 280.235 96.4733 281.5 96.5471 283.161C96.6209 284.814 96.6578 286.088 96.6578 286.974C96.6578 289.651 96.5748 292.051 96.4179 294.138C96.4179 294.47 96.3349 294.812 95.6982 295.015C94.9693 295.255 93.6037 295.393 91.6291 295.44C89.7284 295.44 88.372 295.31 87.6062 295.052C86.9142 294.821 86.8127 294.479 86.8127 294.082C86.6558 292.051 86.5728 289.651 86.5728 286.974C86.5728 286.097 86.6097 284.814 86.6835 283.161C86.7573 281.49 86.7942 280.235 86.7942 279.423C86.7942 279.266 86.8219 279.127 86.8681 279.007C86.905 278.924 86.9511 278.859 87.0341 278.795C87.191 278.675 87.3386 278.573 87.4955 278.49C87.5601 278.453 87.7077 278.389 88.0399 278.333C88.372 278.278 88.6488 278.222 88.8703 278.176C88.9995 278.149 89.2486 278.121 89.7192 278.102C90.1159 278.084 90.4296 278.084 90.6419 278.084H90.6234Z" fill="black"/>
<path d="M123.711 275.314C123.351 274.991 122.945 274.724 122.484 274.502C121.349 273.957 119.827 273.69 117.852 273.69C116.865 273.69 115.96 273.745 115.167 273.847C114.346 273.957 113.598 274.151 112.953 274.428C112.316 274.705 111.753 275.019 111.282 275.379C110.784 275.758 110.36 276.265 110.009 276.875C109.686 277.447 109.419 278.047 109.225 278.666C109.031 279.275 108.874 280.023 108.764 280.9C108.653 281.749 108.579 282.626 108.542 283.494C108.505 284.352 108.487 285.377 108.487 286.549C108.487 287.722 108.487 288.71 108.505 289.411C108.524 290.122 108.561 290.962 108.634 291.904C108.708 292.901 108.828 293.658 108.994 294.239C109.151 294.784 109.372 295.403 109.649 296.067C109.954 296.806 110.36 297.397 110.849 297.803C111.282 298.172 111.808 298.523 112.417 298.865C113.054 299.215 113.811 299.474 114.678 299.612C115.499 299.751 116.431 299.815 117.464 299.815C120.445 299.815 122.604 299.123 123.933 297.747L124.172 299.492H129.358V264.827L123.711 265.289V275.324V275.314ZM118.849 295.449C116.44 295.449 115.435 295.218 115.019 295.024C114.724 294.886 114.327 294.599 114.263 293.722C114.18 289.365 114.134 285.922 114.134 283.503C114.134 281.887 114.244 280.604 114.466 279.672C114.724 278.582 115.185 278.435 115.333 278.389C116.071 278.167 117.252 278.047 118.849 278.047C121.349 278.047 122.429 278.379 122.881 278.647C123.443 278.989 123.711 279.635 123.711 280.641V293.224C123.619 294.35 123.121 294.72 122.761 294.904C122.281 295.144 121.211 295.44 118.849 295.44V295.449Z" fill="black"/>
<path d="M154.861 287.897C154.677 287.288 154.372 286.762 153.957 286.337C153.588 285.959 153.209 285.636 152.831 285.386C152.425 285.119 151.872 284.897 151.143 284.712C150.478 284.546 149.842 284.408 149.242 284.297C148.651 284.195 147.839 284.085 146.834 283.965C146.714 283.955 146.529 283.928 146.262 283.881C143.115 283.475 142.165 283.208 141.879 283.078C141.584 282.949 141.436 282.552 141.436 281.906V279.7C141.436 279.109 141.63 278.739 142.063 278.499C142.442 278.287 143.337 278.038 145.477 278.038C146.335 278.038 146.991 278.038 147.443 278.056C147.867 278.066 148.292 278.121 148.707 278.195C149.223 278.296 149.399 278.379 149.436 278.407C149.491 278.444 149.602 278.536 149.749 278.767C149.869 278.961 149.952 279.173 149.989 279.404C150.035 279.718 150.091 280.152 150.146 280.697L150.229 281.537L154.418 280.253V279.746C154.418 278.989 154.344 278.296 154.188 277.696C154.04 277.087 153.837 276.561 153.588 276.127C153.32 275.647 152.933 275.25 152.444 274.927C152.01 274.641 151.558 274.41 151.124 274.253C150.681 274.087 150.137 273.967 149.445 273.884C148.799 273.8 148.199 273.745 147.655 273.727C147.12 273.708 146.437 273.69 145.607 273.69C144.278 273.69 143.124 273.745 142.193 273.856C141.233 273.967 140.356 274.17 139.581 274.456C138.751 274.761 138.077 275.204 137.579 275.767C137.099 276.311 136.73 277.004 136.481 277.826C136.25 278.61 136.13 279.561 136.13 280.66C136.13 281.675 136.204 282.571 136.333 283.318C136.481 284.112 136.739 284.805 137.099 285.377C137.45 285.94 137.856 286.411 138.29 286.771C138.742 287.15 139.341 287.454 140.107 287.694C140.818 287.916 141.528 288.091 142.22 288.202C142.894 288.313 143.77 288.423 144.822 288.543C145.173 288.59 145.643 288.636 146.225 288.7L147.618 288.839C147.941 288.876 148.31 288.94 148.716 289.042C149.177 289.153 149.417 289.273 149.546 289.347C149.694 289.439 149.823 289.587 149.943 289.781C150.054 289.965 150.109 290.214 150.109 290.501C150.109 294.147 149.602 294.747 149.5 294.83L149.362 294.978C149.316 295.043 149.168 295.2 148.633 295.301C148.098 295.403 147.24 295.449 146.086 295.449C143.678 295.449 142.709 295.347 142.303 295.264C141.427 295.098 141.242 294.673 141.196 294.563C141.113 294.359 140.947 293.704 140.79 291.645L140.725 290.824L136.057 292.033V292.569C136.057 293.381 136.112 294.119 136.214 294.766C136.324 295.449 136.527 296.058 136.813 296.575C137.081 297.064 137.367 297.489 137.671 297.849C138.013 298.255 138.483 298.588 139.065 298.837C139.572 299.058 140.052 299.234 140.495 299.363C140.965 299.502 141.556 299.594 142.322 299.658C143.041 299.714 143.678 299.751 144.232 299.769C144.776 299.788 145.505 299.788 146.4 299.788C147.969 299.788 149.288 299.677 150.331 299.474C151.429 299.252 152.379 298.846 153.154 298.264C153.966 297.664 154.557 296.843 154.898 295.818C155.221 294.867 155.387 293.639 155.387 292.19C155.387 291.258 155.341 290.427 155.239 289.734C155.138 289.042 155.009 288.414 154.852 287.879L154.861 287.897Z" fill="black"/>
</g>
<defs>
<clipPath id="clip0_262_2248">
<rect width="178.67" height="87.6365" fill="white" transform="translate(0.568848 212.364)"/>
</clipPath>
</defs>
</svg>
