<svg width="180" height="300" viewBox="0 0 180 300" fill="none" xmlns="http://www.w3.org/2000/svg">
<path d="M66.4816 136.608C65.861 136.608 65.2501 136.654 64.6537 136.734V108.091H32.9349V65.1349H4.30448L3.33862 151.275H52.8799C53.4039 158.331 59.2908 163.894 66.4792 163.894C73.6676 163.894 80.1219 157.785 80.1219 150.251C80.1219 142.717 74.0129 136.608 66.4792 136.608H66.4816Z" fill="black" fill-opacity="0.25"/>
<path d="M89.2636 8.57204V0.120789H4.59648C2.26152 0.120789 0.37085 2.01146 0.37085 4.34642V150.614C0.37085 152.948 2.26152 154.839 4.59648 154.839H47.6786C49.7648 162.252 56.5814 167.704 64.6511 167.704C72.7208 167.704 79.5398 162.252 81.6236 154.839H89.2636V146.388H81.8965C80.5105 139.883 75.5267 134.696 69.1375 133.016V107.449C69.1375 105.114 67.2469 103.224 64.9119 103.224H35.6102V63.1913C35.6102 60.8612 33.7219 58.9705 31.3918 58.9657L8.82211 58.9295V8.57204H89.2636ZM73.834 150.068C73.834 155.131 69.7146 159.251 64.6511 159.251C59.5876 159.251 55.4682 155.131 55.4682 150.068C55.4682 145.004 59.5876 140.885 64.6511 140.885C69.7146 140.885 73.834 145.004 73.834 150.068ZM27.1589 67.4097V107.449C27.1589 109.784 29.0496 111.675 31.3845 111.675H60.6863V132.89C54.0484 134.423 48.8328 139.709 47.4081 146.388H8.82211V67.3783L27.1589 67.4073V67.4097Z" fill="black"/>
<path d="M173.571 28.9153H145.889V74.6729H115.148V134.194H115.136C106.335 134.194 99.1997 141.329 99.1997 150.13C99.1997 158.932 106.335 166.067 115.136 166.067C123.45 166.067 130.271 159.702 131.005 151.579H173.571V28.9153Z" fill="black" fill-opacity="0.25"/>
<path d="M173.933 0H89.2638V8.45126H169.705V25.0664H146.172C143.837 25.0664 141.947 26.9571 141.947 29.2921V69.3245H114.41C112.075 69.3245 110.184 71.2151 110.184 73.5501V133.269C104.102 135.056 99.3787 140.037 97.9565 146.265H89.2614V154.716H98.1014C100.106 162.252 106.985 167.823 115.144 167.823C123.303 167.823 130.182 162.252 132.187 154.716H173.928C176.263 154.716 178.154 152.825 178.154 150.49V4.22563C178.154 1.89067 176.263 0 173.928 0H173.933ZM124.332 150.188C124.332 155.252 120.212 159.371 115.149 159.371C110.085 159.371 105.966 155.252 105.966 150.188C105.966 145.125 110.085 141.006 115.149 141.006C120.212 141.006 124.332 145.125 124.332 150.188ZM132.339 146.265C130.805 139.542 125.423 134.269 118.64 132.902V77.7757H146.177C148.512 77.7757 150.403 75.885 150.403 73.5501V33.5177H169.71V146.265H132.339Z" fill="black"/>
<g clip-path="url(#clip0_234_3651)">
<path d="M25.5234 212.677H20.2917V236.689L5.88854 212.677H0.37085V246.308H5.6025V222.638L19.8765 246.308H25.5234V212.677Z" fill="black"/>
<path d="M47.9817 238.286C47.9355 238.591 47.8986 238.979 47.8709 239.459C47.8433 239.892 47.8156 240.216 47.7879 240.428C47.7602 240.613 47.7049 240.853 47.6218 241.13C47.5849 241.25 47.5203 241.416 47.4096 241.49C47.2435 241.61 46.9852 241.748 46.6622 241.896C46.367 242.034 45.9518 242.127 45.435 242.182C44.8722 242.247 44.1802 242.274 43.3959 242.274C40.7939 242.274 39.6959 242.053 39.2346 241.859C38.8932 241.72 38.4872 241.443 38.4226 240.557C38.3303 238.351 38.275 236.283 38.2565 234.4H49.3934C49.8178 234.372 50.8974 234.27 52.6413 234.095L53.2687 234.03V233.403C53.2687 232.027 53.2502 230.873 53.2226 229.95C53.1949 229.018 53.1211 228.076 53.0011 227.171C52.8812 226.22 52.7243 225.482 52.5305 224.891C52.3275 224.291 52.0415 223.709 51.6724 223.155C51.2757 222.565 50.8051 222.112 50.2792 221.798C49.7901 221.512 49.1812 221.254 48.4522 221.041C47.7325 220.829 46.9298 220.681 46.0809 220.617C45.2597 220.552 44.2725 220.515 43.1468 220.515C41.5228 220.515 40.1665 220.58 39.1054 220.7C37.9797 220.829 36.9832 221.143 36.1436 221.614C35.3039 222.094 34.6488 222.62 34.2059 223.202C33.7446 223.792 33.4032 224.688 33.1448 225.916C32.9049 227.06 32.7573 228.224 32.7111 229.368C32.6558 230.485 32.6373 232.064 32.6373 234.049C32.6373 235.47 32.6558 236.597 32.6927 237.4C32.7296 238.212 32.8126 239.135 32.9418 240.132C33.0802 241.213 33.3109 242.016 33.6431 242.607C33.9475 243.151 34.3628 243.724 34.8887 244.314C35.4608 244.961 36.1897 245.431 37.0662 245.718C37.8505 245.976 38.8101 246.188 39.9081 246.364C41.0061 246.53 42.3071 246.622 43.7742 246.622C44.9091 246.622 45.8872 246.585 46.6622 246.521C47.4742 246.456 48.2308 246.309 48.9136 246.087C49.6333 245.856 50.2146 245.561 50.6575 245.191C51.1004 244.822 51.4879 244.324 51.8016 243.705C52.1061 243.105 52.3275 242.422 52.4567 241.656C52.5767 240.926 52.6505 240.031 52.6782 238.997L52.6966 238.406L48.1016 237.566L48.0001 238.277L47.9817 238.286ZM38.2657 230.753C38.2657 230.615 38.2657 230.458 38.2657 230.282C38.2657 229.719 38.2842 229.294 38.2934 229.018C38.3119 228.741 38.3303 228.344 38.3672 227.845C38.4041 227.374 38.4503 227.005 38.5056 226.747C38.561 226.479 38.644 226.193 38.7548 225.888C38.8378 225.657 38.9301 225.482 39.0316 225.38C39.1331 225.279 39.2438 225.214 39.4468 225.149C39.7051 225.039 40.5263 224.854 43.0914 224.854C45.2782 224.854 46.2378 225.066 46.6622 225.242C46.9667 225.371 47.3266 225.62 47.3727 226.423C47.4742 227.734 47.5388 229.184 47.5757 230.744H38.2565L38.2657 230.753Z" fill="black"/>
<path d="M60.7886 240.465C60.7886 241.462 60.8624 242.302 61.0008 242.957C61.1485 243.659 61.4253 244.305 61.822 244.887C62.2557 245.515 62.8924 245.976 63.7228 246.253C64.4794 246.502 65.4297 246.632 66.5462 246.632C67.5612 246.632 68.7053 246.53 69.9509 246.318L70.5138 246.225L70.643 241.859L69.8771 241.914C68.7422 241.997 67.8472 242.043 67.2013 242.043C66.6846 242.043 66.6385 241.887 66.6108 241.831C66.537 241.61 66.417 240.954 66.417 239.015V224.993H70.7814V221.189H66.417V214.025L60.7978 214.487V221.18H57.5777V224.983H60.7978V240.465H60.7886Z" fill="black"/>
<path d="M97.9085 237.668L93.6179 221.189H88.7277L84.1327 237.751L80.3589 221.189H74.8227L81.4108 246.309H86.8454L91.2374 230.144L95.8693 246.309H100.861L107.412 221.189H101.701L97.9085 237.668Z" fill="black"/>
<path d="M132.897 227.18C132.758 226.23 132.592 225.473 132.38 224.863C132.168 224.245 131.845 223.654 131.439 223.1C131.015 222.528 130.526 222.075 129.981 221.771C129.474 221.484 128.828 221.235 128.062 221.023C127.305 220.82 126.484 220.681 125.598 220.607C124.74 220.543 123.707 220.506 122.526 220.506C121.345 220.506 120.311 220.543 119.453 220.607C118.567 220.672 117.737 220.811 116.99 221.023C116.224 221.235 115.578 221.484 115.07 221.771C114.526 222.075 114.037 222.528 113.613 223.1C113.207 223.654 112.893 224.245 112.671 224.863C112.459 225.463 112.293 226.22 112.155 227.18C112.026 228.104 111.933 229.054 111.896 230.015C111.86 230.956 111.841 232.147 111.841 233.55C111.841 235.424 111.869 236.92 111.915 237.972C111.97 239.062 112.118 240.169 112.349 241.277C112.607 242.468 112.958 243.336 113.437 243.927C113.889 244.49 114.554 245.016 115.393 245.496C116.242 245.976 117.257 246.299 118.411 246.438C119.499 246.567 120.874 246.641 122.498 246.641C124.122 246.641 125.515 246.576 126.604 246.438C127.757 246.299 128.772 245.985 129.612 245.515C130.461 245.044 131.116 244.508 131.587 243.945C132.076 243.345 132.436 242.477 132.685 241.286C132.925 240.179 133.072 239.071 133.118 237.981C133.174 236.92 133.192 235.434 133.192 233.559C133.192 232.156 133.174 230.965 133.137 230.024C133.1 229.064 133.017 228.113 132.878 227.19L132.897 227.18ZM121.539 224.909H123.504C123.725 224.909 124.03 224.909 124.427 224.928C124.888 224.946 125.146 224.974 125.275 225.002C125.506 225.048 125.783 225.094 126.106 225.159C126.429 225.214 126.586 225.288 126.65 225.316C126.807 225.399 126.955 225.5 127.112 225.62C127.195 225.676 127.241 225.749 127.278 225.833C127.324 225.953 127.351 226.091 127.351 226.248C127.351 227.06 127.388 228.325 127.462 229.987C127.536 231.639 127.573 232.913 127.573 233.8C127.573 236.477 127.49 238.877 127.333 240.963C127.333 241.296 127.25 241.637 126.613 241.84C125.884 242.08 124.519 242.219 122.544 242.265C120.644 242.265 119.287 242.136 118.521 241.877C117.829 241.646 117.728 241.305 117.728 240.908C117.571 238.877 117.488 236.477 117.488 233.8C117.488 232.922 117.525 231.639 117.599 229.987C117.672 228.316 117.709 227.06 117.709 226.248C117.709 226.091 117.737 225.953 117.783 225.833C117.82 225.749 117.866 225.685 117.949 225.62C118.106 225.5 118.254 225.399 118.411 225.316C118.475 225.279 118.623 225.214 118.955 225.159C119.287 225.103 119.564 225.048 119.785 225.002C119.915 224.974 120.164 224.946 120.634 224.928C121.031 224.909 121.345 224.909 121.557 224.909H121.539Z" fill="black"/>
<path d="M145.695 235.424C145.695 234.926 145.667 234.104 145.621 232.95C145.575 231.824 145.547 230.965 145.547 230.384C145.547 229.378 145.602 228.565 145.704 227.984C145.796 227.457 145.981 226.977 146.248 226.571C146.488 226.211 146.839 225.962 147.319 225.814C148.158 225.546 149.478 225.436 151.065 225.648L151.812 225.75L152.052 220.746L151.415 220.663C149.607 220.423 147.983 220.755 146.719 221.549C146.239 221.854 145.815 222.214 145.445 222.629L145.215 221.189H140.066V246.309H145.713V235.424H145.695Z" fill="black"/>
<path d="M168.909 231.445L178.561 221.189H171.807L165.966 227.568C165.68 227.873 165.099 228.51 164.231 229.461C163.955 229.765 163.706 230.042 163.475 230.301C163.475 229.571 163.484 229.036 163.484 228.685V212.364L157.819 212.825V246.308H163.484V235.729L164.702 234.363L172.674 246.299H179.05L168.919 231.436L168.909 231.445Z" fill="black"/>
<path d="M36.0144 286.623H41.3937C41.3937 290.473 41.3937 293.141 41.4121 294.636C40.96 294.849 39.373 295.273 33.9107 295.273C31.687 295.273 30.1184 295.163 29.2603 294.95C28.5037 294.766 28.0423 294.433 27.8578 293.953C27.7748 293.732 27.6271 293.076 27.5349 291.138C27.4057 288.22 27.3411 285.174 27.3411 282.081C27.3411 278.989 27.4057 275.961 27.5349 273.053C27.6087 272.231 27.8024 271.613 28.0977 271.234C28.3837 270.874 28.965 270.579 29.7955 270.385C30.7366 270.163 32.1668 270.043 34.0491 270.043C36.8356 270.043 38.7271 270.172 39.6959 270.422C40.6094 270.662 40.7478 271.133 40.757 271.576L41.0431 276.625L46.2193 275.638L46.2562 275.102C46.2839 274.622 46.3024 274.244 46.3024 273.976C46.3024 272.813 46.1824 271.76 45.9333 270.856C45.6934 269.96 45.3981 269.194 45.0752 268.594C44.7154 267.938 44.171 267.375 43.4513 266.932C42.8054 266.535 42.2149 266.221 41.7074 266.018C41.163 265.797 40.4341 265.64 39.4745 265.538C38.5702 265.446 37.8505 265.39 37.3154 265.372C36.7894 265.354 36.0236 265.354 34.9994 265.354H34.6765C33.4954 265.354 32.4251 265.39 31.4932 265.455C30.5336 265.52 29.6386 265.658 28.8266 265.852C28.0239 266.046 27.3042 266.267 26.6952 266.507C26.0401 266.766 25.4311 267.144 24.896 267.634C24.3885 268.095 23.9548 268.575 23.6134 269.046C23.2536 269.545 22.9491 270.182 22.6815 270.966C22.4324 271.705 22.2386 272.443 22.1002 273.173C21.9618 273.893 21.8419 274.807 21.768 275.887C21.685 276.949 21.6389 278.001 21.6112 279.016C21.5927 280.032 21.5743 281.251 21.5743 282.691C21.5743 284.371 21.5927 285.746 21.6204 286.817C21.6481 287.888 21.7035 289.024 21.7865 290.196C21.8695 291.396 21.9987 292.375 22.174 293.104C22.3493 293.815 22.5616 294.563 22.8291 295.32C23.1244 296.169 23.5304 296.834 24.0286 297.295C24.4715 297.701 24.979 298.117 25.5511 298.514C26.1785 298.948 26.9259 299.262 27.784 299.437C28.5683 299.603 29.4541 299.732 30.4044 299.834C31.3548 299.935 32.4713 299.991 33.7077 299.991C40.1849 299.991 44.4109 299.012 46.6069 297L46.8283 296.797V281.971H35.5254L36.0513 286.623H36.0144Z" fill="black"/>
<path d="M74.223 280.355C74.0846 279.404 73.9185 278.647 73.7063 278.038C73.4941 277.419 73.1711 276.828 72.7651 276.275C72.3407 275.702 71.8517 275.25 71.3073 274.945C70.7998 274.659 70.1539 274.41 69.3881 274.197C68.6315 273.994 67.8103 273.856 66.9245 273.782C66.0664 273.717 65.033 273.68 63.8519 273.68C62.6709 273.68 61.6375 273.717 60.7794 273.782C59.8936 273.847 59.0632 273.985 58.3158 274.197C57.55 274.41 56.9041 274.659 56.3966 274.945C55.8522 275.25 55.3632 275.702 54.9388 276.275C54.5328 276.828 54.2191 277.419 53.9976 278.038C53.7854 278.638 53.6193 279.395 53.4809 280.355C53.3517 281.278 53.2595 282.229 53.2225 283.189C53.1856 284.131 53.1672 285.322 53.1672 286.725C53.1672 288.599 53.1949 290.094 53.241 291.147C53.2964 292.236 53.444 293.344 53.6747 294.452C53.933 295.643 54.2836 296.51 54.7634 297.101C55.2156 297.664 55.8799 298.191 56.7195 298.671C57.5684 299.151 58.5834 299.474 59.7367 299.612C60.8255 299.742 62.2003 299.815 63.8243 299.815C65.4482 299.815 66.8415 299.751 67.9302 299.612C69.0836 299.474 70.0986 299.16 70.9382 298.689C71.7871 298.218 72.4422 297.683 72.9128 297.12C73.4018 296.52 73.7616 295.652 74.0108 294.461C74.2507 293.353 74.3983 292.245 74.4444 291.156C74.4998 290.094 74.5182 288.608 74.5182 286.734C74.5182 285.331 74.4998 284.14 74.4629 283.198C74.426 282.238 74.3429 281.287 74.2045 280.364L74.223 280.355ZM62.8647 278.084H64.83C65.0514 278.084 65.3559 278.084 65.7527 278.102C66.214 278.121 66.4724 278.149 66.6016 278.176C66.8322 278.222 67.109 278.269 67.432 278.333C67.7549 278.389 67.9118 278.462 67.9764 278.49C68.1332 278.573 68.2809 278.675 68.4377 278.795C68.5208 278.85 68.5669 278.924 68.6038 279.007C68.6499 279.127 68.6776 279.266 68.6776 279.423C68.6776 280.235 68.7145 281.5 68.7883 283.161C68.8622 284.814 68.8991 286.088 68.8991 286.974C68.8991 289.651 68.816 292.052 68.6592 294.138C68.6592 294.47 68.5761 294.812 67.9395 295.015C67.2105 295.255 65.845 295.393 63.8704 295.44C61.9697 295.44 60.6133 295.31 59.8475 295.052C59.1554 294.821 59.054 294.479 59.054 294.082C58.8971 292.051 58.8141 289.651 58.8141 286.974C58.8141 286.097 58.851 284.814 58.9248 283.161C58.9986 281.49 59.0355 280.235 59.0355 279.423C59.0355 279.266 59.0632 279.127 59.1093 279.007C59.1462 278.924 59.1924 278.859 59.2754 278.795C59.4323 278.675 59.5799 278.573 59.7367 278.49C59.8013 278.453 59.949 278.389 60.2811 278.333C60.6133 278.278 60.8901 278.222 61.1116 278.176C61.2407 278.149 61.4899 278.121 61.9604 278.102C62.3572 278.084 62.6709 278.084 62.8831 278.084H62.8647Z" fill="black"/>
<path d="M101.784 280.355C101.645 279.404 101.479 278.647 101.267 278.038C101.055 277.419 100.732 276.828 100.326 276.275C99.9015 275.702 99.4124 275.25 98.868 274.945C98.3606 274.659 97.7147 274.41 96.9489 274.197C96.1922 273.994 95.3711 273.856 94.4853 273.782C93.6272 273.717 92.5938 273.68 91.4127 273.68C90.2317 273.68 89.1982 273.717 88.3401 273.782C87.4544 273.847 86.6239 273.985 85.8766 274.197C85.1107 274.41 84.4648 274.659 83.9574 274.945C83.413 275.25 82.924 275.702 82.4995 276.275C82.0935 276.828 81.7798 277.419 81.5584 278.038C81.3462 278.638 81.1801 279.395 81.0417 280.355C80.9125 281.278 80.8202 282.229 80.7833 283.189C80.7464 284.131 80.728 285.322 80.728 286.725C80.728 288.599 80.7556 290.094 80.8018 291.147C80.8571 292.236 81.0048 293.344 81.2354 294.452C81.4938 295.643 81.8444 296.51 82.3242 297.101C82.7763 297.664 83.4407 298.191 84.2803 298.671C85.1292 299.151 86.1441 299.474 87.2975 299.612C88.3863 299.742 89.7611 299.815 91.385 299.815C93.009 299.815 94.4022 299.751 95.491 299.612C96.6444 299.474 97.6593 299.16 98.499 298.689C99.3478 298.218 100.003 297.683 100.474 297.12C100.963 296.52 101.322 295.652 101.572 294.461C101.811 293.353 101.959 292.245 102.005 291.156C102.061 290.094 102.079 288.608 102.079 286.734C102.079 285.331 102.061 284.14 102.024 283.198C101.987 282.238 101.904 281.287 101.765 280.364L101.784 280.355ZM90.4254 278.084H92.3908C92.6122 278.084 92.9167 278.084 93.3135 278.102C93.7748 278.121 94.0332 278.149 94.1623 278.176C94.393 278.222 94.6698 278.269 94.9928 278.333C95.3157 278.389 95.4725 278.462 95.5371 278.49C95.694 278.573 95.8416 278.675 95.9985 278.795C96.0815 278.85 96.1277 278.924 96.1646 279.007C96.2107 279.127 96.2384 279.266 96.2384 279.423C96.2384 280.235 96.2753 281.5 96.3491 283.161C96.4229 284.814 96.4598 286.088 96.4598 286.974C96.4598 289.651 96.3768 292.052 96.2199 294.138C96.2199 294.47 96.1369 294.812 95.5002 295.015C94.7713 295.255 93.4057 295.393 91.4312 295.44C89.5304 295.44 88.1741 295.31 87.4082 295.052C86.7162 294.821 86.6147 294.479 86.6147 294.082C86.4579 292.051 86.3748 289.651 86.3748 286.974C86.3748 286.097 86.4117 284.814 86.4855 283.161C86.5594 281.49 86.5963 280.235 86.5963 279.423C86.5963 279.266 86.6239 279.127 86.6701 279.007C86.707 278.924 86.7531 278.859 86.8362 278.795C86.993 278.675 87.1407 278.573 87.2975 278.49C87.3621 278.453 87.5097 278.389 87.8419 278.333C88.1741 278.278 88.4509 278.222 88.6723 278.176C88.8015 278.149 89.0506 278.121 89.5212 278.102C89.918 278.084 90.2317 278.084 90.4439 278.084H90.4254Z" fill="black"/>
<path d="M123.513 275.314C123.153 274.991 122.747 274.724 122.286 274.502C121.151 273.957 119.629 273.69 117.654 273.69C116.667 273.69 115.763 273.745 114.969 273.847C114.148 273.957 113.4 274.151 112.755 274.428C112.118 274.705 111.555 275.019 111.084 275.379C110.586 275.758 110.162 276.265 109.811 276.875C109.488 277.447 109.221 278.047 109.027 278.666C108.833 279.275 108.676 280.023 108.566 280.9C108.455 281.749 108.381 282.626 108.344 283.494C108.307 284.352 108.289 285.377 108.289 286.549C108.289 287.722 108.289 288.71 108.307 289.411C108.326 290.122 108.363 290.962 108.436 291.904C108.51 292.901 108.63 293.658 108.796 294.239C108.953 294.784 109.175 295.403 109.451 296.067C109.756 296.806 110.162 297.397 110.651 297.803C111.084 298.172 111.61 298.523 112.219 298.865C112.856 299.215 113.613 299.474 114.48 299.612C115.301 299.751 116.233 299.815 117.266 299.815C120.247 299.815 122.406 299.123 123.735 297.748L123.974 299.492H129.16V264.827L123.513 265.289V275.324V275.314ZM118.651 295.449C116.242 295.449 115.237 295.218 114.821 295.024C114.526 294.886 114.129 294.599 114.065 293.722C113.982 289.365 113.936 285.922 113.936 283.503C113.936 281.887 114.046 280.604 114.268 279.672C114.526 278.583 114.987 278.435 115.135 278.389C115.873 278.167 117.054 278.047 118.651 278.047C121.151 278.047 122.231 278.379 122.683 278.647C123.246 278.989 123.513 279.635 123.513 280.641V293.224C123.421 294.35 122.923 294.72 122.563 294.904C122.083 295.144 121.013 295.44 118.651 295.44V295.449Z" fill="black"/>
<path d="M154.663 287.897C154.479 287.288 154.174 286.762 153.759 286.337C153.39 285.959 153.012 285.636 152.633 285.386C152.227 285.119 151.674 284.897 150.945 284.712C150.28 284.546 149.644 284.408 149.044 284.297C148.453 284.195 147.641 284.085 146.636 283.965C146.516 283.955 146.331 283.928 146.064 283.881C142.917 283.475 141.967 283.208 141.681 283.078C141.386 282.949 141.238 282.552 141.238 281.906V279.7C141.238 279.109 141.432 278.739 141.865 278.499C142.244 278.287 143.139 278.038 145.279 278.038C146.137 278.038 146.793 278.038 147.245 278.056C147.669 278.066 148.094 278.121 148.509 278.195C149.026 278.296 149.201 278.379 149.238 278.407C149.293 278.444 149.404 278.536 149.551 278.767C149.671 278.961 149.754 279.173 149.791 279.404C149.837 279.718 149.893 280.152 149.948 280.697L150.031 281.537L154.22 280.253V279.746C154.22 278.989 154.146 278.296 153.99 277.696C153.842 277.087 153.639 276.561 153.39 276.127C153.122 275.647 152.735 275.25 152.246 274.927C151.812 274.641 151.36 274.41 150.926 274.253C150.483 274.087 149.939 273.967 149.247 273.884C148.601 273.8 148.001 273.745 147.457 273.727C146.922 273.708 146.239 273.69 145.409 273.69C144.08 273.69 142.927 273.745 141.995 273.856C141.035 273.967 140.158 274.17 139.383 274.456C138.553 274.761 137.879 275.204 137.381 275.767C136.901 276.312 136.532 277.004 136.283 277.826C136.052 278.61 135.933 279.561 135.933 280.66C135.933 281.675 136.006 282.571 136.136 283.318C136.283 284.112 136.541 284.805 136.901 285.377C137.252 285.94 137.658 286.411 138.092 286.771C138.544 287.15 139.143 287.454 139.909 287.694C140.62 287.916 141.33 288.091 142.022 288.202C142.696 288.313 143.572 288.423 144.624 288.544C144.975 288.59 145.445 288.636 146.027 288.7L147.42 288.839C147.743 288.876 148.112 288.94 148.518 289.042C148.979 289.153 149.219 289.273 149.348 289.347C149.496 289.439 149.625 289.587 149.745 289.781C149.856 289.965 149.911 290.214 149.911 290.501C149.911 294.147 149.404 294.747 149.302 294.83L149.164 294.978C149.118 295.043 148.97 295.2 148.435 295.301C147.9 295.403 147.042 295.449 145.888 295.449C143.48 295.449 142.511 295.347 142.105 295.264C141.229 295.098 141.044 294.673 140.998 294.563C140.915 294.359 140.749 293.704 140.592 291.645L140.528 290.824L135.859 292.033V292.569C135.859 293.381 135.914 294.119 136.016 294.766C136.126 295.449 136.329 296.058 136.615 296.575C136.883 297.064 137.169 297.489 137.473 297.849C137.815 298.255 138.285 298.588 138.867 298.837C139.374 299.058 139.854 299.234 140.297 299.363C140.767 299.502 141.358 299.594 142.124 299.658C142.843 299.714 143.48 299.751 144.034 299.769C144.578 299.788 145.307 299.788 146.202 299.788C147.771 299.788 149.09 299.677 150.133 299.474C151.231 299.252 152.181 298.846 152.956 298.264C153.768 297.664 154.359 296.843 154.7 295.818C155.023 294.867 155.189 293.639 155.189 292.19C155.189 291.258 155.143 290.427 155.041 289.734C154.94 289.042 154.811 288.414 154.654 287.879L154.663 287.897Z" fill="black"/>
</g>
<defs>
<clipPath id="clip0_234_3651">
<rect width="178.67" height="87.6365" fill="white" transform="translate(0.37085 212.364)"/>
</clipPath>
</defs>
</svg>
