<svg width="476" height="150" viewBox="0 0 476 150" fill="none" xmlns="http://www.w3.org/2000/svg">
<path d="M59.0899 122.101C58.5352 122.101 57.9892 122.142 57.4561 122.213V96.6122H29.1059V58.2177H3.51596L2.65268 135.21H46.9327C47.401 141.516 52.6627 146.489 59.0877 146.489C65.5127 146.489 71.2816 141.028 71.2816 134.295C71.2816 127.561 65.8214 122.101 59.0877 122.101H59.0899Z" fill="white" fill-opacity="0.25"/>
<path d="M79.4524 7.66167V0.107925H3.77687C1.68988 0.107925 0 1.7978 0 3.8848V134.618C0 136.705 1.68988 138.395 3.77687 138.395H42.2837C44.1484 145.021 50.241 149.894 57.4537 149.894C64.6665 149.894 70.7613 145.021 72.6238 138.395H79.4524V130.842H72.8677C71.6289 125.027 67.1743 120.392 61.4637 118.889V96.0383C61.4637 93.9513 59.7738 92.2614 57.6868 92.2614H31.4969V56.4804C31.4969 54.3977 29.8092 52.7079 27.7265 52.7035L7.55374 52.6712V7.66167H79.4524ZM65.6614 134.131C65.6614 138.656 61.9795 142.338 57.4537 142.338C52.928 142.338 49.2461 138.656 49.2461 134.131C49.2461 129.605 52.928 125.923 57.4537 125.923C61.9795 125.923 65.6614 129.605 65.6614 134.131ZM23.9432 60.2508V96.0383C23.9432 98.1252 25.6331 99.8151 27.7201 99.8151H53.91V118.777C47.977 120.148 43.3153 124.872 42.042 130.842H7.55374V60.2227L23.9432 60.2486V60.2508Z" fill="white"/>
<path d="M154.806 25.8446H130.065V66.7427H102.588V119.943H102.578C94.7109 119.943 88.3333 126.32 88.3333 134.187C88.3333 142.054 94.7109 148.431 102.578 148.431C110.008 148.431 116.105 142.742 116.761 135.482H154.806V25.8446Z" fill="white" fill-opacity="0.25"/>
<path d="M155.13 0H79.4525V7.55374H151.351V22.4044H130.317C128.23 22.4044 126.54 24.0943 126.54 26.1813V61.9622H101.928C99.8412 61.9622 98.1513 63.6521 98.1513 65.7391V119.116C92.7147 120.713 88.4933 125.165 87.2221 130.731H79.4504V138.285H87.3516C89.1429 145.021 95.2917 150 102.584 150C109.877 150 116.026 145.021 117.817 138.285H155.126C157.213 138.285 158.903 136.595 158.903 134.508V3.77687C158.903 1.68988 157.213 0 155.126 0H155.13ZM110.796 134.239C110.796 138.764 107.114 142.446 102.589 142.446C98.0628 142.446 94.3809 138.764 94.3809 134.239C94.3809 129.713 98.0628 126.031 102.589 126.031C107.114 126.031 110.796 129.713 110.796 134.239ZM117.953 130.731C116.582 124.723 111.772 120.009 105.709 118.788V69.516H130.322C132.409 69.516 134.098 67.8261 134.098 65.7391V29.9581H151.356V130.731H117.953Z" fill="white"/>
<path d="M245.645 3.79765H237.805V39.782L216.22 3.79765H207.951V54.1979H215.791V18.7254L237.183 54.1979H245.645V3.79765Z" fill="white"/>
<path d="M279.302 42.1755C279.232 42.632 279.177 43.2131 279.136 43.9325C279.094 44.5827 279.053 45.0669 279.011 45.3851C278.97 45.6618 278.887 46.0215 278.762 46.4366C278.707 46.6164 278.61 46.8655 278.444 46.9761C278.195 47.156 277.808 47.3635 277.324 47.5849C276.882 47.7924 276.259 47.9307 275.485 48.0138C274.642 48.1106 273.605 48.1521 272.429 48.1521C268.53 48.1521 266.884 47.8201 266.193 47.5295C265.681 47.322 265.073 46.907 264.976 45.5788C264.838 42.2723 264.755 39.1733 264.727 36.351H281.417C282.053 36.3095 283.671 36.1573 286.285 35.8944L287.225 35.7976V34.8568C287.225 32.7954 287.197 31.0661 287.156 29.6826C287.114 28.2853 287.004 26.8741 286.824 25.5183C286.644 24.0933 286.409 22.9865 286.119 22.1011C285.814 21.2019 285.386 20.3303 284.833 19.5002C284.238 18.6147 283.533 17.9368 282.745 17.4665C282.012 17.0376 281.099 16.6502 280.007 16.332C278.928 16.0138 277.725 15.7924 276.453 15.6956C275.222 15.5988 273.743 15.5434 272.056 15.5434C269.622 15.5434 267.59 15.6403 265.999 15.8201C264.312 16.0138 262.819 16.4842 261.561 17.1898C260.302 17.9092 259.321 18.6978 258.657 19.5693C257.965 20.4548 257.454 21.7968 257.067 23.6368C256.707 25.3523 256.486 27.0955 256.417 28.811C256.334 30.485 256.306 32.8508 256.306 35.8253C256.306 37.9558 256.334 39.6437 256.389 40.8473C256.444 42.0648 256.569 43.4483 256.762 44.9424C256.97 46.5611 257.316 47.7647 257.813 48.6502C258.27 49.4664 258.892 50.3242 259.68 51.2096C260.537 52.178 261.63 52.8836 262.943 53.3125C264.119 53.6999 265.557 54.0181 267.202 54.2809C268.848 54.53 270.798 54.6683 272.996 54.6683C274.697 54.6683 276.163 54.613 277.324 54.5161C278.541 54.4193 279.675 54.1979 280.698 53.8659C281.777 53.52 282.648 53.0773 283.312 52.5239C283.975 51.9705 284.556 51.2234 285.026 50.2965C285.483 49.3972 285.814 48.3735 286.008 47.2252C286.188 46.1322 286.298 44.7902 286.34 43.2407L286.367 42.3553L279.481 41.0963L279.329 42.1616L279.302 42.1755ZM264.741 30.8862C264.741 30.6787 264.741 30.4435 264.741 30.1807C264.741 29.3367 264.769 28.7003 264.783 28.2853C264.81 27.8702 264.838 27.2753 264.893 26.5283C264.948 25.8227 265.018 25.2693 265.101 24.8819C265.184 24.4807 265.308 24.0518 265.474 23.5953C265.598 23.2494 265.737 22.9866 265.889 22.8344C266.041 22.6822 266.207 22.5853 266.511 22.4885C266.898 22.3225 268.129 22.0458 271.973 22.0458C275.25 22.0458 276.688 22.364 277.324 22.6268C277.781 22.8205 278.32 23.1941 278.389 24.3977C278.541 26.3622 278.638 28.5343 278.693 30.8724H264.727L264.741 30.8862Z" fill="white"/>
<path d="M298.495 45.4404C298.495 46.9346 298.605 48.1936 298.813 49.1758C299.034 50.2273 299.449 51.1957 300.043 52.0673C300.693 53.0081 301.647 53.6998 302.892 54.1149C304.026 54.4884 305.45 54.6821 307.123 54.6821C308.644 54.6821 310.359 54.5299 312.226 54.2117L313.069 54.0734L313.263 47.5295L312.115 47.6125C310.414 47.737 309.073 47.8062 308.105 47.8062C307.331 47.8062 307.261 47.571 307.22 47.488C307.109 47.156 306.93 46.1737 306.93 43.2684V22.2533H313.47V16.5533H306.93V5.81749L298.509 6.50923V16.5395H293.683V22.2394H298.509V45.4404H298.495Z" fill="white"/>
<path d="M354.123 41.2485L347.693 16.5534H340.365L333.478 41.3731L327.823 16.5534H319.526L329.399 54.1979H337.544L344.126 29.9732L351.067 54.1979H358.548L368.366 16.5534H359.806L354.123 41.2485Z" fill="white"/>
<path d="M406.557 25.5321C406.35 24.1071 406.101 22.9727 405.783 22.0596C405.465 21.1326 404.981 20.2472 404.372 19.4171C403.736 18.5594 403.004 17.8815 402.188 17.4249C401.427 16.996 400.459 16.6225 399.312 16.3043C398.178 15.9999 396.947 15.7924 395.62 15.6817C394.334 15.5849 392.785 15.5295 391.015 15.5295C389.245 15.5295 387.696 15.5849 386.41 15.6817C385.083 15.7786 383.838 15.9861 382.718 16.3043C381.571 16.6225 380.603 16.996 379.842 17.4249C379.026 17.8815 378.294 18.5594 377.657 19.4171C377.049 20.2472 376.579 21.1326 376.247 22.0596C375.929 22.9588 375.68 24.0933 375.473 25.5321C375.279 26.9156 375.141 28.3406 375.086 29.7794C375.03 31.1906 375.003 32.9753 375.003 35.0782C375.003 37.8866 375.044 40.1279 375.113 41.705C375.196 43.3376 375.417 44.9977 375.763 46.6579C376.15 48.4426 376.676 49.7431 377.395 50.6285C378.072 51.4724 379.068 52.261 380.326 52.9804C381.598 53.6998 383.119 54.1841 384.848 54.3916C386.48 54.5853 388.54 54.6959 390.973 54.6959C393.407 54.6959 395.495 54.5991 397.127 54.3916C398.855 54.1841 400.376 53.7137 401.635 53.0081C402.907 52.3025 403.889 51.5001 404.594 50.6562C405.327 49.7569 405.866 48.4564 406.239 46.6717C406.599 45.0116 406.82 43.3514 406.889 41.7189C406.972 40.1279 407 37.9005 407 35.092C407 32.9891 406.972 31.2044 406.917 29.7933C406.861 28.3544 406.737 26.9294 406.53 25.546L406.557 25.5321ZM389.535 22.1288H392.481C392.813 22.1288 393.269 22.1288 393.863 22.1564C394.555 22.1841 394.942 22.2256 395.136 22.2671C395.481 22.3363 395.896 22.4055 396.38 22.5023C396.864 22.5853 397.099 22.696 397.196 22.7375C397.431 22.862 397.652 23.0142 397.887 23.194C398.012 23.277 398.081 23.3877 398.136 23.5122C398.205 23.6921 398.247 23.8996 398.247 24.1348C398.247 25.3523 398.302 27.2476 398.413 29.7379C398.523 32.2143 398.579 34.1236 398.579 35.4517C398.579 39.4638 398.454 43.0609 398.219 46.1875C398.219 46.6856 398.095 47.1975 397.141 47.5018C396.048 47.8615 394.002 48.0691 391.043 48.1382C388.194 48.1382 386.161 47.9445 385.014 47.5572C383.977 47.2113 383.825 46.6994 383.825 46.1045C383.59 43.0609 383.465 39.4638 383.465 35.4517C383.465 34.1374 383.52 32.2143 383.631 29.7379C383.742 27.2338 383.797 25.3523 383.797 24.1348C383.797 23.8996 383.838 23.6921 383.908 23.5122C383.963 23.3877 384.032 23.2909 384.156 23.194C384.392 23.0142 384.613 22.862 384.848 22.7375C384.945 22.6821 385.166 22.5853 385.664 22.5023C386.161 22.4193 386.576 22.3363 386.908 22.2671C387.102 22.2256 387.475 22.1841 388.18 22.1564C388.775 22.1288 389.245 22.1288 389.563 22.1288H389.535Z" fill="white"/>
<path d="M425.736 37.8866C425.736 37.1395 425.695 35.9082 425.626 34.1789C425.557 32.491 425.515 31.2044 425.515 30.3328C425.515 28.8248 425.598 27.6073 425.75 26.7357C425.889 25.9471 426.165 25.2277 426.566 24.619C426.926 24.0794 427.451 23.7059 428.17 23.4845C429.428 23.0833 431.406 22.9173 433.784 23.2355L434.904 23.3877L435.264 15.8892L434.31 15.7647C431.599 15.405 429.166 15.9031 427.271 17.0928C426.552 17.5494 425.916 18.089 425.363 18.7115L425.017 16.5533H417.302V54.1979H425.764V37.8866H425.736Z" fill="white"/>
<path d="M460.527 31.9238L474.99 16.5533H464.869L456.116 26.1132C455.687 26.5698 454.816 27.5244 453.516 28.9493C453.101 29.4059 452.728 29.8209 452.382 30.2083C452.382 29.1154 452.396 28.3129 452.396 27.7872V3.32724L443.906 4.01898V54.1979H452.396V38.3432L454.221 36.2956L466.168 54.1841H475.723L460.541 31.91L460.527 31.9238Z" fill="white"/>
<path d="M229.591 114.615H237.653C237.653 120.384 237.653 124.382 237.68 126.623C237.003 126.941 234.624 127.578 226.438 127.578C223.106 127.578 220.755 127.412 219.469 127.094C218.335 126.817 217.644 126.319 217.367 125.599C217.243 125.267 217.022 124.285 216.883 121.38C216.69 117.008 216.593 112.442 216.593 107.808C216.593 103.173 216.69 98.6353 216.883 94.2773C216.994 93.046 217.284 92.1191 217.727 91.5519C218.156 91.0123 219.027 90.5696 220.271 90.2791C221.682 89.947 223.825 89.7672 226.646 89.7672C230.822 89.7672 233.656 89.9609 235.108 90.3344C236.477 90.6941 236.685 91.3997 236.699 92.0637L237.127 99.6314L244.884 98.1511L244.94 97.3487C244.981 96.6292 245.009 96.062 245.009 95.6608C245.009 93.9176 244.829 92.3404 244.456 90.9846C244.096 89.6427 243.654 88.4944 243.17 87.5951C242.631 86.6128 241.815 85.7689 240.736 85.1048C239.768 84.5099 238.883 84.0395 238.123 83.7352C237.307 83.4031 236.215 83.168 234.776 83.0158C233.421 82.8774 232.343 82.7944 231.541 82.7667C230.753 82.7391 229.605 82.7391 228.07 82.7391H227.586C225.816 82.7391 224.212 82.7944 222.816 82.8913C221.377 82.9881 220.036 83.1956 218.819 83.4862C217.616 83.7767 216.538 84.1087 215.625 84.4684C214.643 84.8558 213.731 85.423 212.929 86.1563C212.168 86.848 211.518 87.5674 211.007 88.273C210.467 89.0201 210.011 89.9747 209.61 91.1506C209.237 92.2574 208.946 93.3642 208.739 94.4572C208.532 95.5363 208.352 96.9059 208.241 98.5246C208.117 100.116 208.048 101.693 208.006 103.215C207.978 104.736 207.951 106.563 207.951 108.721C207.951 111.239 207.978 113.3 208.02 114.905C208.061 116.51 208.144 118.212 208.269 119.969C208.393 121.767 208.587 123.234 208.85 124.327C209.112 125.392 209.43 126.512 209.831 127.647C210.274 128.92 210.882 129.916 211.629 130.608C212.293 131.216 213.053 131.839 213.911 132.434C214.851 133.084 215.971 133.554 217.257 133.817C218.432 134.066 219.76 134.26 221.184 134.412C222.608 134.564 224.281 134.647 226.134 134.647C235.841 134.647 242.174 133.181 245.465 130.165L245.797 129.861V107.642H228.858L229.646 114.615H229.591Z" fill="white"/>
<path d="M286.852 105.221C286.644 103.796 286.395 102.661 286.077 101.748C285.759 100.821 285.275 99.9358 284.667 99.1057C284.031 98.2479 283.298 97.57 282.482 97.1135C281.721 96.6846 280.754 96.311 279.606 95.9928C278.472 95.6885 277.241 95.4809 275.914 95.3703C274.628 95.2734 273.079 95.2181 271.309 95.2181C269.539 95.2181 267.991 95.2734 266.705 95.3703C265.377 95.4671 264.133 95.6746 263.013 95.9928C261.865 96.311 260.897 96.6846 260.136 97.1135C259.321 97.57 258.588 98.2479 257.952 99.1057C257.343 99.9358 256.873 100.821 256.541 101.748C256.223 102.647 255.974 103.782 255.767 105.221C255.573 106.604 255.435 108.029 255.38 109.468C255.324 110.879 255.297 112.664 255.297 114.767C255.297 117.575 255.338 119.816 255.407 121.394C255.49 123.026 255.712 124.686 256.057 126.346C256.445 128.131 256.97 129.432 257.689 130.317C258.367 131.161 259.362 131.95 260.62 132.669C261.893 133.388 263.414 133.873 265.142 134.08C266.774 134.274 268.834 134.384 271.268 134.384C273.701 134.384 275.789 134.288 277.421 134.08C279.15 133.873 280.671 133.402 281.929 132.697C283.201 131.991 284.183 131.189 284.888 130.345C285.621 129.445 286.16 128.145 286.533 126.36C286.893 124.7 287.114 123.04 287.183 121.407C287.266 119.816 287.294 117.589 287.294 114.781C287.294 112.678 287.266 110.893 287.211 109.482C287.156 108.043 287.031 106.618 286.824 105.235L286.852 105.221ZM269.83 101.817H272.775C273.107 101.817 273.563 101.817 274.158 101.845C274.849 101.873 275.236 101.914 275.43 101.956C275.776 102.025 276.19 102.094 276.674 102.191C277.158 102.274 277.393 102.385 277.49 102.426C277.725 102.551 277.946 102.703 278.182 102.883C278.306 102.966 278.375 103.076 278.43 103.201C278.5 103.381 278.541 103.588 278.541 103.823C278.541 105.041 278.596 106.936 278.707 109.426C278.818 111.903 278.873 113.812 278.873 115.14C278.873 119.152 278.749 122.749 278.513 125.876C278.513 126.374 278.389 126.886 277.435 127.19C276.342 127.55 274.296 127.758 271.337 127.827C268.488 127.827 266.456 127.633 265.308 127.246C264.271 126.9 264.119 126.388 264.119 125.793C263.884 122.749 263.759 119.152 263.759 115.14C263.759 113.826 263.815 111.903 263.925 109.426C264.036 106.922 264.091 105.041 264.091 103.823C264.091 103.588 264.133 103.381 264.202 103.201C264.257 103.076 264.326 102.979 264.451 102.883C264.686 102.703 264.907 102.551 265.142 102.426C265.239 102.371 265.46 102.274 265.958 102.191C266.456 102.108 266.871 102.025 267.202 101.956C267.396 101.914 267.769 101.873 268.475 101.845C269.069 101.817 269.539 101.817 269.857 101.817H269.83Z" fill="white"/>
<path d="M328.155 105.221C327.947 103.796 327.699 102.661 327.38 101.748C327.062 100.821 326.578 99.9358 325.97 99.1057C325.334 98.2479 324.601 97.57 323.785 97.1135C323.025 96.6846 322.057 96.311 320.909 95.9928C319.775 95.6885 318.545 95.4809 317.217 95.3703C315.931 95.2734 314.382 95.2181 312.613 95.2181C310.843 95.2181 309.294 95.2734 308.008 95.3703C306.68 95.4671 305.436 95.6746 304.316 95.9928C303.168 96.311 302.2 96.6846 301.44 97.1135C300.624 97.57 299.891 98.2479 299.255 99.1057C298.647 99.9358 298.176 100.821 297.845 101.748C297.527 102.647 297.278 103.782 297.07 105.221C296.877 106.604 296.738 108.029 296.683 109.468C296.628 110.879 296.6 112.664 296.6 114.767C296.6 117.575 296.642 119.816 296.711 121.394C296.794 123.026 297.015 124.686 297.361 126.346C297.748 128.131 298.273 129.432 298.992 130.317C299.67 131.161 300.665 131.95 301.924 132.669C303.196 133.388 304.717 133.873 306.445 134.08C308.077 134.274 310.137 134.384 312.571 134.384C315.005 134.384 317.093 134.288 318.724 134.08C320.453 133.873 321.974 133.402 323.232 132.697C324.504 131.991 325.486 131.189 326.191 130.345C326.924 129.445 327.463 128.145 327.837 126.36C328.196 124.7 328.418 123.04 328.487 121.407C328.57 119.816 328.597 117.589 328.597 114.781C328.597 112.678 328.57 110.893 328.514 109.482C328.459 108.043 328.335 106.618 328.127 105.235L328.155 105.221ZM311.133 101.817H314.078C314.41 101.817 314.866 101.817 315.461 101.845C316.152 101.873 316.54 101.914 316.733 101.956C317.079 102.025 317.494 102.094 317.978 102.191C318.462 102.274 318.697 102.385 318.794 102.426C319.029 102.551 319.25 102.703 319.485 102.883C319.609 102.966 319.678 103.076 319.734 103.201C319.803 103.381 319.844 103.588 319.844 103.823C319.844 105.041 319.9 106.936 320.01 109.426C320.121 111.903 320.176 113.812 320.176 115.14C320.176 119.152 320.052 122.749 319.817 125.876C319.817 126.374 319.692 126.886 318.738 127.19C317.646 127.55 315.599 127.758 312.64 127.827C309.792 127.827 307.759 127.633 306.611 127.246C305.574 126.9 305.422 126.388 305.422 125.793C305.187 122.749 305.063 119.152 305.063 115.14C305.063 113.826 305.118 111.903 305.229 109.426C305.339 106.922 305.395 105.041 305.395 103.823C305.395 103.588 305.436 103.381 305.505 103.201C305.56 103.076 305.63 102.979 305.754 102.883C305.989 102.703 306.21 102.551 306.445 102.426C306.542 102.371 306.763 102.274 307.261 102.191C307.759 102.108 308.174 102.025 308.506 101.956C308.699 101.914 309.073 101.873 309.778 101.845C310.372 101.817 310.843 101.817 311.161 101.817H311.133Z" fill="white"/>
<path d="M360.719 97.6669C360.179 97.1827 359.571 96.7815 358.88 96.4494C357.179 95.6332 354.897 95.232 351.938 95.232C350.458 95.232 349.103 95.315 347.914 95.4672C346.684 95.6332 345.563 95.9237 344.596 96.3388C343.641 96.7538 342.798 97.2242 342.093 97.7637C341.346 98.331 340.71 99.0919 340.185 100.005C339.701 100.863 339.3 101.762 339.009 102.689C338.719 103.602 338.484 104.723 338.318 106.037C338.152 107.31 338.041 108.624 337.986 109.925C337.931 111.211 337.903 112.747 337.903 114.504C337.903 116.261 337.903 117.741 337.931 118.793C337.958 119.858 338.014 121.117 338.124 122.528C338.235 124.022 338.415 125.157 338.663 126.028C338.899 126.845 339.23 127.771 339.645 128.768C340.102 129.874 340.71 130.76 341.443 131.369C342.093 131.922 342.881 132.448 343.794 132.96C344.748 133.485 345.882 133.873 347.181 134.08C348.412 134.288 349.809 134.385 351.357 134.385C355.824 134.385 359.059 133.347 361.05 131.286L361.41 133.9H369.181V81.9505L360.719 82.6423V97.6807V97.6669ZM353.431 127.841C349.822 127.841 348.315 127.495 347.693 127.204C347.25 126.997 346.656 126.568 346.559 125.254C346.435 118.723 346.365 113.563 346.365 109.938C346.365 107.517 346.531 105.594 346.863 104.197C347.25 102.564 347.942 102.343 348.163 102.274C349.269 101.942 351.039 101.762 353.431 101.762C357.179 101.762 358.797 102.26 359.474 102.661C360.318 103.173 360.719 104.142 360.719 105.65V124.506C360.58 126.194 359.834 126.748 359.294 127.024C358.575 127.384 356.971 127.827 353.431 127.827V127.841Z" fill="white"/>
<path d="M407.401 116.524C407.125 115.611 406.668 114.822 406.046 114.186C405.493 113.618 404.926 113.134 404.359 112.761C403.751 112.359 402.921 112.027 401.829 111.751C400.833 111.502 399.879 111.294 398.98 111.128C398.095 110.976 396.878 110.81 395.371 110.63C395.191 110.616 394.915 110.575 394.514 110.506C389.799 109.897 388.374 109.496 387.946 109.302C387.503 109.108 387.282 108.513 387.282 107.545V104.238C387.282 103.353 387.572 102.8 388.222 102.44C388.789 102.122 390.13 101.748 393.338 101.748C394.624 101.748 395.606 101.748 396.284 101.776C396.92 101.79 397.556 101.873 398.178 101.983C398.952 102.136 399.215 102.26 399.27 102.302C399.353 102.357 399.519 102.495 399.741 102.841C399.92 103.132 400.045 103.45 400.1 103.796C400.169 104.266 400.252 104.916 400.335 105.733L400.46 106.992L406.737 105.069V104.308C406.737 103.173 406.627 102.136 406.392 101.236C406.17 100.323 405.866 99.5346 405.493 98.8844C405.092 98.1649 404.511 97.57 403.778 97.0858C403.128 96.6569 402.451 96.3111 401.801 96.0759C401.137 95.8269 400.321 95.647 399.284 95.5225C398.316 95.398 397.418 95.315 396.602 95.2873C395.8 95.2596 394.777 95.232 393.532 95.232C391.541 95.232 389.812 95.315 388.416 95.481C386.978 95.647 385.664 95.9514 384.503 96.3803C383.258 96.8368 382.249 97.5009 381.502 98.3448C380.783 99.1611 380.23 100.199 379.856 101.43C379.511 102.606 379.331 104.031 379.331 105.677C379.331 107.199 379.442 108.541 379.635 109.662C379.856 110.851 380.244 111.889 380.783 112.747C381.308 113.591 381.917 114.296 382.567 114.836C383.244 115.403 384.143 115.86 385.291 116.219C386.355 116.551 387.42 116.814 388.457 116.98C389.467 117.146 390.78 117.312 392.357 117.492C392.882 117.561 393.587 117.631 394.458 117.727L396.546 117.935C397.03 117.99 397.584 118.087 398.192 118.239C398.883 118.405 399.243 118.585 399.436 118.696C399.658 118.834 399.851 119.056 400.031 119.346C400.197 119.623 400.28 119.996 400.28 120.425C400.28 125.89 399.519 126.789 399.367 126.914L399.16 127.135C399.091 127.232 398.869 127.467 398.067 127.619C397.265 127.771 395.98 127.841 394.251 127.841C390.642 127.841 389.19 127.688 388.582 127.564C387.268 127.315 386.992 126.679 386.922 126.513C386.798 126.208 386.549 125.226 386.314 122.141L386.217 120.909L379.22 122.722V123.524C379.22 124.742 379.303 125.848 379.455 126.817C379.621 127.841 379.926 128.754 380.354 129.529C380.755 130.262 381.184 130.898 381.64 131.438C382.152 132.046 382.857 132.545 383.728 132.918C384.489 133.25 385.208 133.513 385.871 133.707C386.577 133.914 387.462 134.052 388.609 134.149C389.688 134.232 390.642 134.288 391.472 134.315C392.288 134.343 393.38 134.343 394.721 134.343C397.072 134.343 399.049 134.177 400.612 133.873C402.257 133.541 403.681 132.932 404.843 132.06C406.06 131.161 406.945 129.93 407.456 128.394C407.94 126.969 408.189 125.129 408.189 122.957C408.189 121.56 408.12 120.315 407.968 119.277C407.816 118.239 407.622 117.299 407.387 116.496L407.401 116.524Z" fill="white"/>
</svg>
