<svg width="477" height="150" viewBox="0 0 477 150" fill="none" xmlns="http://www.w3.org/2000/svg">
<path d="M59.0896 122.101C58.5349 122.101 57.9889 122.142 57.4558 122.213V96.6124H29.1055V58.2178H3.51563L2.65234 135.21H46.9324C47.4007 141.516 52.6624 146.489 59.0874 146.489C65.5124 146.489 71.2813 141.028 71.2813 134.295C71.2813 127.561 65.821 122.101 59.0874 122.101H59.0896Z" fill="#156FF7" fill-opacity="0.25"/>
<path d="M79.4524 7.66165V0.10791H3.77687C1.68988 0.10791 0 1.79779 0 3.88478V134.618C0 136.705 1.68988 138.395 3.77687 138.395H42.2837C44.1484 145.021 50.241 149.894 57.4537 149.894C64.6665 149.894 70.7613 145.021 72.6238 138.395H79.4524V130.842H72.8677C71.6289 125.027 67.1743 120.392 61.4637 118.889V96.0382C61.4637 93.9513 59.7738 92.2614 57.6868 92.2614H31.4969V56.4804C31.4969 54.3977 29.8092 52.7078 27.7265 52.7035L7.55374 52.6711V7.66165H79.4524ZM65.6614 134.131C65.6614 138.656 61.9795 142.338 57.4537 142.338C52.928 142.338 49.2461 138.656 49.2461 134.131C49.2461 129.605 52.928 125.923 57.4537 125.923C61.9795 125.923 65.6614 129.605 65.6614 134.131ZM23.9432 60.2508V96.0382C23.9432 98.1252 25.6331 99.8151 27.7201 99.8151H53.91V118.777C47.977 120.148 43.3153 124.872 42.042 130.842H7.55374V60.2227L23.9432 60.2486V60.2508Z" fill="#156FF7"/>
<path d="M154.806 25.8446H130.064V66.7427H102.588V119.943H102.577C94.7108 119.943 88.3333 126.32 88.3333 134.187C88.3333 142.053 94.7108 148.431 102.577 148.431C110.008 148.431 116.105 142.742 116.761 135.482H154.806V25.8446Z" fill="#1C6D72" fill-opacity="0.25"/>
<path d="M155.13 0H79.4523V7.55374H151.351V22.4044H130.317C128.23 22.4044 126.54 24.0943 126.54 26.1813V61.9622H101.928C99.8409 61.9622 98.1511 63.6521 98.1511 65.7391V119.116C92.7145 120.713 88.4931 125.165 87.2219 130.731H79.4502V138.285H87.3514C89.1427 145.021 95.2914 150 102.584 150C109.877 150 116.025 145.021 117.817 138.285H155.126C157.213 138.285 158.903 136.595 158.903 134.508V3.77687C158.903 1.68988 157.213 0 155.126 0H155.13ZM110.796 134.239C110.796 138.764 107.114 142.446 102.588 142.446C98.0626 142.446 94.3807 138.764 94.3807 134.239C94.3807 129.713 98.0626 126.031 102.588 126.031C107.114 126.031 110.796 129.713 110.796 134.239ZM117.953 130.731C116.582 124.723 111.772 120.009 105.709 118.788V69.516H130.321C132.408 69.516 134.098 67.8261 134.098 65.7391V29.9581H151.355V130.731H117.953Z" fill="#1C6D72"/>
<path d="M245.966 3.79761H238.126V39.782L216.541 3.79761H208.272V54.1979H216.113V18.7254L237.504 54.1979H245.966V3.79761Z" fill="black"/>
<path d="M279.623 42.1754C279.554 42.6319 279.499 43.213 279.457 43.9324C279.416 44.5826 279.374 45.0669 279.333 45.3851C279.291 45.6618 279.208 46.0215 279.084 46.4365C279.028 46.6164 278.932 46.8654 278.766 46.9761C278.517 47.1559 278.13 47.3634 277.646 47.5848C277.203 47.7923 276.581 47.9307 275.807 48.0137C274.963 48.1105 273.926 48.152 272.751 48.152C268.851 48.152 267.206 47.82 266.514 47.5295C266.003 47.3219 265.394 46.9069 265.298 45.5787C265.159 42.2722 265.076 39.1732 265.049 36.3509H281.739C282.375 36.3094 283.993 36.1572 286.606 35.8944L287.546 35.7975V34.8568C287.546 32.7954 287.519 31.066 287.477 29.6825C287.436 28.2852 287.325 26.8741 287.145 25.5182C286.965 24.0933 286.73 22.9865 286.44 22.101C286.136 21.2018 285.707 20.3302 285.154 19.5001C284.559 18.6147 283.854 17.9368 283.066 17.4664C282.333 17.0375 281.421 16.6501 280.328 16.3319C279.25 16.0137 278.047 15.7924 276.775 15.6955C275.544 15.5987 274.064 15.5433 272.377 15.5433C269.944 15.5433 267.911 15.6402 266.321 15.82C264.634 16.0137 263.14 16.4841 261.882 17.1897C260.624 17.9091 259.642 18.6977 258.978 19.5693C258.287 20.4547 257.775 21.7967 257.388 23.6367C257.029 25.3522 256.807 27.0954 256.738 28.8109C256.655 30.4849 256.628 32.8507 256.628 35.8252C256.628 37.9558 256.655 39.6436 256.711 40.8472C256.766 42.0647 256.89 43.4482 257.084 44.9423C257.291 46.561 257.637 47.7646 258.135 48.6501C258.591 49.4663 259.213 50.3241 260.002 51.2095C260.859 52.178 261.951 52.8835 263.265 53.3124C264.44 53.6998 265.878 54.018 267.524 54.2809C269.169 54.5299 271.119 54.6682 273.318 54.6682C275.018 54.6682 276.484 54.6129 277.646 54.516C278.862 54.4192 279.996 54.1978 281.02 53.8658C282.098 53.5199 282.969 53.0772 283.633 52.5238C284.297 51.9704 284.878 51.2234 285.348 50.2964C285.804 49.3972 286.136 48.3734 286.329 47.2251C286.509 46.1321 286.62 44.7902 286.661 43.2407L286.689 42.3552L279.803 41.0963L279.651 42.1615L279.623 42.1754ZM265.062 30.8862C265.062 30.6786 265.062 30.4434 265.062 30.1806C265.062 29.3367 265.09 28.7003 265.104 28.2852C265.132 27.8702 265.159 27.2753 265.215 26.5282C265.27 25.8226 265.339 25.2692 265.422 24.8818C265.505 24.4806 265.629 24.0518 265.795 23.5952C265.92 23.2493 266.058 22.9865 266.21 22.8343C266.362 22.6821 266.528 22.5853 266.832 22.4884C267.22 22.3224 268.45 22.0457 272.294 22.0457C275.571 22.0457 277.01 22.3639 277.646 22.6268C278.102 22.8205 278.641 23.194 278.71 24.3976C278.862 26.3622 278.959 28.5342 279.015 30.8723H265.049L265.062 30.8862Z" fill="black"/>
<path d="M298.816 45.4405C298.816 46.9346 298.927 48.1936 299.134 49.1759C299.355 50.2273 299.77 51.1957 300.365 52.0673C301.015 53.0081 301.969 53.6998 303.213 54.1149C304.347 54.4884 305.771 54.6821 307.445 54.6821C308.966 54.6821 310.68 54.5299 312.547 54.2117L313.39 54.0734L313.584 47.5295L312.436 47.6125C310.735 47.737 309.394 47.8062 308.426 47.8062C307.652 47.8062 307.583 47.571 307.541 47.488C307.431 47.156 307.251 46.1737 307.251 43.2684V22.2533H313.791V16.5533H307.251V5.8175L298.83 6.50925V16.5395H294.004V22.2394H298.83V45.4405H298.816Z" fill="black"/>
<path d="M354.444 41.2485L348.015 16.5533H340.686L333.8 41.373L328.144 16.5533H319.848L329.721 54.1979H337.865L344.447 29.9731L351.389 54.1979H358.869L368.687 16.5533H360.128L354.444 41.2485Z" fill="black"/>
<path d="M406.879 25.5321C406.671 24.1071 406.422 22.9727 406.104 22.0596C405.786 21.1326 405.302 20.2472 404.694 19.4171C404.058 18.5594 403.325 17.8815 402.509 17.4249C401.749 16.996 400.781 16.6225 399.633 16.3043C398.499 15.9999 397.269 15.7924 395.941 15.6817C394.655 15.5849 393.106 15.5295 391.336 15.5295C389.567 15.5295 388.018 15.5849 386.732 15.6817C385.404 15.7786 384.16 15.9861 383.04 16.3043C381.892 16.6225 380.924 16.996 380.164 17.4249C379.348 17.8815 378.615 18.5594 377.979 19.4171C377.371 20.2472 376.9 21.1326 376.569 22.0596C376.25 22.9588 376.002 24.0933 375.794 25.5321C375.601 26.9156 375.462 28.3406 375.407 29.7794C375.352 31.1906 375.324 32.9753 375.324 35.0782C375.324 37.8866 375.366 40.1279 375.435 41.705C375.518 43.3376 375.739 44.9977 376.085 46.6579C376.472 48.4426 376.997 49.7431 377.716 50.6285C378.394 51.4724 379.389 52.261 380.648 52.9804C381.92 53.6998 383.441 54.1841 385.169 54.3916C386.801 54.5853 388.861 54.6959 391.295 54.6959C393.729 54.6959 395.817 54.5991 397.448 54.3916C399.177 54.1841 400.698 53.7137 401.956 53.0081C403.228 52.3025 404.21 51.5001 404.915 50.6562C405.648 49.7569 406.187 48.4564 406.561 46.6717C406.92 45.0116 407.141 43.3514 407.211 41.7189C407.294 40.1279 407.321 37.9005 407.321 35.092C407.321 32.9891 407.294 31.2044 407.238 29.7933C407.183 28.3544 407.058 26.9294 406.851 25.546L406.879 25.5321ZM389.857 22.1288H392.802C393.134 22.1288 393.59 22.1288 394.185 22.1564C394.876 22.1841 395.263 22.2256 395.457 22.2671C395.803 22.3363 396.218 22.4055 396.702 22.5023C397.186 22.5853 397.421 22.696 397.517 22.7375C397.752 22.862 397.974 23.0142 398.209 23.194C398.333 23.277 398.402 23.3877 398.458 23.5122C398.527 23.6921 398.568 23.8996 398.568 24.1348C398.568 25.3523 398.624 27.2476 398.734 29.7379C398.845 32.2143 398.9 34.1236 398.9 35.4517C398.9 39.4638 398.776 43.0609 398.541 46.1875C398.541 46.6856 398.416 47.1975 397.462 47.5018C396.37 47.8615 394.323 48.0691 391.364 48.1382C388.516 48.1382 386.483 47.9445 385.335 47.5572C384.298 47.2113 384.146 46.6994 384.146 46.1045C383.911 43.0609 383.787 39.4638 383.787 35.4517C383.787 34.1374 383.842 32.2143 383.952 29.7379C384.063 27.2338 384.118 25.3523 384.118 24.1348C384.118 23.8996 384.16 23.6921 384.229 23.5122C384.284 23.3877 384.353 23.2909 384.478 23.194C384.713 23.0142 384.934 22.862 385.169 22.7375C385.266 22.6821 385.487 22.5853 385.985 22.5023C386.483 22.4193 386.898 22.3363 387.23 22.2671C387.423 22.2256 387.797 22.1841 388.502 22.1564C389.096 22.1288 389.567 22.1288 389.885 22.1288H389.857Z" fill="black"/>
<path d="M426.058 37.8866C426.058 37.1395 426.016 35.9082 425.947 34.1789C425.878 32.491 425.837 31.2044 425.837 30.3328C425.837 28.8248 425.92 27.6074 426.072 26.7358C426.21 25.9472 426.487 25.2278 426.888 24.619C427.247 24.0795 427.772 23.7059 428.492 23.4846C429.75 23.0834 431.727 22.9173 434.106 23.2355L435.226 23.3877L435.585 15.8893L434.631 15.7647C431.921 15.405 429.487 15.9031 427.593 17.0929C426.874 17.5494 426.238 18.089 425.685 18.7116L425.339 16.5533H417.623V54.1979H426.086V37.8866H426.058Z" fill="black"/>
<path d="M460.848 31.9237L475.312 16.5532H465.19L456.437 26.1131C456.009 26.5697 455.137 27.5243 453.838 28.9493C453.423 29.4058 453.049 29.8208 452.704 30.2082C452.704 29.1153 452.718 28.3128 452.718 27.7871V3.32715L444.227 4.01889V54.1978H452.718V38.3431L454.543 36.2955L466.49 54.184H476.045L460.862 31.9099L460.848 31.9237Z" fill="black"/>
<path d="M229.913 114.614H237.974C237.974 120.384 237.974 124.382 238.002 126.623C237.324 126.941 234.946 127.578 226.76 127.578C223.427 127.578 221.077 127.412 219.791 127.093C218.657 126.817 217.965 126.319 217.689 125.599C217.564 125.267 217.343 124.285 217.205 121.38C217.011 117.008 216.915 112.442 216.915 107.808C216.915 103.173 217.011 98.6352 217.205 94.2773C217.316 93.046 217.606 92.119 218.048 91.5518C218.477 91.0122 219.348 90.5695 220.593 90.279C222.003 89.947 224.146 89.7671 226.967 89.7671C231.143 89.7671 233.978 89.9608 235.43 90.3343C236.799 90.694 237.006 91.3996 237.02 92.0637L237.449 99.6313L245.206 98.151L245.261 97.3486C245.303 96.6292 245.33 96.062 245.33 95.6607C245.33 93.9176 245.151 92.3404 244.777 90.9846C244.418 89.6426 243.975 88.4943 243.491 87.595C242.952 86.6128 242.136 85.7688 241.058 85.1048C240.09 84.5099 239.205 84.0395 238.444 83.7351C237.628 83.4031 236.536 83.1679 235.098 83.0157C233.743 82.8774 232.664 82.7943 231.862 82.7667C231.074 82.739 229.926 82.739 228.392 82.739H227.908C226.138 82.739 224.534 82.7943 223.137 82.8912C221.699 82.988 220.358 83.1956 219.141 83.4861C217.938 83.7766 216.859 84.1087 215.947 84.4684C214.965 84.8557 214.052 85.423 213.25 86.1562C212.49 86.848 211.84 87.5674 211.328 88.2729C210.789 89.02 210.333 89.9746 209.932 91.1506C209.558 92.2574 209.268 93.3642 209.06 94.4571C208.853 95.5362 208.673 96.9059 208.563 98.5246C208.438 100.116 208.369 101.693 208.328 103.215C208.3 104.736 208.272 106.563 208.272 108.721C208.272 111.239 208.3 113.3 208.341 114.905C208.383 116.51 208.466 118.212 208.59 119.969C208.715 121.767 208.908 123.234 209.171 124.327C209.434 125.392 209.752 126.512 210.153 127.647C210.595 128.92 211.204 129.916 211.95 130.608C212.614 131.216 213.375 131.839 214.232 132.434C215.172 133.084 216.292 133.554 217.578 133.817C218.754 134.066 220.081 134.26 221.505 134.412C222.93 134.564 224.603 134.647 226.456 134.647C236.163 134.647 242.496 133.181 245.787 130.165L246.119 129.86V107.642H229.18L229.968 114.614H229.913Z" fill="black"/>
<path d="M287.173 105.221C286.966 103.796 286.717 102.661 286.399 101.748C286.081 100.821 285.597 99.9357 284.988 99.1056C284.352 98.2479 283.619 97.5699 282.803 97.1134C282.043 96.6845 281.075 96.311 279.927 95.9928C278.793 95.6884 277.563 95.4809 276.235 95.3702C274.949 95.2734 273.401 95.218 271.631 95.218C269.861 95.218 268.312 95.2734 267.026 95.3702C265.699 95.467 264.454 95.6746 263.334 95.9928C262.186 96.311 261.218 96.6845 260.458 97.1134C259.642 97.5699 258.909 98.2479 258.273 99.1056C257.665 99.9357 257.195 100.821 256.863 101.748C256.545 102.647 256.296 103.782 256.088 105.221C255.895 106.604 255.757 108.029 255.701 109.468C255.646 110.879 255.618 112.664 255.618 114.767C255.618 117.575 255.66 119.816 255.729 121.394C255.812 123.026 256.033 124.686 256.379 126.346C256.766 128.131 257.291 129.432 258.01 130.317C258.688 131.161 259.684 131.949 260.942 132.669C262.214 133.388 263.735 133.873 265.464 134.08C267.095 134.274 269.156 134.384 271.589 134.384C274.023 134.384 276.111 134.288 277.743 134.08C279.471 133.873 280.992 133.402 282.25 132.697C283.522 131.991 284.504 131.189 285.209 130.345C285.942 129.445 286.482 128.145 286.855 126.36C287.214 124.7 287.436 123.04 287.505 121.407C287.588 119.816 287.615 117.589 287.615 114.78C287.615 112.678 287.588 110.893 287.532 109.482C287.477 108.043 287.353 106.618 287.145 105.234L287.173 105.221ZM270.151 101.817H273.096C273.428 101.817 273.885 101.817 274.479 101.845C275.171 101.873 275.558 101.914 275.751 101.956C276.097 102.025 276.512 102.094 276.996 102.191C277.48 102.274 277.715 102.384 277.812 102.426C278.047 102.55 278.268 102.703 278.503 102.883C278.627 102.966 278.697 103.076 278.752 103.201C278.821 103.381 278.863 103.588 278.863 103.823C278.863 105.041 278.918 106.936 279.028 109.426C279.139 111.903 279.194 113.812 279.194 115.14C279.194 119.152 279.07 122.749 278.835 125.876C278.835 126.374 278.71 126.886 277.756 127.19C276.664 127.55 274.617 127.758 271.658 127.827C268.81 127.827 266.777 127.633 265.629 127.246C264.592 126.9 264.44 126.388 264.44 125.793C264.205 122.749 264.081 119.152 264.081 115.14C264.081 113.826 264.136 111.903 264.247 109.426C264.357 106.922 264.413 105.041 264.413 103.823C264.413 103.588 264.454 103.381 264.523 103.201C264.579 103.076 264.648 102.979 264.772 102.883C265.007 102.703 265.228 102.55 265.464 102.426C265.56 102.371 265.782 102.274 266.279 102.191C266.777 102.108 267.192 102.025 267.524 101.956C267.717 101.914 268.091 101.873 268.796 101.845C269.391 101.817 269.861 101.817 270.179 101.817H270.151Z" fill="black"/>
<path d="M328.476 105.221C328.269 103.796 328.02 102.661 327.702 101.748C327.384 100.821 326.9 99.9357 326.291 99.1056C325.655 98.2479 324.923 97.5699 324.107 97.1134C323.346 96.6845 322.378 96.311 321.231 95.9928C320.097 95.6884 318.866 95.4809 317.539 95.3702C316.253 95.2734 314.704 95.218 312.934 95.218C311.164 95.218 309.615 95.2734 308.329 95.3702C307.002 95.467 305.757 95.6746 304.637 95.9928C303.49 96.311 302.522 96.6845 301.761 97.1134C300.945 97.5699 300.213 98.2479 299.576 99.1056C298.968 99.9357 298.498 100.821 298.166 101.748C297.848 102.647 297.599 103.782 297.392 105.221C297.198 106.604 297.06 108.029 297.005 109.468C296.949 110.879 296.922 112.664 296.922 114.767C296.922 117.575 296.963 119.816 297.032 121.394C297.115 123.026 297.336 124.686 297.682 126.346C298.069 128.131 298.595 129.432 299.314 130.317C299.991 131.161 300.987 131.949 302.245 132.669C303.517 133.388 305.038 133.873 306.767 134.08C308.399 134.274 310.459 134.384 312.893 134.384C315.326 134.384 317.414 134.288 319.046 134.08C320.774 133.873 322.295 133.402 323.554 132.697C324.826 131.991 325.808 131.189 326.513 130.345C327.246 129.445 327.785 128.145 328.158 126.36C328.518 124.7 328.739 123.04 328.808 121.407C328.891 119.816 328.919 117.589 328.919 114.78C328.919 112.678 328.891 110.893 328.836 109.482C328.78 108.043 328.656 106.618 328.449 105.234L328.476 105.221ZM311.454 101.817H314.4C314.732 101.817 315.188 101.817 315.782 101.845C316.474 101.873 316.861 101.914 317.055 101.956C317.4 102.025 317.815 102.094 318.299 102.191C318.783 102.274 319.018 102.384 319.115 102.426C319.35 102.55 319.571 102.703 319.806 102.883C319.931 102.966 320 103.076 320.055 103.201C320.124 103.381 320.166 103.588 320.166 103.823C320.166 105.041 320.221 106.936 320.332 109.426C320.442 111.903 320.498 113.812 320.498 115.14C320.498 119.152 320.373 122.749 320.138 125.876C320.138 126.374 320.014 126.886 319.06 127.19C317.967 127.55 315.921 127.758 312.962 127.827C310.113 127.827 308.08 127.633 306.933 127.246C305.896 126.9 305.744 126.388 305.744 125.793C305.509 122.749 305.384 119.152 305.384 115.14C305.384 113.826 305.439 111.903 305.55 109.426C305.661 106.922 305.716 105.041 305.716 103.823C305.716 103.588 305.757 103.381 305.827 103.201C305.882 103.076 305.951 102.979 306.075 102.883C306.311 102.703 306.532 102.55 306.767 102.426C306.864 102.371 307.085 102.274 307.583 102.191C308.08 102.108 308.495 102.025 308.827 101.956C309.021 101.914 309.394 101.873 310.099 101.845C310.694 101.817 311.164 101.817 311.482 101.817H311.454Z" fill="black"/>
<path d="M361.04 97.6668C360.501 97.1826 359.892 96.7814 359.201 96.4493C357.5 95.6331 355.219 95.2319 352.26 95.2319C350.78 95.2319 349.425 95.3149 348.236 95.4671C347.005 95.6331 345.885 95.9236 344.917 96.3387C343.963 96.7537 343.119 97.2241 342.414 97.7636C341.668 98.3309 341.031 99.0918 340.506 100.005C340.022 100.863 339.621 101.762 339.331 102.689C339.04 103.602 338.805 104.723 338.639 106.037C338.473 107.31 338.363 108.624 338.307 109.924C338.252 111.211 338.224 112.747 338.224 114.504C338.224 116.261 338.224 117.741 338.252 118.793C338.28 119.858 338.335 121.117 338.446 122.528C338.556 124.022 338.736 125.157 338.985 126.028C339.22 126.844 339.552 127.771 339.967 128.767C340.423 129.874 341.031 130.76 341.764 131.368C342.414 131.922 343.202 132.448 344.115 132.959C345.069 133.485 346.203 133.873 347.503 134.08C348.733 134.288 350.13 134.384 351.679 134.384C356.145 134.384 359.381 133.347 361.372 131.285L361.731 133.9H369.503V81.9504L361.04 82.6422V97.6806V97.6668ZM353.753 127.841C350.144 127.841 348.637 127.495 348.014 127.204C347.572 126.997 346.977 126.568 346.881 125.253C346.756 118.723 346.687 113.563 346.687 109.938C346.687 107.517 346.853 105.594 347.185 104.197C347.572 102.564 348.263 102.343 348.485 102.274C349.591 101.942 351.361 101.762 353.753 101.762C357.5 101.762 359.118 102.26 359.796 102.661C360.639 103.173 361.04 104.142 361.04 105.649V124.506C360.902 126.194 360.155 126.748 359.616 127.024C358.897 127.384 357.293 127.827 353.753 127.827V127.841Z" fill="black"/>
<path d="M407.723 116.524C407.446 115.611 406.99 114.822 406.368 114.186C405.814 113.618 405.247 113.134 404.681 112.761C404.072 112.359 403.242 112.027 402.15 111.751C401.154 111.502 400.2 111.294 399.302 111.128C398.417 110.976 397.2 110.81 395.693 110.63C395.513 110.616 395.236 110.575 394.835 110.505C390.12 109.897 388.696 109.496 388.267 109.302C387.825 109.108 387.603 108.513 387.603 107.545V104.238C387.603 103.353 387.894 102.799 388.544 102.44C389.111 102.122 390.452 101.748 393.66 101.748C394.946 101.748 395.928 101.748 396.605 101.776C397.241 101.79 397.877 101.873 398.5 101.983C399.274 102.135 399.537 102.26 399.592 102.301C399.675 102.357 399.841 102.495 400.062 102.841C400.242 103.132 400.366 103.45 400.422 103.796C400.491 104.266 400.574 104.916 400.657 105.732L400.781 106.991L407.059 105.068V104.307C407.059 103.173 406.948 102.135 406.713 101.236C406.492 100.323 406.188 99.5344 405.814 98.8842C405.413 98.1648 404.833 97.5699 404.1 97.0857C403.45 96.6568 402.772 96.3109 402.122 96.0757C401.459 95.8267 400.643 95.6469 399.606 95.5223C398.638 95.3978 397.739 95.3148 396.923 95.2872C396.121 95.2595 395.098 95.2318 393.853 95.2318C391.862 95.2318 390.134 95.3148 388.737 95.4808C387.299 95.6469 385.986 95.9512 384.824 96.3801C383.58 96.8367 382.57 97.5007 381.823 98.3446C381.104 99.1609 380.551 100.199 380.178 101.43C379.832 102.606 379.652 104.031 379.652 105.677C379.652 107.199 379.763 108.541 379.957 109.662C380.178 110.851 380.565 111.889 381.104 112.747C381.63 113.591 382.238 114.296 382.888 114.836C383.566 115.403 384.465 115.86 385.612 116.219C386.677 116.551 387.742 116.814 388.779 116.98C389.788 117.146 391.102 117.312 392.678 117.492C393.204 117.561 393.909 117.63 394.78 117.727L396.868 117.935C397.352 117.99 397.905 118.087 398.513 118.239C399.205 118.405 399.564 118.585 399.758 118.696C399.979 118.834 400.173 119.055 400.352 119.346C400.518 119.623 400.601 119.996 400.601 120.425C400.601 125.89 399.841 126.789 399.689 126.914L399.481 127.135C399.412 127.232 399.191 127.467 398.389 127.619C397.587 127.771 396.301 127.841 394.573 127.841C390.964 127.841 389.512 127.688 388.903 127.564C387.59 127.315 387.313 126.678 387.244 126.512C387.119 126.208 386.871 125.226 386.635 122.141L386.539 120.909L379.542 122.722V123.524C379.542 124.742 379.625 125.848 379.777 126.817C379.943 127.841 380.247 128.754 380.676 129.528C381.077 130.262 381.505 130.898 381.962 131.438C382.473 132.046 383.179 132.544 384.05 132.918C384.81 133.25 385.529 133.513 386.193 133.706C386.898 133.914 387.783 134.052 388.931 134.149C390.009 134.232 390.964 134.288 391.793 134.315C392.609 134.343 393.701 134.343 395.043 134.343C397.393 134.343 399.371 134.177 400.933 133.872C402.579 133.54 404.003 132.932 405.164 132.06C406.381 131.161 407.266 129.93 407.778 128.394C408.262 126.969 408.511 125.129 408.511 122.957C408.511 121.559 408.442 120.314 408.29 119.277C408.137 118.239 407.944 117.298 407.709 116.496L407.723 116.524Z" fill="black"/>
</svg>
