<?xml version="1.0" encoding="UTF-8"?>
<svg width="36px" height="36px" viewBox="0 0 36 36" version="1.1" xmlns="http://www.w3.org/2000/svg" xmlns:xlink="http://www.w3.org/1999/xlink">
    <!-- Generator: Sketch 62 (91390) - https://sketch.com -->
    <title>icon-category</title>
    <desc>Created with Sketch.</desc>
    <g id="icon-category" stroke="none" stroke-width="1" fill="none" fill-rule="evenodd">
        <path d="M19.810745,0.781024461 C23.8359041,1.51712786 26.7553242,3.66770008 28.9853544,7.1934589 L29.258372,7.63469029 C30.6827523,9.98972517 31.6224618,12.4230516 33.1694112,17.3096502 L34.2658247,20.7835765 C34.3863535,21.1612581 34.3200613,21.5737503 34.0872627,21.8946481 C33.8803307,22.1798905 33.5637698,22.3625307 33.2152057,22.4014594 L33.0831456,22.409241 L29.38,22.409 L29.3809056,26.389241 C29.3809056,29.0672406 27.2670881,31.2515318 24.6169276,31.3646399 L24.4009056,31.369241 L23.407,31.369 L23.4075722,35.349241 C23.4075722,35.5947008 23.2306971,35.7988493 22.9974479,35.8411853 L22.9075722,35.849241 C22.6621124,35.849241 22.4579639,35.6723658 22.4156279,35.4391166 L22.4075722,35.349241 L22.4075722,30.869241 C22.4075722,30.6237811 22.5844474,30.4196326 22.8176966,30.3772966 L22.9075722,30.369241 L24.4009056,30.369241 C26.53239,30.369241 28.2725291,28.6936923 28.3760347,26.5878831 L28.3809056,26.389241 L28.3809056,21.909241 C28.3809056,21.6637811 28.5577807,21.4596326 28.7910299,21.4172966 L28.8809056,21.409241 L33.0798131,21.4092521 C33.1582528,21.4087293 33.2317676,21.3709296 33.2778293,21.3074364 C33.3238911,21.2439433 33.3370077,21.1623272 33.3137114,21.0893166 L32.0783051,17.1779252 C30.5448209,12.3681668 29.6178962,10.0642725 28.1402158,7.72800614 C26.0523512,4.4270164 23.3653594,2.44766094 19.6256156,1.76372415 C15.6851631,0.999620046 11.6045509,1.91284469 8.3656792,4.28365275 C5.1268075,6.65446082 3.02292983,10.2681949 2.56144079,14.2443582 C2.09929764,19.1717306 4.26814856,23.9779437 8.26859982,26.8915264 C8.37196874,26.9668114 8.4415564,27.0780049 8.46525671,27.2013133 L8.47423891,27.2956943 L8.47423891,35.3432676 C8.47423891,35.61941 8.25038128,35.8432676 7.97423891,35.8432676 C7.72877902,35.8432676 7.52463054,35.6663925 7.48229458,35.4331433 L7.47423891,35.3432676 L7.474,27.546 L7.39708268,27.4887914 C3.38561914,24.4209825 1.18320443,19.5401115 1.53804315,14.49245 L1.56695789,14.1400376 C2.06168434,9.87637748 4.31149328,6.01198397 7.77502286,3.47672953 C11.2385524,0.941475087 15.6022082,-0.0350935643 19.810745,0.781024461 Z M15.9354839,17.016129 C16.2116262,17.016129 16.4354839,17.2399867 16.4354839,17.516129 L16.4354839,17.516129 L16.4354839,22.1612903 C16.4354839,22.4374327 16.2116262,22.6612903 15.9354839,22.6612903 L15.9354839,22.6612903 L12.8387097,22.6612903 C12.5625673,22.6612903 12.3387097,22.4374327 12.3387097,22.1612903 L12.3387097,22.1612903 L12.3387097,17.516129 C12.3387097,17.2399867 12.5625673,17.016129 12.8387097,17.016129 L12.8387097,17.016129 Z M19.0322581,17.016129 C19.277718,17.016129 19.4818664,17.1930042 19.5242024,17.4262534 L19.5322581,17.516129 L19.5322581,22.1612903 C19.5322581,22.4374327 19.3084004,22.6612903 19.0322581,22.6612903 C18.7867982,22.6612903 18.5826497,22.4844152 18.5403137,22.251166 L18.5322581,22.1612903 L18.5322581,17.516129 C18.5322581,17.2399867 18.7561157,17.016129 19.0322581,17.016129 Z M22.1290323,17.016129 C22.3744921,17.016129 22.5786406,17.1930042 22.6209766,17.4262534 L22.6290323,17.516129 L22.6290323,22.1612903 C22.6290323,22.4374327 22.4051746,22.6612903 22.1290323,22.6612903 C21.8835724,22.6612903 21.6794239,22.4844152 21.6370879,22.251166 L21.6290323,22.1612903 L21.6290323,17.516129 C21.6290323,17.2399867 21.8528899,17.016129 22.1290323,17.016129 Z M25.2258065,17.016129 C25.4712663,17.016129 25.6754148,17.1930042 25.7177508,17.4262534 L25.7258065,17.516129 L25.7258065,22.1612903 C25.7258065,22.4374327 25.5019488,22.6612903 25.2258065,22.6612903 C24.9803466,22.6612903 24.7761981,22.4844152 24.7338621,22.251166 L24.7258065,22.1612903 L24.7258065,17.516129 C24.7258065,17.2399867 24.9496641,17.016129 25.2258065,17.016129 Z M9.74193548,17.016129 C9.98739537,17.016129 10.1915439,17.1930042 10.2338798,17.4262534 L10.2419355,17.516129 L10.2419355,22.1612903 C10.2419355,22.4374327 10.0180779,22.6612903 9.74193548,22.6612903 C9.4964756,22.6612903 9.29232711,22.4844152 9.24999115,22.251166 L9.24193548,22.1612903 L9.24193548,17.516129 C9.24193548,17.2399867 9.46579311,17.016129 9.74193548,17.016129 Z M15.435,18.016 L13.338,18.016 L13.338,21.661 L15.435,21.661 L15.435,18.016 Z M12.8387097,9.79032258 C13.1148521,9.79032258 13.3387097,10.0141802 13.3387097,10.2903226 L13.3387097,10.2903226 L13.3387097,14.9354839 C13.3387097,15.2116262 13.1148521,15.4354839 12.8387097,15.4354839 L12.8387097,15.4354839 L9.74193548,15.4354839 C9.46579311,15.4354839 9.24193548,15.2116262 9.24193548,14.9354839 L9.24193548,14.9354839 L9.24193548,10.2903226 C9.24193548,10.0141802 9.46579311,9.79032258 9.74193548,9.79032258 L9.74193548,9.79032258 Z M15.9354839,9.79032258 C16.1809438,9.79032258 16.3850922,9.96719774 16.4274282,10.2004469 L16.4354839,10.2903226 L16.4354839,14.9354839 C16.4354839,15.2116262 16.2116262,15.4354839 15.9354839,15.4354839 C15.690024,15.4354839 15.4858755,15.2586087 15.4435395,15.0253595 L15.4354839,14.9354839 L15.4354839,10.2903226 C15.4354839,10.0141802 15.6593415,9.79032258 15.9354839,9.79032258 Z M19.0322581,9.79032258 C19.277718,9.79032258 19.4818664,9.96719774 19.5242024,10.2004469 L19.5322581,10.2903226 L19.5322581,14.9354839 C19.5322581,15.2116262 19.3084004,15.4354839 19.0322581,15.4354839 C18.7867982,15.4354839 18.5826497,15.2586087 18.5403137,15.0253595 L18.5322581,14.9354839 L18.5322581,10.2903226 C18.5322581,10.0141802 18.7561157,9.79032258 19.0322581,9.79032258 Z M25.2258065,9.79032258 C25.5019488,9.79032258 25.7258065,10.0141802 25.7258065,10.2903226 L25.7258065,10.2903226 L25.7258065,14.9354839 C25.7258065,15.2116262 25.5019488,15.4354839 25.2258065,15.4354839 L25.2258065,15.4354839 L22.1290323,15.4354839 C21.8528899,15.4354839 21.6290323,15.2116262 21.6290323,14.9354839 L21.6290323,14.9354839 L21.6290323,10.2903226 C21.6290323,10.0141802 21.8528899,9.79032258 22.1290323,9.79032258 L22.1290323,9.79032258 Z M12.338,10.79 L10.241,10.79 L10.241,14.435 L12.338,14.435 L12.338,10.79 Z M24.725,10.79 L22.629,10.79 L22.629,14.435 L24.725,14.435 L24.725,10.79 Z" id="Combined-Shape" fill="#737680" fill-rule="nonzero"></path>
    </g>
</svg>