<svg width="229" height="300" viewBox="0 0 229 300" fill="none" xmlns="http://www.w3.org/2000/svg">
<g clip-path="url(#clip0_234_3763)">
<path d="M89.9188 72.0539L100.569 56.356H80.2704L89.9188 72.0539Z" fill="#115EF7" fill-opacity="0.25"/>
<path d="M146.565 161.837C155.245 161.837 162.303 154.8 162.303 146.156C162.303 137.511 155.241 130.475 146.565 130.475C137.889 130.475 130.827 137.511 130.827 146.156C130.827 154.8 137.885 161.837 146.565 161.837Z" fill="#115EF7" fill-opacity="0.25"/>
<path d="M215.386 45.8752C215.386 37.2265 208.324 30.1942 199.648 30.1942C190.972 30.1942 183.91 37.2307 183.91 45.8752C183.91 54.5196 190.968 61.5562 199.648 61.5562C208.328 61.5562 215.386 54.5196 215.386 45.8752V45.8752Z" fill="#115EF7" fill-opacity="0.25"/>
<path d="M228.126 45.8752C228.126 30.228 215.352 17.5004 199.648 17.5004C183.944 17.5004 171.17 30.228 171.17 45.8752C171.17 59.7156 181.167 71.2627 194.34 73.7506V96.0493H126.228C126.338 95.9774 126.449 95.9012 126.559 95.825C143.244 84.5615 150.417 68.0427 147.3 48.0585C143.444 23.3142 129.409 11.5344 118.312 6.00414C106.392 0.0676999 95.38 0 94.9171 0H5.30833C2.37813 0 0 2.3695 0 5.28906V52.9202C0 55.8398 2.37813 58.2093 5.30833 58.2093H34.2196L90.2925 151.034C91.2523 152.625 92.9807 153.594 94.8407 153.594H119.089C122.376 165.645 133.447 174.53 146.569 174.53C162.273 174.53 175.047 161.803 175.047 146.156C175.047 130.509 162.273 117.781 146.569 117.781C131.931 117.781 119.845 128.841 118.27 143.016H97.8431L42.1354 50.7961C42.0717 50.6946 42.008 50.593 41.94 50.4957L41.5154 49.8906C40.5216 48.4732 38.8952 47.6269 37.1625 47.6269H10.6167V10.5781H94.9171C95.0063 10.5781 104.018 10.7093 113.564 15.4694C126.449 21.8882 134.271 33.4015 136.81 49.6833C139.269 65.4574 133.901 77.9776 120.856 86.9013C110.558 93.9421 99.1638 96.117 99.0619 96.1382C96.361 96.629 94.4797 99.0916 94.7303 101.816C94.9808 104.541 97.2698 106.627 100.017 106.627H199.653C202.583 106.627 204.961 104.258 204.961 101.338V73.7506C218.134 71.2627 228.131 59.7156 228.131 45.8752H228.126ZM130.827 146.156C130.827 137.507 137.885 130.475 146.565 130.475C155.245 130.475 162.303 137.511 162.303 146.156C162.303 154.8 155.241 161.837 146.565 161.837C137.889 161.837 130.827 154.8 130.827 146.156ZM199.648 61.5562C190.968 61.5562 183.91 54.5196 183.91 45.8752C183.91 37.2307 190.968 30.1942 199.648 30.1942C208.328 30.1942 215.386 37.2307 215.386 45.8752C215.386 54.5196 208.324 61.5562 199.648 61.5562Z" fill="#115EF7"/>
<path d="M115.254 48.5874C114.333 46.8611 112.528 45.7779 110.566 45.7779H70.8004C68.8809 45.7779 67.11 46.8103 66.1673 48.4816C65.2287 50.153 65.267 52.1967 66.2692 53.8299L85.1668 84.5869C86.1096 86.1228 87.77 87.0748 89.5749 87.1129C89.6131 87.1129 89.6555 87.1129 89.6938 87.1129C91.4519 87.1129 93.1038 86.2413 94.0933 84.7857L114.961 54.0288C116.061 52.4082 116.172 50.3138 115.25 48.5874H115.254ZM89.9188 72.0581L80.2747 56.3602H100.569L89.9188 72.0581V72.0581Z" fill="#115EF7"/>
</g>
<g clip-path="url(#clip1_234_3763)">
<path d="M43.2975 235.163L28.2466 210.498H22.4808V245.045H27.9477V220.73L42.8636 245.045H48.7644V210.498H43.2975V235.163Z" fill="black"/>
<path d="M77.4681 225.396C77.3427 224.419 77.1788 223.651 76.9763 223.053C76.7642 222.437 76.4653 221.84 76.0796 221.271C75.665 220.664 75.1733 220.199 74.6237 219.877C74.1127 219.583 73.4764 219.317 72.7147 219.099C71.9626 218.881 71.1238 218.729 70.2367 218.663C69.3786 218.596 68.3469 218.558 67.1706 218.558C65.4737 218.558 64.0563 218.625 62.9475 218.748C61.7712 218.881 60.7299 219.203 59.8525 219.696C58.9751 220.19 58.2905 220.73 57.8277 221.328C57.3456 221.934 56.9889 222.854 56.7189 224.116C56.4682 225.291 56.3139 226.486 56.2657 227.662C56.2079 228.81 56.1886 230.431 56.1886 232.47C56.1886 233.931 56.2079 235.088 56.2465 235.913C56.285 236.747 56.3718 237.695 56.5068 238.72C56.6514 239.829 56.8925 240.654 57.2396 241.261C57.5577 241.821 57.9916 242.409 58.5412 243.016C59.139 243.679 59.9007 244.163 60.8167 244.457C61.6362 244.723 62.639 244.941 63.7863 245.121C64.9337 245.292 66.2932 245.386 67.8263 245.386C69.0122 245.386 70.0342 245.348 70.8441 245.282C71.6926 245.216 72.4832 245.064 73.1967 244.836C73.9488 244.599 74.5562 244.296 75.019 243.916C75.4819 243.537 75.8868 243.025 76.2146 242.39C76.5328 241.783 76.7642 241.072 76.8992 240.284C77.0245 239.535 77.1017 238.615 77.1306 237.553L77.1499 236.946L72.3483 236.083L72.2422 236.814C72.194 237.126 72.1554 237.525 72.1265 238.018C72.0976 238.464 72.0687 238.796 72.0397 239.014C72.0108 239.203 71.953 239.45 71.8662 239.734C71.8276 239.858 71.7601 240.028 71.6444 240.104C71.4709 240.227 71.2009 240.37 70.8634 240.521C70.5549 240.664 70.121 240.759 69.5811 240.815C68.9929 240.882 68.2698 240.91 67.4502 240.91C64.7312 240.91 63.5839 240.683 63.1018 240.484C62.745 240.341 62.3208 240.057 62.2533 239.146C62.1569 236.88 62.099 234.756 62.0797 232.821H73.7174C74.1609 232.793 75.289 232.688 77.1113 232.508L77.767 232.442V231.797C77.767 230.384 77.7477 229.199 77.7188 228.25C77.6898 227.292 77.6127 226.325 77.4873 225.396H77.4681ZM71.8372 229.066H62.099C62.099 228.924 62.099 228.762 62.099 228.582C62.099 228.004 62.1183 227.567 62.128 227.283C62.1472 226.998 62.1665 226.591 62.2051 226.079C62.2437 225.595 62.2919 225.206 62.3497 224.95C62.4076 224.675 62.4943 224.381 62.61 224.068C62.6968 223.831 62.7932 223.651 62.8993 223.547C63.0054 223.442 63.1211 223.376 63.3332 223.309C63.6031 223.196 64.4613 223.006 67.1417 223.006C69.4268 223.006 70.4295 223.224 70.8731 223.404C71.1912 223.537 71.5673 223.793 71.6155 224.618C71.7215 225.965 71.789 227.454 71.8276 229.056L71.8372 229.066Z" fill="black"/>
<path d="M85.6154 239.042C85.6154 240.066 85.6925 240.929 85.8371 241.603C85.9914 242.323 86.2806 242.987 86.6952 243.575C87.1484 244.22 87.8137 244.694 88.6815 244.979C89.4721 245.235 90.4652 245.367 91.6318 245.367C92.6924 245.367 93.888 245.263 95.1897 245.045L95.7778 244.95L95.9128 240.465L95.1125 240.521C93.9266 240.607 92.9913 240.654 92.3164 240.654C91.7765 240.654 91.7283 240.493 91.6993 240.436C91.6222 240.208 91.4969 239.535 91.4969 237.544V223.148H96.0574V219.241H91.4969V211.882L85.625 212.356V219.232H82.26V223.139H85.625V239.042H85.6154Z" fill="black"/>
<path d="M117.433 228.44L122.273 245.045H127.49L134.335 219.241H128.367L124.404 236.169L119.921 219.241H114.811L110.009 236.254L106.066 219.241H100.281L107.165 245.045H112.844L117.433 228.44Z" fill="black"/>
<path d="M160.966 225.396C160.821 224.409 160.648 223.632 160.426 223.015C160.204 222.38 159.867 221.773 159.443 221.204C158.999 220.616 158.488 220.152 157.919 219.839C157.389 219.545 156.714 219.289 155.914 219.07C155.123 218.862 154.265 218.72 153.339 218.644C152.443 218.577 151.363 218.539 150.129 218.539C148.895 218.539 147.815 218.577 146.918 218.644C145.992 218.71 145.125 218.852 144.344 219.07C143.543 219.289 142.868 219.545 142.338 219.839C141.769 220.152 141.258 220.616 140.815 221.204C140.39 221.773 140.063 222.38 139.831 223.015C139.61 223.632 139.436 224.409 139.291 225.396C139.156 226.344 139.06 227.321 139.021 228.307C138.983 229.274 138.964 230.498 138.964 231.939C138.964 233.864 138.992 235.401 139.041 236.482C139.098 237.601 139.253 238.739 139.494 239.877C139.764 241.1 140.13 241.991 140.632 242.598C141.104 243.177 141.798 243.717 142.676 244.21C143.563 244.704 144.623 245.035 145.828 245.178C146.966 245.31 148.403 245.386 150.1 245.386C151.797 245.386 153.253 245.32 154.39 245.178C155.596 245.035 156.656 244.713 157.534 244.229C158.421 243.746 159.105 243.196 159.597 242.617C160.108 242.001 160.484 241.109 160.744 239.886C160.995 238.748 161.149 237.61 161.197 236.491C161.255 235.401 161.275 233.874 161.275 231.949C161.275 230.507 161.255 229.284 161.217 228.317C161.178 227.33 161.091 226.354 160.947 225.405L160.966 225.396ZM149.097 223.063H151.151C151.382 223.063 151.7 223.063 152.115 223.082C152.597 223.101 152.867 223.129 153.002 223.158C153.243 223.205 153.532 223.253 153.87 223.319C154.207 223.376 154.371 223.452 154.439 223.48C154.603 223.565 154.757 223.67 154.921 223.793C155.007 223.859 155.056 223.926 155.094 224.011C155.142 224.134 155.171 224.277 155.171 224.438C155.171 225.272 155.21 226.572 155.287 228.279C155.364 229.976 155.403 231.285 155.403 232.195C155.403 234.945 155.316 237.411 155.152 239.554C155.152 239.896 155.065 240.246 154.4 240.455C153.638 240.702 152.211 240.844 150.148 240.891C148.162 240.891 146.744 240.759 145.944 240.493C145.221 240.256 145.115 239.905 145.115 239.507C144.951 237.411 144.864 234.955 144.864 232.205C144.864 231.304 144.903 229.986 144.98 228.288C145.057 226.572 145.096 225.282 145.096 224.447C145.096 224.286 145.125 224.144 145.173 224.021C145.211 223.935 145.26 223.869 145.346 223.803C145.51 223.679 145.665 223.575 145.828 223.49C145.896 223.452 146.05 223.385 146.397 223.328C146.744 223.272 147.034 223.215 147.265 223.167C147.4 223.139 147.66 223.11 148.152 223.091C148.567 223.072 148.895 223.072 149.116 223.072L149.097 223.063Z" fill="black"/>
<path d="M180.973 218.776L180.308 218.691C178.408 218.445 176.721 218.786 175.4 219.602C174.898 219.914 174.455 220.284 174.069 220.711L173.828 219.232H168.448V245.035H174.349V233.855C174.349 233.343 174.32 232.499 174.272 231.313C174.224 230.156 174.195 229.274 174.195 228.677C174.195 227.643 174.252 226.809 174.359 226.211C174.455 225.671 174.648 225.178 174.927 224.76C175.178 224.391 175.544 224.135 176.046 223.983C176.923 223.708 178.302 223.594 179.96 223.812L180.741 223.916L180.992 218.776H180.973Z" fill="black"/>
<path d="M198.598 229.777L208.683 219.241H201.626L195.522 225.794C195.223 226.107 194.616 226.761 193.71 227.738C193.42 228.051 193.16 228.336 192.919 228.601C192.919 227.852 192.929 227.302 192.929 226.942V210.175L187.009 210.649V245.045H192.929V234.177L194.201 232.774L202.532 245.035H209.194L198.608 229.768L198.598 229.777Z" fill="black"/>
<path d="M30.2187 283.831C31.3275 283.338 32.2532 282.627 32.9956 281.688C34.1719 280.199 34.7793 277.933 34.7793 274.945C34.7793 273.978 34.7215 273.096 34.6058 272.309C34.4901 271.522 34.3261 270.801 34.114 270.175C33.8923 269.521 33.5837 268.924 33.1884 268.412C32.8124 267.918 32.4074 267.492 31.9832 267.131C31.5397 266.752 30.9708 266.43 30.2959 266.183C29.6788 265.946 29.0521 265.766 28.4543 265.623C27.8469 265.481 27.1044 265.377 26.227 265.292C25.3689 265.216 24.5494 265.168 23.778 265.14C23.0067 265.121 22.0811 265.102 20.9915 265.102H9.98059V299.64H15.9874V285.974H22.245C23.9419 285.974 25.1761 286.117 25.8992 286.401C26.2849 286.657 26.632 287.074 26.9212 287.615C27.2587 288.241 27.5383 289.028 27.7504 289.967C27.9722 290.953 28.1554 291.901 28.2807 292.774C28.4157 293.665 28.5603 294.756 28.7146 296.046C28.8785 297.345 29.0135 298.359 29.1389 299.052L29.2449 299.64H35.6181L33.7284 289.047C33.2848 286.553 32.0989 284.798 30.1995 283.803L30.2187 283.831ZM28.811 276.709C28.811 277.496 28.7725 278.132 28.705 278.596C28.6471 279.004 28.5121 279.403 28.3097 279.763C28.1457 280.066 27.9047 280.284 27.5672 280.436C27.1526 280.626 26.6031 280.768 25.9089 280.882C25.1954 280.996 24.2697 281.053 23.1513 281.053H15.9874V269.957H22.8813C23.778 269.957 24.5494 269.986 25.1857 270.033C25.8221 270.081 26.3717 270.147 26.8537 270.213C27.2491 270.27 27.5576 270.375 27.789 270.507C28.0493 270.659 28.2518 270.811 28.3964 270.962C28.4446 271.01 28.5507 271.143 28.6278 271.456C28.705 271.778 28.7628 272.081 28.7821 272.357C28.8014 272.66 28.811 273.087 28.811 273.627V276.719V276.709Z" fill="black"/>
<path d="M62.5669 280.019C62.4416 279.042 62.2777 278.274 62.0752 277.677C61.8631 277.06 61.5642 276.463 61.1785 275.894C60.7639 275.287 60.2722 274.822 59.7226 274.5C59.2116 274.206 58.5752 273.94 57.8135 273.722C57.0615 273.504 56.2226 273.352 55.3356 273.286C54.4775 273.219 53.4458 273.182 52.2695 273.182C50.5725 273.182 49.1552 273.248 48.0464 273.371C46.8701 273.504 45.8288 273.826 44.9514 274.32C44.074 274.813 43.3894 275.353 42.9266 275.951C42.4445 276.558 42.0877 277.477 41.8178 278.739C41.5671 279.915 41.4128 281.109 41.3646 282.285C41.3068 283.433 41.2875 285.055 41.2875 287.093C41.2875 288.554 41.3068 289.711 41.3453 290.536C41.3839 291.37 41.4707 292.319 41.6057 293.343C41.7503 294.452 41.9913 295.277 42.3384 295.884C42.6566 296.444 43.0905 297.032 43.6401 297.639C44.2379 298.303 44.9996 298.786 45.9155 299.08C46.7351 299.346 47.7378 299.564 48.8852 299.744C50.0326 299.915 51.3921 300.009 52.9251 300.009C54.1111 300.009 55.1331 299.972 55.943 299.905C56.7915 299.839 57.5821 299.687 58.2956 299.459C59.0477 299.222 59.6551 298.919 60.1179 298.54C60.5807 298.16 60.9857 297.648 61.3135 297.013C61.6317 296.406 61.8631 295.695 61.9981 294.908C62.1234 294.158 62.2005 293.238 62.2295 292.176L62.2488 291.569L57.4471 290.706L57.3411 291.437C57.2929 291.75 57.2543 292.148 57.2254 292.641C57.1965 293.087 57.1675 293.419 57.1386 293.637C57.1097 293.826 57.0518 294.073 56.965 294.358C56.9265 294.481 56.859 294.651 56.7433 294.727C56.5697 294.851 56.2998 294.993 55.9623 295.145C55.6538 295.287 55.2199 295.382 54.6799 295.439C54.0918 295.505 53.3687 295.533 52.5491 295.533C49.8301 295.533 48.6827 295.306 48.2006 295.107C47.8439 294.964 47.4197 294.68 47.3522 293.77C47.2557 291.503 47.1979 289.379 47.1786 287.444H58.8163C59.2598 287.416 60.3879 287.312 62.2102 287.131L62.8658 287.065V286.42C62.8658 285.007 62.8465 283.822 62.8176 282.873C62.7887 281.916 62.7116 280.948 62.5862 280.019H62.5669ZM56.9361 283.689H47.1979C47.1979 283.547 47.1979 283.385 47.1979 283.205C47.1979 282.627 47.2172 282.191 47.2268 281.906C47.2461 281.622 47.2654 281.214 47.304 280.702C47.3425 280.218 47.3907 279.829 47.4486 279.573C47.5064 279.298 47.5932 279.004 47.7089 278.691C47.7957 278.454 47.8921 278.274 47.9982 278.17C48.1042 278.065 48.2199 277.999 48.4321 277.933C48.702 277.819 49.5601 277.629 52.2406 277.629C54.5257 277.629 55.5284 277.847 55.9719 278.027C56.2901 278.16 56.6662 278.416 56.7144 279.241C56.8204 280.588 56.8879 282.077 56.9265 283.679L56.9361 283.689Z" fill="black"/>
<path d="M88.5516 287.767C88.3588 287.141 88.0406 286.6 87.6067 286.164C87.221 285.775 86.8257 285.443 86.4304 285.187C86.0062 284.912 85.4277 284.685 84.666 284.495C83.9718 284.324 83.3065 284.182 82.6798 284.068C82.0627 283.964 81.2142 283.85 80.1632 283.727C80.0379 283.717 79.8451 283.689 79.5654 283.642C76.2776 283.224 75.2845 282.949 74.9856 282.816C74.677 282.684 74.5228 282.276 74.5228 281.612V279.346C74.5228 278.739 74.7253 278.359 75.1784 278.113C75.5737 277.895 76.509 277.639 78.7459 277.639C79.6426 277.639 80.3271 277.639 80.7996 277.658C81.2431 277.667 81.6866 277.715 82.1205 277.8C82.6605 277.904 82.8437 277.99 82.8822 278.018C82.9401 278.056 83.0558 278.141 83.21 278.388C83.3354 278.587 83.4222 278.805 83.4607 279.042C83.5089 279.365 83.5668 279.81 83.6246 280.37L83.7114 281.233L88.0888 279.915V279.393C88.0888 278.615 88.0117 277.904 87.8478 277.288C87.6935 276.662 87.4814 276.121 87.221 275.676C86.9414 275.182 86.5365 274.765 86.0255 274.443C85.5723 274.149 85.0998 273.912 84.6467 273.751C84.1839 273.58 83.615 273.457 82.8919 273.371C82.2169 273.286 81.5902 273.229 81.0214 273.21C80.4621 273.191 79.7486 273.172 78.8809 273.172C77.4925 273.172 76.2872 273.229 75.3134 273.343C74.3107 273.457 73.3947 273.665 72.5848 273.959C71.717 274.272 71.0132 274.727 70.4925 275.306C69.9911 275.865 69.6055 276.577 69.3451 277.411C69.1041 278.217 68.9787 279.194 68.9787 280.332C68.9787 281.375 69.0559 282.295 69.1909 283.063C69.3451 283.879 69.6151 284.59 69.9911 285.178C70.3575 285.756 70.7818 286.24 71.2349 286.61C71.7074 286.999 72.3341 287.311 73.1344 287.558C73.8768 287.786 74.6192 287.966 75.3423 288.08C76.0462 288.193 76.9622 288.307 78.0613 288.431C78.4277 288.478 78.9194 288.525 79.5269 288.592L80.9828 288.734C81.3203 288.772 81.7059 288.838 82.1302 288.943C82.6123 289.056 82.8629 289.18 82.9979 289.256C83.1522 289.35 83.2872 289.502 83.4125 289.701C83.5282 289.891 83.5861 290.137 83.5861 290.441C83.5861 294.187 83.0558 294.803 82.9497 294.898L82.8051 295.05C82.7569 295.116 82.6026 295.277 82.0434 295.382C81.4842 295.486 80.5875 295.533 79.3823 295.533C76.8657 295.533 75.8533 295.429 75.4291 295.344C74.5131 295.173 74.3203 294.737 74.2721 294.623C74.1853 294.414 74.0118 293.741 73.8479 291.626L73.7804 290.782L68.9016 292.025V292.575C68.9016 293.409 68.9595 294.168 69.0655 294.832C69.1812 295.543 69.3933 296.159 69.6922 296.69C69.9719 297.193 70.2707 297.629 70.5889 297.999C70.9457 298.416 71.4374 298.758 72.0448 299.014C72.5751 299.241 73.0765 299.422 73.5393 299.554C74.031 299.697 74.6481 299.791 75.4484 299.858C76.2005 299.915 76.8657 299.953 77.4443 299.972C78.0131 299.991 78.7748 299.991 79.7101 299.991C81.3492 299.991 82.728 299.877 83.8175 299.668C84.9649 299.44 85.958 299.023 86.7679 298.435C87.6164 297.819 88.2334 296.975 88.5902 295.922C88.9276 294.945 89.1012 293.684 89.1012 292.195C89.1012 291.238 89.053 290.384 88.9469 289.673C88.8409 288.962 88.7059 288.317 88.542 287.767H88.5516Z" fill="black"/>
<path d="M116.166 280.019C116.04 279.042 115.877 278.274 115.674 277.677C115.462 277.06 115.163 276.463 114.777 275.894C114.363 275.287 113.871 274.822 113.321 274.5C112.81 274.206 112.174 273.94 111.412 273.722C110.66 273.504 109.822 273.352 108.934 273.286C108.076 273.219 107.045 273.182 105.868 273.182C104.171 273.182 102.754 273.248 101.645 273.371C100.469 273.504 99.4276 273.826 98.5502 274.32C97.6728 274.813 96.9883 275.353 96.5255 275.951C96.0434 276.558 95.6866 277.477 95.4167 278.739C95.166 279.915 95.0117 281.109 94.9635 282.285C94.9056 283.433 94.8864 285.055 94.8864 287.093C94.8864 288.554 94.9056 289.711 94.9442 290.536C94.9828 291.37 95.0695 292.319 95.2045 293.343C95.3492 294.452 95.5902 295.277 95.9373 295.884C96.2555 296.444 96.6894 297.032 97.239 297.639C97.8367 298.303 98.5985 298.786 99.5144 299.08C100.334 299.346 101.337 299.564 102.484 299.744C103.631 299.915 104.991 300.009 106.524 300.009C107.71 300.009 108.732 299.972 109.542 299.905C110.39 299.839 111.181 299.687 111.894 299.459C112.647 299.222 113.254 298.919 113.717 298.54C114.18 298.16 114.585 297.648 114.912 297.013C115.231 296.406 115.462 295.695 115.597 294.908C115.722 294.158 115.799 293.238 115.828 292.176L115.848 291.569L111.046 290.706L110.94 291.437C110.892 291.75 110.853 292.148 110.824 292.641C110.795 293.087 110.766 293.419 110.737 293.637C110.709 293.826 110.651 294.073 110.564 294.358C110.525 294.481 110.458 294.651 110.342 294.727C110.169 294.851 109.899 294.993 109.561 295.145C109.253 295.287 108.819 295.382 108.279 295.439C107.691 295.505 106.968 295.533 106.148 295.533C103.429 295.533 102.282 295.306 101.8 295.107C101.443 294.964 101.019 294.68 100.951 293.77C100.855 291.503 100.797 289.379 100.777 287.444H112.415C112.859 287.416 113.987 287.312 115.809 287.131L116.465 287.065V286.42C116.465 285.007 116.445 283.822 116.417 282.873C116.388 281.916 116.31 280.948 116.185 280.019H116.166ZM110.535 283.689H100.797C100.797 283.547 100.797 283.385 100.797 283.205C100.797 282.627 100.816 282.191 100.826 281.906C100.845 281.622 100.864 281.214 100.903 280.702C100.941 280.218 100.99 279.829 101.047 279.573C101.105 279.298 101.192 279.004 101.308 278.691C101.395 278.454 101.491 278.274 101.597 278.17C101.703 278.065 101.819 277.999 102.031 277.933C102.301 277.819 103.159 277.629 105.839 277.629C108.125 277.629 109.127 277.847 109.571 278.027C109.889 278.16 110.265 278.416 110.313 279.241C110.419 280.588 110.487 282.077 110.525 283.679L110.535 283.689Z" fill="black"/>
<path d="M140.463 275.268C139.653 274.471 138.602 273.902 137.349 273.599C136.163 273.314 134.63 273.163 132.769 273.163C131.564 273.163 130.542 273.191 129.732 273.257C128.893 273.324 128.025 273.466 127.177 273.703C126.261 273.95 125.528 274.31 124.978 274.765C124.429 275.23 123.976 275.865 123.638 276.652C123.31 277.43 123.137 278.369 123.137 279.45C123.137 279.943 123.156 280.313 123.185 280.578L123.262 281.176L128.083 281.366V280.626C128.083 280.474 128.083 280.265 128.102 279.971C128.122 279.061 128.16 278.672 128.189 278.511C128.189 278.473 128.247 278.312 128.536 278.065C128.758 277.876 129.115 277.762 129.606 277.715C130.233 277.658 131.188 277.629 132.451 277.629C134.63 277.629 135.604 277.838 136.047 278.008C136.5 278.189 136.684 278.454 136.684 278.919V284.808C135.584 284.808 134.611 284.827 133.743 284.846C132.692 284.874 131.602 284.941 130.503 285.036C129.385 285.13 128.421 285.273 127.62 285.434C126.82 285.605 126.029 285.842 125.277 286.136C124.487 286.449 123.831 286.828 123.339 287.274C122.838 287.719 122.433 288.269 122.153 288.905C121.864 289.54 121.719 290.27 121.719 291.057C121.719 292.66 121.835 293.988 122.067 295.021C122.308 296.112 122.761 297.06 123.407 297.819C124.072 298.606 124.959 299.175 126.058 299.507C127.09 299.81 128.401 299.972 129.973 299.972C132.374 299.972 134.167 299.697 135.449 299.147C136.201 298.824 136.828 298.321 137.33 297.658L137.744 299.64H142.584V282.788C142.584 280.958 142.44 279.45 142.141 278.293C141.832 277.07 141.263 276.036 140.444 275.239L140.463 275.268ZM136.693 291.949C136.635 292.688 136.443 293.305 136.124 293.798C135.816 294.272 135.208 294.67 134.331 295.002C133.396 295.353 132.133 295.533 130.59 295.533C128.151 295.533 127.765 295.078 127.736 295.021C127.601 294.832 127.292 294.073 127.292 291.219V291.086C127.292 290.602 127.456 290.251 127.803 289.995C128.045 289.815 128.748 289.474 130.667 289.208C132.094 289.009 134.119 288.905 136.693 288.886V291.949V291.949Z" fill="black"/>
<path d="M157.298 274.225C156.796 274.538 156.353 274.907 155.967 275.334L155.726 273.855H150.346V299.659H156.247V288.478C156.247 287.966 156.218 287.122 156.17 285.936C156.121 284.779 156.092 283.898 156.092 283.3C156.092 282.266 156.15 281.432 156.256 280.834C156.353 280.294 156.546 279.801 156.825 279.384C157.076 279.014 157.442 278.758 157.944 278.606C158.821 278.331 160.2 278.217 161.858 278.435L162.639 278.54L162.89 273.4L162.225 273.314C160.335 273.068 158.638 273.409 157.317 274.225H157.298Z" fill="black"/>
<path d="M183.523 290.754C183.475 291.124 183.437 291.569 183.408 292.101C183.379 292.603 183.35 292.973 183.331 293.22C183.311 293.447 183.263 293.722 183.196 294.035C183.128 294.358 183.041 294.471 183.032 294.481C182.916 294.604 182.752 294.756 182.53 294.926C182.357 295.059 182.116 295.154 181.817 295.211C181.431 295.287 180.939 295.353 180.371 295.41C179.802 295.467 179.117 295.495 178.326 295.495C177.295 295.495 176.504 295.495 175.964 295.477C175.511 295.467 175.077 295.372 174.682 295.202C174.113 294.955 173.939 294.822 173.92 294.803C173.92 294.803 173.795 294.642 173.66 293.978C173.534 293.4 173.477 292.878 173.477 292.432L173.457 283.822C173.457 282.115 173.612 280.654 173.911 279.488C174.045 278.966 174.344 278.075 174.846 277.99L174.961 277.961C175.337 277.828 176.302 277.667 178.741 277.667C179.242 277.667 179.705 277.667 180.12 277.686C182.405 277.762 182.81 278.151 182.839 278.179C182.839 278.179 182.974 278.378 183.109 279.194L183.697 282.997L188.72 282.172L188.691 281.536C188.634 280.218 188.47 279.08 188.219 278.17C187.959 277.221 187.573 276.406 187.091 275.742C186.58 275.04 185.876 274.49 185.008 274.12C184.198 273.769 183.263 273.513 182.231 273.371C181.229 273.229 179.985 273.153 178.519 273.153C177.391 273.153 176.379 273.191 175.53 273.267C174.653 273.343 173.833 273.485 173.091 273.694C172.339 273.902 171.693 274.158 171.163 274.452C170.613 274.765 170.112 275.192 169.687 275.714C169.282 276.226 168.945 276.776 168.704 277.364C168.463 277.933 168.27 278.653 168.125 279.497C167.99 280.313 167.894 281.176 167.846 282.067C167.798 282.94 167.778 283.992 167.778 285.178C167.778 286.496 167.778 287.511 167.788 288.212C167.788 288.914 167.827 289.768 167.865 290.782C167.913 291.825 167.981 292.584 168.077 293.115C168.174 293.618 168.299 294.215 168.473 294.926C168.665 295.733 168.916 296.321 169.234 296.719C169.485 297.032 169.803 297.411 170.179 297.847C170.632 298.369 171.163 298.748 171.76 298.957C172.252 299.128 172.831 299.317 173.496 299.507C174.19 299.706 174.961 299.839 175.8 299.905C176.61 299.962 177.526 300 178.529 300C179.927 300 181.123 299.962 182.058 299.877C183.051 299.791 183.938 299.602 184.69 299.308C185.471 299.014 186.078 298.672 186.551 298.284C187.043 297.876 187.438 297.288 187.746 296.529C188.026 295.827 188.229 295.097 188.354 294.357C188.47 293.646 188.576 292.688 188.662 291.522L188.711 290.877L183.61 290.024L183.514 290.763L183.523 290.754Z" fill="black"/>
<path d="M216.691 280.455C216.672 279.99 216.624 279.478 216.547 278.947C216.469 278.388 216.363 277.895 216.228 277.506C216.093 277.117 215.91 276.7 215.679 276.292C215.428 275.837 215.11 275.458 214.744 275.145C214.406 274.87 214.011 274.595 213.548 274.339C213.066 274.073 212.516 273.855 211.89 273.713C211.311 273.57 210.646 273.457 209.903 273.352C209.161 273.248 208.322 273.191 207.397 273.182C204.774 273.182 202.768 273.675 201.39 274.661V264.808L195.47 265.282V299.678H201.39V286.249C201.39 284.144 201.496 281.735 201.708 279.099C201.727 278.89 201.814 278.72 201.978 278.559C202.2 278.35 202.498 278.189 202.884 278.065C203.318 277.923 203.79 277.819 204.273 277.762C204.774 277.696 205.314 277.667 205.892 277.667C207.136 277.667 208.12 277.715 208.814 277.819C209.421 277.904 209.884 278.065 210.193 278.302C210.472 278.521 210.646 278.748 210.723 278.995C210.79 279.222 210.868 279.678 210.868 280.512C210.868 280.778 210.858 281.309 210.839 282.115C210.819 282.94 210.8 283.613 210.8 284.154V299.668H216.701V284.979C216.701 284.637 216.701 284.154 216.71 283.528C216.71 282.892 216.72 282.437 216.72 282.153C216.72 281.489 216.71 280.92 216.682 280.465L216.691 280.455Z" fill="black"/>
</g>
<defs>
<clipPath id="clip0_234_3763">
<rect width="228.126" height="174.53" fill="white"/>
</clipPath>
<clipPath id="clip1_234_3763">
<rect width="206.74" height="89.8248" fill="white" transform="translate(9.98059 210.175)"/>
</clipPath>
</defs>
</svg>
