<svg width="229" height="300" viewBox="0 0 229 300" fill="none" xmlns="http://www.w3.org/2000/svg">
<g clip-path="url(#clip0_234_3835)">
<path d="M89.9188 72.0539L100.569 56.356H80.2704L89.9188 72.0539Z" fill="white" fill-opacity="0.25"/>
<path d="M146.565 161.837C155.245 161.837 162.303 154.8 162.303 146.156C162.303 137.511 155.241 130.475 146.565 130.475C137.889 130.475 130.827 137.511 130.827 146.156C130.827 154.8 137.885 161.837 146.565 161.837Z" fill="white" fill-opacity="0.25"/>
<path d="M215.386 45.8752C215.386 37.2265 208.324 30.1942 199.648 30.1942C190.972 30.1942 183.91 37.2307 183.91 45.8752C183.91 54.5196 190.968 61.5562 199.648 61.5562C208.328 61.5562 215.386 54.5196 215.386 45.8752V45.8752Z" fill="white" fill-opacity="0.25"/>
<path d="M228.126 45.8752C228.126 30.228 215.352 17.5004 199.648 17.5004C183.944 17.5004 171.17 30.228 171.17 45.8752C171.17 59.7156 181.167 71.2627 194.34 73.7506V96.0493H126.228C126.338 95.9774 126.449 95.9012 126.559 95.825C143.244 84.5615 150.417 68.0427 147.3 48.0585C143.444 23.3142 129.409 11.5344 118.312 6.00414C106.392 0.0676999 95.38 0 94.9171 0H5.30833C2.37813 0 0 2.3695 0 5.28906V52.9202C0 55.8398 2.37813 58.2093 5.30833 58.2093H34.2196L90.2925 151.034C91.2523 152.625 92.9807 153.594 94.8407 153.594H119.089C122.376 165.645 133.447 174.53 146.569 174.53C162.273 174.53 175.047 161.803 175.047 146.156C175.047 130.509 162.273 117.781 146.569 117.781C131.931 117.781 119.845 128.841 118.27 143.016H97.8431L42.1354 50.7961C42.0717 50.6946 42.008 50.593 41.94 50.4957L41.5154 49.8906C40.5216 48.4732 38.8952 47.6269 37.1625 47.6269H10.6167V10.5781H94.9171C95.0063 10.5781 104.018 10.7093 113.564 15.4694C126.449 21.8882 134.271 33.4015 136.81 49.6833C139.269 65.4574 133.901 77.9776 120.856 86.9013C110.558 93.9421 99.1638 96.117 99.0619 96.1382C96.361 96.629 94.4797 99.0916 94.7303 101.816C94.9808 104.541 97.2698 106.627 100.017 106.627H199.653C202.583 106.627 204.961 104.258 204.961 101.338V73.7506C218.134 71.2627 228.131 59.7156 228.131 45.8752H228.126ZM130.827 146.156C130.827 137.507 137.885 130.475 146.565 130.475C155.245 130.475 162.303 137.511 162.303 146.156C162.303 154.8 155.241 161.837 146.565 161.837C137.889 161.837 130.827 154.8 130.827 146.156ZM199.648 61.5562C190.968 61.5562 183.91 54.5196 183.91 45.8752C183.91 37.2307 190.968 30.1942 199.648 30.1942C208.328 30.1942 215.386 37.2307 215.386 45.8752C215.386 54.5196 208.324 61.5562 199.648 61.5562Z" fill="white"/>
<path d="M115.254 48.5874C114.333 46.8611 112.528 45.7779 110.566 45.7779H70.8004C68.8809 45.7779 67.11 46.8103 66.1673 48.4816C65.2287 50.153 65.267 52.1967 66.2692 53.8299L85.1668 84.5869C86.1096 86.1228 87.77 87.0748 89.5749 87.1129C89.6131 87.1129 89.6556 87.1129 89.6938 87.1129C91.4519 87.1129 93.1038 86.2413 94.0933 84.7857L114.961 54.0288C116.061 52.4082 116.172 50.3138 115.25 48.5874H115.254ZM89.9188 72.0581L80.2747 56.3602H100.569L89.9188 72.0581V72.0581Z" fill="white"/>
</g>
<g clip-path="url(#clip1_234_3835)">
<path d="M43.2976 235.163L28.2468 210.498H22.481V245.045H27.9479V220.73L42.8637 245.045H48.7645V210.498H43.2976V235.163Z" fill="white"/>
<path d="M77.4682 225.396C77.3428 224.419 77.1789 223.651 76.9765 223.053C76.7643 222.437 76.4654 221.84 76.0798 221.271C75.6652 220.664 75.1734 220.199 74.6239 219.877C74.1128 219.583 73.4765 219.317 72.7148 219.099C71.9627 218.881 71.1239 218.729 70.2368 218.663C69.3787 218.596 68.347 218.558 67.1707 218.558C65.4738 218.558 64.0564 218.625 62.9476 218.748C61.7713 218.881 60.73 219.203 59.8526 219.696C58.9752 220.19 58.2906 220.73 57.8278 221.328C57.3457 221.934 56.989 222.854 56.719 224.116C56.4683 225.291 56.3141 226.486 56.2659 227.662C56.208 228.81 56.1887 230.431 56.1887 232.47C56.1887 233.931 56.208 235.088 56.2466 235.913C56.2851 236.747 56.3719 237.695 56.5069 238.72C56.6515 239.829 56.8926 240.654 57.2397 241.261C57.5579 241.821 57.9917 242.409 58.5413 243.016C59.1391 243.679 59.9008 244.163 60.8168 244.457C61.6363 244.723 62.6391 244.941 63.7865 245.121C64.9338 245.292 66.2933 245.386 67.8264 245.386C69.0123 245.386 70.0344 245.348 70.8443 245.282C71.6927 245.216 72.4834 245.064 73.1969 244.836C73.9489 244.599 74.5564 244.296 75.0192 243.916C75.482 243.537 75.8869 243.025 76.2148 242.39C76.5329 241.783 76.7643 241.072 76.8993 240.284C77.0247 239.535 77.1018 238.615 77.1307 237.553L77.15 236.946L72.3484 236.083L72.2423 236.814C72.1941 237.126 72.1556 237.525 72.1266 238.018C72.0977 238.464 72.0688 238.796 72.0399 239.014C72.0109 239.203 71.9531 239.45 71.8663 239.734C71.8277 239.858 71.7602 240.028 71.6445 240.104C71.471 240.227 71.201 240.37 70.8635 240.521C70.555 240.664 70.1211 240.759 69.5812 240.815C68.993 240.882 68.2699 240.91 67.4503 240.91C64.7314 240.91 63.584 240.683 63.1019 240.484C62.7452 240.341 62.3209 240.057 62.2534 239.146C62.157 236.88 62.0991 234.756 62.0799 232.821H73.7175C74.161 232.793 75.2891 232.688 77.1114 232.508L77.7671 232.442V231.797C77.7671 230.384 77.7478 229.199 77.7189 228.25C77.6899 227.292 77.6128 226.325 77.4875 225.396H77.4682ZM71.8374 229.066H62.0991C62.0991 228.924 62.0991 228.762 62.0991 228.582C62.0991 228.004 62.1184 227.567 62.1281 227.283C62.1474 226.998 62.1666 226.591 62.2052 226.079C62.2438 225.595 62.292 225.206 62.3498 224.95C62.4077 224.675 62.4945 224.381 62.6102 224.068C62.6969 223.831 62.7934 223.651 62.8994 223.547C63.0055 223.442 63.1212 223.376 63.3333 223.309C63.6033 223.196 64.4614 223.006 67.1418 223.006C69.4269 223.006 70.4297 223.224 70.8732 223.404C71.1914 223.537 71.5674 223.793 71.6156 224.618C71.7217 225.965 71.7892 227.454 71.8277 229.056L71.8374 229.066Z" fill="white"/>
<path d="M85.6155 239.042C85.6155 240.066 85.6926 240.929 85.8372 241.603C85.9915 242.323 86.2808 242.987 86.6954 243.575C87.1485 244.22 87.8138 244.694 88.6816 244.979C89.4722 245.235 90.4653 245.367 91.632 245.367C92.6926 245.367 93.8882 245.263 95.1898 245.045L95.7779 244.95L95.9129 240.465L95.1127 240.521C93.9267 240.607 92.9915 240.654 92.3165 240.654C91.7766 240.654 91.7284 240.493 91.6995 240.436C91.6223 240.208 91.497 239.535 91.497 237.544V223.148H96.0576V219.241H91.497V211.882L85.6251 212.356V219.232H82.2601V223.139H85.6251V239.042H85.6155Z" fill="white"/>
<path d="M117.433 228.44L122.274 245.045H127.49L134.335 219.241H128.367L124.404 236.169L119.921 219.241H114.811L110.009 236.254L106.066 219.241H100.281L107.165 245.045H112.844L117.433 228.44Z" fill="white"/>
<path d="M160.966 225.396C160.822 224.41 160.648 223.632 160.426 223.015C160.205 222.38 159.867 221.773 159.443 221.204C158.999 220.616 158.488 220.152 157.919 219.839C157.389 219.545 156.714 219.289 155.914 219.07C155.123 218.862 154.265 218.72 153.34 218.644C152.443 218.577 151.363 218.539 150.129 218.539C148.895 218.539 147.815 218.577 146.918 218.644C145.992 218.71 145.125 218.852 144.344 219.07C143.543 219.289 142.869 219.545 142.338 219.839C141.769 220.152 141.258 220.616 140.815 221.204C140.391 221.773 140.063 222.38 139.831 223.015C139.61 223.632 139.436 224.41 139.291 225.396C139.156 226.344 139.06 227.321 139.021 228.307C138.983 229.274 138.964 230.498 138.964 231.939C138.964 233.864 138.993 235.401 139.041 236.482C139.099 237.601 139.253 238.739 139.494 239.877C139.764 241.1 140.13 241.991 140.632 242.598C141.104 243.177 141.798 243.717 142.676 244.21C143.563 244.704 144.623 245.035 145.829 245.178C146.966 245.31 148.403 245.386 150.1 245.386C151.797 245.386 153.253 245.32 154.391 245.178C155.596 245.035 156.656 244.713 157.534 244.229C158.421 243.746 159.105 243.196 159.597 242.617C160.108 242.001 160.484 241.109 160.744 239.886C160.995 238.748 161.149 237.61 161.198 236.491C161.255 235.401 161.275 233.874 161.275 231.949C161.275 230.507 161.255 229.284 161.217 228.317C161.178 227.33 161.092 226.354 160.947 225.405L160.966 225.396ZM149.097 223.063H151.151C151.382 223.063 151.7 223.063 152.115 223.082C152.597 223.101 152.867 223.129 153.002 223.158C153.243 223.205 153.532 223.253 153.87 223.319C154.207 223.376 154.371 223.452 154.439 223.48C154.603 223.566 154.757 223.67 154.921 223.793C155.008 223.859 155.056 223.926 155.094 224.011C155.143 224.135 155.171 224.277 155.171 224.438C155.171 225.272 155.21 226.572 155.287 228.279C155.364 229.976 155.403 231.285 155.403 232.195C155.403 234.945 155.316 237.411 155.152 239.554C155.152 239.896 155.065 240.246 154.4 240.455C153.638 240.702 152.211 240.844 150.148 240.891C148.162 240.891 146.745 240.759 145.944 240.493C145.221 240.256 145.115 239.905 145.115 239.507C144.951 237.411 144.864 234.955 144.864 232.205C144.864 231.304 144.903 229.986 144.98 228.288C145.057 226.572 145.096 225.282 145.096 224.447C145.096 224.286 145.125 224.144 145.173 224.021C145.212 223.935 145.26 223.869 145.347 223.803C145.51 223.679 145.665 223.575 145.829 223.49C145.896 223.452 146.05 223.385 146.397 223.328C146.745 223.272 147.034 223.215 147.265 223.167C147.4 223.139 147.661 223.11 148.152 223.091C148.567 223.072 148.895 223.072 149.116 223.072L149.097 223.063Z" fill="white"/>
<path d="M180.973 218.776L180.308 218.691C178.408 218.445 176.721 218.786 175.4 219.602C174.899 219.914 174.455 220.284 174.069 220.711L173.828 219.232H168.448V245.035H174.349V233.855C174.349 233.343 174.32 232.499 174.272 231.313C174.224 230.156 174.195 229.274 174.195 228.677C174.195 227.643 174.253 226.809 174.359 226.211C174.455 225.671 174.648 225.178 174.928 224.76C175.178 224.391 175.545 224.135 176.046 223.983C176.923 223.708 178.302 223.594 179.961 223.812L180.742 223.916L180.992 218.776H180.973Z" fill="white"/>
<path d="M198.598 229.777L208.684 219.241H201.626L195.523 225.794C195.224 226.107 194.616 226.761 193.71 227.738C193.421 228.051 193.16 228.336 192.919 228.601C192.919 227.852 192.929 227.302 192.929 226.942V210.175L187.009 210.649V245.045H192.929V234.177L194.202 232.774L202.532 245.035H209.195L198.608 229.768L198.598 229.777Z" fill="white"/>
<path d="M30.2189 283.831C31.3277 283.338 32.2533 282.627 32.9957 281.688C34.172 280.199 34.7794 277.933 34.7794 274.945C34.7794 273.978 34.7216 273.096 34.6059 272.309C34.4902 271.522 34.3263 270.801 34.1141 270.175C33.8924 269.521 33.5838 268.924 33.1885 268.412C32.8125 267.918 32.4075 267.492 31.9833 267.131C31.5398 266.752 30.9709 266.43 30.296 266.183C29.6789 265.946 29.0522 265.766 28.4544 265.623C27.847 265.481 27.1046 265.377 26.2272 265.292C25.369 265.216 24.5495 265.168 23.7781 265.14C23.0068 265.121 22.0812 265.102 20.9917 265.102H9.98071V299.64H15.9876V285.974H22.2451C23.942 285.974 25.1762 286.117 25.8993 286.401C26.285 286.657 26.6321 287.074 26.9214 287.615C27.2588 288.241 27.5384 289.028 27.7506 289.967C27.9723 290.953 28.1555 291.901 28.2809 292.774C28.4158 293.665 28.5605 294.756 28.7147 296.046C28.8786 297.345 29.0136 298.359 29.139 299.052L29.245 299.64H35.6183L33.7285 289.047C33.285 286.553 32.099 284.798 30.1996 283.803L30.2189 283.831ZM28.8112 276.709C28.8112 277.496 28.7726 278.132 28.7051 278.596C28.6472 279.004 28.5123 279.403 28.3098 279.763C28.1459 280.066 27.9048 280.284 27.5674 280.436C27.1528 280.626 26.6032 280.768 25.909 280.882C25.1955 280.996 24.2699 281.053 23.1514 281.053H15.9876V269.957H22.8814C23.7781 269.957 24.5495 269.986 25.1858 270.033C25.8222 270.081 26.3718 270.147 26.8539 270.213C27.2492 270.27 27.5577 270.375 27.7891 270.507C28.0495 270.659 28.2519 270.811 28.3966 270.962C28.4448 271.01 28.5508 271.143 28.628 271.456C28.7051 271.778 28.7629 272.081 28.7822 272.357C28.8015 272.66 28.8112 273.087 28.8112 273.627V276.719V276.709Z" fill="white"/>
<path d="M62.5671 280.019C62.4417 279.042 62.2778 278.274 62.0753 277.677C61.8632 277.06 61.5643 276.463 61.1786 275.894C60.764 275.287 60.2723 274.822 59.7227 274.5C59.2117 274.206 58.5754 273.94 57.8137 273.722C57.0616 273.504 56.2228 273.352 55.3357 273.286C54.4776 273.219 53.4459 273.182 52.2696 273.182C50.5727 273.182 49.1553 273.248 48.0465 273.371C46.8702 273.504 45.8289 273.826 44.9515 274.32C44.0741 274.813 43.3895 275.353 42.9267 275.951C42.4446 276.558 42.0879 277.477 41.8179 278.739C41.5672 279.915 41.4129 281.109 41.3647 282.285C41.3069 283.433 41.2876 285.055 41.2876 287.093C41.2876 288.554 41.3069 289.711 41.3454 290.536C41.384 291.37 41.4708 292.319 41.6058 293.343C41.7504 294.452 41.9914 295.277 42.3386 295.884C42.6567 296.444 43.0906 297.032 43.6402 297.639C44.238 298.303 44.9997 298.786 45.9157 299.08C46.7352 299.346 47.738 299.564 48.8853 299.744C50.0327 299.915 51.3922 300.009 52.9253 300.009C54.1112 300.009 55.1332 299.972 55.9431 299.905C56.7916 299.839 57.5822 299.687 58.2957 299.459C59.0478 299.222 59.6552 298.919 60.118 298.54C60.5808 298.16 60.9858 297.648 61.3136 297.013C61.6318 296.406 61.8632 295.695 61.9982 294.908C62.1235 294.158 62.2007 293.238 62.2296 292.176L62.2489 291.569L57.4473 290.706L57.3412 291.437C57.293 291.75 57.2544 292.148 57.2255 292.641C57.1966 293.087 57.1676 293.419 57.1387 293.637C57.1098 293.826 57.0519 294.073 56.9652 294.358C56.9266 294.481 56.8591 294.651 56.7434 294.727C56.5699 294.851 56.2999 294.993 55.9624 295.145C55.6539 295.287 55.22 295.382 54.6801 295.439C54.0919 295.505 53.3688 295.533 52.5492 295.533C49.8302 295.533 48.6829 295.306 48.2008 295.107C47.844 294.964 47.4198 294.68 47.3523 293.77C47.2559 291.503 47.198 289.379 47.1787 287.444H58.8164C59.2599 287.416 60.388 287.312 62.2103 287.131L62.866 287.065V286.42C62.866 285.007 62.8467 283.822 62.8177 282.873C62.7888 281.916 62.7117 280.948 62.5863 280.019H62.5671ZM56.9362 283.689H47.198C47.198 283.547 47.198 283.385 47.198 283.205C47.198 282.627 47.2173 282.191 47.2269 281.906C47.2462 281.622 47.2655 281.214 47.3041 280.702C47.3426 280.218 47.3909 279.829 47.4487 279.573C47.5066 279.298 47.5933 279.004 47.709 278.691C47.7958 278.454 47.8922 278.274 47.9983 278.17C48.1044 278.065 48.2201 277.999 48.4322 277.933C48.7021 277.819 49.5603 277.629 52.2407 277.629C54.5258 277.629 55.5285 277.847 55.9721 278.027C56.2902 278.16 56.6663 278.416 56.7145 279.241C56.8205 280.588 56.888 282.077 56.9266 283.679L56.9362 283.689Z" fill="white"/>
<path d="M88.5517 287.767C88.3589 287.141 88.0407 286.6 87.6068 286.164C87.2212 285.775 86.8259 285.443 86.4305 285.187C86.0063 284.912 85.4278 284.685 84.6661 284.495C83.9719 284.324 83.3066 284.182 82.6799 284.068C82.0628 283.964 81.2143 283.85 80.1634 283.727C80.038 283.717 79.8452 283.689 79.5656 283.642C76.2777 283.224 75.2846 282.949 74.9857 282.816C74.6772 282.684 74.5229 282.276 74.5229 281.612V279.346C74.5229 278.739 74.7254 278.359 75.1786 278.113C75.5739 277.895 76.5091 277.639 78.746 277.639C79.6427 277.639 80.3273 277.639 80.7997 277.658C81.2432 277.667 81.6868 277.715 82.1206 277.8C82.6606 277.904 82.8438 277.99 82.8824 278.018C82.9402 278.056 83.0559 278.141 83.2102 278.388C83.3355 278.587 83.4223 278.805 83.4609 279.042C83.5091 279.365 83.5669 279.81 83.6248 280.37L83.7115 281.233L88.0889 279.915V279.393C88.0889 278.615 88.0118 277.904 87.8479 277.288C87.6936 276.662 87.4815 276.121 87.2212 275.676C86.9416 275.182 86.5366 274.765 86.0256 274.443C85.5724 274.149 85.1 273.912 84.6468 273.751C84.184 273.58 83.6151 273.457 82.892 273.371C82.2171 273.286 81.5904 273.229 81.0215 273.21C80.4623 273.191 79.7488 273.172 78.881 273.172C77.4926 273.172 76.2874 273.229 75.3135 273.343C74.3108 273.457 73.3948 273.665 72.5849 273.959C71.7171 274.272 71.0133 274.727 70.4926 275.306C69.9913 275.865 69.6056 276.577 69.3453 277.411C69.1042 278.217 68.9789 279.194 68.9789 280.332C68.9789 281.375 69.056 282.295 69.191 283.063C69.3453 283.879 69.6152 284.59 69.9913 285.178C70.3576 285.756 70.7819 286.24 71.235 286.61C71.7075 286.999 72.3342 287.311 73.1345 287.558C73.8769 287.786 74.6193 287.966 75.3425 288.08C76.0463 288.193 76.9623 288.307 78.0614 288.431C78.4278 288.478 78.9196 288.525 79.527 288.592L80.9829 288.734C81.3204 288.772 81.7061 288.838 82.1303 288.943C82.6124 289.056 82.8631 289.18 82.9981 289.256C83.1523 289.35 83.2873 289.502 83.4127 289.701C83.5284 289.891 83.5862 290.137 83.5862 290.441C83.5862 294.187 83.0559 294.803 82.9498 294.898L82.8052 295.05C82.757 295.116 82.6027 295.277 82.0435 295.382C81.4843 295.486 80.5876 295.533 79.3824 295.533C76.8659 295.533 75.8535 295.429 75.4292 295.344C74.5133 295.173 74.3204 294.737 74.2722 294.623C74.1854 294.414 74.0119 293.741 73.848 291.626L73.7805 290.782L68.9017 292.025V292.575C68.9017 293.409 68.9596 294.168 69.0656 294.832C69.1813 295.543 69.3935 296.159 69.6924 296.69C69.972 297.193 70.2709 297.629 70.589 297.999C70.9458 298.416 71.4375 298.758 72.045 299.014C72.5753 299.241 73.0766 299.422 73.5394 299.554C74.0312 299.697 74.6483 299.791 75.4485 299.858C76.2006 299.915 76.8659 299.953 77.4444 299.972C78.0132 299.991 78.7749 299.991 79.7102 299.991C81.3493 299.991 82.7281 299.877 83.8176 299.668C84.965 299.44 85.9581 299.023 86.768 298.435C87.6165 297.819 88.2336 296.975 88.5903 295.922C88.9278 294.945 89.1013 293.684 89.1013 292.195C89.1013 291.238 89.0531 290.384 88.947 289.673C88.841 288.962 88.706 288.317 88.5421 287.767H88.5517Z" fill="white"/>
<path d="M116.166 280.019C116.041 279.042 115.877 278.274 115.674 277.677C115.462 277.06 115.163 276.463 114.778 275.894C114.363 275.287 113.871 274.822 113.322 274.5C112.811 274.206 112.174 273.94 111.413 273.722C110.66 273.504 109.822 273.352 108.935 273.286C108.076 273.219 107.045 273.182 105.868 273.182C104.172 273.182 102.754 273.248 101.645 273.371C100.469 273.504 99.4278 273.826 98.5504 274.32C97.673 274.813 96.9884 275.353 96.5256 275.951C96.0435 276.558 95.6867 277.477 95.4168 278.739C95.1661 279.915 95.0118 281.109 94.9636 282.285C94.9058 283.433 94.8865 285.055 94.8865 287.093C94.8865 288.554 94.9058 289.711 94.9443 290.536C94.9829 291.37 95.0697 292.319 95.2047 293.343C95.3493 294.452 95.5903 295.277 95.9374 295.884C96.2556 296.444 96.6895 297.032 97.2391 297.639C97.8369 298.303 98.5986 298.786 99.5145 299.08C100.334 299.346 101.337 299.564 102.484 299.744C103.632 299.915 104.991 300.009 106.524 300.009C107.71 300.009 108.732 299.972 109.542 299.905C110.391 299.839 111.181 299.687 111.895 299.459C112.647 299.222 113.254 298.919 113.717 298.54C114.18 298.16 114.585 297.648 114.913 297.013C115.231 296.406 115.462 295.695 115.597 294.908C115.722 294.158 115.8 293.238 115.828 292.176L115.848 291.569L111.046 290.706L110.94 291.437C110.892 291.75 110.853 292.148 110.824 292.641C110.795 293.087 110.767 293.419 110.738 293.637C110.709 293.826 110.651 294.073 110.564 294.358C110.525 294.481 110.458 294.651 110.342 294.727C110.169 294.851 109.899 294.993 109.561 295.145C109.253 295.287 108.819 295.382 108.279 295.439C107.691 295.505 106.968 295.533 106.148 295.533C103.429 295.533 102.282 295.306 101.8 295.107C101.443 294.964 101.019 294.68 100.951 293.77C100.855 291.503 100.797 289.379 100.778 287.444H112.415C112.859 287.416 113.987 287.312 115.809 287.131L116.465 287.065V286.42C116.465 285.007 116.446 283.822 116.417 282.873C116.388 281.916 116.311 280.948 116.185 280.019H116.166ZM110.535 283.689H100.797C100.797 283.547 100.797 283.385 100.797 283.205C100.797 282.627 100.816 282.191 100.826 281.906C100.845 281.622 100.864 281.214 100.903 280.702C100.942 280.218 100.99 279.829 101.048 279.573C101.105 279.298 101.192 279.004 101.308 278.691C101.395 278.454 101.491 278.274 101.597 278.17C101.703 278.065 101.819 277.999 102.031 277.933C102.301 277.819 103.159 277.629 105.84 277.629C108.125 277.629 109.127 277.847 109.571 278.027C109.889 278.16 110.265 278.416 110.313 279.241C110.419 280.588 110.487 282.077 110.525 283.679L110.535 283.689Z" fill="white"/>
<path d="M140.463 275.268C139.653 274.471 138.602 273.902 137.349 273.599C136.163 273.314 134.63 273.163 132.769 273.163C131.564 273.163 130.542 273.191 129.732 273.257C128.893 273.324 128.025 273.466 127.177 273.703C126.261 273.95 125.528 274.31 124.979 274.765C124.429 275.23 123.976 275.865 123.638 276.652C123.311 277.43 123.137 278.369 123.137 279.45C123.137 279.943 123.156 280.313 123.185 280.578L123.262 281.176L128.083 281.366V280.626C128.083 280.474 128.083 280.265 128.102 279.971C128.122 279.061 128.16 278.672 128.189 278.511C128.189 278.473 128.247 278.312 128.536 278.065C128.758 277.876 129.115 277.762 129.607 277.715C130.233 277.658 131.188 277.629 132.451 277.629C134.63 277.629 135.604 277.838 136.047 278.008C136.5 278.189 136.684 278.454 136.684 278.919V284.808C135.585 284.808 134.611 284.827 133.743 284.846C132.692 284.874 131.602 284.941 130.503 285.036C129.385 285.13 128.421 285.273 127.62 285.434C126.82 285.605 126.029 285.842 125.277 286.136C124.487 286.449 123.831 286.828 123.339 287.274C122.838 287.719 122.433 288.269 122.153 288.905C121.864 289.54 121.72 290.27 121.72 291.057C121.72 292.66 121.835 293.988 122.067 295.021C122.308 296.112 122.761 297.06 123.407 297.819C124.072 298.606 124.959 299.175 126.058 299.507C127.09 299.81 128.401 299.972 129.973 299.972C132.374 299.972 134.167 299.697 135.45 299.147C136.202 298.824 136.828 298.321 137.33 297.658L137.744 299.64H142.584V282.788C142.584 280.958 142.44 279.45 142.141 278.293C141.832 277.07 141.264 276.036 140.444 275.239L140.463 275.268ZM136.693 291.949C136.635 292.688 136.443 293.305 136.124 293.798C135.816 294.272 135.208 294.67 134.331 295.002C133.396 295.353 132.133 295.533 130.59 295.533C128.151 295.533 127.765 295.078 127.736 295.021C127.601 294.832 127.293 294.073 127.293 291.219V291.086C127.293 290.602 127.456 290.251 127.804 289.995C128.045 289.815 128.748 289.474 130.667 289.208C132.094 289.009 134.119 288.905 136.693 288.886V291.949V291.949Z" fill="white"/>
<path d="M157.298 274.225C156.796 274.538 156.353 274.907 155.967 275.334L155.726 273.855H150.346V299.659H156.247V288.478C156.247 287.966 156.218 287.122 156.17 285.936C156.122 284.779 156.093 283.898 156.093 283.3C156.093 282.266 156.15 281.432 156.257 280.834C156.353 280.294 156.546 279.801 156.825 279.384C157.076 279.014 157.442 278.758 157.944 278.606C158.821 278.331 160.2 278.217 161.858 278.435L162.639 278.54L162.89 273.4L162.225 273.314C160.335 273.068 158.638 273.409 157.317 274.225H157.298Z" fill="white"/>
<path d="M183.524 290.754C183.475 291.124 183.437 291.569 183.408 292.101C183.379 292.603 183.35 292.973 183.331 293.22C183.311 293.447 183.263 293.722 183.196 294.035C183.128 294.358 183.041 294.471 183.032 294.481C182.916 294.604 182.752 294.756 182.53 294.927C182.357 295.059 182.116 295.154 181.817 295.211C181.431 295.287 180.94 295.353 180.371 295.41C179.802 295.467 179.117 295.496 178.327 295.496C177.295 295.496 176.504 295.495 175.964 295.477C175.511 295.467 175.077 295.372 174.682 295.202C174.113 294.955 173.94 294.822 173.92 294.803C173.92 294.803 173.795 294.642 173.66 293.978C173.535 293.4 173.477 292.878 173.477 292.432L173.457 283.822C173.457 282.115 173.612 280.654 173.911 279.488C174.046 278.966 174.345 278.075 174.846 277.99L174.962 277.961C175.338 277.828 176.302 277.667 178.741 277.667C179.243 277.667 179.705 277.667 180.12 277.686C182.405 277.762 182.81 278.151 182.839 278.179C182.839 278.179 182.974 278.378 183.109 279.194L183.697 282.997L188.72 282.172L188.692 281.536C188.634 280.218 188.47 279.08 188.219 278.17C187.959 277.221 187.573 276.406 187.091 275.742C186.58 275.04 185.876 274.49 185.008 274.12C184.198 273.77 183.263 273.513 182.231 273.371C181.229 273.229 179.985 273.153 178.519 273.153C177.391 273.153 176.379 273.191 175.53 273.267C174.653 273.343 173.833 273.485 173.091 273.694C172.339 273.902 171.693 274.158 171.163 274.452C170.613 274.765 170.112 275.192 169.688 275.714C169.283 276.226 168.945 276.776 168.704 277.364C168.463 277.933 168.27 278.653 168.126 279.497C167.991 280.313 167.894 281.176 167.846 282.067C167.798 282.94 167.778 283.992 167.778 285.178C167.778 286.496 167.778 287.511 167.788 288.212C167.788 288.914 167.827 289.768 167.865 290.782C167.913 291.826 167.981 292.584 168.077 293.115C168.174 293.618 168.299 294.215 168.473 294.927C168.665 295.733 168.916 296.321 169.234 296.719C169.485 297.032 169.803 297.411 170.179 297.847C170.632 298.369 171.163 298.748 171.76 298.957C172.252 299.128 172.831 299.317 173.496 299.507C174.19 299.706 174.962 299.839 175.8 299.905C176.61 299.962 177.526 300 178.529 300C179.927 300 181.123 299.962 182.058 299.877C183.051 299.791 183.938 299.602 184.69 299.308C185.471 299.014 186.079 298.672 186.551 298.284C187.043 297.876 187.438 297.288 187.747 296.529C188.026 295.827 188.229 295.097 188.354 294.358C188.47 293.646 188.576 292.688 188.663 291.522L188.711 290.877L183.61 290.024L183.514 290.763L183.524 290.754Z" fill="white"/>
<path d="M216.691 280.455C216.672 279.99 216.624 279.478 216.547 278.947C216.47 278.388 216.364 277.895 216.229 277.506C216.094 277.117 215.91 276.7 215.679 276.292C215.428 275.837 215.11 275.458 214.744 275.145C214.406 274.87 214.011 274.595 213.548 274.339C213.066 274.073 212.516 273.855 211.89 273.713C211.311 273.57 210.646 273.457 209.904 273.352C209.161 273.248 208.322 273.191 207.397 273.182C204.774 273.182 202.769 273.675 201.39 274.661V264.808L195.47 265.282V299.678H201.39V286.249C201.39 284.144 201.496 281.735 201.708 279.099C201.727 278.89 201.814 278.72 201.978 278.559C202.2 278.35 202.499 278.189 202.884 278.065C203.318 277.923 203.791 277.819 204.273 277.762C204.774 277.696 205.314 277.667 205.893 277.667C207.136 277.667 208.12 277.715 208.814 277.819C209.421 277.904 209.884 278.065 210.193 278.302C210.472 278.521 210.646 278.748 210.723 278.995C210.791 279.222 210.868 279.678 210.868 280.512C210.868 280.778 210.858 281.309 210.839 282.115C210.819 282.94 210.8 283.613 210.8 284.154V299.668H216.701V284.979C216.701 284.637 216.701 284.154 216.711 283.528C216.711 282.892 216.72 282.437 216.72 282.153C216.72 281.489 216.711 280.92 216.682 280.465L216.691 280.455Z" fill="white"/>
</g>
<defs>
<clipPath id="clip0_234_3835">
<rect width="228.126" height="174.53" fill="white"/>
</clipPath>
<clipPath id="clip1_234_3835">
<rect width="206.74" height="89.8248" fill="white" transform="translate(9.98071 210.175)"/>
</clipPath>
</defs>
</svg>
