<?xml version="1.0" encoding="UTF-8"?>
<svg width="36px" height="36px" viewBox="0 0 36 36" version="1.1" xmlns="http://www.w3.org/2000/svg" xmlns:xlink="http://www.w3.org/1999/xlink">
    <!-- Generator: Sketch 62 (91390) - https://sketch.com -->
    <title>icon-distributed</title>
    <desc>Created with Sketch.</desc>
    <g id="icon-distributed" stroke="none" stroke-width="1" fill="none" fill-rule="evenodd">
        <path d="M27.8698628,21.2664858 C28.1437749,20.9652461 28.5388351,20.7761367 28.9780641,20.7761367 C29.8050683,20.7761367 30.4754877,21.446556 30.4754877,22.2735602 C30.4754877,23.1005644 29.8050683,23.7709838 28.9780641,23.7709838 C28.1510599,23.7709838 27.4806406,23.1005644 27.4806406,22.2735602 C27.4806406,22.2695063 27.4806567,22.2654561 27.4806888,22.2614097 L19.830394,19.3194234 C19.5387445,19.8541019 19.1027257,20.3090152 18.5570312,20.624072 C18.4844902,20.6659536 18.4107779,20.704921 18.3360573,20.7409742 L21.5372791,30.4463959 C22.0567475,30.39209 22.5893255,30.4998726 23.0567562,30.7697439 C23.8350104,31.2190692 24.3144348,32.0494565 24.3144348,32.9481071 C24.3144348,33.8467576 23.8350104,34.677145 23.0567562,35.1264703 C22.278502,35.5757955 21.3196533,35.5757955 20.5413991,35.1264703 C19.7631448,34.677145 19.2837205,33.8467576 19.2837205,32.9481071 C19.2837205,32.0494565 19.7631448,31.2190692 20.5413991,30.7697439 L20.522,30.781 L17.3116458,21.0467642 C16.6601726,21.1323671 15.9893063,21.0267378 15.3856931,20.7298763 L15.1875007,20.624072 C14.7403938,20.3659347 14.3669134,20.0139104 14.0861419,19.6010507 L14.0230873,19.6516097 L14.0230873,19.6516097 L13.938462,19.6979127 L5.489,23.382 L5.49484709,23.4840759 C5.49484709,23.9704194 5.25897328,24.4231779 4.86799964,24.7024467 L4.74613533,24.7808827 C4.28283086,25.0483717 3.71201623,25.0483717 3.24871177,24.7808827 C2.78540731,24.5133937 2.5,24.0190538 2.5,23.4840759 C2.5,22.9490979 2.78540731,22.454758 3.24871177,22.187269 L3.24871177,22.187269 L3.39071339,22.115047 C3.82510405,21.9224549 4.32916131,21.946529 4.74613533,22.187269 C4.85531652,22.2503048 4.95461828,22.3259387 5.04263363,22.4117336 L13.5111005,18.7180247 C13.5560369,18.6984265 13.6021989,18.685494 13.6484804,18.6787933 C13.5526087,18.369805 13.5027355,18.0414396 13.5027355,17.705973 C13.5027355,16.6263886 14.0192491,15.6203484 14.8777898,14.9900723 L10.2008224,7.32736832 C9.82690986,7.42293653 9.42453235,7.371608 9.08119613,7.17338274 C8.61789167,6.90589378 8.33248436,6.41155381 8.33248436,5.8765759 C8.33248436,5.34159799 8.61789167,4.84725801 9.08119613,4.57976905 L9.08119613,4.57976905 L9.22319775,4.50754704 C9.65758842,4.31495499 10.1616457,4.33902899 10.5786197,4.57976905 C11.0419241,4.84725801 11.3273315,5.34159799 11.3273315,5.8765759 C11.3273315,6.17768599 11.2369157,6.46592218 11.0752541,6.70808135 L15.8330082,14.5006308 C16.7303349,14.2096722 17.7213963,14.3054199 18.5570312,14.7878739 C18.6545785,14.8441929 18.7486211,14.9049808 18.838961,14.9698946 L29.2918197,4.10206326 C29.0345213,3.73119249 28.8837382,3.28083658 28.8837382,2.79526339 C28.8837382,1.52762442 29.9113626,0.5 31.1790016,0.5 C32.4466406,0.5 33.474265,1.52762442 33.474265,2.79526339 C33.474265,4.06290235 32.4466406,5.09052678 31.1790016,5.09052678 C30.7844896,5.09052678 30.4132246,4.99099456 30.0889479,4.81567145 L19.5973515,15.7241094 C20.0094316,16.2908506 20.2417965,16.9818691 20.2417965,17.705973 C20.2417965,17.9111925 20.2231324,18.1137546 20.1870028,18.3115833 Z M22.5222428,31.6955482 C22.0747467,31.4371862 21.5234086,31.4371862 21.0759124,31.6955482 C20.6284163,31.9539103 20.3527473,32.431383 20.3527473,32.9481071 C20.3527473,33.4648311 20.6284163,33.9423039 21.0759124,34.2006659 C21.5234086,34.4590279 22.0747467,34.4590279 22.5222428,34.2006659 C22.969739,33.9423039 23.245408,33.4648311 23.245408,32.9481071 C23.245408,32.431383 22.969739,31.9539103 22.5222428,31.6955482 Z M17.7552611,16.1765804 C17.2088618,15.8611167 16.5356701,15.8611167 15.9892708,16.1765804 C15.4428715,16.4920442 15.1062756,17.0750454 15.1062756,17.705973 C15.1062756,18.3369006 15.4428715,18.9199017 15.9892708,19.2353655 C16.5356701,19.5508293 17.2088618,19.5508293 17.7552611,19.2353655 C18.3016604,18.9199017 18.6382563,18.3369006 18.6382563,17.705973 C18.6382563,17.0750454 18.3016604,16.4920442 17.7552611,16.1765804 Z M31.1790016,1.56902678 C30.5017698,1.56902678 29.952765,2.11803161 29.952765,2.79526339 C29.952765,3.47249516 30.5017698,4.02149999 31.1790016,4.02149999 C31.8562334,4.02149999 32.4052382,3.47249516 32.4052382,2.79526339 C32.4052382,2.11803161 31.8562334,1.56902678 31.1790016,1.56902678 Z" id="Combined-Shape" fill="#737680" fill-rule="nonzero"></path>
    </g>
</svg>