<?xml version="1.0" encoding="UTF-8"?>
<svg width="136px" height="136px" viewBox="0 0 136 136" version="1.1" xmlns="http://www.w3.org/2000/svg" xmlns:xlink="http://www.w3.org/1999/xlink">
    <!-- Generator: Sketch 62 (91390) - https://sketch.com -->
    <title>streamline-icon-loading@140x140</title>
    <desc>Created with Sketch.</desc>
    <g id="Page-1" stroke="none" stroke-width="1" fill="none" fill-rule="evenodd" stroke-linecap="round" stroke-linejoin="round">
        <g id="streamline-icon-loading@140x140" transform="translate(3.000000, 3.000000)" stroke="#737680" stroke-width="5.83333333">
            <path d="M59.1666667,6.66666667 C59.1666667,3.44500563 61.778339,0.833333333 65,0.833333333 C68.221661,0.833333333 70.8333333,3.44500563 70.8333333,6.66666667 L70.8333333,24.1666667 C70.8333333,27.3883277 68.221661,30 65,30 C61.778339,30 59.1666667,27.3883277 59.1666667,24.1666667 L59.1666667,6.66666667 Z" id="Path"></path>
            <path d="M20.5616667,28.5591667 C18.2823415,26.275009 18.2862591,22.5755752 20.5704167,20.2962501 C22.8545744,18.0169249 26.5540081,18.0208424 28.8333333,20.305 L41.1883333,32.6775 C42.7057467,34.1410362 43.3154131,36.3094417 42.7830108,38.3493018 C42.2506085,40.3891619 40.65899,41.9830332 38.619885,42.5183202 C36.58078,43.0536072 34.4115144,42.4470084 32.9458333,40.9316667 L20.5616667,28.5591667 Z" id="Path"></path>
            <path d="M0.833333333,65 C0.833333333,61.778339 3.44500563,59.1666667 6.66666667,59.1666667 L24.1666667,59.1666667 C27.3883277,59.1666667 30,61.778339 30,65 C30,68.221661 27.3883277,70.8333333 24.1666667,70.8333333 L6.66666667,70.8333333 C3.44500563,70.8333333 0.833333333,68.221661 0.833333333,65 Z" id="Path"></path>
            <path d="M19.0858333,110.803333 C17.9904672,109.709185 17.3749945,108.224471 17.3749945,106.67625 C17.3749945,105.128029 17.9904672,103.643315 19.0858333,102.549167 L31.4525,90.1708333 C32.9259228,88.6963684 35.0740393,88.1199684 37.0876748,88.6587576 C39.1013103,89.1975467 40.6745456,90.7696702 41.2147582,92.7829243 C41.7549708,94.7961783 41.1800896,96.9447018 39.7066667,98.4191667 L27.3341667,110.7975 C25.0578617,113.07634 21.3653593,113.078951 19.0858333,110.803333 Z" id="Path"></path>
            <path d="M59.1666667,105.833333 C59.1666667,102.611672 61.778339,100 65,100 C68.221661,100 70.8333333,102.611672 70.8333333,105.833333 L70.8333333,123.333333 C70.8333333,126.554994 68.221661,129.166667 65,129.166667 C61.778339,129.166667 59.1666667,126.554994 59.1666667,123.333333 L59.1666667,105.833333 Z" id="Path"></path>
            <path d="M90.6666667,98.6816667 C88.3857306,96.4007306 88.3857306,92.7026027 90.6666667,90.4216667 C92.9476027,88.1407306 96.6457306,88.1407306 98.9266667,90.4216667 L111.305,102.788333 C113.595601,105.061215 113.609965,108.760649 111.337083,111.05125 C109.064201,113.341851 105.364768,113.356215 103.074167,111.083333 L90.6666667,98.6816667 Z" id="Path"></path>
            <path d="M100,65 C100,61.778339 102.611672,59.1666667 105.833333,59.1666667 L123.333333,59.1666667 C126.554994,59.1666667 129.166667,61.778339 129.166667,65 C129.166667,68.221661 126.554994,70.8333333 123.333333,70.8333333 L105.833333,70.8333333 C102.611672,70.8333333 100,68.221661 100,65 Z" id="Path"></path>
            <path d="M89.605,40.1383333 C88.5078468,39.0439503 87.8912392,37.5579847 87.8912392,36.0083333 C87.8912392,34.458682 88.5078468,32.9727164 89.605,31.8783333 L101.965833,19.5 C103.44134,18.0244931 105.591938,17.4482421 107.607518,17.9883151 C109.623098,18.5283881 111.197445,20.1027352 111.737518,22.1183151 C112.277591,24.133895 111.70134,26.2844931 110.225833,27.76 L97.8533333,40.1383333 C95.5754175,42.4155613 91.8829158,42.4155613 89.605,40.1383333 Z" id="Path"></path>
        </g>
    </g>
</svg>
